<svg id="_1" data-name="1" xmlns="http://www.w3.org/2000/svg" width="285.5" height="159.1" viewBox="0 0 285.5 159.1"><title>Artboard 16</title><rect x="-30.8" y="-711.6" width="1000" height="950" style="fill:#fff"/><path d="M241.4,102.9c1.9-9,6.4-17.3,11.5-25-2.1,6.2-3.3,12.8-2.4,19.3.5,4,1.9,7.8,2.4,11.8a29.7,29.7,0,0,1-.7,10.3c-.6,2.4-1.9,7.5-4.3,8.8-5.3,3-7.2-11.1-7.3-13.9A38.9,38.9,0,0,1,241.4,102.9Z" style="fill:#fff"/><path d="M238.9,100.6c1.9-9,6.4-17.3,11.5-25-2.1,6.2-3.3,12.8-2.4,19.3.5,4,1.9,7.8,2.4,11.8a29.2,29.2,0,0,1-.7,10.2c-.6,2.5-1.9,7.6-4.3,8.9-5.3,2.9-7.1-11.1-7.3-13.9A38.9,38.9,0,0,1,238.9,100.6Z" style="fill:#f0a74d"/><path d="M246.5,129.3a4.2,4.2,0,0,1-1.5-.4c-4.2-2.3-5.2-14.5-5.2-14.6a37.3,37.3,0,0,1,.9-11.5h0c2.1-9.9,7.2-18.7,11.5-25.3l3.2-4.9-1.8,5.5c-2.4,7.2-3.1,13.4-2.4,19a50.5,50.5,0,0,0,1.2,5.6c.4,2,.9,4.1,1.2,6.3a28.8,28.8,0,0,1-.7,10.5h0c-.7,2.7-2,7.7-4.6,9.2A4.1,4.1,0,0,1,246.5,129.3Zm-4.4-26.2a37.8,37.8,0,0,0-.8,11.1c.2,3.5,1.7,11.9,4.4,13.4a1.9,1.9,0,0,0,1.9-.2c2-1.1,3.3-5.9,3.8-8.2h.1a28.2,28.2,0,0,0,.6-10,39.8,39.8,0,0,0-1.2-6c-.4-1.9-.9-3.8-1.2-5.8a39.2,39.2,0,0,1,1-14.6c-3.5,5.8-7,12.8-8.6,20.4Z" style="fill:#49194f"/><path d="M262.2,111.7c2.3-7.5,1.5-15.7,0-23.7a28.8,28.8,0,0,1-6.6,15.3c-2.4,2.7-5.5,4.9-7.9,7.6a19,19,0,0,0-4.1,7.8c-.5,2.1-1.5,6.4.3,8.5,4,4.7,12.4-4.8,13.9-6.8A26.5,26.5,0,0,0,262.2,111.7Z" style="fill:#fff"/><path d="M261.6,115.3c2.2-7.5,1.5-15.7-.1-23.7-.8,5.5-2.6,10.9-6.5,15.3-2.4,2.7-5.6,4.9-7.9,7.6a19,19,0,0,0-4.1,7.8c-.5,2.1-1.6,6.4.2,8.5,4.1,4.7,12.5-4.8,14-6.8A28.5,28.5,0,0,0,261.6,115.3Z" style="fill:#c7a6cc"/><path d="M246.6,129.2a4.3,4.3,0,0,1-3.3-1.5c-2-2.3-1-6.7-.4-9.1h0a21.3,21.3,0,0,1,4.2-8.2c1.3-1.4,2.8-2.7,4.2-4s2.6-2.3,3.8-3.6c3.3-3.7,5.4-8.6,6.3-14.9l.7-4.5.8,4.4c1.3,6.9,2.5,15.9,0,24.1h0a27.2,27.2,0,0,1-4.5,9c0,.1-6.3,8.2-11.6,8.3Zm15.5-37.1a27,27,0,0,1-5.9,11.7c-1.2,1.3-2.6,2.5-3.9,3.7a36.8,36.8,0,0,0-4,3.9,18,18,0,0,0-3.9,7.5h0c-.5,1.9-1.5,6,0,7.7a2.8,2.8,0,0,0,2.4,1c3.8-.1,9.2-6.1,10.4-7.7a27.3,27.3,0,0,0,4.3-8.5h0C263.4,105.1,263,98.1,262.1,92.1Z" style="fill:#49194f"/><path d="M251.6,120.4c7-5.9,15.7-9.7,24.4-12.7-5.4,3.6-10.5,8.1-13.7,13.8-2,3.5-3.3,7.3-5.4,10.8a27.9,27.9,0,0,1-6.8,7.7c-2,1.5-6,4.8-8.8,4.3-6-.9,1.2-13.1,2.7-15.5A43.1,43.1,0,0,1,251.6,120.4Z" style="fill:#fff"/><path d="M254.4,121.3c7.1-5.9,15.4-10.1,23.7-13.6-5.3,3.8-10.4,8.2-14,13.5-2.2,3.2-3.7,6.7-6,10a34.5,34.5,0,0,1-7,7.3c-2,1.6-6.1,4.8-8.5,4.7-5.5-.2,2.3-11.6,4-13.8A49.7,49.7,0,0,1,254.4,121.3Z" style="fill:#f0a74d"/><path d="M241.8,145.1h-.6a3.1,3.1,0,0,1-2.6-1.9c-2-4.5,4.7-14.7,4.8-14.8a41.2,41.2,0,0,1,7.7-8.5h0c7.7-6.5,17.2-10.4,24.6-12.9l5.5-1.9-4.8,3.2c-6.2,4.2-10.6,8.6-13.5,13.6-.9,1.6-1.7,3.4-2.5,5.1s-1.8,3.9-2.8,5.7a30.8,30.8,0,0,1-7,7.9h-.1C248.5,142.2,244.8,145.1,241.8,145.1Zm29.5-34.9A66.1,66.1,0,0,0,252.1,121h0a45.1,45.1,0,0,0-7.5,8.3c-2,2.9-5.9,10.4-4.7,13.3a1.8,1.8,0,0,0,1.5,1c2.4.4,6.3-2.7,8.2-4.1h.1a27.9,27.9,0,0,0,6.6-7.5,56,56,0,0,0,2.7-5.5,52,52,0,0,1,2.6-5.3A40.8,40.8,0,0,1,271.3,110.2Z" style="fill:#49194f"/><path d="M262.7,140.2c6.3-4.6,10.8-11.6,14.5-18.8-4,3.8-8.8,7-14.6,8.1-3.5.6-7.4.4-10.9,1.1a19,19,0,0,0-8,3.7c-1.7,1.4-5.2,4.1-5,6.9.3,6.2,12.8,3.8,15.2,3.1A28.3,28.3,0,0,0,262.7,140.2Z" style="fill:#fff"/><path d="M260,142.6c6.3-4.6,10.8-11.5,14.5-18.8-4.1,3.9-8.8,7-14.6,8.1-3.5.6-7.4.5-10.9,1.2a17.8,17.8,0,0,0-8,3.7c-1.7,1.3-5.2,4-5,6.8.3,6.2,12.8,3.8,15.2,3.2A28.6,28.6,0,0,0,260,142.6Z" style="fill:#f0a74d"/><path d="M246.1,146.1a11.3,11.3,0,0,1-6.3-1.5,4.3,4.3,0,0,1-1.9-3.4c-.1-3.1,3.4-5.9,5.2-7.4h.1a19.5,19.5,0,0,1,8.4-3.8,35.5,35.5,0,0,1,5.7-.6c1.7-.2,3.5-.3,5.2-.6,4.9-.9,9.6-3.5,14.2-7.9l3.2-3.1-2.1,4c-3.1,6.2-7.7,14-14.7,19.1h0a31.1,31.1,0,0,1-9,4.3A39.1,39.1,0,0,1,246.1,146.1Zm28.5-21.5a27.2,27.2,0,0,1-11.8,5.6,49.3,49.3,0,0,1-5.4.5,53.5,53.5,0,0,0-5.6.7,16.6,16.6,0,0,0-7.6,3.5h-.1c-1.6,1.2-4.8,3.8-4.7,6.1a3.3,3.3,0,0,0,1.2,2.3c3.2,2.2,11.1.7,13.1.2a25.7,25.7,0,0,0,8.5-4.1C267.7,135.6,271.6,129.9,274.6,124.6Z" style="fill:#49194f"/><rect x="0.8" y="144.6" width="284.7" height="14.52" style="fill:#49194f"/><path d="M26.3,145.9l11.5-15.8L69.5,66.5,66.7,65l3.9,2L73,62.2l-1.1-.5,2-3.9a1.1,1.1,0,0,0-.5-1.4l-3.8-2a.9.9,0,0,0-1.3.4l-2,3.9-1-.6-2.4,4.8,1,.6L32.2,127.1Z" style="fill:#fff"/><path d="M68.6,52.6l3.7,2a1.1,1.1,0,0,1,.5,1.5l-1.9,3.8-5.6-3,1.9-3.8A1,1,0,0,1,68.6,52.6Z" style="fill:#c7a6cc"/><polygon points="63.1 61.2 68.7 64.2 37 127.8 31.4 124.8 63.1 61.2" style="fill:#c7a6cc"/><path d="M38.1,131.1l-6.9-3.7,32.4-65,6.9,3.8Zm-4.9-4.3,4.3,2.3,31-62.3-4.2-2.3Z" style="fill:#49194f"/><path d="M70.9,68.1l-9-4.9L65,57.1l9,4.8Zm-7-5.5L70.2,66,72,62.5l-6.3-3.4Z" style="fill:#49194f"/><path d="M72.3,62.7l-7-3.7,2.3-4.5a1.7,1.7,0,0,1,1.1-.9,2,2,0,0,1,1.3.1l3.7,2a1.9,1.9,0,0,1,.8,2.5Zm-5-4.3,4.3,2.3,1.6-3.2a.3.3,0,0,0-.2-.4L69.3,55h-.2l-.2.2Z" style="fill:#49194f"/><polygon points="24.3 150 31.5 126.8 32.9 127.3 28.4 141.8 37.2 129.6 38.4 130.5 24.3 150" style="fill:#49194f"/><path d="M33.4,137.3H31.9a3.1,3.1,0,0,0-.4-1.8c-.1-.1-.6,0-1.5.7l-.9-1.1c.4-.4,1.8-1.6,3.1-1S33.4,136.9,33.4,137.3Z" style="fill:#49194f"/><path d="M1.7,32.5,5.5,50.8l24.1,62.9,2.8-1.2-3.8,1.6,1.8,4.7,1-.4,1.5,3.8a.9.9,0,0,0,1.2.6l3.8-1.6a1,1,0,0,0,.5-1.3L37,116.1l1-.4L36.1,111l-1,.4L11,48.5Z" style="fill:#fff"/><path d="M39.7,121.6l-3.6,1.5a1.2,1.2,0,0,1-1.4-.6l-1.4-3.7,5.6-2.3,1.4,3.7A1.2,1.2,0,0,1,39.7,121.6Z" style="fill:#c7a6cc"/><polygon points="37.2 112.2 31.7 114.5 7.5 51.6 13.1 49.3 37.2 112.2" style="fill:#f0a74d"/><path d="M29.2,114.7,4.5,50.4l6.9-2.9,24.7,64.3ZM6.4,51.2,30,112.7l4.2-1.7L10.6,49.5Z" style="fill:#49194f"/><path d="M30,119.8l-2.4-6.1,9-3.7,2.3,6.1Zm-.4-5.3,1.3,3.4,6.1-2.6-1.3-3.4Z" style="fill:#49194f"/><path d="M33.8,123.6l-.7-.2a1.5,1.5,0,0,1-.9-1L30.5,118l6.9-2.9,1.7,4.5a2,2,0,0,1-1,2.4l-3.6,1.4Zm-1.4-4.8,1.1,3.1.2.2h.2l3.6-1.5a.4.4,0,0,0,.2-.5l-1.2-3Z" style="fill:#49194f"/><polygon points="4.7 51 0 28.2 11.7 48.1 10.4 48.9 3.3 36.9 6.2 50.7 4.7 51" style="fill:#49194f"/><path d="M5.6,44.4a4.1,4.1,0,0,1-2.4-1.3l1.1-1-.5.5.5-.6a3.4,3.4,0,0,0,1.4.9c.1-.1.3-.4.3-1.6H7.5c0,.6,0,2.5-1.3,3Z" style="fill:#49194f"/><polygon points="47.4 117.7 42.9 116.9 55.4 40.4 59.9 41.1 47.4 117.7" style="fill:#fff"/><polygon points="46 120 41.5 119.2 54 42.7 58.5 43.5 46 120" style="fill:#f0a74d"/><path d="M48,118.5l-6-1,12.8-78,5.9,1Zm-4.3-2.2,3,.5L59,41.8l-3-.6Z" style="fill:#49194f"/><path d="M55.4,40.4c-1.9-7.8-1.4-11.7-.2-13.6s2.9-2.3,4.4-5a17.5,17.5,0,0,0,2.1-8.3,21.6,21.6,0,0,1,4.2,15,21.6,21.6,0,0,1-6,12.6Z" style="fill:#fff"/><path d="M53.3,39c-2.1-7.9-1.6-11.7-.3-13.7s3-2.2,4.6-4.9a15.5,15.5,0,0,0,2.1-8.3,21.1,21.1,0,0,1,4.7,15.1,21.1,21.1,0,0,1-6.3,12.6Z" style="fill:#f0a74d"/><path d="M60.4,41.7l-1.1-1.1a19.5,19.5,0,0,0,5.8-12.2,20.3,20.3,0,0,0-2.8-12.7,17.7,17.7,0,0,1-2,6.5,10.8,10.8,0,0,1-2.7,3.1,6.4,6.4,0,0,0-1.7,1.9c-1.4,2.2-1.3,6.6.2,13l-1.5.3C53,33.6,53,29,54.6,26.4a9.4,9.4,0,0,1,2-2.3A8.2,8.2,0,0,0,59,21.4a15.4,15.4,0,0,0,1.9-7.9V11.3L62.3,13a22,22,0,0,1-1.9,28.7Z" style="fill:#49194f"/><polygon points="53.7 39.3 61.6 40.8 60.2 49 52.7 47.7 53.7 39.3" style="fill:#fff"/><polygon points="54.7 39.4 62.3 41.3 61.5 48.4 54.3 46.7 54.7 39.4" style="fill:#c7a6cc"/><path d="M60.2,49.8H60l-7.4-1.3a1,1,0,0,1-.7-.9L53,39.2a.5.5,0,0,1,.3-.5.7.7,0,0,1,.6-.1l7.8,1.5c.4.1.7.4.6.8l-1.4,8.2a.5.5,0,0,1-.3.5Zm-6.7-2.7,6.1,1.1,1.1-6.8-6.3-1.2Z" style="fill:#49194f"/><path d="M59,41.1h-.3a.7.7,0,0,1-.4-1c0-.1,5.3-13.1,4.1-18.6a.8.8,0,0,1,.6-.9.7.7,0,0,1,.9.6c1.2,6-4,18.9-4.2,19.5S59.3,41.1,59,41.1Z" style="fill:#49194f"/><path d="M57.1,40.6a.8.8,0,0,1-.7-.8c0-.4-.1-9.6,3-14.7a.9.9,0,0,1,1.1-.2.8.8,0,0,1,.2,1c-2.9,4.7-2.8,13.8-2.8,13.9s-.4.7-.8.8Z" style="fill:#49194f"/><polygon points="47.3 114 43.9 114.3 38.4 56.2 41.9 55.9 47.3 114" style="fill:#fff"/><polygon points="46.8 115.9 43.4 116.3 37.9 58.2 41.3 57.8 46.8 115.9" style="fill:#c7a6cc"/><path d="M43.2,115.1,37.6,55.5l4.9-.5,5.6,59.6ZM39.3,56.9l5.3,56.6,1.9-.2L41.2,56.7Z" style="fill:#49194f"/><path d="M38.4,56.2a12.9,12.9,0,0,1-3.2-8.8,11.5,11.5,0,0,1,1.9-5.8,15.6,15.6,0,0,1,6-6.1c-3.7,5-3.8,7.7-3.1,9.2s1.7,1.6,2.5,3.2.4,5.7-.6,7.9Z" style="fill:#fff"/><path d="M40.2,55.1A13.1,13.1,0,0,1,37,46.3a13.7,13.7,0,0,1,1.8-5.9,16.3,16.3,0,0,1,6-6.1c-3.7,5.1-3.7,7.8-3.1,9.3s1.7,1.6,2.5,3.2.4,5.6-.6,7.9Z" style="fill:#c7a6cc"/><path d="M37.9,56.7a13.4,13.4,0,0,1-3.4-9.3,13.2,13.2,0,0,1,1.9-6.2,16.7,16.7,0,0,1,6.3-6.4L45.8,33l-2.1,2.9c-2.8,3.8-3.8,6.7-3,8.5a3.2,3.2,0,0,0,1,1.3,5.6,5.6,0,0,1,1.4,1.8c1.2,2.2,1,5.1-.6,8.6l-1.3-.5c1.3-3.1,1.5-5.6.6-7.4a4.1,4.1,0,0,0-1.2-1.4A9.3,9.3,0,0,1,39.3,45c-.7-1.7-.5-3.8.9-6.4a14.3,14.3,0,0,0-2.5,3.3A13.2,13.2,0,0,0,36,47.5a11.8,11.8,0,0,0,3,8.2Z" style="fill:#49194f"/><polygon points="37.1 55.8 43 55.3 43.6 61.5 37.9 62.1 37.1 55.8" style="fill:#fff"/><polygon points="37.8 55.6 43.6 55.4 44.5 60.8 38.9 61 37.8 55.6" style="fill:#f0a74d"/><path d="M37.9,62.8a.8.8,0,0,1-.8-.6l-.8-6.3a.7.7,0,0,1,.2-.6L37,55l6-.5a.8.8,0,0,1,.8.7l.5,6.2a.6.6,0,0,1-.6.8l-5.7.6Zm0-6.3.6,4.8,4.3-.5-.5-4.7Z" style="fill:#49194f"/><path d="M45.1,111.1a8,8,0,0,1-5.5,7.1,7.8,7.8,0,0,1-9.2-4.1c-2.7-22.3-5.5-44.6-8.2-66.9L28.5,46Z" style="fill:#fff"/><path d="M47.1,111.4a8.1,8.1,0,0,1-5.6,6.7,7.8,7.8,0,0,1-9.2-3.7C29.9,93.6,27.4,72.8,25,52l6.3-1.2Z" style="fill:#c7a6cc"/><path d="M37.5,119.3a8.8,8.8,0,0,1-7.8-4.9h-.1L21.4,46.6l7.7-1.5,16.8,66h0a8.9,8.9,0,0,1-6.1,7.7A6.6,6.6,0,0,1,37.5,119.3Zm-6.4-5.4a7.2,7.2,0,0,0,8.3,3.6,7.7,7.7,0,0,0,5-6.3L28,46.8l-4.9,1Z" style="fill:#49194f"/><path d="M23.2,47c-4.4-4.5-5-7.6-4.6-9.7s2.1-3.2,3.4-6.6a18,18,0,0,0,1-7.1,61,61,0,0,1,3.5,6,25.6,25.6,0,0,1,2.3,5.9,16.9,16.9,0,0,1-1.7,10.7Z" style="fill:#fff"/><path d="M21.3,46.2c-4.4-4.5-5-7.6-4.6-9.7s2.1-3.2,3.4-6.6a17.8,17.8,0,0,0,1-7.1,61,61,0,0,1,3.5,6,25.6,25.6,0,0,1,2.3,5.9,16.9,16.9,0,0,1-1.7,10.7Z" style="fill:#f0a74d"/><path d="M22.7,47.5c-3.8-3.8-5.4-7.3-4.8-10.3A7.3,7.3,0,0,1,19.4,34a14.6,14.6,0,0,0,1.9-3.6,14.8,14.8,0,0,0,.9-6.7L22,21l1.6,2.2a61.1,61.1,0,0,1,3.6,6.1,24.7,24.7,0,0,1,2.3,6,17.9,17.9,0,0,1-1.7,11.3l-1.4-.7A15.5,15.5,0,0,0,28,35.6a25.5,25.5,0,0,0-2.2-5.7,35.9,35.9,0,0,0-2.1-3.8,16.4,16.4,0,0,1-1,4.9,16.1,16.1,0,0,1-2.1,3.8,7.5,7.5,0,0,0-1.3,2.7q-.7,3.8,4.5,9Z" style="fill:#49194f"/><polygon points="21.6 46.7 28.4 45.4 29.7 52.5 23.2 53.9 21.6 46.7" style="fill:#fff"/><path d="M23.2,54.6a.7.7,0,0,1-.7-.6l-1.6-7.1a.5.5,0,0,1,.1-.6c.1-.2.2-.3.4-.3l6.8-1.3a.7.7,0,0,1,.6.1.5.5,0,0,1,.3.5l1.3,7.1a.8.8,0,0,1-.6.9l-6.4,1.3Zm-.7-7.3L23.8,53l5-1.1-1-5.6Z" style="fill:#49194f"/><path d="M25,37.6h0c-.4,0-.8-.3-.7-.7.1-4.4-2.4-6.2-2.5-6.3a.7.7,0,1,1,.8-1.2c.2.1,3.3,2.2,3.2,7.5A.8.8,0,0,1,25,37.6Z" style="fill:#49194f"/><path d="M24.4,45.5l-.5-.2c-.1-.1-3.6-2.7-3.6-9.1a.8.8,0,0,1,.7-.8.9.9,0,0,1,.8.8c0,5.6,2.9,7.8,3,7.9a.8.8,0,0,1,.2,1.1A.9.9,0,0,1,24.4,45.5Z" style="fill:#49194f"/><polygon points="59.8 146.4 23.1 146.4 17 87 65.9 87 59.8 146.4" style="fill:#fff"/><polygon points="57.5 149.1 20.8 149.1 14.7 89.8 63.6 89.8 57.5 149.1" style="fill:#f0a74d"/><path d="M59.8,147.1H23.1c-.4,0-.7-.2-.7-.6L16.3,87.1a.7.7,0,0,1,.2-.6l.5-.2H65.9l.6.2a1.4,1.4,0,0,1,.2.6l-6.1,59.4C60.6,146.9,60.2,147.1,59.8,147.1Zm-36-1.5H59.2l5.9-57.8H17.9Z" style="fill:#49194f"/><rect x="14.7" y="85.1" width="53.2" height="4.68" style="fill:#fff"/><rect x="13.5" y="83.9" width="52.4" height="4.68" style="fill:#c7a6cc"/><path d="M67.9,90.5H14.7a.7.7,0,0,1-.7-.7V85.1a.8.8,0,0,1,.7-.8H67.9a.8.8,0,0,1,.8.8v4.7A.7.7,0,0,1,67.9,90.5ZM15.5,89H67.2V85.8H15.5Z" style="fill:#49194f"/><path d="M65.1,96.2H37.8a.9.9,0,0,1-.8-.8.8.8,0,0,1,.8-.7H65.1a.7.7,0,0,1,.7.7A.8.8,0,0,1,65.1,96.2Z" style="fill:#49194f"/><path d="M64.5,101.5H47.1a.8.8,0,0,1-.8-.8.7.7,0,0,1,.8-.7H64.5a.8.8,0,0,1,.8.7A.9.9,0,0,1,64.5,101.5Z" style="fill:#49194f"/><path d="M50,114.2H24.4a.8.8,0,0,1-.8-.7.9.9,0,0,1,.8-.8H50a.8.8,0,0,1,.7.8A.7.7,0,0,1,50,114.2Z" style="fill:#49194f"/><path d="M38.5,122.5H21a.7.7,0,0,1-.7-.8.7.7,0,0,1,.7-.7H38.5a.7.7,0,0,1,.7.7A.7.7,0,0,1,38.5,122.5Z" style="fill:#49194f"/><path d="M61.6,130.3H46.3a.7.7,0,0,1-.7-.7.8.8,0,0,1,.7-.8H61.6a.8.8,0,0,1,.7.8A.7.7,0,0,1,61.6,130.3Z" style="fill:#49194f"/><path d="M32.1,142a.8.8,0,0,1-.8-.7l-3-37.2a.8.8,0,0,1,.7-.8.6.6,0,0,1,.8.6l3,37.3a.8.8,0,0,1-.7.8Z" style="fill:#49194f"/><path d="M53.9,135.4h0a.8.8,0,0,1-.7-.8L56.4,93a.7.7,0,0,1,.8-.7.8.8,0,0,1,.7.8l-3.2,41.6A.8.8,0,0,1,53.9,135.4Z" style="fill:#49194f"/><polygon points="212.5 145.7 106.6 145.7 129.5 2.4 237.8 0.8 212.5 145.7" style="fill:#fff"/><polygon points="209.5 148 103.6 148 126.4 4.6 234.7 3 209.5 148" style="fill:#f0a74d"/><path d="M213.1,146.4H105.7L128.9,1.6h.6L238.7,0Zm-105.6-1.5H211.9l25-143.4L130.1,3.1Z" style="fill:#49194f"/><polygon points="200.6 128 116 128.2 134.4 12.8 220.5 11.7 200.6 128" style="fill:#fff"/><path d="M118.3,132.6,137.1,15.8h.6l87.7-1.1v.8L205,132.5ZM138.4,17.3,120,131.1h83.8L223.7,16.2Z" style="fill:#49194f"/><polygon points="152.4 103.5 148.2 75.3 183.1 21.4 175.2 68.8 194 68.9 180.8 89 197.6 105.2 152.4 103.5" style="fill:#49194f"/><polygon points="143.1 106.4 165.2 80.3 181.6 118 141.1 118.1 143.1 106.4" style="fill:#f0a74d"/><path d="M176.1,45.8c-1.1,6.5-7.6,11.8-14.5,11.8S150,52.5,151,46s7.5-11.8,14.5-11.9S177.2,39.3,176.1,45.8Z" style="fill:#f0a74d"/><path d="M209,58.9h26c-4.8,7-9.7,17-6.9,27.1,3.8,13.5,18.3,16.3,21.8,28,2.1,7.3.1,18.6-18.6,36.1l-18.1.5c-20-17.6-21.9-29-20.1-36.1,2.7-11.1,15.3-14.3,19.6-28C216.1,75.8,212.3,65.6,209,58.9Z" style="fill:#fff"/><path d="M212.1,61.1h26c-4.8,7-9.7,17-6.9,27.1,3.8,13.5,18.3,16.3,21.8,28,2.1,7.3.1,18.6-18.6,36.1l-18.1.5c-20-17.6-22-29-20.2-36.1,2.8-11.1,15.4-14.3,19.7-28C219.2,78,215.4,67.7,212.1,61.1Z" style="fill:#c7a6cc"/><path d="M213,151.3h-.3c-16.1-14.2-23-26.6-20.4-36.9,1.4-5.5,5.1-9.1,9.1-12.9s8.4-8.2,10.6-15.1,1.3-17.2-3.7-27l-.5-1.1h28.6l-.8,1.2c-6.7,9.7-9,18.6-6.8,26.4s6.7,10.9,11.4,14.8,8.7,7.4,10.4,13.2c3,10.1-3.4,22.5-18.8,36.9l-.2.2Zm-2.8-91.6c4.7,9.8,5.8,18.9,3.2,27s-6.9,11.8-11,15.7-7.3,7.1-8.6,12.3c-2.4,9.6,4.2,21.4,19.7,35.1l17.5-.4c14.8-13.9,20.9-25.7,18.2-35.2-1.6-5.4-5.7-8.8-10-12.5s-9.8-8.2-11.8-15.5-.1-16.8,6.2-26.5Z" style="fill:#49194f"/><path d="M138.1,46.6c.2-.2,2.1-1.2,2.3-1.7s.9-2.3,1.4-2.6,3.8-1.9,4.1-1.6-.3,1.2-.6,1.4l-1.2.8s6.5-3,6.7-2.9.7.6.5.8-4.6,2-4.6,2.2,5.2-1.8,5.4-1.6.2.7,0,.9S147,44,147,44.2s4.9-1.5,5.1-1.3a.8.8,0,0,1-.1,1c-.4.1-4.9,1.3-4.9,1.6s3.6-.8,3.9-.6.3.5,0,.7-4.1,1.2-4.3,1.3a8.5,8.5,0,0,1-2.9.8c-.6,0-1.6-.2-1.9,0L140,49.4Z" style="fill:#fff"/><path d="M139.8,50.5l-2.7-4.1.6-.4c0-.1.1-.1.2-.2a9.9,9.9,0,0,0,1.9-1.3,3.9,3.9,0,0,1,.2-.6c.5-1.1.9-2,1.5-2.2h.1c3.9-2,4.4-1.9,4.8-1.5a1.2,1.2,0,0,1,.4.8c3.8-1.7,4-1.7,4.2-1.6s.9.7,1.1,1.1v.2l.5.2a1.5,1.5,0,0,1,.4,1,1.9,1.9,0,0,1-.2.8,3,3,0,0,1,.2,1,1.3,1.3,0,0,1-.7.9l-.5.2a1.3,1.3,0,0,1,.1.6,1.1,1.1,0,0,1-.5.9c-.2.2-.6.3-2.6.9l-1.7.5h0a14.8,14.8,0,0,1-3.3.9h-1.5l-1.8,1.5Zm-.6-3.7.9,1.4,1.4-1.1c.4-.3,1-.3,2-.2h.4a10.9,10.9,0,0,0,2.4-.7l.4-.2h-.1l-.2-.3v-.3a.8.8,0,0,1,.2-.7h-.2v-.3a.6.6,0,0,1,.1-.7h-.1l-.3-.2v-.4c-.1,0-.1-.1-.1-.2l-1.4.7-.8-1.3.4-.2-1.8.8h-.1a10.2,10.2,0,0,0-.8,1.5l-.3.8C140.9,45.7,140.4,46.1,139.2,46.8Z" style="fill:#49194f"/><path d="M107.5,46.7l17.8,8.1,12.6-9.9,3.1,4.4s-13,12.4-14,12.5-19.5-5.5-19.5-5.5Z" style="fill:#fff"/><path d="M106.5,46.1l18.8,6.8L138.6,44l2.4,3.4s-13,12.4-14,12.5-19.5-5.5-19.5-5.5C107.2,51.6,106.8,48.8,106.5,46.1Z" style="fill:#f0a74d"/><path d="M127,62.5c-1.2,0-14.1-3.8-19.7-5.5a.8.8,0,0,1-.5-.7V46.7a.9.9,0,0,1,.3-.7.9.9,0,0,1,.7,0l17.4,7.9,12.2-9.6a.7.7,0,0,1,.6-.1.5.5,0,0,1,.5.3l3.1,4.4a.6.6,0,0,1-.1.9C128.3,62.4,127.3,62.5,127,62.5Zm-.2-1.4Zm-18.5-5.4c6.7,2,17.1,5.1,18.5,5.3s7.5-6.4,13.2-11.8L137.8,46l-12,9.4a.8.8,0,0,1-.8.1l-16.7-7.7Z" style="fill:#49194f"/><path d="M98.7,34.9,102,46.1a13.7,13.7,0,0,1-4.4,2.6c-2,.4-4.3-1.9-4.3-1.9V34.3Z" style="fill:#fff"/><path d="M97.1,49.5c-2.1,0-4.1-1.9-4.3-2.1l-.2-.3V33.5l6.7.7,3.5,12.1-.3.3a12.8,12.8,0,0,1-4.7,2.8Zm-3-3c.7.6,2.2,1.7,3.4,1.5a12.3,12.3,0,0,0,3.6-2.2L98.2,35.6l-4.1-.5Z" style="fill:#49194f"/><path d="M115,113.5a4.2,4.2,0,0,1,.8,3.3c-.3,2-5.8,30.4-5.8,30.4s-1.1,1.5-2,1.3-1.9-2.7-1.9-2.7c-.2-18.5.5-25.1,1.1-27.5.1-.2,1.4-4.8,1.4-4.8H115Z" style="fill:#fff"/><path d="M97.7,113.5H89.2a38.1,38.1,0,0,0-1.2,6.1c-.1,2.5,1.1,26.2,1.1,26.2s.6,2.3,1.6,2.7,2.2-3.3,2.2-3.3Z" style="fill:#fff"/><path d="M108.2,149.3h-.3c-1.2-.2-2.2-2.3-2.5-3.2v-.2h0c-.1-15.3.3-24.4,1.2-27.7l1.6-5.4h7.3l.2.3a5.2,5.2,0,0,1,.9,3.9c-.3,2-5.5,29.2-5.8,30.4v.2h-.1C110.4,147.9,109.4,149.3,108.2,149.3Zm-1.4-3.7a5.8,5.8,0,0,0,1.4,2.2,2.5,2.5,0,0,0,1.1-.9c.5-2.4,5.4-28.3,5.7-30.3a3.3,3.3,0,0,0-.4-2.4h-5.4l-1.2,4.3C107.1,121.6,106.7,130.8,106.8,145.6Z" style="fill:#49194f"/><path d="M90.9,149.3h-.4c-1.4-.5-2-2.8-2.1-3.2v-.2c0-.9-1.2-23.7-1-26.3a32.3,32.3,0,0,1,1.2-6.2l.2-.6h9.9l-5,32.7c-.3,1-1,3.3-2.1,3.8Zm-1.1-3.6a6,6,0,0,0,1.1,2.1,9.6,9.6,0,0,0,1.2-2.8l4.8-30.8H89.8a29.1,29.1,0,0,0-1,5.4C88.6,122,89.7,144.1,89.8,145.7Z" style="fill:#49194f"/><path d="M105,148.9c.1.7.2,1.3.3,1.7a3.5,3.5,0,0,0,.2.9l12.6.3.6-.6c.3-.5.7-1.3.2-1.8s-8.6-3.9-8.6-3.9-1.1,1.5-2.1,1.4-2.1-2.1-2.1-2.1A6.2,6.2,0,0,0,105,148.9Z" style="fill:#fff"/><path d="M87.9,149.5c.1.6.2,1,.3,1.4h0c.1.4.1.6.2.7l12.9.4.3-.4.2-.3a1.2,1.2,0,0,0,0-1.5c-.8-.8-9-4.5-9-4.5s-1,1.7-2,1.5-1.8-1.6-1.8-1.6A6.2,6.2,0,0,0,87.9,149.5Z" style="fill:#fff"/><path d="M105.4,150.5a6.1,6.1,0,0,1,.3,1.6,4.2,4.2,0,0,1,.2,1l12.6.3.6-.6c.4-.6.7-1.3.2-1.8s-8.5-4-8.5-4-1.2,1.6-2.2,1.5-2.1-2.2-2.1-2.2A6.3,6.3,0,0,0,105.4,150.5Z" style="fill:#c7a6cc"/><path d="M87.5,150.6a10.6,10.6,0,0,0,.3,1.4h0v.2c.1.3.1.5.2.6l12.9.4.3-.4.2-.3a1.2,1.2,0,0,0,0-1.5c-.9-.8-9-4.5-9-4.5s-1,1.7-2,1.6-1.8-1.7-1.8-1.7A6.2,6.2,0,0,0,87.5,150.6Z" style="fill:#c7a6cc"/><path d="M118.4,152.6l-13.5-.4v-.5a6.5,6.5,0,0,1-.2-1l-.4-1.7a7,7,0,0,1,1.3-4.7l.6-.9.6,1a4.9,4.9,0,0,0,1.6,1.8c.3,0,1-.6,1.4-1.2l.4-.4.5.2c1.9.7,7.9,3.2,8.8,4.1s.9,1.2-.1,2.7l-.7.8Zm-12.3-1.9,11.7.4c.1-.1.1-.2.2-.4s.4-.6.3-.7-4.2-2.2-7.7-3.6c-.6.5-1.5,1.4-2.5,1.3a3.3,3.3,0,0,1-2-1.5,4.5,4.5,0,0,0-.4,2.6h0a15.7,15.7,0,0,0,.3,1.6A.4.4,0,0,1,106.1,150.7Z" style="fill:#49194f"/><path d="M101.6,152.9l-13.8-.3-.2-.7c0-.2-.1-.4-.1-.6v-.2q-.1-.6-.3-1.5h0a7.1,7.1,0,0,1,1.2-4.7l.7-1,.6,1.1c.2.5.8,1.3,1.2,1.3s.9-.6,1.2-1.2l.4-.5.6.2c1.9.9,8.4,3.8,9.2,4.7a1.8,1.8,0,0,1,.1,2.4l-.2.3-.4.5ZM89,151.1l11.9.3h.1v-.2c.1-.1.3-.4.2-.5s-4.5-2.4-8.3-4.1a2.2,2.2,0,0,1-3.9.3,4.4,4.4,0,0,0-.4,2.6h0c.1.5.1,1,.2,1.4H89Z" style="fill:#49194f"/><path d="M112.5,100l4,14.6a55,55,0,0,1-28,.7L86.8,81.6h21Z" style="fill:#fff"/><path d="M110.9,100l4,14.6a55,55,0,0,1-28,.7L85.2,81.6h21.1Z" style="fill:#c7a6cc"/><path d="M101.2,117.5a62.5,62.5,0,0,1-12.9-1.4h-.5L86,80.9h22.4l4.8,18.9,4.2,15.2-.6.3A52.8,52.8,0,0,1,101.2,117.5Zm-12-2.8a56.3,56.3,0,0,0,26.4-.6l-3.8-13.9-4.5-17.8H87.6Z" style="fill:#49194f"/><path d="M93.3,44.2S88.7,45.7,87,47c-4.8,3.5,4.5,10.9,3.1,21.8-.7,6-3.7,8-4.6,17.6a34.8,34.8,0,0,0-.2,6.2,63.8,63.8,0,0,0,16.6,1A55.4,55.4,0,0,0,112,92.1c-.5-2.8-1.2-7.2-2.2-12.6-1.6-9.4-1.6-9.5-1.7-10.7-.2-7.7,2.2-10.6.8-16.6-.2-.9-1.4-5.5-1.4-5.5l-6.1-2.5a4.2,4.2,0,0,1-3.7,3.3A4.4,4.4,0,0,1,93.3,44.2Z" style="fill:#fff"/><path d="M91.3,43.1l-5.9,2.8a5,5,0,0,0-1,1.7c-3,6.9,5.3,12,4.2,20.9-.8,6.1-3.7,8.1-4.6,17.8a53.6,53.6,0,0,0-.3,6.3,65,65,0,0,0,16.7,1,54.2,54.2,0,0,0,10-1.5c-.4-2.8-1.2-7.3-2.1-12.7-1.6-9.6-1.7-9.7-1.7-10.9-.2-7.8,2.2-10.8.8-16.8-.2-1-1.4-5.6-1.4-5.6l-4.7-1.4a6,6,0,0,1-5.2,2.2A5.7,5.7,0,0,1,91.3,43.1Z" style="fill:#f0a74d"/><path d="M97.6,94.5a66.9,66.9,0,0,1-12.5-1.2h-.6v-.6c0-2.1,0-4.2.2-6.3A37.6,37.6,0,0,1,87.6,75a23.2,23.2,0,0,0,1.8-6.3c.6-5.2-1.3-9.6-2.8-13.2s-3-7-.1-9.1,6.4-2.8,6.6-2.9l.7-.3.2.8a3.5,3.5,0,0,0,3.6,2.7,3.4,3.4,0,0,0,3.1-2.7l.2-.8,7.3,2.9v.4c0,.2,1.1,4.6,1.4,5.6.8,3.4.3,5.8-.1,8.7a35.4,35.4,0,0,0-.7,8c0,.9,0,1.1.9,6.1l.8,4.5c.9,5.4,1.6,9.8,2.1,12.6v.7l-.7.2A84.8,84.8,0,0,1,102,94.4ZM86,91.9a65.1,65.1,0,0,0,15.9,1,70.3,70.3,0,0,0,9.2-1.3c-.5-2.8-1.2-7-2-11.9l-.8-4.6c-.9-5.1-.9-5.3-.9-6.2a38.7,38.7,0,0,1,.7-8.4,18.4,18.4,0,0,0,.1-8.1l-1.3-5.2-5-2a4.9,4.9,0,0,1-9.1,0,23.5,23.5,0,0,0-5.4,2.4c-1.8,1.3-1.1,3.4.6,7.3s3.6,8.4,2.9,14A27.2,27.2,0,0,1,89,75.5a36.5,36.5,0,0,0-2.8,11C86.1,88.3,86,90.1,86,91.9Z" style="fill:#49194f"/><path d="M103.5,25.2a6.5,6.5,0,0,0-4.8-2.9c-4-.6-7.5,2-8.1,2.5A7.5,7.5,0,0,0,88,27.5c-1.7,2.7-1.7,6.4.4,8.4a6.5,6.5,0,0,0,4.4,1.4,12.3,12.3,0,0,0,5.1-1.1.1.1,0,0,1,.1-.1,25.4,25.4,0,0,0,3.2-2.1l.7-.5c.2-.2.2-.4.3-.4a3.2,3.2,0,0,1,1.4-1.1C104.6,31.3,105.1,27.7,103.5,25.2Z" style="fill:#49194f"/><path d="M92.7,36.2a6.2,6.2,0,1,0-.1-8.8A6.3,6.3,0,0,0,92.7,36.2Z" style="fill:#fff"/><path d="M97.1,38.8a6.7,6.7,0,0,1-4.9-2.1,6.5,6.5,0,0,1-2.1-4.9,7,7,0,0,1,11.9-5,7.5,7.5,0,0,1,2.1,4.9,7.1,7.1,0,0,1-2.1,5A6.7,6.7,0,0,1,97.1,38.8Zm0-12.5a5.5,5.5,0,0,0-5.5,5.5,5.5,5.5,0,0,0,9.4,3.8,5.5,5.5,0,0,0,1.6-3.8,5.6,5.6,0,0,0-1.7-3.9A5.1,5.1,0,0,0,97.1,26.3Z" style="fill:#49194f"/><path d="M95,24.1a3.4,3.4,0,0,0-.3-4.6c-1.6-1.5-4.7-.6-6.2.8s-2.2,2.5-1.5,3.8,4.2,2.2,6.3,1.3A4.4,4.4,0,0,0,95,24.1Z" style="fill:#49194f"/><path d="M96.6,28.2a6.1,6.1,0,0,0-1.2-1.6,5.2,5.2,0,0,0,.4,2.1,11.9,11.9,0,0,0-1.5.9,18,18,0,0,0-2,1.8c-1.3.2-2.5,0-3-.7s.1-2.1.8-3.2A3.1,3.1,0,0,1,91.4,26c.4-.3.7-.3,2.5-.7l2.6-.5a8.2,8.2,0,0,1,2.7.2,5.3,5.3,0,0,1,2.4,1.1,3,3,0,0,1,.8,1.6v.4l-1.1-.2H97.9Z" style="fill:#49194f"/><path d="M95.2,88.6c-3.4,1.2-6.8.5-8.6-1.9s-1.7-7.1,1.1-10.5l62.1-38.1,3.2,5.3Z" style="fill:#fff"/><path d="M95.5,90.6c-3.2,1-6.4.2-8.2-2.2s-1.9-7,.7-10.2l58-35.3,3.2,5.3Z" style="fill:#c7a6cc"/><path d="M92,89.9a7.4,7.4,0,0,1-6-2.7c-2.4-3.1-1.9-7.9,1.1-11.4l.2-.2,62.8-38.5,3.9,6.5-.5.4L95.6,89.3h-.1A11.2,11.2,0,0,1,92,89.9ZM88.2,76.8c-2.5,3-2.9,7-1,9.5s4.6,2.7,7.6,1.6L152,43.2l-2.4-4Z" style="fill:#49194f"/><path d="M150.3,39c3-6.3,5.8-8.2,7.9-8.8s3.8.6,7.5.2a21.6,21.6,0,0,0,7.2-2.4,65,65,0,0,1-4.7,6,32.8,32.8,0,0,1-5,4.9,18.3,18.3,0,0,1-10.9,3.3Z" style="fill:#fff"/><path d="M150.5,36.8c3-6.2,5.8-8.1,7.9-8.7s3.8.5,7.5.1a18.5,18.5,0,0,0,7.1-2.3,48.8,48.8,0,0,1-4.7,6,31.5,31.5,0,0,1-4.9,4.8,18.4,18.4,0,0,1-10.9,3.4Z" style="fill:#fff"/><path d="M152.3,43V41.5a18.8,18.8,0,0,0,10.5-3.2,36.2,36.2,0,0,0,4.8-4.8,26,26,0,0,0,3-3.6,21.1,21.1,0,0,1-4.8,1.2,20,20,0,0,1-4.4-.1,6.1,6.1,0,0,0-3,0c-2.6.6-5.1,3.4-7.4,8.3l-1.4-.7c2.6-5.3,5.4-8.3,8.4-9.1a8.7,8.7,0,0,1,3.6,0,16.8,16.8,0,0,0,4,.1,18.5,18.5,0,0,0,6.9-2.2l2.7-1.5-1.7,2.5a40.3,40.3,0,0,1-4.8,6.1,30,30,0,0,1-5.1,5A19.7,19.7,0,0,1,152.3,43Z" style="fill:#49194f"/><polygon points="150.1 37.3 153.5 43 147 47.5 143.7 42.1 150.1 37.3" style="fill:#fff"/><path d="M147,48.2h-.1a.9.9,0,0,1-.5-.3l-3.3-5.4c-.2-.4-.2-.8.2-1l6.4-4.8a.6.6,0,0,1,.6-.1c.2,0,.3.1.5.3l3.3,5.8a.7.7,0,0,1-.2.9l-6.5,4.5Zm-2.3-5.9,2.5,4.1,5.3-3.6-2.6-4.4Z" style="fill:#49194f"/><path d="M160.7,36.7a.7.7,0,0,1-.7-.4.7.7,0,0,1,.4-1c4.4-1.9,5.3-5.1,5.3-5.2a.8.8,0,0,1,.9-.6,1,1,0,0,1,.6,1,10.7,10.7,0,0,1-6.2,6.2Z" style="fill:#49194f"/><path d="M152.9,39.7h-.2a.7.7,0,0,1-.5-.9c.1-.2,1.5-4.6,7.6-7.5a.8.8,0,0,1,1,.3.7.7,0,0,1-.4,1c-5.5,2.6-6.8,6.6-6.8,6.6A.8.8,0,0,1,152.9,39.7Z" style="fill:#49194f"/><path d="M89.7,33.4A1.9,1.9,0,0,0,91.9,35a2,2,0,0,0-.7-3.9A2,2,0,0,0,89.7,33.4Z" style="fill:#fff"/><path d="M86.1,73.3s2.2,1.4,2.5,2.3a41.4,41.4,0,0,1,.2,6c0,.7-.4,2-.8,2.2s-.7.4-.8,0,.6-3,.3-3.3a1,1,0,0,0-1.4.5c-.2.5-1.1,2.9-.9,3.9s.6,2.3.3,2.7-.8.4-.9.2-1.1-4.3-.9-4.7.7-3.2.8-3.5l1.3-2.5-2.1-1.3Z" style="fill:#fff"/><path d="M84.8,88.6h-.2a1.3,1.3,0,0,1-.7-.5c0-.1-1.2-4.5-.9-5.3a9.6,9.6,0,0,0,.3-1.5,6.7,6.7,0,0,1,.6-2.1l.9-1.8-2.3-1.5L86,72.4l.5.3c.6.4,2.5,1.6,2.8,2.7a34.8,34.8,0,0,1,.3,6.3s-.3,2.4-1.3,2.8h-.2a1.4,1.4,0,0,1-1.1.1,1.1,1.1,0,0,1-.6-.7,6.4,6.4,0,0,1,.2-1.6c.1-.3.1-.7.2-1.1s-.1.2-.2.4a11.8,11.8,0,0,0-.7,3,2.9,2.9,0,0,0,.2.9c.2,1.1.4,2-.1,2.5A1.7,1.7,0,0,1,84.8,88.6Zm-.4-5.4a4.3,4.3,0,0,1,.1.5,11.7,11.7,0,0,1,.7-2.5l.2-.5a1.9,1.9,0,0,1,1.2-1.1,1.6,1.6,0,0,1,1.4.3v.2a41,41,0,0,0-.2-4.3,6.9,6.9,0,0,0-1.7-1.5l-1.3,1.3,1.8,1.2-.3.6c-.1.4-1,2.2-1.2,2.6a7.1,7.1,0,0,0-.4,1.6A11.2,11.2,0,0,1,84.4,83.2Zm0,.2Zm0-.2Z" style="fill:#49194f"/><path d="M87,47S71.9,59.9,70.7,61.5a3.4,3.4,0,0,0,0,4.3L84.1,77.6l2.9-4-9.6-10,12.2-8.1Z" style="fill:#fff"/><path d="M85.4,45.9S70.3,58.8,69.1,60.4a3.6,3.6,0,0,0,0,4.4L82.5,76.5l2.9-4-9.7-10L88,54.4Z" style="fill:#f0a74d"/><path d="M84.1,78.3h-.5L70.2,66.4c-1.2-1-1.5-3.5-.1-5.4S84.9,47.7,86.5,46.4a.6.6,0,0,1,.7-.1c.2,0,.4.2.5.5l2.6,8.4a.8.8,0,0,1-.3.9L78.5,63.7l9,9.4a.6.6,0,0,1,.1.9l-2.9,4a.5.5,0,0,1-.5.3Zm2.5-30c-6,5.2-14.5,12.6-15.3,13.6a3,3,0,0,0-.1,3.4c.8.6,10.2,8.9,12.7,11.2L86,73.6l-9.2-9.5a1.4,1.4,0,0,1-.2-.6.9.9,0,0,1,.3-.5l11.8-7.9Z" style="fill:#49194f"/><path d="M98.9,29.7a.5.5,0,0,0,.7.5c.3,0,.5-.3.5-.7a.8.8,0,0,0-.7-.5C99,29.1,98.8,29.4,98.9,29.7Z" style="fill:#49194f"/><path d="M94.4,30.8a.5.5,0,0,0,.7.5.5.5,0,0,0,.5-.7.8.8,0,0,0-.7-.5C94.6,30.2,94.3,30.5,94.4,30.8Z" style="fill:#49194f"/><path d="M98,33.4l-.3-.2c-.1-.2-.1-.4.1-.5s.6-.3.7-.5h.1a5.2,5.2,0,0,0-1-1.1.4.4,0,0,1,.6-.6,14.7,14.7,0,0,1,1,1.3h.1a.8.8,0,0,1-.2.8,2.4,2.4,0,0,1-.9.6Zm.6-1.2Z" style="fill:#49194f"/><path d="M95.6,34.1a.3.3,0,0,1,.4-.2l.6.2h.6c.2,0,.4.2.3.4s-.2.3-.4.3a3.1,3.1,0,0,1-1.3-.3A.4.4,0,0,1,95.6,34.1Z" style="fill:#49194f"/><g style="opacity:0.49"><path d="M96.2,32.2c-.1-.3-1-.6-1.7-.2s-.7.5-.7.7.8.4,1.3.3S96.2,32.5,96.2,32.2Z" style="fill:#c7a6cc"/></g><g style="opacity:0.49"><path d="M101.9,30.7c-.1-.4-1-.7-1.7-.3a1.1,1.1,0,0,0-.7.8c.1.3.8.3,1.3.2S101.9,31,101.9,30.7Z" style="fill:#c7a6cc"/></g></svg>