<svg id="_1" data-name="1" xmlns="http://www.w3.org/2000/svg" width="285" height="174" viewBox="0 0 285 174"><title>Artboard 12</title><rect x="-363.8" y="-472.2" width="1000" height="950" style="fill:#fff"/><rect y="159.5" width="284.7" height="14.52" style="fill:#49194f"/><path d="M54.4,172a1,1,0,0,1-.7-.4A121.1,121.1,0,0,1,48,160.2c-.9-2.2-2-4.6-3.4-7.6-2.4-5-4.8-9.9-7.3-14.8a.7.7,0,0,1,.3-1,.7.7,0,0,1,1,.4c2.5,4.8,5,9.8,7.3,14.8,1.5,3,2.5,5.4,3.5,7.6A97.4,97.4,0,0,0,55,170.8a.9.9,0,0,1-.2,1.1Z" style="fill:#49194f"/><path d="M20.6,126.9c5.1,9,13.6,13.8,17.8,11.4s4.7-12.7-.4-21.7-20.6-12.8-20.6-12.8S15.5,117.9,20.6,126.9Z" style="fill:#fff"/><path d="M27.4,162.9c9,2.6,17.5.3,18.7-3.9s-4.9-11.2-13.9-13.8S10.8,150,10.8,150,18.4,160.3,27.4,162.9Z" style="fill:#fff"/><path d="M62.5,147.4c-3.1,8.1-9.4,13.2-13.2,11.8s-5.7-9.8-2.7-18,15.3-13.4,15.3-13.4S65.5,139.2,62.5,147.4Z" style="fill:#fff"/><path d="M19.4,129.8c5.1,8.8,13.8,13.2,18.3,10.7s5.6-13,.6-21.8-21.2-12-21.2-12S14.4,121,19.4,129.8Z" style="fill:#f0a74d"/><path d="M26.4,164.7c9,2.6,17.5.3,18.7-3.9S40.2,149.6,31.2,147s-21.4,4.8-21.4,4.8S17.4,162.1,26.4,164.7Z" style="fill:#f0a74d"/><path d="M35.9,139.6a13,13,0,0,1-6.5-2.1,29.3,29.3,0,0,1-9.5-10.2c-5.2-9.1-3.3-23-3.2-23.6a.5.5,0,0,1,.3-.5.7.7,0,0,1,.6-.1c.7.1,15.8,4,21.1,13.1a27.9,27.9,0,0,1,3.7,13.7c0,4.4-1.3,7.7-3.6,9A5.9,5.9,0,0,1,35.9,139.6ZM18.1,104.8c-.3,3.1-1.1,14.3,3.1,21.7h0a27.3,27.3,0,0,0,9,9.7c3.1,1.9,6,2.4,7.8,1.4s2.9-3.9,2.9-7.7A25.6,25.6,0,0,0,37.4,117C33.1,109.5,21.3,105.7,18.1,104.8Z" style="fill:#49194f"/><path d="M35,164.8a27.4,27.4,0,0,1-7.8-1.2c-9.1-2.6-16.7-12.8-17-13.2a.7.7,0,0,1-.2-.6,1,1,0,0,1,.4-.5c.5-.3,12.8-7.4,22-4.8A26.2,26.2,0,0,1,43.5,151c2.8,2.9,4,5.9,3.3,8.2S41,164.8,35,164.8ZM11.9,150.2c1.9,2.3,8.4,9.9,15.7,12s16.8.2,17.8-3.4c.5-1.8-.6-4.3-3-6.8A23.4,23.4,0,0,0,32,146C24.6,143.9,14.7,148.7,11.9,150.2Z" style="fill:#49194f"/><path d="M50.7,160.2a4.7,4.7,0,0,1-1.7-.3c-4.6-1.7-6.1-10.9-3.1-18.9s15.2-13.6,15.7-13.9h.6a.7.7,0,0,1,.4.5c.2.5,3.6,11.8.6,20h0C60.5,154.9,55,160.2,50.7,160.2Zm10.7-31.3c-2.7,1.3-11.6,6-14.1,12.6s-1.1,15.8,2.2,17,9.3-3.5,12.2-11.4h0C64.2,140.6,62.1,131.6,61.4,128.9Z" style="fill:#49194f"/><path d="M38.4,139a.9.9,0,0,1-.7-.3L16.8,104.2a.8.8,0,0,1,.2-1,.8.8,0,0,1,1.1.2L39,137.9a.8.8,0,0,1-.2,1Z" style="fill:#49194f"/><path d="M34.9,133.2h-.3l-8.8-2.7a.7.7,0,0,1-.5-.9.7.7,0,0,1,.9-.5l8.9,2.7a.7.7,0,0,1,.5.9A.8.8,0,0,1,34.9,133.2Z" style="fill:#49194f"/><path d="M30.4,125.8h-.2a.8.8,0,0,1-.6-.9L32,114.3a.7.7,0,0,1,.9-.6.8.8,0,0,1,.6.9l-2.4,10.7A.8.8,0,0,1,30.4,125.8Z" style="fill:#49194f"/><path d="M25.3,117.5H25l-6.1-3a.9.9,0,0,1-.3-1.1.8.8,0,0,1,1-.3l6,3.1c.4.1.5.6.4,1A1,1,0,0,1,25.3,117.5Z" style="fill:#49194f"/><path d="M46.1,157.6H46l-35.4-6.9a.8.8,0,0,1,.3-1.5l35.4,6.9a.8.8,0,0,1,.6.9A.9.9,0,0,1,46.1,157.6Z" style="fill:#49194f"/><path d="M47.9,159.1h-.3c-.4-.1-.5-.6-.4-1l14-30.5a.8.8,0,0,1,1-.4.8.8,0,0,1,.4,1l-14,30.6A.8.8,0,0,1,47.9,159.1Z" style="fill:#49194f"/><path d="M29.7,164.2a.6.6,0,0,1-.6-.3.7.7,0,0,1,.2-1.1L41,155.4a.6.6,0,0,1,1,.2.8.8,0,0,1-.2,1l-11.7,7.5Z" style="fill:#49194f"/><path d="M35.6,155.5a.6.6,0,0,1-.6-.4l-3.9-8.3c-.1-.4,0-.9.4-1a.8.8,0,0,1,1,.3l3.8,8.4a.8.8,0,0,1-.3,1Z" style="fill:#49194f"/><path d="M20.8,157.1a.8.8,0,0,1-.7-.5.6.6,0,0,1,.4-.9l6.4-2.8a1,1,0,0,1,1,.4c.1.4,0,.9-.4,1L21.1,157Z" style="fill:#49194f"/><path d="M50,154.6a.8.8,0,0,1-.7-.5.7.7,0,0,1,.4-1L61.6,148a.7.7,0,0,1,1,.4.6.6,0,0,1-.4.9l-11.9,5.2Z" style="fill:#49194f"/><path d="M52.8,148.4a.7.7,0,0,1-.7-.6l-2.3-12.2a.8.8,0,0,1,.6-.9.9.9,0,0,1,.9.6l2.2,12.2a.7.7,0,0,1-.6.9Z" style="fill:#49194f"/><path d="M56.5,140.4a.8.8,0,0,1-.7-.5.7.7,0,0,1,.4-.9l6.8-2.2a.8.8,0,0,1,.5,1.5l-6.8,2.1Z" style="fill:#49194f"/><path d="M170.5,158.3h-.4a.8.8,0,0,1-.3-1A173.5,173.5,0,0,0,183,127.9a200.5,200.5,0,0,0,6.1-22.9c1-4.2,2.1-9,3.6-15.1,2.4-10.1,5-20.1,7.8-29.9a.7.7,0,0,1,.9-.5.8.8,0,0,1,.6.9c-2.8,9.7-5.4,19.8-7.9,29.8-1.5,6.1-2.6,10.9-3.5,15.2-2.1,9-3.4,14.9-6.2,22.9a173.3,173.3,0,0,1-13.3,29.6A.6.6,0,0,1,170.5,158.3Z" style="fill:#49194f"/><path d="M225.6,38.3c-5.5,15.7-17.5,25.8-24.8,23.2s-11.3-18.6-5.9-34.4S223.7.7,223.7.7,231,22.5,225.6,38.3Z" style="fill:#fff"/><path d="M225.4,97.3c-13.5,6.8-27.6,5.7-30.7-.6s4.5-19.2,18-26S248,71.9,248,71.9,238.9,90.6,225.4,97.3Z" style="fill:#fff"/><path d="M212.9,137c-12.5,6.1-25.5,5-28.4-.8s4.3-17.8,16.8-23.9,32.7,1.3,32.7,1.3S225.5,130.8,212.9,137Z" style="fill:#fff"/><path d="M165.3,83.1c7.2,12,18.8,18.2,24.4,14.9s6.1-17.3-1.1-29.3S160.4,52,160.4,52,158.1,71.1,165.3,83.1Z" style="fill:#fff"/><path d="M156.6,120.6c7.5,11.5,18.8,17.4,23.9,14s4.6-16.7-2.9-28.3S150,90.5,150,90.5,149,109,156.6,120.6Z" style="fill:#fff"/><path d="M228.3,42.5c-5.4,15.4-17.9,25-25.9,22.3S189.8,46,195.1,30.5s30-25.2,30-25.2S233.6,27,228.3,42.5Z" style="fill:#c7a6cc"/><path d="M227.5,99.9c-13.5,6.7-27.6,5.7-30.8-.6s4.5-19.2,18-26S250,74.5,250,74.5,241,93.2,227.5,99.9Z" style="fill:#c7a6cc"/><path d="M214,139.3c-12.5,6.1-25.6,5-28.4-.8s4.3-17.8,16.8-23.9,32.6,1.3,32.6,1.3S226.6,133.1,214,139.3Z" style="fill:#c7a6cc"/><path d="M162.3,85c7.2,12,18.8,18.2,24.4,14.9s6-17.3-1.2-29.3-28.2-16.7-28.2-16.7S155.1,73,162.3,85Z" style="fill:#c7a6cc"/><path d="M153.4,121.7c7.5,11.5,18.9,17.4,23.9,14.1s4.7-16.8-2.8-28.3-27.7-15.9-27.7-15.9S145.9,110.2,153.4,121.7Z" style="fill:#c7a6cc"/><path d="M203.2,62.7a12.6,12.6,0,0,1-2.7-.4c-3.8-1.4-6.9-6.2-8.2-12.9a43.8,43.8,0,0,1,1.9-22.5c2.9-8.3,10.7-15.2,16.7-19.5A78.5,78.5,0,0,1,223.4.1h.6a.4.4,0,0,1,.4.4c.3.9,7.4,22.2,1.9,38h0C221.5,52.2,211.2,62.7,203.2,62.7ZM223.3,1.8c-4.1,2-22.9,11.9-27.7,25.6a44,44,0,0,0-1.8,21.7c1.2,6.2,3.9,10.6,7.2,11.7,6.7,2.4,18.4-6.9,23.9-22.8C229.6,24.4,224.5,5.9,223.3,1.8Zm2.3,36.5Z" style="fill:#49194f"/><path d="M207.2,102.6c-6.3,0-11.3-1.9-13.2-5.6s-.6-8.4,2.8-13.5a39.8,39.8,0,0,1,15.5-13.4c5.8-2.9,13.6-3.6,23.2-2.1a83.3,83.3,0,0,1,12.7,3.2,1,1,0,0,1,.5.4,1.3,1.3,0,0,1-.1.6c-.3.8-9.3,19-22.8,25.8h0A42.8,42.8,0,0,1,207.2,102.6Zm19-33.8A30.5,30.5,0,0,0,213,71.4a39.3,39.3,0,0,0-14.9,12.9c-3.2,4.7-4.2,9.2-2.8,12.1,3.5,6.8,18.8,5.7,29.8.3S245,75.9,246.9,72.3C244.2,71.5,235.3,68.8,226.2,68.8Zm-.8,28.5Z" style="fill:#49194f"/><path d="M196.4,141.9h-1.3c-5.7-.2-9.8-2.2-11.3-5.3s-.5-7.8,2.7-12.6A38.2,38.2,0,0,1,201,111.6c5.3-2.6,12.6-3.2,21.5-1.7a65.9,65.9,0,0,1,11.7,3,1,1,0,0,1,.5.4,1.7,1.7,0,0,1-.1.7c-.3.7-8.7,17.5-21.3,23.7A39.7,39.7,0,0,1,196.4,141.9Zm17.1-31.3a27.8,27.8,0,0,0-11.9,2.4,37.5,37.5,0,0,0-13.9,11.8c-2.9,4.3-3.8,8.4-2.5,11.1s4.9,4.2,9.9,4.4a35.7,35.7,0,0,0,17.5-4h0c10.7-5.2,18.5-18.9,20.3-22.3C230.3,113.2,222,110.6,213.5,110.6Z" style="fill:#49194f"/><path d="M186.1,99.6a17.6,17.6,0,0,1-8.3-2.6,39.5,39.5,0,0,1-13.1-13.5h0c-7.2-12.1-5.1-30.8-5-31.6a.5.5,0,0,1,.3-.5.7.7,0,0,1,.6-.2,87.9,87.9,0,0,1,11.5,3.9c8.3,3.7,14.1,8.1,17.1,13.2,7.7,12.8,6.8,26.8.9,30.3A7.4,7.4,0,0,1,186.1,99.6Zm-25-46.7c-.3,3.8-1.2,19.6,4.9,29.8h0a37.2,37.2,0,0,0,12.5,13c4.3,2.5,8.4,3.1,10.8,1.6,5.2-3.1,5.8-16.4-1.3-28.2C181.8,58.8,165,53.9,161.1,52.9Z" style="fill:#49194f"/><path d="M177,136.4c-6.2,0-15-6.2-21.1-15.4h0c-7.5-11.6-6.7-29.8-6.7-30.5a.9.9,0,0,1,.3-.6.7.7,0,0,1,.6-.1,64.1,64.1,0,0,1,11.2,3.6c8,3.4,13.7,7.6,16.9,12.5,8,12.3,8,25.9,2.7,29.4A7.4,7.4,0,0,1,177,136.4Zm-26.3-45c-.1,3.9.1,19,6.5,28.8h0c6.1,9.3,17.4,17.4,22.9,13.8,2.2-1.4,3.3-5.3,2.9-10.4a37.5,37.5,0,0,0-6-16.9C170.6,97,154.6,92.4,150.7,91.4Z" style="fill:#49194f"/><path d="M200.8,62.3h-.3a.6.6,0,0,1-.4-.9L223,.5a.9.9,0,0,1,1-.5.7.7,0,0,1,.4,1L201.5,61.8C201.3,62.1,201.1,62.3,200.8,62.3Z" style="fill:#49194f"/><path d="M204.6,52.1a.8.8,0,0,1-.7-.4.8.8,0,0,1,.4-1l13.2-6.9a.7.7,0,0,1,1,.3.8.8,0,0,1-.3,1L205,52Z" style="fill:#49194f"/><path d="M209.5,39a.6.6,0,0,1-.6-.4l-7-16.2a.8.8,0,1,1,1.4-.6L210.2,38a.7.7,0,0,1-.4,1Z" style="fill:#49194f"/><path d="M215.1,24.3a.9.9,0,0,1-.6-.3.7.7,0,0,1,.2-1l8.6-6.6a.7.7,0,0,1,.9,1.1l-8.6,6.6Z" style="fill:#49194f"/><path d="M194,94a.8.8,0,0,1-.7-.5.7.7,0,0,1,.4-1l54-21.3a.7.7,0,0,1,1,.4.9.9,0,0,1-.5,1L194.3,93.9Z" style="fill:#49194f"/><path d="M191.6,96.9a.9.9,0,0,1-.6-.3L159.8,52.4a.7.7,0,0,1,.2-1,.7.7,0,0,1,1,.1l31.2,44.2a.8.8,0,0,1-.1,1.1Z" style="fill:#49194f"/><path d="M181.8,134.2a.7.7,0,0,1-.6-.3l-31.8-43a.7.7,0,0,1,.1-1,.8.8,0,0,1,1.1.1l31.8,43a.7.7,0,0,1-.2,1Z" style="fill:#49194f"/><path d="M184.5,136.9a.7.7,0,0,1-.7-.4.7.7,0,0,1,.4-1l49.5-22.6a.7.7,0,0,1,.9.4.7.7,0,0,1-.3,1l-49.5,22.6Z" style="fill:#49194f"/><path d="M194,132.6h-.2a.9.9,0,0,1-.6-.9l3.1-17.1a.8.8,0,0,1,.9-.6.7.7,0,0,1,.6.9L194.7,132A.9.9,0,0,1,194,132.6Z" style="fill:#49194f"/><path d="M221,132h-.2l-16.3-3.5a.8.8,0,0,1-.6-.9.7.7,0,0,1,.9-.5l16.3,3.4a.8.8,0,0,1,.6.9A.7.7,0,0,1,221,132Z" style="fill:#49194f"/><path d="M216.2,122.5h-.3a.9.9,0,0,1-.4-1l3-7.5a.7.7,0,0,1,1-.4.7.7,0,0,1,.4,1l-3,7.5A.8.8,0,0,1,216.2,122.5Z" style="fill:#49194f"/><path d="M222,99.6h-.3L201,91.2a.9.9,0,0,1-.5-1,.7.7,0,0,1,1-.4l20.8,8.4a.9.9,0,0,1,.4,1A.8.8,0,0,1,222,99.6Z" style="fill:#49194f"/><path d="M210,87.7h-.2a.7.7,0,0,1-.5-.9l3.5-14.3a.9.9,0,0,1,1-.6.7.7,0,0,1,.5.9l-3.6,14.4A.9.9,0,0,1,210,87.7Z" style="fill:#49194f"/><path d="M234,85.7h-.2l-10.9-2.4a.8.8,0,0,1,.3-1.5l10.9,2.4a.8.8,0,0,1,.6.9A.7.7,0,0,1,234,85.7Z" style="fill:#49194f"/><path d="M187,90.3h-.2l-20.4-4.6a.8.8,0,0,1,.3-1.5l20.4,4.7a.8.8,0,0,1,.6.9A.8.8,0,0,1,187,90.3Z" style="fill:#49194f"/><path d="M180.7,81.5a.8.8,0,0,1-.7-.8v-20a.8.8,0,0,1,.7-.8.9.9,0,0,1,.8.8v20A.9.9,0,0,1,180.7,81.5Z" style="fill:#49194f"/><path d="M172.5,69.9h-.1l-11.3-1.4a.8.8,0,1,1,.1-1.5l11.4,1.4a.8.8,0,0,1,.7.8A.8.8,0,0,1,172.5,69.9Z" style="fill:#49194f"/><path d="M177.6,128.5h-.1L160,126a1,1,0,0,1-.7-.9.8.8,0,0,1,.9-.6l17.5,2.5a1,1,0,0,1,.7.9A.8.8,0,0,1,177.6,128.5Z" style="fill:#49194f"/><path d="M172.5,121.1h-.1a.6.6,0,0,1-.6-.8l1.9-12.8a1,1,0,0,1,.9-.7.8.8,0,0,1,.6.9l-1.9,12.8A.8.8,0,0,1,172.5,121.1Z" style="fill:#49194f"/><path d="M163.7,109.8h-.1l-8.6-1.6a.8.8,0,0,1-.6-.9.9.9,0,0,1,.9-.6l8.6,1.6a.8.8,0,0,1,.6.9A.8.8,0,0,1,163.7,109.8Z" style="fill:#49194f"/><path d="M66.2,152.5h0c-.5-1.5-.8-2.7-.8-2.7a5,5,0,0,1-2.6-1.4,3.8,3.8,0,0,1-.7-1.8,10.3,10.3,0,0,0-3.5,1.7c-.7.6-.7.9-.7,1.1h0l-.7.6,8.3,9.8.5-.5s1.7.3,1.7-.9S66.8,154.8,66.2,152.5Z" style="fill:#fff"/><path d="M64.3,152.5h0l-.3-2.7-3.7-3.1h0a11.8,11.8,0,0,0-3.6,1.6c-.7.6-.7,1-.6,1.2H56l-.7.6,8.3,9.7.5-.4s1.7.3,1.7-.9A56.1,56.1,0,0,0,64.3,152.5Z" style="fill:#c7a6cc"/><path d="M65.5,160.5h-.1l-.5-.2-8.2-9.8a.7.7,0,0,1,0-1l.5-.4a1.8,1.8,0,0,1,.9-1.4c1.1-1.1,3.6-1.7,3.8-1.8a.8.8,0,0,1,.7.1.9.9,0,0,1,.3.7h0a2.3,2.3,0,0,0,.5,1.2,3.8,3.8,0,0,0,2.1,1.2.6.6,0,0,1,.6.5s.3,1.2.8,2.7h0c1.5,5.2,1.5,5.9,1.5,6.1a2,2,0,0,1-.5,1.3,2.7,2.7,0,0,1-1.7.4l-.2.3Zm-7.2-10.4,7.3,8.6h1.3a39.1,39.1,0,0,0-1.4-5.7h-.1c-.2-1-.5-1.8-.6-2.3a4.9,4.9,0,0,1-2.6-1.6,6.6,6.6,0,0,1-.6-1.2,7.3,7.3,0,0,0-2.5,1.2c-.3.2-.4.4-.4.5a.8.8,0,0,1-.3.7Zm.3-1Z" style="fill:#49194f"/><path d="M108.4,152.2h0l-2.4-1.6s-1.7,1-2.9.6a2.7,2.7,0,0,1-1.6-.9,12.6,12.6,0,0,0-1.7,3.8c-.1.9.1,1.2.3,1.3h0v1l12.6,2.1v-.7s1.5-1,.7-1.9S110.3,153.6,108.4,152.2Z" style="fill:#fff"/><path d="M106.9,153.5h0l-2-2H100a12.3,12.3,0,0,0-1.6,3.7c-.1,1,.1,1.3.3,1.4h0l-.2.9,12.6,2.1.2-.7s1.4-.9.6-1.8A31.8,31.8,0,0,0,106.9,153.5Z" style="fill:#c7a6cc"/><path d="M112.6,159.2h-.1l-12.6-2.1a.8.8,0,0,1-.7-.8v-.6a3,3,0,0,1-.2-1.7,11.4,11.4,0,0,1,1.8-4.1.6.6,0,0,1,.6-.3.7.7,0,0,1,.6.3,2.1,2.1,0,0,0,1.2.6,4.3,4.3,0,0,0,2.4-.5c.2-.2.5-.1.7,0l2.4,1.6h0c4.5,3.1,5,3.6,5.2,3.8a1.6,1.6,0,0,1,.3,1.3,2.7,2.7,0,0,1-.9,1.5v.4a.5.5,0,0,1-.3.5Zm-11.8-3.5,11.2,1.9a.5.5,0,0,1,.3-.5l.6-.6h-.1c-.1-.2-.8-.8-4.8-3.6h-.1l-1.9-1.3a5.1,5.1,0,0,1-3.1.5l-1.2-.6a8.2,8.2,0,0,0-1.1,2.8,1.1,1.1,0,0,0,0,.6,1.1,1.1,0,0,1,.3.8Zm-.3-.9Z" style="fill:#49194f"/><path d="M82.1,88s16.4,28.8,17.2,31.2.4,32.1.4,32.1h7.2s5-29.5,4.6-30.6S99.8,88.3,99.8,88.3Z" style="fill:#fff"/><path d="M83.7,87.4s16.3,28.9,17.1,31.2.4,32.1.4,32.1h7.3s5-29.5,4.5-30.5L101.4,87.7Z" style="fill:#f0a74d"/><path d="M106.9,152.2h0l-7.3-.2a.7.7,0,0,1-.7-.7c.2-11.5.2-30.3-.3-31.9s-12.6-23-17.1-31a.6.6,0,0,1,0-.8.8.8,0,0,1,.6-.4l17.7.3a1.3,1.3,0,0,1,.7.5c3.9,10.9,11.3,31.7,11.7,32.5s-2.3,17.5-4.6,31A.7.7,0,0,1,106.9,152.2Zm-6.5-1.7h5.9c1.8-10.9,4.6-28,4.4-29.6s-10-27.9-11.4-32l-15.9-.2c3.1,5.4,15.8,28,16.6,30.1S100.5,145.2,100.4,150.5Z" style="fill:#49194f"/><path d="M128.4,62l1.7-.8s.1-1.3.2-1.8.7-1,.8-1.3a15.7,15.7,0,0,1,1.2-3c.2-.1.6.2.6.4a17,17,0,0,1-.6,2.8s4.2-5.1,4.5-5,.7.4.5.7-3.2,3.6-3,3.9,4.4-3.1,4.7-3,.4.5.3.8-4,3.1-3.9,3.3,4.1-1.9,4.4-1.7.3.6.2.8-4.1,1.8-4.1,2.2,3.3-.5,3.5-.4a.7.7,0,0,1-.2.8c-.3.1-3.1.7-3.4.9a11,11,0,0,1-2.4,1.5c-.6.2-1.7,0-1.9.2l-2.1,1.8Z" style="fill:#fff"/><path d="M129.4,65.5h-.1l-.3-.2-1-3.1a.4.4,0,0,1,.2-.5l1.5-.7a4.5,4.5,0,0,1,.3-1.6,5.9,5.9,0,0,1,.4-.8c.1-.2.3-.4.3-.5s.9-2.9,1.4-3.2h.7c.3.2.5.4.5.7a11.3,11.3,0,0,1-.2,1.3c3.3-4,3.5-3.9,3.8-3.9a2.1,2.1,0,0,1,.8.6.8.8,0,0,1-.1.7l-.7.9-1.6,1.8a11.1,11.1,0,0,0,1.6-1.1c1.7-1.2,1.9-1.3,2.1-1.3a.9.9,0,0,1,.6.6,1.1,1.1,0,0,1,0,.8L138.3,57l-1.2.9h.1c2.1-1,2.5-1.1,2.8-1a1,1,0,0,1,.4.7,1.1,1.1,0,0,1-.1.8l-1.7.8-1.3.6h.8c1.2-.2,1.3-.2,1.5-.1a.8.8,0,0,1,.3.7c-.1.3-.2.6-.5.7l-1.4.4-2,.5a10.9,10.9,0,0,1-2.5,1.5h-1.8l-2.1,1.8Zm-.6-3.3.8,2.2,1.7-1.4c.2-.2.5-.2,1-.2h1a12.8,12.8,0,0,0,2.3-1.4l2.3-.7,1.2-.3h0l-.9.2c-1.9.3-2.3.3-2.6.1s-.1-.2-.1-.3.2-.6,2.8-1.7l1.4-.7v-.2h0l-2.2,1c-1.8.8-2,.9-2.3.8s-.1-.1-.2-.2-.1-.4,2.8-2.8l1.2-1a.1.1,0,0,1-.1-.1l-1.5,1.1c-2.3,1.7-2.8,1.9-3.1,1.9l-.3-.2c-.2-.4-.1-.7,2.3-3.5l.7-.8h-.2l-4.2,4.9a.3.3,0,0,1-.4,0c-.2,0-.3-.2-.2-.4a24.5,24.5,0,0,0,.6-2.6h-.1a25.7,25.7,0,0,0-1.1,2.7c0,.2-.2.4-.3.7a1.3,1.3,0,0,0-.4.7,15.7,15.7,0,0,0-.3,1.6c0,.1-.1.3-.2.3Z" style="fill:#49194f"/><path d="M96.1,59.2a16.7,16.7,0,0,0,4.4,9.9c5.4,5.4,12.8,4.7,13.9,4.6,3.6-.4,6.2-2,11.5-5.1a75.4,75.4,0,0,0,6.3-4.2l-2.4-4.5-14.5,7.4L113,65.6l-4.1-3.2a23.6,23.6,0,0,0-6.2-3.6,15.9,15.9,0,0,0-3.9-1Z" style="fill:#fff"/><path d="M96,61.7a16.6,16.6,0,0,0,4.5,9.8c5.3,5.5,12.7,4.8,13.9,4.6,3.5-.4,6.2-1.9,11.4-5a52,52,0,0,0,6.3-4.2l-2.3-4.5c-4.9,2.4-9.7,4.9-14.5,7.4L113,68.1l-4.1-3.2a24.3,24.3,0,0,0-6.3-3.6,15.3,15.3,0,0,0-3.8-1Z" style="fill:#c7a6cc"/><path d="M112.5,74.5A17.3,17.3,0,0,1,100,69.6a17.8,17.8,0,0,1-4.7-10.4.8.8,0,0,1,.5-.7l2.7-1.4c.1,0,.3-.1.5,0a17.2,17.2,0,0,1,3.9,1,23.7,23.7,0,0,1,6.5,3.7l1.5,1.2,2.5,2,2,1.4,14.1-7.2a.7.7,0,0,1,1,.4l2.3,4.5a.7.7,0,0,1-.2.9,62.7,62.7,0,0,1-6.3,4.2c-5.4,3.2-8.1,4.8-11.8,5.2ZM96.9,59.6a15.5,15.5,0,0,0,4.2,8.9c4.8,4.9,11.3,4.6,13.2,4.4,3.4-.4,6-1.9,11.2-4.9,2-1.2,3.9-2.5,5.7-3.8l-1.7-3.3L115.7,68a.8.8,0,0,1-.8-.1c-.5-.4-1.4-.9-2.3-1.7l-2.6-2L108.5,63a24,24,0,0,0-6.1-3.5,21.4,21.4,0,0,0-3.4-.9Z" style="fill:#49194f"/><polygon points="95.7 47.1 89.6 57.3 97.1 59.5 100.4 51.2 95.7 47.1" style="fill:#fff"/><path d="M97.1,60.2h-.2L89.4,58a1,1,0,0,1-.5-.4.8.8,0,0,1,.1-.7l6.1-10.2a.5.5,0,0,1,.5-.3.7.7,0,0,1,.6.1l4.7,4.1a.8.8,0,0,1,.2.8l-3.3,8.4A.7.7,0,0,1,97.1,60.2Zm-6.3-3.4,5.9,1.8,2.8-7.2-3.6-3.1Z" style="fill:#49194f"/><path d="M82.1,90.8l-9.7,29.4L60,146.9l6,2.8s15.5-23.8,17-26.4L98.5,94.1Z" style="fill:#fff"/><path d="M79.9,90.7l-9.5,28.8L58.3,145.8l6,2.7S79.6,125.3,81,122.7L96.3,94.1Z" style="fill:#f0a74d"/><path d="M66,150.4h-.3l-6-2.8a.8.8,0,0,1-.4-.4c-.1-.2,0-.4,0-.6l12.4-26.7,9.7-29.4a.9.9,0,0,1,.8-.5l16.5,3.4a.7.7,0,0,1,.5.4.6.6,0,0,1,0,.6c-.1.3-14.1,26.7-15.6,29.3s-16.4,25.4-17,26.4A.7.7,0,0,1,66,150.4Zm-5-3.8,4.7,2.1c2.3-3.5,15.3-23.4,16.6-25.8S94.9,99.3,97.4,94.6l-14.8-3-9.5,28.8H73Zm11.4-26.4Z" style="fill:#49194f"/><path d="M91.6,53.9a16.3,16.3,0,0,0-9,3.6c-4.9,4.3-5.3,10.9-5.7,19.6a79.6,79.6,0,0,0,2,22.6l17.5,1.9,8.4-1.6a39,39,0,0,1-2.3-11.4A61.5,61.5,0,0,1,103.8,75c1.6-9.5,3.6-12.2,1.4-14.4s-6.6-4.9-6.6-4.9a4.1,4.1,0,0,1-4.3,1.2A3.9,3.9,0,0,1,91.6,53.9Z" style="fill:#fff"/><path d="M89.5,53a16.3,16.3,0,0,0-9,3.6c-4.9,4.3-5.3,10.9-5.7,19.5a84.2,84.2,0,0,0,2,22.7l17.5,1.8,8.4-1.6a40.9,40.9,0,0,1-2.3-11.3,61.5,61.5,0,0,1,1.3-13.6c1.6-9.5,3.7-12.2,1.4-14.5a64.7,64.7,0,0,0-6.6-4.8A4.1,4.1,0,0,1,92.2,56,4.3,4.3,0,0,1,89.5,53Z" style="fill:#c7a6cc"/><path d="M96.4,102.3h-.1l-17.5-1.8c-.3-.1-.6-.3-.6-.6A80.9,80.9,0,0,1,76.1,77c.4-8.3.7-15.5,6-20a15.9,15.9,0,0,1,9.4-3.8.6.6,0,0,1,.8.5,3.5,3.5,0,0,0,2.2,2.5,3.3,3.3,0,0,0,3.5-1,.8.8,0,0,1,1-.1,61.6,61.6,0,0,1,6.7,4.9c1.8,1.9,1.3,3.8.4,7.8-.5,1.9-1,4.2-1.6,7.3s-1.5,8.7-1.2,13.5a35.9,35.9,0,0,0,2.2,11.1.6.6,0,0,1-.1.6.7.7,0,0,1-.5.4l-8.4,1.6ZM79.5,99l16.8,1.8,7.5-1.4a36.2,36.2,0,0,1-2-10.8c-.3-4.9.5-9.2,1.2-13.7s1.2-5.5,1.6-7.5c1-3.9,1.2-5.1.1-6.3a48.4,48.4,0,0,0-6-4.4,4.8,4.8,0,0,1-4.6.9,4.6,4.6,0,0,1-3-2.9,15,15,0,0,0-8,3.4c-4.6,3.9-5.1,9.8-5.5,19A85.4,85.4,0,0,0,79.5,99Z" style="fill:#49194f"/><path d="M105.5,44c.6-.8,1-.8,1.4-1.3a3.7,3.7,0,0,0,0-3.1,7.9,7.9,0,0,0-2.5-3.6c-2.4-1.8-6.6-1.6-10.3.8-.5.1-3,.4-4.2,2.4a4.5,4.5,0,0,0-.7,2.6,8.4,8.4,0,0,0,6.3,7.8,8.9,8.9,0,0,0,4.7-.4,11.1,11.1,0,0,0,2.9-1.5c.4-.2.7-.3.9-.7l.8-1.4C105.3,44.6,105.4,44.1,105.5,44Z" style="fill:#49194f"/><path d="M94.5,49.3a6.2,6.2,0,0,0,8.7.6,6.2,6.2,0,0,0-8.1-9.3A6.2,6.2,0,0,0,94.5,49.3Z" style="fill:#fff"/><path d="M99.1,52.2a6.9,6.9,0,0,1-5.2-2.4h0a7,7,0,0,1,.7-9.8,6.9,6.9,0,1,1,4.5,12.2Zm-4-3.4a5.3,5.3,0,0,0,7.6.5,5.4,5.4,0,0,0-7.1-8.1,5.3,5.3,0,0,0-.5,7.6Z" style="fill:#49194f"/><path d="M93.8,45.3c.6-.1.3-2,1.6-3.4a1.6,1.6,0,0,1,.9-.7c.7-.3,1.1.1,2.4.2a7.4,7.4,0,0,0,3.6-.3l.8-.4a.8.8,0,0,0,.3-.8.8.8,0,0,0-.2-.4,3.4,3.4,0,0,0-1.7-1.1,7.8,7.8,0,0,0-2.1-.4,17,17,0,0,0-3.9.2A7.8,7.8,0,0,0,92,40a5.7,5.7,0,0,0-.8,1.3v.9a4.9,4.9,0,0,0,.3,2.1c.1.2.2.4.4.4h.8C93.4,45,93.5,45.3,93.8,45.3Z" style="fill:#49194f"/><path d="M91.3,44.8a2,2,0,0,0,2.2,1.8,1.9,1.9,0,0,0,1.8-2.1,2,2,0,0,0-2.2-1.8A1.9,1.9,0,0,0,91.3,44.8Z" style="fill:#fff"/><path d="M101.3,43.2a.7.7,0,0,0,.6.7.7.7,0,0,0,.6-.7.6.6,0,0,0-.6-.6A.6.6,0,0,0,101.3,43.2Z" style="fill:#49194f"/><path d="M96.6,43.7a.6.6,0,0,0,.6.6c.4,0,.6-.3.6-.7a.6.6,0,0,0-.6-.6A.7.7,0,0,0,96.6,43.7Z" style="fill:#49194f"/><path d="M99.9,46.7c-.2,0-.3,0-.4-.2a.5.5,0,0,1,.3-.5l.8-.3h0a8.3,8.3,0,0,0-.8-1.2c-.1-.2-.1-.4.1-.5a.3.3,0,0,1,.5,0,11,11,0,0,1,.9,1.4c0,.1,0,.1.1.2a.9.9,0,0,1-.4.8l-1,.4Zm.7-1Z" style="fill:#49194f"/><path d="M97.3,47.1a.4.4,0,0,1,.5-.1l.6.3.5.2c.2,0,.3.2.3.4a.5.5,0,0,1-.5.3l-1.3-.5A.6.6,0,0,1,97.3,47.1Z" style="fill:#49194f"/><g style="opacity:0.49"><path d="M98.2,45.3c0-.3-.9-.8-1.7-.5s-.8.4-.8.7.7.5,1.2.4S98.1,45.6,98.2,45.3Z" style="fill:#c7a6cc"/></g><g style="opacity:0.49"><path d="M104.1,44.6c0-.3-.8-.8-1.6-.5s-.8.4-.8.7.7.4,1.2.4S104.1,44.9,104.1,44.6Z" style="fill:#c7a6cc"/></g><path d="M73.4,122.5a5.8,5.8,0,1,1-7.3-9.1l67.8-50.9,4.5,5.6Z" style="fill:#fff"/><path d="M71.1,121.3a5.8,5.8,0,1,1-7.3-9.1l67.8-51,4.5,5.7Z" style="fill:#f0a74d"/><path d="M69.5,124.7h-.9a6.4,6.4,0,0,1-4.5-2.7,6.7,6.7,0,0,1,1.6-9.1l67.8-50.9a.7.7,0,0,1,1,.1l4.4,5.6a.6.6,0,0,1-.1,1L73.9,123.1h0A7.2,7.2,0,0,1,69.5,124.7Zm64.3-61.2L66.6,114a5.3,5.3,0,0,0-1.3,7.1,5.2,5.2,0,0,0,3.5,2,5,5,0,0,0,4.1-1.2L137.3,68Zm-60.4,59Z" style="fill:#49194f"/><circle cx="163.2" cy="43.8" r="38" transform="translate(-1.3 5) rotate(-1.8)" style="fill:#fff"/><circle cx="164.4" cy="45.7" r="38" transform="translate(7.3 112.2) rotate(-38.5)" style="fill:#f0a74d"/><path d="M163.2,82.5a38.7,38.7,0,0,1-24.1-69,38.6,38.6,0,0,1,54.4,6.2,38.8,38.8,0,0,1-6.2,54.4h0A38.8,38.8,0,0,1,163.2,82.5Zm-.1-75.9a37.2,37.2,0,1,0,23.2,66.3h0A37.2,37.2,0,0,0,167.4,6.8,31,31,0,0,0,163.1,6.6Zm23.7,66.9Z" style="fill:#49194f"/><path d="M190.9,61.9a29.9,29.9,0,0,1-4.2,5.2l-2.9,2.6-.7.5a18.8,18.8,0,0,1-2.3,1.6,32.2,32.2,0,0,1-8.5,3.8l-2.7.7-3.7.5a41.4,41.4,0,0,1-6.1-.1,33.1,33.1,0,0,1-25.6-49,35.4,35.4,0,0,1,3.5-5.1,30.7,30.7,0,0,1,2.5-2.6,12.9,12.9,0,0,1,2.1-1.9l.3-.3a31.6,31.6,0,0,1,7.7-4.5l2.6-1a23.7,23.7,0,0,1,4.6-1.1,29.4,29.4,0,0,1,6.6-.5,33.1,33.1,0,0,1,26.8,51.2Z" style="fill:#fff"/><path d="M163.2,77.6h-3.5a33.9,33.9,0,0,1-23-12.7,33.5,33.5,0,0,1-3.1-37.4,31.5,31.5,0,0,1,3.5-5.2c.8-1,1.7-1.9,2.5-2.8l2.2-1.9a.2.2,0,0,0,.2-.2h.1a35.1,35.1,0,0,1,7.9-4.7,16.9,16.9,0,0,1,2.7-1,39,39,0,0,1,4.6-1.2,40.1,40.1,0,0,1,6.9-.5,33.9,33.9,0,0,1,27.3,52.4,31.2,31.2,0,0,1-4.3,5.3,19.3,19.3,0,0,1-3,2.7l-.6.5-2.4,1.6a28.4,28.4,0,0,1-8.7,3.9l-2.8.7a23.5,23.5,0,0,1-3.7.5Zm-.1-66.2a34.1,34.1,0,0,0-5.5.5,36.9,36.9,0,0,0-4.5,1.1l-2.6,1a32.9,32.9,0,0,0-7.4,4.4H143l-.3.2-2,1.8a19.5,19.5,0,0,0-2.4,2.6,27.6,27.6,0,0,0-3.4,5,32.3,32.3,0,0,0,25,47.9,30.1,30.1,0,0,0,6,0,22.7,22.7,0,0,0,3.5-.5,13.1,13.1,0,0,0,2.7-.6,32.4,32.4,0,0,0,8.3-3.7,18.8,18.8,0,0,0,2.3-1.6l.6-.5a34.7,34.7,0,0,0,2.9-2.5,39.8,39.8,0,0,0,4.1-5.1h0a32.5,32.5,0,0,0-26.2-50.1Z" style="fill:#49194f"/><path d="M162.4,28.1a4.8,4.8,0,0,1,4.5.5,14.2,14.2,0,0,1,2.6,2.9l2.5,3.7a5.3,5.3,0,0,1,1.1,2.4,5,5,0,0,1-1.2,2.7c-.8.9-1.6,2-2.8,2.2a9.6,9.6,0,0,1-1.7,0,18.9,18.9,0,0,0-3.4.9,4.4,4.4,0,0,1-3.4-.1,4.8,4.8,0,0,1-1.2-1.6,8.7,8.7,0,0,1-.9-5.9,10,10,0,0,1,1-2.9c.2-.4.5-.7.5-1.1a3.2,3.2,0,0,1,.2-1.4A4.1,4.1,0,0,1,162.4,28.1Z" style="fill:#f0a74d"/><path d="M161,33l.3-.3c.4-.2.9.3,1,.7a5.8,5.8,0,0,0,.3,1.4c.2.4.7.6,1,.8a3.8,3.8,0,0,1,1.1,1.1,4.3,4.3,0,0,1,1,2.3,1.9,1.9,0,0,1-1.4,1.9,2.1,2.1,0,0,1-1.8-.6,5.8,5.8,0,0,1-1.7-1.8,2.8,2.8,0,0,1-.4-1.5c-.1-.4,0-.8-.1-1.2A4.7,4.7,0,0,1,161,33Z" style="fill:#49194f"/><path d="M164.2,30.2c.7-.4,1.5.2,2,.8l2.1,2.1c1,1.1,2.1,2.3,1.9,3.8a.7.7,0,0,0-.1.5c.1.4.5.6.7.9a1.2,1.2,0,0,1-.2,1.5,2.5,2.5,0,0,1-1.4.6,1.5,1.5,0,0,1-.9-.2c-.8-.4-.8-1.5-1.3-2.3s-1.3-1.3-1.9-2A5.9,5.9,0,0,1,164,34a5,5,0,0,1-.5-2.1C163.5,31.3,163.6,30.5,164.2,30.2Z" style="fill:#49194f"/><path d="M142.4,38.7a6.8,6.8,0,0,1,5.2,6.7,14.6,14.6,0,0,1-1.6,5,4.3,4.3,0,0,1-1.3,1.9,3.2,3.2,0,0,1-3.6-.2,17.9,17.9,0,0,1-2.8-2.7,39.7,39.7,0,0,1-2.8-3,5,5,0,0,1-.8-2.7,6,6,0,0,1,.9-2.2,6.4,6.4,0,0,1,4.1-2.7A5,5,0,0,1,142.4,38.7Z" style="fill:#f0a74d"/><path d="M139.1,43.9a1.5,1.5,0,0,1,1.9,0c.3.1.5.4.7.6a15.6,15.6,0,0,1,2.3,3.4,1.7,1.7,0,0,1,.3,1.7,1.8,1.8,0,0,1-1.9.7,3.2,3.2,0,0,1-1.7-.3,2.5,2.5,0,0,1-1.1-1.2,7.8,7.8,0,0,1-.9-2.1,3.7,3.7,0,0,0-.1-1.1,1,1,0,0,1-.1-.9A1.6,1.6,0,0,1,139.1,43.9Z" style="fill:#49194f"/><path d="M158.8,62.1a10.1,10.1,0,0,1-2.3,1.2,14.8,14.8,0,0,1-5.6,1.3.2.2,0,0,0-.2-.2l-.6-.5h-.2a3.8,3.8,0,0,1-1.1-1.1,2.9,2.9,0,0,1,.9-3.5,6.6,6.6,0,0,1,2.6-1.1l1.4-.2h.8l1.6.4a2,2,0,0,1,1.3.4A2.9,2.9,0,0,1,158.8,62.1Z" style="fill:#f0a74d"/><path d="M156.5,61.5a15.9,15.9,0,0,1-5,1.1c-.1-.1-.1-.2-.2-.2l-.6-.4c0-.1,0-.1-.1-.1a1.6,1.6,0,0,1,.2-1,1.9,1.9,0,0,1,1.8-1l2.1.2a2.5,2.5,0,0,1,1.5.3A1.1,1.1,0,0,1,156.5,61.5Z" style="fill:#49194f"/><path d="M154.6,48.8c.3.1.4.4.5.7a2.9,2.9,0,0,1-.1,2.7,1,1,0,0,1-.6.5.9.9,0,0,1-.8-.4,1.6,1.6,0,0,1-.3-.9,2.8,2.8,0,0,1-.1-.9c0-.2-.1-.4-.1-.6a1.2,1.2,0,0,1,.7-1A.8.8,0,0,1,154.6,48.8Z" style="fill:#c7a6cc"/><path d="M143.1,62a.4.4,0,0,1,.7-.1.8.8,0,0,1,.4.6c.1.3.1.6.2.9a3,3,0,0,0,.4.8,1.6,1.6,0,0,1,.1,1,.8.8,0,0,1-.5.7l-.7-.2-.5-.5a10.4,10.4,0,0,1-.4-1,.9.9,0,0,1-.1-1,1.1,1.1,0,0,0,.2-.6A.7.7,0,0,1,143.1,62Z" style="fill:#c7a6cc"/><path d="M176.4,44.2c-.2.1-.3.4-.4.6a2.4,2.4,0,0,0,.1,1.2c.1.3.1.6.3.8a1.9,1.9,0,0,0,1.2.7,2.9,2.9,0,0,0,1.6,0,1.8,1.8,0,0,0,.8-.7,3.7,3.7,0,0,0,.5-1.1,1.9,1.9,0,0,0-.9-1.8,2.4,2.4,0,0,0-1.5-.4,1.7,1.7,0,0,0-1,.1C176.9,43.8,176.6,43.9,176.4,44.2Z" style="fill:#c7a6cc"/><path d="M182.4,61.4c.1-.3.4-.6.7-.5l.5.2c.2.2.5.5.4.8a.8.8,0,0,1-.4.7l-.5.2-.5-.2-.2-.2a.8.8,0,0,1-.1-.4A1.3,1.3,0,0,1,182.4,61.4Z" style="fill:#c7a6cc"/><path d="M180.6,33.6l1.9,1.1a5.3,5.3,0,0,1,1,.6,1.2,1.2,0,0,1,.5.9,1.4,1.4,0,0,1-1,1.2,2.4,2.4,0,0,1-1.6-.4c-1.1-.6-2.3-1.9-1.8-3.3S180.3,33.3,180.6,33.6Z" style="fill:#c7a6cc"/><path d="M183.5,27a.9.9,0,0,1,.4.8,1.7,1.7,0,0,1-.3,1.4.8.8,0,0,1-.7.5,1.2,1.2,0,0,1-.8-.4,1.6,1.6,0,0,1-.6-.8v-.4c0-.2,0-.3.1-.4a.6.6,0,0,1,.2-.5l.7-.4a.9.9,0,0,1,.9.1C183.5,26.9,183.5,26.9,183.5,27Z" style="fill:#c7a6cc"/><path d="M188.5,33.1a5.2,5.2,0,0,1,1,1.8c0,.1.1.2.1.4s-.1.3-.3.3l-.4-.2a3.2,3.2,0,0,1-1-1,2.4,2.4,0,0,1-.2-.8.7.7,0,0,1,.1-.6.2.2,0,0,1,.4-.1Z" style="fill:#c7a6cc"/><path d="M188.5,39.2a1.4,1.4,0,0,1,1,1v.4a.7.7,0,0,1-.4.6,1.9,1.9,0,0,1-1.8.3l-.4-.3a.6.6,0,0,1-.1-.7c0-.2-.1-.4,0-.6s.5-.7.9-.8A1.1,1.1,0,0,1,188.5,39.2Z" style="fill:#c7a6cc"/><path d="M144.2,24.4a.9.9,0,0,1,.5-.9h.6a4.8,4.8,0,0,1,3,1.5,13.2,13.2,0,0,1,1.9,2.9c.2.6.5,1.2.2,1.8a1.4,1.4,0,0,1-1.8.5,3.5,3.5,0,0,1-1.5-1.2l-1.5-1.8a3.6,3.6,0,0,1-1.1-1.6A4.5,4.5,0,0,1,144.2,24.4Z" style="fill:#c7a6cc"/><path d="M137.6,32.4a1.8,1.8,0,0,0,2.4.1,1.6,1.6,0,0,0,.4-.7,2.4,2.4,0,0,0-1.3-3.1c-1.1-.3-2,.7-2.2,1.7A2.5,2.5,0,0,0,137.6,32.4Z" style="fill:#c7a6cc"/><path d="M150.7,37.4h.4a.5.5,0,0,1,.4.3l.2.4a11.7,11.7,0,0,1,.5,2c0,.2,0,.5-.2.6h-.4a1.2,1.2,0,0,1-1.2-.8,5.6,5.6,0,0,1-.4-1.2v-.5c0-.1.1-.2.1-.4Z" style="fill:#c7a6cc"/><path d="M159.7,14.2c.3.2.6.4.6.8s-.2.7-.5,1a2.7,2.7,0,0,1-1.4.7h-.9l-.4-.2-.2-.3a2.5,2.5,0,0,1-.1-1.2,1.4,1.4,0,0,1,.9-.8,2.8,2.8,0,0,1,1.8-.1Z" style="fill:#c7a6cc"/><path d="M154.2,20.5c.3-.1.6.2.8.4l.9.5a2.7,2.7,0,0,1,.7.8,1.2,1.2,0,0,1-.2,1,1,1,0,0,1-.9.1c-.4-.1-.6-.4-.9-.6l-.9-1a.7.7,0,0,1,0-.9A.5.5,0,0,1,154.2,20.5Z" style="fill:#c7a6cc"/><path d="M163.6,19.7h.9c.2.1.3.2.3.4v.2a1.7,1.7,0,0,1-1.4.9c-.2,0-.3-.1-.4-.3l-.2-.4c-.1-.3.1-.5.3-.7Z" style="fill:#c7a6cc"/><path d="M170.8,15.3a2.3,2.3,0,0,1,.9,2.3,2,2,0,0,1-.4.8,2.5,2.5,0,0,1-2.1.4,3.5,3.5,0,0,1-1.6-.6,1.2,1.2,0,0,1-.2-1.6c.2-.3.5-.4.7-.7l.3-.5a2.1,2.1,0,0,1,1.5-.5Z" style="fill:#c7a6cc"/><path d="M171.1,27.4c0,.4-.1.7-.4.8h-.3a3.3,3.3,0,0,1-1.7-1.4,3.1,3.1,0,0,1-.4-2.1,2.2,2.2,0,0,1,.5-1.1c.3-.3.7-.5,1-.2l.3.6.4.6c.2.4.3.9.5,1.3A3.8,3.8,0,0,1,171.1,27.4Z" style="fill:#c7a6cc"/><path d="M156.6,29.8a.6.6,0,0,1,.1.4,3.9,3.9,0,0,1-.4,1.8h-.1c-.4.2-.8-1-.9-1.2s0-.5.1-.6a1.3,1.3,0,0,1,.5-.7A.6.6,0,0,1,156.6,29.8Z" style="fill:#c7a6cc"/><path d="M177,22.7a.5.5,0,0,1,.8.1c.1.1.1.2.2.4a2.5,2.5,0,0,1-.1,1.7l-.5.4c-.5.2-.8-.3-1-.8a2.2,2.2,0,0,1,.2-1.1A.8.8,0,0,1,177,22.7Z" style="fill:#c7a6cc"/><path d="M176.3,30a1.1,1.1,0,0,1,1.4.4c.3.3.2.8.1,1.2a3,3,0,0,1-1.3,1.6h-.6a1.5,1.5,0,0,1-.5-.6,1.6,1.6,0,0,1-.4-.7,1.6,1.6,0,0,1,.6-1.3A1.3,1.3,0,0,1,176.3,30Z" style="fill:#c7a6cc"/><path d="M186.1,49.2a.8.8,0,0,1,1,.1,1.4,1.4,0,0,1,.4,1.1c-.1.2-.1.5-.2.7a.9.9,0,0,1-.4.8h-.5l-.6-.2a1.7,1.7,0,0,1-.6-1.2,1.3,1.3,0,0,1,.3-1Z" style="fill:#c7a6cc"/><path d="M104.3,83h1.8l1-1.5c.3-.3,1-.6,1.2-.9a15.8,15.8,0,0,1,2.3-2.2c.2-.1.5.3.4.6a22.9,22.9,0,0,1-1.6,2.3s5.8-3,6.1-2.8.5.6.1.8-4.3,2-4.2,2.4,5.2-1.1,5.4-.9a.8.8,0,0,1,0,.9c-.2.1-4.9,1.3-4.9,1.5s4.5-.2,4.7.1a.7.7,0,0,1-.1.9c-.3.1-4.5,0-4.7.3s3.3.9,3.4,1.1a.5.5,0,0,1-.5.6c-.3,0-3.1-.6-3.5-.5a10.3,10.3,0,0,1-2.7.4c-.7-.1-1.6-.7-1.9-.6l-2.6.8Z" style="fill:#fff"/><path d="M104,86.7c-.1,0-.3,0-.3-.1s-.2-.2-.2-.4l.3-3.3a.5.5,0,0,1,.5-.4h1.5l.9-1.3.8-.6.4-.3s2-2.4,2.6-2.4.5.1.8.3a1,1,0,0,1,.2.9c0,.1,0,.2-.5.8,4.3-2.1,4.5-2,4.7-1.9a1.3,1.3,0,0,1,.6,1,.9.9,0,0,1-.4.8l-1,.5-1.4.6,1-.2c2.1-.5,2.3-.5,2.6-.3a1,1,0,0,1,.4.8,1.1,1.1,0,0,1-.5.9l-1.7.5h-.4c1.7,0,1.9.1,2.1.3a1,1,0,0,1,.2.9c-.1.3-.2.6-.5.7s-.4.2-2,.2h-.5c1.1.3,1.3.3,1.4.5a1,1,0,0,1,0,.9,1,1,0,0,1-.8.5l-1.5-.2-2-.3a10,10,0,0,1-2.9.4,2.8,2.8,0,0,1-1.2-.4l-.5-.2-2.6.8Zm2.8-.8Zm7.9-.3Zm-10-2.1-.2,2,2-.6c.3-.1.6.1,1.1.3l.9.3a10.1,10.1,0,0,0,2.6-.4h1.2c-.6-.2-.8-.3-.9-.5a.4.4,0,0,1,0-.5c.2-.4.5-.5,3.3-.5H114c-2,.1-2.3.1-2.5-.1s-.2-.3-.1-.4.1-.6,3.7-1.6h.3l-.6.2c-2.8.6-3.4.7-3.7.5l-.2-.4c-.1-.5.2-.8,3.2-2.2a45.3,45.3,0,0,0-4.5,2.2.5.5,0,0,1-.6-.2.4.4,0,0,1,0-.6l1.3-1.8-1.6,1.7a1.8,1.8,0,0,1-.7.5l-.6.5a13.7,13.7,0,0,0-.8,1.4l-.5.2Z" style="fill:#49194f"/><path d="M84,56.5c-1.7-.3-3.5,1.9-3.6,2.1a6.5,6.5,0,0,0-1.1,1.9A15.8,15.8,0,0,0,78,66c-.1,2,.3,4.4,3.3,10.5s3.5,7.4,4.3,8.1c5.3,4.5,27.5.9,20.6,1.4h0c0-1.4.1-2.8.1-4.2L91.1,80c-.6-4-2.2-14-4.4-20.1C86.2,58.7,85.4,56.7,84,56.5Z" style="fill:#fff"/><path d="M82.6,58.2c-1.7-.3-3.5,1.9-3.6,2.1a7.8,7.8,0,0,0-1.1,1.8,17.1,17.1,0,0,0-1.3,5.6c0,2,.3,4.3,3.3,10.5s3.3,7.4,4.3,8.1,2.5,1.5,7.5,1.9a62.1,62.1,0,0,0,13.1-.5c.1-1.5.1-2.9.1-4.3L89.7,81.7c-.6-4.1-2.2-14.1-4.4-20.1C84.8,60.3,84,58.4,82.6,58.2Z" style="fill:#c7a6cc"/><path d="M97.2,87.4H93.1c-5.3-.4-6.9-1.3-7.9-2.1s-1.3-1.4-3.4-5.7c-.3-.8-.7-1.6-1.2-2.7-2.9-6-3.4-8.5-3.3-10.8a14.8,14.8,0,0,1,1.3-5.8,11.3,11.3,0,0,1,1.2-2.1c.3-.4,2.2-2.7,4.3-2.3h0c2,.3,2.9,2.8,3.3,3.9,2,5.5,3.6,14.4,4.4,19.6L106.4,81a.8.8,0,0,1,.7.8V86a.7.7,0,0,1-.7.7A55.8,55.8,0,0,1,97.2,87.4ZM83.7,57.2c-1.1,0-2.3,1.3-2.8,1.9L80,60.7A13.1,13.1,0,0,0,78.8,66c-.1,1.8.1,3.9,3.1,10.2l1.3,2.7c1.9,4,2.2,4.7,2.9,5.1s2.4,1.4,7.1,1.8a56.8,56.8,0,0,0,12.3-.5V82.4L91,80.7a.6.6,0,0,1-.6-.6c-.8-5-2.4-14.3-4.4-19.9-.3-.8-1-2.8-2.1-3h-.2Z" style="fill:#49194f"/><path d="M222.1,86.4c-5,12.2-12,20.9-15.7,19.5S204,93.2,209,81s12-21,15.6-19.5S227.1,74.1,222.1,86.4Z" style="fill:#fff"/><path d="M235.9,91.7c-8.5,10.2-17.8,16.4-20.8,13.9s1.5-12.8,10-22.9,17.7-16.4,20.7-13.9S244.4,81.5,235.9,91.7Z" style="fill:#fff"/><path d="M219.7,85.4c-5,12.3-12,21-15.6,19.5s-2.5-12.6,2.6-24.9,12-20.9,15.6-19.5S224.8,73.2,219.7,85.4Z" style="fill:#f0a74d"/><ellipse cx="228" cy="85.1" rx="24" ry="7.1" transform="translate(16.7 205.9) rotate(-50.2)" style="fill:#f0a74d"/><path d="M207.3,106.8a2,2,0,0,1-1.1-.3c-2.1-.8-3-4-2.5-9.1a66,66,0,0,1,4.6-16.7,66,66,0,0,1,8.5-15.1c3.2-4,6-5.7,8.1-4.8,4.7,1.9,2.4,14.8-2.1,25.8h0a63.9,63.9,0,0,1-8.5,15.1C211.6,105.1,209.3,106.8,207.3,106.8Zm16.5-44.7c-1.4,0-3.5,1.6-5.9,4.5a60.6,60.6,0,0,0-8.2,14.7,62.4,62.4,0,0,0-4.5,16.2c-.4,4.3.2,7.1,1.5,7.7s3.8-1.1,6.4-4.4a59.2,59.2,0,0,0,8.3-14.7c5.2-12.7,5.7-22.8,3-23.9Zm-1.7,24.3Z" style="fill:#49194f"/><path d="M216.9,106.9a3.2,3.2,0,0,1-2.2-.7c-3.9-3.3,2.1-14.8,9.8-24s17.9-17.3,21.8-14-2.1,14.8-9.8,24h0A61.4,61.4,0,0,1,223.9,104C221,105.9,218.7,106.9,216.9,106.9ZM244.1,69c-3.4,0-10.9,5.1-18.5,14.2s-12.3,19.9-10,21.8,3.9.1,7.5-2.2a61.7,61.7,0,0,0,12.2-11.6h0c8.8-10.5,12.3-19.9,10-21.9A2.1,2.1,0,0,0,244.1,69Z" style="fill:#49194f"/><circle cx="275.2" cy="124.4" r="9.1" style="fill:#fff"/><circle cx="275.2" cy="120.6" r="9.1" style="fill:#f0a74d"/><path d="M275.2,134.3a9.9,9.9,0,1,1,0-19.7,9.9,9.9,0,0,1,0,19.7Zm0-18.2a8.4,8.4,0,0,0-8.4,8.3,8.5,8.5,0,0,0,8.4,8.4,8.4,8.4,0,0,0,8.3-8.4A8.3,8.3,0,0,0,275.2,116.1Z" style="fill:#49194f"/><path d="M275,139.3c.7,8.9-3.4,15.9-5.4,18.9l-49.9-.9c-2.4-2.8-7.4-9.3-7.2-18,.3-14.5,14.9-28.1,31.3-28.1S273.8,124.7,275,139.3Z" style="fill:#fff"/><path d="M272.6,143c.8,8.9-3.3,15.9-5.4,18.9l-49.8-.9c-2.5-2.8-7.4-9.4-7.3-18,.3-14.5,14.9-28.1,31.3-28.1S271.5,128.4,272.6,143Z" style="fill:#f0a74d"/><path d="M269.6,158.9h0l-49.9-.8a.5.5,0,0,1-.5-.3c-3.5-4-7.6-10.4-7.5-18.5.3-15.1,15.6-28.8,32-28.8h.1c16,0,30.7,13.2,32,28.8h0c.6,8.2-2.7,15-5.6,19.3A.7.7,0,0,1,269.6,158.9Zm-49.5-2.3,49.1.8a28.6,28.6,0,0,0,5.1-18c-1.2-14.9-15.2-27.4-30.5-27.4h-.1c-15.7,0-30.2,13-30.5,27.3C213.1,146.8,216.8,152.8,220.1,156.6Z" style="fill:#49194f"/><circle cx="212.5" cy="117.2" r="19" style="fill:#fff"/><circle cx="208.3" cy="117.2" r="19" style="fill:#f0a74d"/><path d="M212.5,137a19.8,19.8,0,1,1,19.7-19.8A19.8,19.8,0,0,1,212.5,137Zm0-38a18.3,18.3,0,1,0,18.2,18.2A18.2,18.2,0,0,0,212.5,99Z" style="fill:#49194f"/><path d="M198.9,114.5l.5.2a23.7,23.7,0,0,1,8,1.6h.6a.7.7,0,0,1,.5.9.7.7,0,0,1-.8.4l-1.5-.2h0a5.5,5.5,0,0,0-2.2.1,2,2,0,0,0-1,.7,7.9,7.9,0,0,0,1.4,5.6.7.7,0,0,1,0,1c-.2.2-.7.3-.9,0a8,8,0,0,1-1.8-4.1,14,14,0,0,1,0-2.9v-.2l-.2-.3a2.1,2.1,0,0,0-.4-.6l-.9-.6-1.6-.4A.7.7,0,0,1,198.9,114.5Z" style="fill:#49194f"/><path d="M207.4,109.1l.7-1.8a.5.5,0,0,1,.3-.5h.5c.2,0,.3.1.4.3a.7.7,0,0,1,.1.5l-.7,1.8-.3.5h-.6a.5.5,0,0,1-.4-.3A.4.4,0,0,1,207.4,109.1Z" style="fill:#49194f"/><path d="M202.3,107.9l.7-1.8c.1-.2.1-.3.3-.4s.4-.2.5-.1.4.2.4.3.2.4.1.5l-.7,1.9c-.1.1-.1.3-.3.4h-.5c-.2,0-.4-.1-.4-.3A.4.4,0,0,1,202.3,107.9Z" style="fill:#49194f"/><path d="M225.6,38.3c-5.5,15.7-17.5,25.8-24.8,23.2s-11.3-18.6-5.9-34.4S223.7.7,223.7.7,231,22.5,225.6,38.3Z" style="fill:#fff"/><path d="M165.3,83.1c7.2,12,18.8,18.2,24.4,14.9s6.1-17.3-1.1-29.3S160.4,52,160.4,52,158.1,71.1,165.3,83.1Z" style="fill:#fff"/><path d="M228.3,42.5c-5.4,15.4-17.9,25-25.9,22.3S189.8,46,195.1,30.5s30-25.2,30-25.2S233.6,27,228.3,42.5Z" style="fill:#c7a6cc"/><path d="M162.3,85c7.2,12,18.8,18.2,24.4,14.9s6-17.3-1.2-29.3-28.2-16.7-28.2-16.7S155.1,73,162.3,85Z" style="fill:#c7a6cc"/><path d="M203.2,62.7a12.6,12.6,0,0,1-2.7-.4c-3.8-1.4-6.9-6.2-8.2-12.9a43.8,43.8,0,0,1,1.9-22.5c2.9-8.3,10.7-15.2,16.7-19.5A78.5,78.5,0,0,1,223.4.1h.6a.4.4,0,0,1,.4.4c.3.9,7.4,22.2,1.9,38h0C221.5,52.2,211.2,62.7,203.2,62.7ZM223.3,1.8c-4.1,2-22.9,11.9-27.7,25.6a44,44,0,0,0-1.8,21.7c1.2,6.2,3.9,10.6,7.2,11.7,6.7,2.4,18.4-6.9,23.9-22.8C229.6,24.4,224.5,5.9,223.3,1.8Zm2.3,36.5Z" style="fill:#49194f"/><path d="M186.1,99.6a17.6,17.6,0,0,1-8.3-2.6,39.5,39.5,0,0,1-13.1-13.5h0c-7.2-12.1-5.1-30.8-5-31.6a.5.5,0,0,1,.3-.5.7.7,0,0,1,.6-.2,87.9,87.9,0,0,1,11.5,3.9c8.3,3.7,14.1,8.1,17.1,13.2,7.7,12.8,6.8,26.8.9,30.3A7.4,7.4,0,0,1,186.1,99.6Zm-25-46.7c-.3,3.8-1.2,19.6,4.9,29.8h0a37.2,37.2,0,0,0,12.5,13c4.3,2.5,8.4,3.1,10.8,1.6,5.2-3.1,5.8-16.4-1.3-28.2C181.8,58.8,165,53.9,161.1,52.9Z" style="fill:#49194f"/><path d="M200.8,62.3h-.3a.6.6,0,0,1-.4-.9L223,.5a.9.9,0,0,1,1-.5.7.7,0,0,1,.4,1L201.5,61.8C201.3,62.1,201.1,62.3,200.8,62.3Z" style="fill:#49194f"/><path d="M204.6,52.1a.8.8,0,0,1-.7-.4.8.8,0,0,1,.4-1l13.2-6.9a.7.7,0,0,1,1,.3.8.8,0,0,1-.3,1L205,52Z" style="fill:#49194f"/><path d="M209.5,39a.6.6,0,0,1-.6-.4l-7-16.2a.8.8,0,1,1,1.4-.6L210.2,38a.7.7,0,0,1-.4,1Z" style="fill:#49194f"/><path d="M215.1,24.3a.9.9,0,0,1-.6-.3.7.7,0,0,1,.2-1l8.6-6.6a.7.7,0,0,1,.9,1.1l-8.6,6.6Z" style="fill:#49194f"/><path d="M191.6,96.9a.9.9,0,0,1-.6-.3L159.8,52.4a.7.7,0,0,1,.2-1,.7.7,0,0,1,1,.1l31.2,44.2a.8.8,0,0,1-.1,1.1Z" style="fill:#49194f"/><path d="M187,90.3h-.2l-20.4-4.6a.8.8,0,0,1,.3-1.5l20.4,4.7a.8.8,0,0,1,.6.9A.8.8,0,0,1,187,90.3Z" style="fill:#49194f"/><path d="M180.7,81.5a.8.8,0,0,1-.7-.8v-20a.8.8,0,0,1,.7-.8.9.9,0,0,1,.8.8v20A.9.9,0,0,1,180.7,81.5Z" style="fill:#49194f"/><path d="M172.5,69.9h-.1l-11.3-1.4a.8.8,0,1,1,.1-1.5l11.4,1.4a.8.8,0,0,1,.7.8A.8.8,0,0,1,172.5,69.9Z" style="fill:#49194f"/><path d="M114.8,137.7c3-1.2,9.2,3.3,11.8,5.1a43.1,43.1,0,0,1,13,14.9,78.4,78.4,0,0,1-5.3-17.5c-.8-4.2-.8-9,3.5-12a4.2,4.2,0,0,1,2.2-.8c2-.1,3,1.6,3.4,2.9a79.7,79.7,0,0,1,3.2,26.9,24.7,24.7,0,0,1,8-16.8,4.7,4.7,0,0,1,3.7-1.7,3.2,3.2,0,0,1,2.6,2.4c2.1,5.6-.8,11.4-3.7,16.8,1.1-4.9,6.7-9.2,13.6-10.4a3.6,3.6,0,0,1,2.3,0,2.4,2.4,0,0,1,1.1,1.2c.8,2-4.9,13-5.4,13.9H129.5a40.4,40.4,0,0,1-8.1-5.4c-5.5-4.8-7-9.4-7.3-10.5S111.7,138.8,114.8,137.7Z" style="fill:#fff"/><path d="M119.1,138.1c3-1.1,9.2,3.5,11.7,5.5a43.3,43.3,0,0,1,13.1,15.5,79.7,79.7,0,0,1-5.3-18.3c-.8-4.4-.9-9.5,3.5-12.6a3.9,3.9,0,0,1,2.2-.8c1.9-.1,2.9,1.7,3.3,3.1a83.9,83.9,0,0,1,3.3,28.1,26.5,26.5,0,0,1,8-17.6,4.4,4.4,0,0,1,3.7-1.7,3.1,3.1,0,0,1,2.6,2.4c2.1,5.9-.8,12-3.7,17.7,1.1-5.2,6.7-9.7,13.6-11a4.1,4.1,0,0,1,2.2.1,2.4,2.4,0,0,1,1.2,1.2c.8,2.1-4.9,13.6-5.4,14.5H133.8a37.4,37.4,0,0,1-8.2-5.6c-5.4-5.1-6.9-9.9-7.2-11S116,139.3,119.1,138.1Z" style="fill:#f0a74d"/><path d="M168.8,163.3H129.2a33.3,33.3,0,0,1-8.3-5.5c-5.2-4.6-7-9.1-7.5-10.8-2.1-7.1-.6-9.3,1.2-9.9h0c2.9-1.1,7.9,2,12.4,5.2a44.2,44.2,0,0,1,9.3,9,71.1,71.1,0,0,1-2.7-10.8c-.7-3.9-1.1-9.5,3.8-12.8a5.6,5.6,0,0,1,2.6-1c1.9,0,3.4,1.3,4.1,3.5a83.7,83.7,0,0,1,3.3,19.6,28.5,28.5,0,0,1,6.7-9.9,5.1,5.1,0,0,1,4.3-1.8,4,4,0,0,1,3.2,2.8,15.3,15.3,0,0,1-.2,9.9,22.5,22.5,0,0,1,9.3-4,6.2,6.2,0,0,1,2.7.1,3.7,3.7,0,0,1,1.5,1.6c.8,2-3,10-5.4,14.5A.7.7,0,0,1,168.8,163.3Zm-39.1-1.5h38.7c3.3-6.3,5.5-11.9,5.1-12.8a1.3,1.3,0,0,0-.7-.8,4.1,4.1,0,0,0-1.9,0A18.6,18.6,0,0,0,160,154a43,43,0,0,1-2.1,4.3.7.7,0,0,1-.9.3.6.6,0,0,1-.5-.8,9.7,9.7,0,0,1,2.2-4.4c1.9-4.3,2.9-8.2,1.5-12.1a2.5,2.5,0,0,0-2-1.8,3.8,3.8,0,0,0-3.1,1.4,24.5,24.5,0,0,0-7.7,15.6,2.5,2.5,0,0,1-.1.8.7.7,0,0,1-.7.7c-.4-.1-.8-.4-.8-.8a2.2,2.2,0,0,0,.1-.8,75.4,75.4,0,0,0-3.3-25.8c-.2-.8-.8-2.5-2.5-2.5H140a6,6,0,0,0-1.8.7c-4.1,2.8-3.8,7.5-3.2,11.3a78.4,78.4,0,0,0,5.3,17.3.8.8,0,0,1-.4,1,.8.8,0,0,1-1-.3,40.7,40.7,0,0,0-12.8-14.6c-2.1-1.5-8.4-6.1-11-5.1h0c-1.6.5-1.7,3.5-.3,8a22.4,22.4,0,0,0,7.1,10.2A34.2,34.2,0,0,0,129.7,161.8Z" style="fill:#49194f"/><path d="M277.1,145.2c-2.5-.7-7.5,2.3-9.6,3.5a31.1,31.1,0,0,0-10.7,9.9,44.5,44.5,0,0,0,4.4-11.6c.6-2.9.7-6.1-2.9-8.1a4.8,4.8,0,0,0-1.8-.5,2.8,2.8,0,0,0-2.7,2,42.5,42.5,0,0,0-2.7,17.9c-.1-4-2.4-8-6.5-11.3a4.4,4.4,0,0,0-3-1,2.5,2.5,0,0,0-2.2,1.5c-1.7,3.8.7,7.6,3,11.3-.8-3.3-5.4-6.2-11.1-7a3.7,3.7,0,0,0-1.8,0,1.7,1.7,0,0,0-.9.8c-.7,1.3,4,8.7,4.4,9.3h32.1a30.3,30.3,0,0,0,6.6-3.7c4.5-3.2,5.7-6.2,6-7S279.6,146,277.1,145.2Z" style="fill:#fff"/><path d="M273.6,145.7c-2.5-.8-7.5,2.4-9.6,3.7A32.1,32.1,0,0,0,253.4,160a52.2,52.2,0,0,0,4.3-12.4c.6-3,.7-6.5-2.9-8.6a3.5,3.5,0,0,0-1.8-.6,2.6,2.6,0,0,0-2.7,2.1,48.9,48.9,0,0,0-2.7,19.2c-.1-4.3-2.4-8.6-6.5-12a3.9,3.9,0,0,0-3-1.2,2.5,2.5,0,0,0-2.2,1.7c-1.7,4,.7,8.1,3,12-.8-3.5-5.4-6.6-11.1-7.5a3.6,3.6,0,0,0-1.8.1,1.7,1.7,0,0,0-.9.8c-.7,1.4,4,9.3,4.4,9.9h32.1a31.2,31.2,0,0,0,6.6-3.8c4.5-3.5,5.7-6.8,6-7.6S276.1,146.5,273.6,145.7Z" style="fill:#c7a6cc"/><path d="M265.1,162.6H232.9l-.6-.3c-3.5-5.5-5-8.9-4.4-10.1a2.3,2.3,0,0,1,1.4-1.1,5,5,0,0,1,2.1-.1,20.2,20.2,0,0,1,7.4,2.5,8.1,8.1,0,0,1-.1-6.3,3.3,3.3,0,0,1,2.8-2,4.5,4.5,0,0,1,3.5,1.3,19.5,19.5,0,0,1,5.4,6.2,40.7,40.7,0,0,1,2.7-12.6,3.4,3.4,0,0,1,3.4-2.5,7,7,0,0,1,2.2.7c4.1,2.3,3.8,6.1,3.2,8.8a47.1,47.1,0,0,1-1.9,6.4,35.9,35.9,0,0,1,7.1-5.4c3.7-2.2,7.8-4.3,10.2-3.6h0a2.6,2.6,0,0,1,1.6,1.3c.6,1.3.4,3.1-.5,5.7s-2.1,4.4-6.2,7.4a33.7,33.7,0,0,1-6.8,3.6Zm-31.7-1.5H265a29.3,29.3,0,0,0,6.3-3.5c4-2.8,5.3-5.6,5.7-6.6,1-2.8.8-4,.5-4.5s-.3-.4-.6-.5h0c-2.2-.7-7.3,2.3-9,3.3a30.5,30.5,0,0,0-10.4,9.7.7.7,0,1,1-1.3-.7,43.2,43.2,0,0,0,4.2-11.5c.8-3.6.1-5.8-2.5-7.2a4.8,4.8,0,0,0-1.4-.5,2,2,0,0,0-2,1.5,42.3,42.3,0,0,0-2.7,17.1,1.3,1.3,0,0,1,.1.6.7.7,0,0,1-.7.7.8.8,0,0,1-.8-.7,1.1,1.1,0,0,0-.1-.5c-.3-3.6-2.5-7.2-6.2-10.2a3.4,3.4,0,0,0-2.5-.9,1.7,1.7,0,0,0-1.5,1.1c-1.1,2.4-.3,5,1.2,7.7a7.9,7.9,0,0,1,1.9,3.1,1,1,0,0,1-.5.9.8.8,0,0,1-.9-.3l-1.7-2.8c-1.9-1.9-5.2-3.3-8.9-3.9h-1.5l-.5.4C229.1,153.6,230.9,157.2,233.4,161.1Z" style="fill:#49194f"/></svg>