<svg id="_1" data-name="1" xmlns="http://www.w3.org/2000/svg" width="287.1" height="172.5" viewBox="0 0 287.1 172.5"><title>Artboard 4</title><rect x="-683.6" y="-41.5" width="1000" height="950" style="fill:#fff"/><rect y="159.3" width="287.1" height="13.17" style="fill:#49194f"/><path d="M182.4,66.7s1.1-.8,1.2-1.3a7,7,0,0,1,1.1-2.3c.3-.3,1.1-3.2,1.6-3.1s-.3,2.8,0,2.8,3.8-4.5,4.4-3.9-2.9,3.8-2.7,4.1,4-2.5,4.3-2-3.4,2.9-3.3,3.2,4.1-1,4.1-.4-3.8,1.7-3.8,2,3.2.3,3.1.9-3.4.2-3.6.5a10.4,10.4,0,0,1-2.8,1.3l-2.8.7Z" style="fill:#fff"/><path d="M183.2,69.9a.8.8,0,0,1-.7-.5l-.8-2.5a.7.7,0,0,1,.3-.8,3.7,3.7,0,0,0,.9-.9h0a7.6,7.6,0,0,1,1.3-2.6,6.6,6.6,0,0,0,.4-1.1c.6-1.5.9-2.3,1.8-2.3l.6.4a2.4,2.4,0,0,1,.2,1.3c1.8-2,2.6-2.8,3.3-2.8a.9.9,0,0,1,.7.3c.6.6.3,1.3-.4,2.3,1-.6,1.7-.7,2.1-.1s-.1,1.5-1.3,2.4c1-.1,1.5-.1,1.9.2a.7.7,0,0,1,.3.6c0,.8-.7,1.2-2,1.7.6.2,1,.3,1.2.6a1.9,1.9,0,0,1,.2.7c-.2,1.1-1.6,1-3.1,1h-.9a17,17,0,0,1-3,1.4l-2.8.6Zm.1-3,.4,1.4,2.1-.5a17.3,17.3,0,0,0,2.4-1,.9.9,0,0,1,.6-.4c-.2-.1-.2-.3-.2-.6a.8.8,0,0,1,.6-.8.9.9,0,0,1-1-.7,1.3,1.3,0,0,1,.1-.6.6.6,0,0,1-.9-.3.6.6,0,0,1-.1-.4c-.5.5-.8.6-1.1.6s-.5-.2-.6-.5l-.4.6a9.6,9.6,0,0,0-.9,2A2.8,2.8,0,0,1,183.3,66.9Zm6.1.7a.1.1,0,0,1-.1.1A.1.1,0,0,0,189.4,67.6Zm-5.2-5.1Z" style="fill:#49194f"/><path d="M138,93l-7.5,30.6a17.7,17.7,0,0,0-1.8,1.9c-2.2,2.8-2.6,5.6-3.7,10.4-.5,2.2-1.2,4.3-1.7,6.4s-1.9,6.8-3.4,11.8c-.8,2.5-1.5,5.1-1,5.3h.2c1.1-.4,9.3,0,9.3,0s-4.3-3.5-4.1-4.7,14.3-28.6,15.2-31.1S154.4,87,154.4,87H139.5Z" style="fill:#fff"/><path d="M142.3,91.2s13.9,30.9,13.8,32H156a35.9,35.9,0,0,1-1,3.9,24.1,24.1,0,0,0-.7,2.7c-.5,2.4-1.4,11.8-1.9,24.8,0,0-1.1,3.4,0,4s8.4.7,8.4.7l-4.2-5.3s9-30,7.9-32.4-9.4-33.4-9.4-33.4l-7.1-.9Z" style="fill:#fff"/><polygon points="152.4 56.4 145 57.1 145 47.3 149.9 46.4 152.4 56.4" style="fill:#fff"/><path d="M151.8,62.1c1.6-.7,3.6.6,7.6,3.3l9.7,6.7,13.8-6.4c.3,1.3.7,2.6,1,4a62.5,62.5,0,0,1-7.7,4.9c-3.8,2.1-5.7,3.1-7.9,3.2s-2.4,0-10.6-4.8c-6.4-3.8-7.5-4.9-7.8-6.5S150.4,62.7,151.8,62.1Z" style="fill:#fff"/><path d="M151.8,64.2c1.6-.7,3.6.6,7.6,3.4s7.5,5.1,9.7,6.7l13.8-6.5c.3,1.3.7,2.7,1,4a62.5,62.5,0,0,1-7.7,4.9c-3.8,2.1-5.7,3.1-7.9,3.2s-2.4,0-10.6-4.8c-6.4-3.7-7.5-4.9-7.8-6.5S150.4,64.9,151.8,64.2Z" style="fill:#c7a6cc"/><path d="M168.1,78.5c-1,0-3-.3-10.8-4.9s-7.8-5.1-8.1-7,.5-4.4,2.3-5.2h0c2-.9,4.3.6,8.3,3.4l9.4,6.5L182.6,65h.7a1,1,0,0,1,.4.5l.9,4a.8.8,0,0,1-.3.8,67.1,67.1,0,0,1-7.7,4.9c-3.9,2.2-5.9,3.2-8.3,3.3ZM152.7,62.6l-.6.2h0c-.9.4-1.6,2.1-1.4,3.6s1.2,2.3,7.4,5.9c8.2,4.8,9.6,4.8,10.2,4.7s3.8-1.1,7.6-3.1a71.5,71.5,0,0,0,7.1-4.5l-.6-2.7-13,6.1a.6.6,0,0,1-.7-.1L159,66.1C155.8,63.9,153.9,62.6,152.7,62.6Zm-.9-.5Z" style="fill:#49194f"/><path d="M145,52.9l-2.9,3.3c2.2,2.1,5,4.2,7.2,6.3V65l4.3,3.1C150.7,63.1,147.9,58,145,52.9Z" style="fill:#d0ecfe"/><path d="M151.6,52.5l3.5,1.6c-.3,2.5-.5,4.9-.8,7.4l1.9,1.6c-.6,1.7-1.3,3.3-2,5C153.4,62.9,152.5,57.7,151.6,52.5Z" style="fill:#d0ecfe"/><path d="M119,160.2h-.4c-.8-.4-.9-1.4.5-6.3s2.4-7.8,3.4-11.7a18.7,18.7,0,0,1,.7-2.2c.3-1.4.7-2.8,1.1-4.2a16,16,0,0,1,.5-2.1c.8-3.7,1.3-6.1,3.3-8.5a15.4,15.4,0,0,1,1.7-1.9l7.5-30.4h0l1.5-6a.9.9,0,0,1,.7-.6h14.9a.8.8,0,0,1,.6.4.6.6,0,0,1,.1.7c-.1.3-14,34.2-14.9,36.6s-3.7,7.7-7.2,14.7-7.6,15.1-8,16.2a16.5,16.5,0,0,0,3.9,4,1,1,0,0,1,.2.9.8.8,0,0,1-.7.5,70.4,70.4,0,0,0-9.1-.1Zm.5-1.2Zm-.6-.3Zm3.2-.2h4.2c-1.6-1.5-2.9-3-2.8-4s2.1-4.7,8.2-16.7c3.3-6.6,6.7-13.4,7.1-14.5s12.1-29.8,14.5-35.7H140.1l-1.3,5.4-7.6,30.7a.5.5,0,0,1-.2.4l-1.7,1.8c-1.8,2.2-2.3,4.4-3.1,7.9a22.5,22.5,0,0,1-.5,2.2c-.3,1.4-.7,2.8-1.1,4.2l-.6,2.2c-1,3.9-2.2,7.8-3.4,11.8a28.1,28.1,0,0,0-1.1,4.3Zm8.4-34.9Z" style="fill:#49194f"/><path d="M160.8,160.2h0c-1.8-.1-7.6-.3-8.8-.9s-.8-3.5-.4-4.7c.6-12.2,1.4-22.2,2-24.9s.6-2.7.6-2.8l.3-.7a14.1,14.1,0,0,0,.8-3h0c-.4-1.8-8.4-19.9-13.7-31.7a.6.6,0,0,1,.3-.9l5.6-3.9h.6l7.1.9a1.1,1.1,0,0,1,.7.6c2.8,10.7,8.4,31.5,9.3,33.3s-5.5,25-7.8,32.5l4,5a.8.8,0,0,1,.1.8A.8.8,0,0,1,160.8,160.2ZM143.2,91.5c6.4,14,13.8,30.7,13.6,31.8h0a29.3,29.3,0,0,1-.9,3.3,1.9,1.9,0,0,0-.2.7,18.4,18.4,0,0,0-.6,2.6c-.5,2.2-1.4,11.4-2,24.7v.2a6.6,6.6,0,0,0-.4,3.1c.5.3,3.5.5,6.5.6l-3.2-4.1a.7.7,0,0,1-.1-.6c4.2-14.2,8.5-30.2,7.9-31.9s-8.2-28.9-9.3-33.1l-6.3-.8Zm12.1,31.7Z" style="fill:#49194f"/><path d="M145,57.8l-.5-.2a.8.8,0,0,1-.2-.5V47.3a.9.9,0,0,1,.6-.8l4.9-.9a.9.9,0,0,1,.9.6l2.4,10c0,.2,0,.5-.1.6l-.6.4-7.3.6Zm.8-9.9v8.3l5.6-.5-2-8.5Z" style="fill:#49194f"/><circle cx="141.5" cy="46.1" r="1.9" style="fill:#fff"/><path d="M156.8,154.3a9.6,9.6,0,0,0,5,2.6,3,3,0,0,1,2.1.9,2.3,2.3,0,0,1,0,2l-12.4-.3a5.9,5.9,0,0,1,0-3.3,7.4,7.4,0,0,1,.9-1.8,2.7,2.7,0,0,0,2.9,1A2.1,2.1,0,0,0,156.8,154.3Z" style="fill:#fff"/><path d="M124.3,154.7a12.6,12.6,0,0,0,5.3,2.2c.6.1,1.7.2,2.2.9a2.8,2.8,0,0,1,0,2l-13.2-.3a9.7,9.7,0,0,1,.3-3.2,7.6,7.6,0,0,1,1-2.2l.6.6a3.4,3.4,0,0,0,2.6.7A2.2,2.2,0,0,0,124.3,154.7Z" style="fill:#fff"/><path d="M156.1,155.6a11.4,11.4,0,0,0,5,2.6,3,3,0,0,1,2.1.9,2.3,2.3,0,0,1,0,2l-12.4-.3a5.9,5.9,0,0,1,0-3.3,5,5,0,0,1,.9-1.8,2.6,2.6,0,0,0,2.8,1A3.1,3.1,0,0,0,156.1,155.6Z" style="fill:#f0a74d"/><path d="M123.5,156a15.1,15.1,0,0,0,5.4,2.2c.6.1,1.7.2,2.1.9a2.3,2.3,0,0,1,.1,2l-13.2-.3a7.6,7.6,0,0,1,.3-3.2,18.5,18.5,0,0,1,.9-2.3l.7.6a3.3,3.3,0,0,0,2.6.8A1.8,1.8,0,0,0,123.5,156Z" style="fill:#f0a74d"/><path d="M163.9,160.6h0l-12.4-.3a.7.7,0,0,1-.7-.6,7.6,7.6,0,0,1,0-3.7,5.4,5.4,0,0,1,1-2,.6.6,0,0,1,.6-.3c.2-.1.4,0,.6.2a1.9,1.9,0,0,0,3.2,0,.5.5,0,0,1,.5-.3c.2,0,.5,0,.6.2a9.1,9.1,0,0,0,4.6,2.3h.2a3.7,3.7,0,0,1,2.5,1.2,3.5,3.5,0,0,1,.1,2.7A.9.9,0,0,1,163.9,160.6Zm-11.8-1.8,11.3.3a2.2,2.2,0,0,0-.1-.9,2.2,2.2,0,0,0-1.4-.5h-.2a11.5,11.5,0,0,1-4.8-2.2,4.2,4.2,0,0,1-1.5.8,3.6,3.6,0,0,1-2.8-.6,3.6,3.6,0,0,0-.4.9A6.1,6.1,0,0,0,152.1,158.8Z" style="fill:#49194f"/><path d="M131.8,160.6h0l-13.2-.4a.8.8,0,0,1-.8-.7,13.2,13.2,0,0,1,.4-3.4,12.2,12.2,0,0,1,1-2.4.7.7,0,0,1,.6-.4l.6.3.6.4a2.2,2.2,0,0,0,1.9.7,1.5,1.5,0,0,0,.8-.5.8.8,0,0,1,1-.1,12.2,12.2,0,0,0,5,2h.2a2.6,2.6,0,0,1,2.6,3.9A.8.8,0,0,1,131.8,160.6Zm-12.5-1.8,11.9.3a1,1,0,0,0-.1-.9c-.2-.4-.9-.5-1.5-.6h-.1a13,13,0,0,1-5.2-2,2.7,2.7,0,0,1-1,.6,4.4,4.4,0,0,1-3.2-.9l-.5,1.2A8.5,8.5,0,0,0,119.3,158.8Z" style="fill:#49194f"/><path d="M155.8,42.9a9.8,9.8,0,0,1-1.3,4.7l-14.3,2.8c-.4-.2-4.5-2.5-4.9-7a8.1,8.1,0,0,1,3.5-7.4,10,10,0,0,1,6.5-1.2,9.4,9.4,0,0,1,6.8.6C155.8,37.5,155.8,42,155.8,42.9Z" style="fill:#49194f"/><circle cx="146.9" cy="43.5" r="6.5" style="fill:#fff"/><path d="M146.9,50.8a7.3,7.3,0,0,1-7.2-7.3,7.2,7.2,0,0,1,7.2-7.2,7.3,7.3,0,0,1,7.3,7.2A7.3,7.3,0,0,1,146.9,50.8Zm0-13a5.6,5.6,0,0,0-5.7,5.7,5.7,5.7,0,0,0,5.7,5.8,5.8,5.8,0,0,0,5.8-5.8A5.7,5.7,0,0,0,146.9,37.8Z" style="fill:#49194f"/><path d="M138.4,43.9c.1-.8.4-5.4,3.9-7.5,1.8-1.2,4.7-1.7,5.4-.7s-1.1,3.7-2.5,5A11.7,11.7,0,0,1,138.4,43.9Z" style="fill:#49194f"/><path d="M138.3,83.7l-8.1,37.4a62.9,62.9,0,0,0,9.3,2.5,52.5,52.5,0,0,0,16.2,1.1,50.4,50.4,0,0,0,9.8-1.8c-1.5-9.1-2.9-18.1-4.4-27.2l-4.4-12Z" style="fill:#fff"/><path d="M135.6,85.6,127.5,123a76.1,76.1,0,0,0,9.3,2.6,56.6,56.6,0,0,0,16.2,1,50.4,50.4,0,0,0,9.8-1.8c-1.5-9.1-2.9-18.1-4.4-27.2-1.4-4-2.9-8-4.4-12Z" style="fill:#f0a74d"/><path d="M151.3,125.7a57.1,57.1,0,0,1-11.9-1.3,63.7,63.7,0,0,1-9.5-2.6.7.7,0,0,1-.4-.8l8.1-37.5a.9.9,0,0,1,.7-.6h18.4a.8.8,0,0,1,.7.5l4.4,12.1h.1l4.3,27.2a.7.7,0,0,1-.5.8,57.6,57.6,0,0,1-9.9,1.9Zm-20.2-5.1a64.2,64.2,0,0,0,8.6,2.3,53.4,53.4,0,0,0,16,1.1,45.1,45.1,0,0,0,8.9-1.7l-4.2-26.4-4.2-11.5H138.9Z" style="fill:#49194f"/><path d="M147.1,56.6s-4.5-1-7.1,4.4-1.6,13-3.2,20.6c-.5,2-3.1,7-8.2,17.1l-6.7,12.8c2.2,3.8,4.6,4.9,6,5.3s2.7.2,7.2-.3l6.6-.5c3.6-8.8,7.1-17.7,10.7-26.6.5,8.8.9,17.5,1.4,26.3a10.4,10.4,0,0,1,4.3,1c3.3,1.3,4.3,3.4,6.3,3.3s2.1-.5,3.6-2.7A208.9,208.9,0,0,1,162.6,95c-1.1-6.1-1.9-11.8-2.5-17.2s2.4-9.8-3.5-16.8C153,56.8,148.8,57,147.1,56.6Z" style="fill:#fff"/><path d="M145.3,55.4s-4.5-1.1-7.1,4.3-1.6,13-3.2,20.6c-.5,2-3.1,7.1-8.2,17.1l-6.7,12.9c2.2,3.7,4.6,4.8,6,5.2s2.7.2,7.2-.2l6.6-.5,10.7-26.7c.5,8.8.9,17.6,1.4,26.3a15,15,0,0,1,4.3,1c3.3,1.4,4.3,3.4,6.3,3.3s2.1-.5,3.6-2.7a206.8,206.8,0,0,1-5.4-22.2c-1.1-6.1-1.9-11.9-2.5-17.2s2.4-9.9-3.5-16.9C151.2,55.5,147.1,55.7,145.3,55.4Z" style="fill:#c7a6cc"/><path d="M164.2,120.7a5.5,5.5,0,0,1-3.2-1.4,10.8,10.8,0,0,0-3.2-1.9,10.7,10.7,0,0,0-4-1,.7.7,0,0,1-.7-.7l-1.3-22.9-9.4,23.5a.8.8,0,0,1-.7.5l-6.5.5-2.4.2c-2.6.3-3.7.4-5.1,0s-4.7-2.6-6.5-5.6a.9.9,0,0,1,0-.7c2.3-4.3,4.5-8.6,6.7-12.9,4.8-9.3,7.7-14.9,8.1-16.9a73.3,73.3,0,0,0,1.2-9.1c.3-4.2.6-8.2,2.2-11.6,2.7-5.8,7.6-4.9,7.9-4.8h1a13.1,13.1,0,0,1,8.9,4.5c4.1,4.8,3.8,8.8,3.5,12.3a12.8,12.8,0,0,0,.2,4.8h0c.6,5.8,1.4,11.5,2.4,17.2a194.4,194.4,0,0,0,5.5,22.2.7.7,0,0,1-.2.6q-1.9,2.8-4.2,3Zm-9.7-5.7a12.4,12.4,0,0,1,3.9,1,14.1,14.1,0,0,1,3.5,2.1c1,.7,1.6,1.2,2.4,1.1s1.9-.7,2.9-2.1a185.3,185.3,0,0,1-5.3-22c-1.1-5.6-1.9-11.4-2.5-17.1a14,14,0,0,1-.2-5.4c.3-3.3.5-6.8-3.2-11.1a11.1,11.1,0,0,0-7.9-4l-1.2-.2h0c-.1,0-4-.8-6.2,4-1.5,3.2-1.7,7-2,11.1a79,79,0,0,1-1.2,9.3c-.5,2.1-2.9,6.8-8.2,17.3l-6.6,12.5c1.6,2.5,3.3,4,5.4,4.6s2,.2,4.5-.1l2.4-.2,6.2-.5,10.5-26.2a.6.6,0,0,1,.8-.4.6.6,0,0,1,.6.6Z" style="fill:#49194f"/><path d="M148.4,41.1a.6.6,0,1,0,1.2-.4c-.2-.3-.5-.5-.8-.3A.6.6,0,0,0,148.4,41.1Z" style="fill:#49194f"/><path d="M144.1,42.9a.6.6,0,1,0,.4-.8A.7.7,0,0,0,144.1,42.9Z" style="fill:#49194f"/><path d="M148,44.9l-.3-.2a.4.4,0,0,1,.1-.5l.7-.6h0l-1.1-1c-.2-.1-.2-.3-.1-.5a.3.3,0,0,1,.5-.1,4.3,4.3,0,0,1,1.2,1.1h.2a.8.8,0,0,1-.1.8,5.9,5.9,0,0,1-.8.8Zm.5-1.3Z" style="fill:#49194f"/><path d="M145.8,46c.1-.2.3-.4.5-.3h1.1c.2,0,.4.1.4.3s-.1.4-.3.4a3.3,3.3,0,0,1-1.4-.1C145.9,46.4,145.8,46.2,145.8,46Z" style="fill:#49194f"/><g style="opacity:0.49"><path d="M146.1,44c-.1-.3-1-.5-1.7,0s-.6.7-.5.9.8.2,1.2,0S146.2,44.3,146.1,44Z" style="fill:#c7a6cc"/></g><g style="opacity:0.49"><path d="M151.5,41.6c-.1-.4-1-.5-1.7-.1s-.6.7-.5.9.7.3,1.2.1S151.6,41.8,151.5,41.6Z" style="fill:#c7a6cc"/></g><path d="M154.2,69.4h-.1a.9.9,0,0,1-.7-.6l-2.9-16.5a.6.6,0,0,1,.3-.7.6.6,0,0,1,.7-.1l4.2,1.7a.8.8,0,0,1,.5.7l-.7,7.1,1.6,1.4a.7.7,0,0,1,.2.9L154.9,69A1,1,0,0,1,154.2,69.4Zm-.1-7.2.5,2.8.8-1.7Zm-1.5-8.3,1.1,6.3.6-5.6Z" style="fill:#49194f"/><path d="M154.7,70.2l-.5-.2-5.7-4.3a.6.6,0,0,1-.3-.6V63L141,57.1a.8.8,0,0,1-.2-.5.5.5,0,0,1,.2-.6l3.5-3.9.7-.2a.7.7,0,0,1,.5.4L155.3,69a.9.9,0,0,1-.1,1ZM150,64.6l1.2.9L150,63.4Zm-7-8.2,5.7,4.7-3.8-6.7Z" style="fill:#49194f"/><path d="M169.3,44.9s2.6-4.8,3-5.4a24.6,24.6,0,0,1,3.9-2.9c.4,0,1.2,0,1.2.4s-3.2,2.2-3.4,2.5-.9,1.6-.8,2.1,1.5-.9,1.8-1,1,.5.8.7-2.5,1.8-2.5,2.2a6.2,6.2,0,0,1-2.3,3.2C170,47.2,169.3,44.9,169.3,44.9Z" style="fill:#fff"/><path d="M173.4,43.6h-.2a3,3,0,0,0-.1-1.8h.1A2.7,2.7,0,0,1,173.4,43.6Z" style="fill:#174172"/><path d="M170.7,47.5h-.6c-.9-.4-1.4-1.9-1.5-2.3a.4.4,0,0,1,0-.5c.5-.9,2.6-5,3.1-5.5s3.5-3.1,4.3-3.2,1.3-.2,1.8.4a.8.8,0,0,1,.3.8c-.1.5-.4.8-2.3,2l-1.1.8h.2a1.4,1.4,0,0,1,1.5.7,1.3,1.3,0,0,1,0,1.2c-.1.2-.3.3-1,.8l-1.3,1.1a8,8,0,0,1-2.8,3.7Zm-.6-2.5c.2.4.4.9.6,1a7.2,7.2,0,0,0,1.9-2.5c0-.3.2-.6.6-1h-.3a.8.8,0,0,1-.5-.7,5.4,5.4,0,0,1,.6-1.8h-.1A52.4,52.4,0,0,0,170.1,45Zm4-1.6v0Zm.7-3.6h0Zm1.9-3.2Z" style="fill:#49194f"/><path d="M138.5,59.7s1-2.4,2.6-3.1,16.2-1.5,16.2-1.5L169.4,44l2.4,2.9S160.2,61,159.7,61.2s-17.2,5.1-19.7,3A4.2,4.2,0,0,1,138.5,59.7Z" style="fill:#fff"/><path d="M139.6,60.7s1.1-2.5,2.7-3.1,16.2-1.5,16.2-1.5l12.1-11.2,2.4,3S161.4,62,160.8,62.2s-17.2,5.1-19.6,3S139.6,60.7,139.6,60.7Z" style="fill:#c7a6cc"/><path d="M142.6,65.5a4.5,4.5,0,0,1-4.8-6.1h0c.1-.3,1.2-2.8,3-3.5S154,54.6,157,54.4l11.9-11,.6-.2a.5.5,0,0,1,.5.3l2.4,2.9a.9.9,0,0,1,0,1c-11.7,14.3-12.2,14.4-12.5,14.5S148.5,65.5,142.6,65.5ZM139.2,60c-.1.1-.6,1.9,1.3,3.6s15.4-2,18.8-3.1c1-.8,7.4-8.5,11.6-13.6l-1.6-1.8L157.9,55.7l-.5.2c-5.6.3-15,1-16,1.4S139.5,59.4,139.2,60Z" style="fill:#49194f"/><path d="M152.4,90.1h-.2a.8.8,0,0,1-.6-.9c.1-.1,3.3-14.6,2.3-19.6a.8.8,0,0,1,.6-.9.8.8,0,0,1,.9.6c1,5.3-2.2,19.6-2.3,20.3A.8.8,0,0,1,152.4,90.1Z" style="fill:#49194f"/><path d="M144.4,93.9h-.3l-7.3-2.3a1.2,1.2,0,0,1-.5-.5,1.3,1.3,0,0,1,.1-.6l1.3-2.5a.7.7,0,0,1,1-.3.8.8,0,0,1,.3,1l-.9,1.7,5.8,1.9,1.2-3.1a.7.7,0,0,1,1-.4.7.7,0,0,1,.4,1l-1.4,3.7A.8.8,0,0,1,144.4,93.9Z" style="fill:#49194f"/><path d="M151.6,72.8a.8.8,0,0,0,0,1.5A.8.8,0,1,0,151.6,72.8Z" style="fill:#49194f"/><path d="M151.2,81.4c0-.1-.1-.2-.2-.3h-.9l-.3.2a.3.3,0,0,1-.1.2.4.4,0,0,0-.1.3v.2c0,.2.1.3.1.4H151l.2-.3v-.5Z" style="fill:#49194f"/><path d="M46.2,153.3H46a.7.7,0,0,1-.5-.9,10.4,10.4,0,0,1,.4-1c.3-.8.5-1.2.3-1.8a7.5,7.5,0,0,0-.7-1.2,4,4,0,0,1-.7-3.6.8.8,0,0,1,1.5.5c-.4.9,0,1.5.5,2.3a4.8,4.8,0,0,1,.8,1.6,3.4,3.4,0,0,1-.3,2.7,3.2,3.2,0,0,0-.3.9A.9.9,0,0,1,46.2,153.3Z" style="fill:#49194f"/><path d="M41.6,146.5c2.1.2,4.3-.8,6.4-.3a16.1,16.1,0,0,0,2.9.9,4.2,4.2,0,0,0,3.7-1.8,10.8,10.8,0,0,0,2.6-4.7v-.4c-.3-1-3.3,2.9-3.8,3.2s-4.1-5.4-4.8-7.1c-1.1.9-.3,3.6-1.4,4.6a1.2,1.2,0,0,1-.9.3c-3.1.4-5.4-3.3-6.7-6.5-.9,1-.8,2.5-.5,3.8a10.2,10.2,0,0,1,.5,3.9c-.1.4-3.8-2.2-4.1-2.4s1,2.8,1.3,3.3a9.2,9.2,0,0,0,2.2,2.2A6.4,6.4,0,0,0,41.6,146.5Z" style="fill:#fff"/><rect x="34.9" y="152.4" width="22.7" height="6.93" style="fill:#fff"/><path d="M118.2,98.4h0a6.3,6.3,0,0,1-6.3-6.3v-56h12.5v56A6.3,6.3,0,0,1,118.2,98.4Z" style="fill:#fff"/><path d="M116.1,97.5h0a6.3,6.3,0,0,1-6.3-6.2V67.2h12.6V91.3A6.3,6.3,0,0,1,116.1,97.5Z" style="fill:#c7a6cc"/><path d="M118.5,99.1h-.7a6.7,6.7,0,0,1-6.7-6.7V36.1a.7.7,0,0,1,.8-.8h12.5a.7.7,0,0,1,.8.8V92.4A6.7,6.7,0,0,1,118.5,99.1Zm-5.9-62.3V92.4a5.2,5.2,0,0,0,5.2,5.2h.7a5.2,5.2,0,0,0,5.2-5.2V36.8Z" style="fill:#49194f"/><rect x="109.8" y="34.3" width="16.8" height="4.76" style="fill:#fff"/><path d="M125.6,39.8H110.7a1.8,1.8,0,0,1-1.7-1.7V35.2a1.8,1.8,0,0,1,1.7-1.7h14.9a1.8,1.8,0,0,1,1.7,1.7v2.9A1.8,1.8,0,0,1,125.6,39.8ZM110.7,35a.2.2,0,0,0-.2.2v2.9a.2.2,0,0,0,.2.2h14.9a.2.2,0,0,0,.2-.2V35.2a.2.2,0,0,0-.2-.2Z" style="fill:#49194f"/><path d="M120,73.5a1.8,1.8,0,0,1-1.7,1.7,1.8,1.8,0,0,1-1.8-1.7,1.7,1.7,0,0,1,1.8-1.7A1.7,1.7,0,0,1,120,73.5Z" style="fill:#fff"/><path d="M119.2,74.9a2.5,2.5,0,1,1,2.5-2.5A2.5,2.5,0,0,1,119.2,74.9Zm0-3.4a1,1,0,0,0-1,.9,1,1,0,0,0,2,0A1,1,0,0,0,119.2,71.5Z" style="fill:#49194f"/><path d="M116.5,65.1a3.2,3.2,0,1,1,3.3-3.2A3.2,3.2,0,0,1,116.5,65.1Zm0-4.9a1.7,1.7,0,1,0,0,3.4,1.7,1.7,0,1,0,0-3.4Z" style="fill:#49194f"/><path d="M38.7,60.3A2.1,2.1,0,0,0,38,59a2.7,2.7,0,0,0-2-.1,25,25,0,0,1-7.7.9,10.3,10.3,0,0,1-6.9-3.1A7.9,7.9,0,0,1,22.2,46a7.9,7.9,0,0,1,10.6.8c-1.1-3.1-2.2-6.2-1.7-9.4a13.1,13.1,0,0,1,4.3-7.2,15.2,15.2,0,0,1,7.2-3.8,9.8,9.8,0,0,1,7.8,1.7,11.5,11.5,0,0,1,3,4.2A16.2,16.2,0,0,1,54.6,41c4-5.1,10.4-9.1,16.7-7.7,4.7,1,8.5,5,10,9.5a20.5,20.5,0,0,1-1,14.2,12.9,12.9,0,0,1-3.9,5.5,11.6,11.6,0,0,1-5.1,1.8,17.4,17.4,0,0,1-16.5-7.4,65.2,65.2,0,0,0-3.4,21.4,17.8,17.8,0,0,1-2.6.4H46.2a8.1,8.1,0,0,1-4.3-1.6c-1.1-.9-.9-2.6-.9-3.9s-.4-4.1-.7-6.2A55.8,55.8,0,0,0,38.7,60.3Z" style="fill:#fff"/><path d="M35.7,57.5a2.1,2.1,0,0,0-.7-1.3,2.3,2.3,0,0,0-2-.1,25,25,0,0,1-7.7.9,10.3,10.3,0,0,1-6.9-3.1,7.9,7.9,0,0,1,.8-10.7,8,8,0,0,1,10.6.7c-1.1-3-2.2-6.1-1.7-9.3a13.1,13.1,0,0,1,4.3-7.2,15.2,15.2,0,0,1,7.2-3.8,9.8,9.8,0,0,1,7.8,1.7,11.5,11.5,0,0,1,3,4.2,16.2,16.2,0,0,1,1.2,8.7c4-5.1,10.4-9.1,16.7-7.7,4.7,1,8.5,5,10,9.5a20.5,20.5,0,0,1-1,14.2,12.9,12.9,0,0,1-3.9,5.5,11.6,11.6,0,0,1-5.1,1.8,17.6,17.6,0,0,1-16.5-7.4,65.2,65.2,0,0,0-3.4,21.4l-2.6.4H43.2a7.2,7.2,0,0,1-4.3-1.5c-1.1-.9-.9-2.6-.9-3.9s-.4-4.1-.7-6.2A55.8,55.8,0,0,0,35.7,57.5Z" style="fill:#c7a6cc"/><path d="M47.1,79.5h-1a8.4,8.4,0,0,1-4.7-1.7c-1.2-1-1.2-2.5-1.2-3.7v-.8a43.9,43.9,0,0,0-.7-6.1c-.4-2.2-.9-4.5-1.5-6.7h0a1.6,1.6,0,0,0-.5-.9,1.9,1.9,0,0,0-1.3,0,25.8,25.8,0,0,1-8,1,11.2,11.2,0,0,1-7.4-3.4,8.6,8.6,0,0,1,.9-11.7,8.6,8.6,0,0,1,9.6-.9,14,14,0,0,1-.9-7.3,13.1,13.1,0,0,1,4.5-7.6,15.8,15.8,0,0,1,7.5-4,10.5,10.5,0,0,1,8.4,1.8A11,11,0,0,1,54.1,32a17.1,17.1,0,0,1,1.4,6.7c5.5-5.9,11.7-7.1,16-6.1s8.8,4.9,10.5,10a21.5,21.5,0,0,1-1,14.7,12.7,12.7,0,0,1-4.2,5.8,12,12,0,0,1-5.4,2,18.4,18.4,0,0,1-16.3-6.6,67,67,0,0,0-3,19.8c0,.8-.6.9-3.2,1.1Zm3.5-1.2ZM39.4,60.1A57.3,57.3,0,0,1,41,67c.3,2.1.6,4.2.7,6.2v.9c0,1,0,2,.6,2.5A7.4,7.4,0,0,0,46.2,78h2.6l1.8-.3a68.5,68.5,0,0,1,3.5-21,.6.6,0,0,1,.6-.5.8.8,0,0,1,.7.3,17,17,0,0,0,15.8,7.1,11.8,11.8,0,0,0,4.7-1.7,11.8,11.8,0,0,0,3.7-5.2,19.7,19.7,0,0,0,1-13.6c-1.5-4.6-5.2-8.2-9.5-9.1-6.4-1.4-12.6,3.1-15.9,7.4a.8.8,0,0,1-.9.3,1,1,0,0,1-.5-.8,14.8,14.8,0,0,0-1-8.3,10,10,0,0,0-2.9-3.9,9,9,0,0,0-7.2-1.6,15.3,15.3,0,0,0-6.8,3.7,12.2,12.2,0,0,0-4.1,6.7c-.5,3.1.7,6.2,1.7,9a.8.8,0,0,1-.3.9.7.7,0,0,1-.9-.2,7.2,7.2,0,0,0-9.6-.6,7.1,7.1,0,0,0-.7,9.6,9.4,9.4,0,0,0,6.4,2.9,25.5,25.5,0,0,0,7.4-.9,3,3,0,0,1,2.6.2,2.8,2.8,0,0,1,1,1.7Z" style="fill:#49194f"/><path d="M68.6,121,53.3,96.4V69H37.9V96.4L22.6,121a6.3,6.3,0,0,0,5.4,9.6H63.2A6.3,6.3,0,0,0,68.6,121Z" style="fill:#fff"/><path d="M70.2,123.4l-6.7-10.6a4,4,0,0,1-1.3,1.3c-3.6,1.8-4.7-2.5-7.3-3.7s-2.3,4.7-4.9,5.4c-4.2,1-4.1-8.5-6.8-10.1a2,2,0,0,0-2.1-.2,5.8,5.8,0,0,0-1,1.2c-2.6,4.8-2.4,5.9-3.1,6.1s-2.9-.9-3.6-2.2-.3-1-.5-1.1-8.6,13.9-8.6,13.9h0a6.3,6.3,0,0,0,5.3,9.7H64.8A6.4,6.4,0,0,0,70.2,123.4Z" style="fill:#f0a74d"/><path d="M63.2,131.3H28a7,7,0,0,1-6-10.7L37.2,96.2V69a.7.7,0,0,1,.7-.7H53.3a.7.7,0,0,1,.7.7V96.2l15.2,24.4a7,7,0,0,1-6,10.7ZM38.7,69.8V96.4c0,.1-.1.2-.1.4L23.3,121.3a5.8,5.8,0,0,0-.2,5.7,5.5,5.5,0,0,0,4.9,2.8H63.2a5.4,5.4,0,0,0,4.9-2.8,5.6,5.6,0,0,0-.2-5.7L52.6,96.8c0-.2-.1-.3-.1-.4V69.8Z" style="fill:#49194f"/><rect x="35.4" y="66" width="20.4" height="6.28" rx="2.1" style="fill:#fff"/><path d="M54.2,73.1H37a2.3,2.3,0,0,1-2.3-2.3V67.6A2.3,2.3,0,0,1,37,65.3H54.2a2.3,2.3,0,0,1,2.3,2.3v3.2A2.3,2.3,0,0,1,54.2,73.1ZM37,66.8a.7.7,0,0,0-.8.8v3.2a.8.8,0,0,0,.8.8H54.2a.8.8,0,0,0,.8-.8V67.6a.7.7,0,0,0-.8-.8Z" style="fill:#49194f"/><path d="M47.9,102.9a3.1,3.1,0,0,1,0-6.1,3.1,3.1,0,1,1,0,6.1Zm0-4.6a1.5,1.5,0,0,0-1.5,1.5,1.5,1.5,0,0,0,1.5,1.6,1.6,1.6,0,0,0,1.6-1.6A1.6,1.6,0,0,0,47.9,98.3Z" style="fill:#49194f"/><path d="M41.4,121.7a3.1,3.1,0,0,1,0-6.1,3.1,3.1,0,1,1,0,6.1Zm0-4.6a1.6,1.6,0,0,0-1.5,1.6,1.5,1.5,0,0,0,1.5,1.5,1.6,1.6,0,0,0,1.6-1.5A1.6,1.6,0,0,0,41.4,117.1Z" style="fill:#49194f"/><path d="M55.8,118.3a2.6,2.6,0,0,1-2.6-2.6,2.6,2.6,0,1,1,5.2,0A2.6,2.6,0,0,1,55.8,118.3Zm0-3.7a1.1,1.1,0,1,0,1.1,1.1A1.1,1.1,0,0,0,55.8,114.6Z" style="fill:#49194f"/><path d="M43.7,90.8a2.6,2.6,0,0,1,0-5.2,2.6,2.6,0,0,1,0,5.2Zm0-3.7a1.1,1.1,0,1,0,1.1,1.1A1.1,1.1,0,0,0,43.7,87.1Z" style="fill:#49194f"/><circle cx="59.5" cy="21.1" r="2.3" style="fill:#fff"/><path d="M59.5,24.2a3,3,0,0,1-3-3.1,2.9,2.9,0,0,1,3-3,3,3,0,0,1,3.1,3A3.1,3.1,0,0,1,59.5,24.2Zm0-4.6a1.5,1.5,0,0,0-1.6,1.5,1.6,1.6,0,0,0,3.2,0A1.5,1.5,0,0,0,59.5,19.6Z" style="fill:#49194f"/><circle cx="63.3" cy="42.8" r="1.9" style="fill:#fff"/><path d="M63.9,46.5a2.6,2.6,0,1,1,2.6-2.6A2.6,2.6,0,0,1,63.9,46.5Zm0-3.7A1.1,1.1,0,1,0,65,43.9,1.1,1.1,0,0,0,63.9,42.8Z" style="fill:#49194f"/><circle cx="41.7" cy="42.3" r="3" style="fill:#fff"/><path d="M40.8,44.6a3.6,3.6,0,0,1-3.7-3.7,3.7,3.7,0,0,1,3.7-3.7,3.8,3.8,0,0,1,3.7,3.7A3.7,3.7,0,0,1,40.8,44.6Zm0-5.9a2.2,2.2,0,0,0-2.2,2.2,2.2,2.2,0,0,0,4.4,0A2.2,2.2,0,0,0,40.8,38.7Z" style="fill:#49194f"/><rect x="87.6" y="11.3" width="6" height="149.29" style="fill:#49194f"/><rect x="90.6" y="46" width="27.5" height="3" style="fill:#49194f"/><rect x="41.4" y="79.2" width="49.2" height="3" style="fill:#49194f"/><path d="M56,83.7H34.9a3.1,3.1,0,0,1-3-3,3,3,0,0,1,3-3H56a3,3,0,0,1,3,3A3.1,3.1,0,0,1,56,83.7Z" style="fill:#49194f"/><path d="M125.2,50.5h-16a3,3,0,0,1-3-3,3.1,3.1,0,0,1,3-3h16a3.1,3.1,0,0,1,3,3A3,3,0,0,1,125.2,50.5Z" style="fill:#49194f"/><rect x="36.5" y="154.5" width="22.7" height="6.93" style="fill:#f0a74d"/><path d="M57.6,160.1H34.9a.8.8,0,0,1-.7-.8v-6.9a.8.8,0,0,1,.7-.8H57.6a.8.8,0,0,1,.8.8v6.9A.8.8,0,0,1,57.6,160.1Zm-21.9-1.5H56.9v-5.5H35.7Z" style="fill:#49194f"/><path d="M41.6,149.1c2.1.3,4.3-.8,6.4-.2s1.9.8,2.9.9a4.7,4.7,0,0,0,3.7-1.8,11.8,11.8,0,0,0,2.6-4.8v-.4c-.3-.9-3.3,2.9-3.8,3.2s-4.1-5.4-4.8-7.1c-1.1.9-.3,3.6-1.4,4.6a1.2,1.2,0,0,1-.9.3c-3.1.4-5.4-3.3-6.7-6.4-.9.9-.8,2.4-.5,3.7a10.5,10.5,0,0,1,.5,3.9c-.1.5-3.8-2.2-4.1-2.3s1,2.7,1.3,3.2a9.2,9.2,0,0,0,2.2,2.2A6.4,6.4,0,0,0,41.6,149.1Z" style="fill:#c7a6cc"/><path d="M51.2,147.9h-.4a6,6,0,0,1-1.9-.6l-1-.3a9.2,9.2,0,0,0-3.3,0,10.8,10.8,0,0,1-3.1.2h0a6.5,6.5,0,0,1-2.9-1.1,9.1,9.1,0,0,1-2.4-2.4,15.1,15.1,0,0,1-.8-1.9,10.4,10.4,0,0,0-.4-1.3.6.6,0,0,1-.1-.8.7.7,0,0,1,1-.3H36l.4.4,2.5,1.5a7.9,7.9,0,0,0-.4-2c0-.2-.1-.4-.1-.7-.5-1.9-.3-3.4.6-4.4a.6.6,0,0,1,.7-.2.7.7,0,0,1,.5.4c.7,1.5,2.9,6.4,6.1,6.1l.4-.2a3,3,0,0,0,.4-1.8,4,4,0,0,1,1-2.8.7.7,0,0,1,.6-.2,1,1,0,0,1,.6.5,9.2,9.2,0,0,0,.3.9c.6,1.4,2.1,5.4,3.3,5.8H53l.9-.9c1.8-1.9,2.6-2.7,3.3-2.5a1.1,1.1,0,0,1,.7,1.4,10.9,10.9,0,0,1-2.7,5.1A5.3,5.3,0,0,1,51.2,147.9Zm-4.5-2.6,1.5.2,1.3.4a4.4,4.4,0,0,0,1.5.5,3.7,3.7,0,0,0,3-1.6,10.5,10.5,0,0,0,2.1-3.1L55,142.8c-.7.8-1,1.1-1.3,1.2a1.4,1.4,0,0,1-1.4.1c-1.4-.5-2.6-2.9-3.7-5.6h0a3.9,3.9,0,0,1-.8,2.8,3.3,3.3,0,0,1-1.4.6c-3.2.3-5.5-2.9-6.8-5.3a10,10,0,0,0,.2,1.6,6.4,6.4,0,0,1,.2.7,8.2,8.2,0,0,1,.3,3.5,1,1,0,0,1-.5.6c-.4.2-.8.1-2.7-1.1.1.4.3.7.3.8a10.1,10.1,0,0,0,2,2.1,6.5,6.5,0,0,0,2.2.8,13.4,13.4,0,0,0,2.8-.1A8.5,8.5,0,0,1,46.7,145.3Z" style="fill:#49194f"/><polygon points="199.5 65.2 181.7 41.8 185 39.3 200.3 59.5 226.1 40.3 256.4 57 254.4 60.6 226.4 45.2 199.5 65.2" style="fill:#fff"/><rect x="217" y="10.6" width="4.1" height="33.77" transform="translate(9.2 96) rotate(-25.2)" style="fill:#fff"/><rect x="226.6" y="34.3" width="16.3" height="4.1" transform="translate(35.4 165.5) rotate(-41.7)" style="fill:#fff"/><path d="M199.5,66a.6.6,0,0,1-.6-.3L181.1,42.2a.8.8,0,0,1,.2-1l3.3-2.5a.4.4,0,0,1,.5-.1l.5.2,14.8,19.7,25.2-18.8c.3-.1.6-.2.8,0l30.3,16.7a.7.7,0,0,1,.3,1L255.1,61a.5.5,0,0,1-.5.3.6.6,0,0,1-.6,0L226.5,46.1,199.9,65.8ZM182.8,41.9l16.8,22.3L226,44.6a.6.6,0,0,1,.8,0l27.3,15,1.3-2.3L226.1,41.2,200.7,60.1a.7.7,0,0,1-1-.2L184.9,40.3Z" style="fill:#49194f"/><path d="M224.4,44.4h-.3l-.4-.4L209.3,13.4a.7.7,0,0,1,.4-1l3.7-1.7h.5l.5.4,14.4,30.6a.8.8,0,0,1-.4,1l-3.7,1.7ZM211,13.5l13.7,29.2,2.4-1.2L213.3,12.4Z" style="fill:#49194f"/><path d="M230,44a.7.7,0,0,1-.6-.2l-2.7-3.1a.8.8,0,0,1-.2-.5.5.5,0,0,1,.3-.5l12.1-10.9.6-.2a.5.5,0,0,1,.5.3l2.7,3a.8.8,0,0,1,0,1.1L230.5,43.8A.6.6,0,0,1,230,44Zm-1.7-3.7,1.7,1.9,11.1-9.8-1.7-2Z" style="fill:#49194f"/><circle cx="211.8" cy="12.2" r="11.5" style="fill:#fff"/><path d="M266.4,61.9a11.5,11.5,0,1,1-7.9-14.1A11.3,11.3,0,0,1,266.4,61.9Z" style="fill:#fff"/><circle cx="242.4" cy="29.7" r="6.6" transform="translate(93 223) rotate(-59.3)" style="fill:#fff"/><circle cx="199.9" cy="62.4" r="10.6" transform="matrix(0.29, -0.96, 0.96, 0.29, 82.71, 235.88)" style="fill:#fff"/><path d="M191.3,42.8a8.3,8.3,0,0,1-10.2,5.7,8.3,8.3,0,1,1,4.5-15.9A8.3,8.3,0,0,1,191.3,42.8Z" style="fill:#fff"/><path d="M235.4,45.3a9.5,9.5,0,0,1-18.3-5.1,9.5,9.5,0,0,1,18.3,5.1Z" style="fill:#fff"/><path d="M221.5,17.1A11.5,11.5,0,1,1,213.6,3,11.5,11.5,0,0,1,221.5,17.1Z" style="fill:#c7a6cc"/><circle cx="253" cy="58.8" r="11.5" transform="translate(-4.2 22.2) rotate(-5)" style="fill:#f0a74d"/><circle cx="243.9" cy="27.5" r="6.6" transform="translate(148.9 253.8) rotate(-73.7)" style="fill:#f0a74d"/><path d="M210.1,67.5a10.6,10.6,0,1,1-7.4-13.1A10.6,10.6,0,0,1,210.1,67.5Z" style="fill:#c7a6cc"/><circle cx="181.8" cy="40.2" r="8.2" transform="translate(35.2 155) rotate(-50.6)" style="fill:#f0a74d"/><path d="M235.4,47.9a9.6,9.6,0,0,1-11.7,6.5,9.5,9.5,0,1,1,11.7-6.5Z" style="fill:#f0a74d"/><path d="M211.9,24.5a12.7,12.7,0,0,1-3.4-.5,12.1,12.1,0,0,1-7.3-5.8A12.2,12.2,0,0,1,215.2.5a12.2,12.2,0,0,1,8.4,15h0a12,12,0,0,1-5.8,7.4A12.4,12.4,0,0,1,211.9,24.5Zm-.1-23a10.8,10.8,0,0,0-10.3,7.8,10.7,10.7,0,0,0,1,8.2,10.8,10.8,0,0,0,6.4,5.1,11.1,11.1,0,0,0,8.2-1,10.7,10.7,0,0,0,5.1-6.5h0a10.7,10.7,0,0,0-7.5-13.2A9.2,9.2,0,0,0,211.8,1.5Z" style="fill:#49194f"/><path d="M255.4,71.1a12.6,12.6,0,0,1-3.3-.5,12.2,12.2,0,0,1-8.5-15.1,12.4,12.4,0,0,1,5.8-7.3,12.2,12.2,0,0,1,17.8,13.9h0A12.5,12.5,0,0,1,255.4,71.1Zm0-23a11.3,11.3,0,0,0-5.3,1.4,10.3,10.3,0,0,0-5,6.4,10.6,10.6,0,0,0,.9,8.2,10.7,10.7,0,1,0,12.3-15.6A10.1,10.1,0,0,0,255.4,48.1Zm11,13.8Z" style="fill:#49194f"/><path d="M242.4,37.1l-2-.3a6.7,6.7,0,0,1-4.4-3.5,7.3,7.3,0,0,1-.7-5.6,7.4,7.4,0,0,1,14.2,4h0a7.5,7.5,0,0,1-3.5,4.5A7.4,7.4,0,0,1,242.4,37.1Zm0-13.2a5.9,5.9,0,0,0-5.6,4.2,5.4,5.4,0,0,0,.5,4.5,5.7,5.7,0,0,0,3.5,2.8,6.4,6.4,0,0,0,4.5-.5,6.3,6.3,0,0,0,2.8-3.6h0a5.6,5.6,0,0,0-.6-4.4,5.5,5.5,0,0,0-3.5-2.8A4.4,4.4,0,0,0,242.4,23.9Z" style="fill:#49194f"/><path d="M199.9,73.7a11,11,0,0,1-3.1-.4,11.4,11.4,0,0,1-6.8-5.4,10.8,10.8,0,0,1-1-8.6,11.4,11.4,0,0,1,14-7.9,11.8,11.8,0,0,1,6.8,5.4,11.3,11.3,0,0,1,1,8.6h0A11.4,11.4,0,0,1,199.9,73.7Zm0-21.2a9.9,9.9,0,0,0-8.6,14.7,9.7,9.7,0,0,0,5.9,4.6A9.9,9.9,0,0,0,209.4,65h0a10.3,10.3,0,0,0-.9-7.5,10,10,0,0,0-6-4.6A7.5,7.5,0,0,0,199.9,52.5Z" style="fill:#49194f"/><path d="M183.4,49.5l-2.5-.3a9.1,9.1,0,0,1-6.2-11.1A9,9,0,0,1,192,43h0A9,9,0,0,1,183.4,49.5Zm0-16.5a7.5,7.5,0,0,0-7.2,5.5,7.4,7.4,0,0,0,5.1,9.2,7.5,7.5,0,1,0,4.1-14.4A6.9,6.9,0,0,0,183.4,33Zm7.9,9.8Z" style="fill:#49194f"/><path d="M226.3,53a8.6,8.6,0,0,1-2.8-.4,10,10,0,0,1-6.2-4.8,10.6,10.6,0,0,1-.9-7.8A10.3,10.3,0,0,1,229,32.9a10.8,10.8,0,0,1,6.2,4.9,10.3,10.3,0,0,1,.9,7.7h0a10.2,10.2,0,0,1-4.9,6.2A9.5,9.5,0,0,1,226.3,53Zm-.1-18.9a8.8,8.8,0,0,0-8.4,6.3,8.8,8.8,0,0,0,6.1,10.8,8.7,8.7,0,0,0,4.7-16.8A9.9,9.9,0,0,0,226.2,34.1Zm9.2,11.2Z" style="fill:#49194f"/><path d="M182.8,36.7a1.8,1.8,0,1,1-1.8-1.8A1.8,1.8,0,0,1,182.8,36.7Z" style="fill:#fff"/><circle cx="197.1" cy="58.3" r="1.8" style="fill:#fff"/><path d="M250.8,56.5a1.8,1.8,0,1,1-1.8-1.8A1.8,1.8,0,0,1,250.8,56.5Z" style="fill:#fff"/><path d="M224.3,39.4a1.5,1.5,0,0,1-1.5,1.5,1.5,1.5,0,0,1,0-3A1.5,1.5,0,0,1,224.3,39.4Z" style="fill:#fff"/><path d="M209.1,7.1a1.8,1.8,0,1,1-1.8-1.8A1.8,1.8,0,0,1,209.1,7.1Z" style="fill:#fff"/><path d="M242.8,27.2a1.3,1.3,0,0,1-1.2,1.3,1.3,1.3,0,0,1-1.3-1.3,1.2,1.2,0,0,1,1.3-1.2A1.2,1.2,0,0,1,242.8,27.2Z" style="fill:#fff"/><path d="M181,39.3a2.6,2.6,0,0,1-2.6-2.6,2.6,2.6,0,0,1,2.6-2.5,2.5,2.5,0,0,1,2.5,2.5A2.6,2.6,0,0,1,181,39.3Zm0-3.6a1.1,1.1,0,0,0-1.1,1,1.1,1.1,0,0,0,1.1,1.1,1.1,1.1,0,0,0,1-1.1A1.1,1.1,0,0,0,181,35.7Z" style="fill:#49194f"/><path d="M197.1,60.8a2.6,2.6,0,0,1-2.6-2.5,2.6,2.6,0,0,1,2.6-2.6,2.6,2.6,0,0,1,2.5,2.6A2.5,2.5,0,0,1,197.1,60.8Zm0-3.6a1.1,1.1,0,0,0-1.1,1.1,1,1,0,0,0,1.1,1,.9.9,0,0,0,1-1A1,1,0,0,0,197.1,57.2Z" style="fill:#49194f"/><path d="M249,59a2.5,2.5,0,0,1-2.5-2.5,2.6,2.6,0,0,1,2.5-2.6,2.6,2.6,0,0,1,2.6,2.6A2.6,2.6,0,0,1,249,59Zm0-3.6a1.1,1.1,0,0,0-1,1.1,1,1,0,0,0,1,1,1,1,0,0,0,1.1-1A1.1,1.1,0,0,0,249,55.4Z" style="fill:#49194f"/><path d="M222.8,41.7a2.3,2.3,0,1,1,2.3-2.3A2.3,2.3,0,0,1,222.8,41.7Zm0-3.1a.8.8,0,1,0,.8.8A.9.9,0,0,0,222.8,38.6Z" style="fill:#49194f"/><path d="M207.3,9.7a2.6,2.6,0,0,1-2.5-2.6,2.5,2.5,0,0,1,2.5-2.5,2.6,2.6,0,0,1,2.6,2.5A2.6,2.6,0,0,1,207.3,9.7Zm0-3.6a.9.9,0,0,0-1,1,1,1,0,0,0,1,1.1,1.1,1.1,0,0,0,1.1-1.1A1,1,0,0,0,207.3,6.1Z" style="fill:#49194f"/><path d="M241.6,29.2a2,2,0,1,1,2-2A2,2,0,0,1,241.6,29.2Zm0-2.5a.5.5,0,0,0,0,1,.5.5,0,1,0,0-1Z" style="fill:#49194f"/><path d="M192.5,128.5h27a0,0,0,0,1,0,0V153a6.5,6.5,0,0,1-6.5,6.5H199a6.5,6.5,0,0,1-6.5-6.5V128.5A0,0,0,0,1,192.5,128.5Z" style="fill:#fff"/><path d="M218.1,161.8h-20c-1.8,0-3.2-3.3-3.2-7.3v-8.8h26.4v7.6c-.1,2.8.6,4.6-.5,6.3A6.6,6.6,0,0,1,218.1,161.8Z" style="fill:#f0a74d"/><path d="M219.4,128.5H192.5l-.8-2.8c-.2-.7.1-1.4.6-1.4h27.3c.5,0,.9.7.7,1.4Z" style="fill:#fff"/><path d="M214.6,160.2H197.4a5.7,5.7,0,0,1-5.7-5.6V128.5a.8.8,0,0,1,.8-.7h26.9a.7.7,0,0,1,.8.7v26.1A5.6,5.6,0,0,1,214.6,160.2Zm-21.4-30.9v25.3a4.1,4.1,0,0,0,4.2,4.1h17.2a4.1,4.1,0,0,0,4.1-4.1V129.3Z" style="fill:#49194f"/><path d="M219.4,129.3H192.5a.7.7,0,0,1-.7-.6l-.8-2.8a2.2,2.2,0,0,1,.2-1.8,1.4,1.4,0,0,1,1.1-.6h27.3a1.4,1.4,0,0,1,1.1.6,1.9,1.9,0,0,1,.3,1.8l-.8,2.8A.8.8,0,0,1,219.4,129.3Zm-26.3-1.5h25.8l.6-2.3a.4.4,0,0,0,0-.5H192.4c0,.1-.1.3,0,.5Z" style="fill:#49194f"/><rect x="200.1" y="132" width="1.8" height="22.1" rx="0.7" style="fill:#49194f"/><path d="M214.2,136H200.9a.8.8,0,0,1-.7-.8.7.7,0,0,1,.7-.7h13.3a.7.7,0,0,1,.7.7A.8.8,0,0,1,214.2,136Z" style="fill:#49194f"/><path d="M208.2,139.1h-7.1a.8.8,0,0,1-.8-.7.8.8,0,0,1,.8-.8h7.1a.8.8,0,0,1,.8.8A.8.8,0,0,1,208.2,139.1Z" style="fill:#49194f"/><path d="M214.3,142.3H201.1a.9.9,0,0,1-.8-.8.8.8,0,0,1,.8-.7h13.2a.8.8,0,0,1,.8.7A.9.9,0,0,1,214.3,142.3Z" style="fill:#49194f"/><path d="M208.4,145.4h-7.2a.7.7,0,0,1-.7-.7.7.7,0,0,1,.7-.8h7.2a.7.7,0,0,1,.7.8A.7.7,0,0,1,208.4,145.4Z" style="fill:#49194f"/><path d="M214.5,148.6H201.2a.8.8,0,0,1-.7-.8.7.7,0,0,1,.7-.7h13.3a.7.7,0,0,1,.7.7A.8.8,0,0,1,214.5,148.6Z" style="fill:#49194f"/><path d="M208.5,151.7h-7.2a.7.7,0,0,1-.7-.7.7.7,0,0,1,.7-.8h7.2a.7.7,0,0,1,.7.8A.7.7,0,0,1,208.5,151.7Z" style="fill:#49194f"/><rect x="220.3" y="99.1" width="16.4" height="5.11" rx="2.2" style="fill:#fff"/><path d="M247.2,154.8l-12.8-36.3V104.2H222.6v14.3l-12.8,36.3c-.9,2.5.6,5.2,2.8,5.2h31.8C246.6,160,248.1,157.3,247.2,154.8Z" style="fill:#fff"/><path d="M244.2,137.8H218.8l-6.7,20.3a3.4,3.4,0,0,0,2.9,4.8h32.8a3.4,3.4,0,0,0,2.9-4.8Z" style="fill:#c7a6cc"/><path d="M244.4,160.7H212.6a3.5,3.5,0,0,1-2.9-1.5,5.3,5.3,0,0,1-.6-4.6l12.8-36.3V104.2a.8.8,0,0,1,.7-.8h11.8a.8.8,0,0,1,.7.8v14.1l12.8,36.3h0a5.3,5.3,0,0,1-.6,4.6A3.5,3.5,0,0,1,244.4,160.7Zm-21-55.8v13.8l-12.8,36.4a3.6,3.6,0,0,0,.4,3.2,2.4,2.4,0,0,0,1.7,1h31.8a2.4,2.4,0,0,0,1.7-1,3.6,3.6,0,0,0,.4-3.2l-12.8-36.4V104.9Z" style="fill:#49194f"/><path d="M235.1,104.9H221.9a2.4,2.4,0,0,1-2.4-2.4v-1.8a2.4,2.4,0,0,1,2.4-2.4h13.2a2.4,2.4,0,0,1,2.4,2.4v1.8A2.4,2.4,0,0,1,235.1,104.9Zm-13.2-5.1a.9.9,0,0,0-.9.9v1.8a.9.9,0,0,0,.9.9h13.2a.9.9,0,0,0,.9-.9v-1.8a.9.9,0,0,0-.9-.9Z" style="fill:#49194f"/></svg>