<svg id="_1" data-name="1" xmlns="http://www.w3.org/2000/svg" width="284.7" height="158.8" viewBox="0 0 284.7 158.8"><title>Artboard 11</title><rect x="-363.8" y="-711.9" width="1000" height="950" style="fill:#fff"/><rect x="198.5" y="0.7" width="39.5" height="15.31" style="fill:#fff"/><rect x="197.2" y="2.4" width="39.5" height="15.31" style="fill:#c7a6cc"/><rect x="206" y="33.5" width="24.6" height="13.72" style="fill:#fff"/><rect x="207.9" y="31.1" width="24.5" height="13.43" style="fill:#f0a74d"/><rect x="168.1" y="33.5" width="24.6" height="13.72" style="fill:#fff"/><rect x="169.7" y="32.8" width="24.6" height="13.14" style="fill:#f0a74d"/><rect x="243.9" y="33.5" width="24.6" height="13.72" style="fill:#fff"/><rect x="245.5" y="32.2" width="24.6" height="13.72" style="fill:#f0a74d"/><rect x="250.5" y="67" width="11.4" height="9.01" style="fill:#fff"/><rect x="267.5" y="67" width="11.4" height="9.01" style="fill:#fff"/><rect x="232.4" y="67" width="11.4" height="9.01" style="fill:#fff"/><rect x="252.1" y="65.6" width="11.4" height="9.01" style="fill:#f0a74d"/><rect x="265.8" y="68.3" width="11.4" height="9.01" style="fill:#c7a6cc"/><rect x="231" y="68.3" width="11.4" height="9.01" style="fill:#c7a6cc"/><path d="M238.1,16.8H198.5a.7.7,0,0,1-.7-.7V.7a.7.7,0,0,1,.7-.7h39.6a.7.7,0,0,1,.7.7V16.1A.7.7,0,0,1,238.1,16.8Zm-38.8-1.5h38V1.5h-38Z" style="fill:#49194f"/><path d="M230.6,48H206a.8.8,0,0,1-.7-.8V33.5a.8.8,0,0,1,.7-.8h24.6a.9.9,0,0,1,.8.8V47.2A.9.9,0,0,1,230.6,48Zm-23.8-1.5h23.1V34.2H206.8Z" style="fill:#49194f"/><path d="M192.7,48H168.1a.8.8,0,0,1-.7-.8V33.5a.8.8,0,0,1,.7-.8h24.6a.9.9,0,0,1,.8.8V47.2A.9.9,0,0,1,192.7,48Zm-23.8-1.5H192V34.2H168.9Z" style="fill:#49194f"/><path d="M268.5,48H243.9a.9.9,0,0,1-.8-.8V33.5a.9.9,0,0,1,.8-.8h24.6a.8.8,0,0,1,.7.8V47.2A.8.8,0,0,1,268.5,48Zm-23.9-1.5h23.1V34.2H244.6Z" style="fill:#49194f"/><path d="M261.9,76.8H250.5a.8.8,0,0,1-.8-.7V67a.8.8,0,0,1,.8-.7h11.4a.7.7,0,0,1,.7.7v9.1A.7.7,0,0,1,261.9,76.8Zm-10.7-1.5h9.9V67.8h-9.9Z" style="fill:#49194f"/><path d="M278.9,76.8H267.5a.8.8,0,0,1-.8-.7V67a.8.8,0,0,1,.8-.7h11.4a.7.7,0,0,1,.7.7v9.1A.7.7,0,0,1,278.9,76.8Zm-10.7-1.5h9.9V67.8h-9.9Z" style="fill:#49194f"/><path d="M243.8,76.8H232.4a.8.8,0,0,1-.8-.7V67a.8.8,0,0,1,.8-.7h11.4a.7.7,0,0,1,.7.7v9.1A.7.7,0,0,1,243.8,76.8Zm-10.7-1.5H243V67.8h-9.9Z" style="fill:#49194f"/><path d="M218.3,25a.7.7,0,0,1-.7-.8V16.1a.7.7,0,0,1,.7-.8.8.8,0,0,1,.8.8v8.1A.8.8,0,0,1,218.3,25Z" style="fill:#49194f"/><path d="M218.3,34.2a.7.7,0,0,1-.7-.7V24.2a.7.7,0,0,1,.7-.7.8.8,0,0,1,.8.7v9.3A.8.8,0,0,1,218.3,34.2Z" style="fill:#49194f"/><path d="M256.2,34.2a.8.8,0,0,1-.8-.7V25H181.2v8.5a.8.8,0,0,1-.8.7.7.7,0,0,1-.7-.7V24.2a.7.7,0,0,1,.7-.7h75.8a.7.7,0,0,1,.7.7v9.3A.7.7,0,0,1,256.2,34.2Z" style="fill:#49194f"/><path d="M256.2,67.4a.9.9,0,0,1-.8-.8v-19a.8.8,0,0,1,.8-.7.7.7,0,0,1,.7.7v19A.8.8,0,0,1,256.2,67.4Z" style="fill:#49194f"/><path d="M273.2,67.4a.9.9,0,0,1-.8-.8V60.4H238.8v6.2a.8.8,0,0,1-.7.8.9.9,0,0,1-.8-.8V59.7a.8.8,0,0,1,.8-.8h35.1a.7.7,0,0,1,.7.8v6.9A.8.8,0,0,1,273.2,67.4Z" style="fill:#49194f"/><path d="M234.4,6.7H210.5a.7.7,0,0,1-.7-.8.7.7,0,0,1,.7-.7h23.9a.7.7,0,0,1,.8.7A.7.7,0,0,1,234.4,6.7Z" style="fill:#49194f"/><path d="M229.3,10.8H220a.8.8,0,0,1-.7-.8.7.7,0,0,1,.7-.7h9.3a.7.7,0,0,1,.7.7A.8.8,0,0,1,229.3,10.8Z" style="fill:#49194f"/><path d="M227.3,38.6H217a.8.8,0,0,1-.8-.8.7.7,0,0,1,.8-.7h10.3a.7.7,0,0,1,.7.7A.8.8,0,0,1,227.3,38.6Z" style="fill:#49194f"/><path d="M189.4,37.9H170.1a.8.8,0,0,1-.8-.7.9.9,0,0,1,.8-.8h19.3a.8.8,0,0,1,.7.8A.7.7,0,0,1,189.4,37.9Z" style="fill:#49194f"/><path d="M255.6,37.9h-8a.7.7,0,0,1-.7-.7.8.8,0,0,1,.7-.8h8a.9.9,0,0,1,.8.8A.8.8,0,0,1,255.6,37.9Z" style="fill:#49194f"/><path d="M266.3,37.9h-6.4a.8.8,0,0,1-.8-.7.9.9,0,0,1,.8-.8h6.4a.8.8,0,0,1,.7.8A.7.7,0,0,1,266.3,37.9Z" style="fill:#49194f"/><path d="M266.7,42.9H250.5a.8.8,0,0,1-.8-.7.9.9,0,0,1,.8-.8h16.2a.8.8,0,0,1,.7.8A.7.7,0,0,1,266.7,42.9Z" style="fill:#49194f"/><path d="M239.9,70.9h-5a.7.7,0,0,1-.7-.8.7.7,0,0,1,.7-.7h5a.7.7,0,0,1,.7.7A.7.7,0,0,1,239.9,70.9Z" style="fill:#49194f"/><path d="M259.9,70.9h-7.2a.7.7,0,0,1-.7-.8.7.7,0,0,1,.7-.7h7.2a.7.7,0,0,1,.7.7A.7.7,0,0,1,259.9,70.9Z" style="fill:#49194f"/><path d="M259.4,73.6h-3.8a.8.8,0,0,1-.7-.8.7.7,0,0,1,.7-.7h3.8a.7.7,0,0,1,.7.7A.8.8,0,0,1,259.4,73.6Z" style="fill:#49194f"/><path d="M275.7,70.9h-5.6a.7.7,0,0,1-.8-.8.7.7,0,0,1,.8-.7h5.6a.8.8,0,0,1,.8.7A.8.8,0,0,1,275.7,70.9Z" style="fill:#49194f"/><path d="M274.3,74.4h-2a.7.7,0,0,1-.7-.8.7.7,0,0,1,.7-.7h2a.7.7,0,0,1,.7.7A.7.7,0,0,1,274.3,74.4Z" style="fill:#49194f"/><rect y="144.3" width="284.7" height="14.52" style="fill:#49194f"/><path d="M103.5,34.5h-.6a1.5,1.5,0,0,1-.8-1.9,15.6,15.6,0,0,1,8.4-8.5,15.2,15.2,0,0,1,12-.1,1.5,1.5,0,0,1,.8,1.9,1.6,1.6,0,0,1-2,.9,12.3,12.3,0,0,0-9.6,0,12.8,12.8,0,0,0-6.8,6.9A1.4,1.4,0,0,1,103.5,34.5Z" style="fill:#49194f"/><path d="M95.4,31.2h-.6a1.5,1.5,0,0,1-.8-1.9,24.3,24.3,0,0,1,31.8-13.4,1.5,1.5,0,0,1,.8,1.9,1.5,1.5,0,0,1-1.9.9A21.4,21.4,0,0,0,96.8,30.3,1.5,1.5,0,0,1,95.4,31.2Z" style="fill:#49194f"/><path d="M86.6,27.7H86a1.6,1.6,0,0,1-.8-2A34,34,0,0,1,129.4,7a1.5,1.5,0,0,1,.8,1.9,1.6,1.6,0,0,1-2,.9A30.9,30.9,0,0,0,88,26.7,1.5,1.5,0,0,1,86.6,27.7Z" style="fill:#49194f"/><rect x="87.6" y="44" width="147.7" height="85.53" style="fill:#fff"/><rect x="84.8" y="41.4" width="147.7" height="88.12" style="fill:#c7a6cc"/><rect x="93" y="51.6" width="135.5" height="77.89" style="fill:#fff"/><rect x="72.6" y="129.5" width="177.8" height="14.91" style="fill:#fff"/><rect x="72.6" y="132" width="177.8" height="14.91" style="fill:#c7a6cc"/><path d="M235.4,130.3H87.6a.8.8,0,0,1-.7-.8V44a.7.7,0,0,1,.7-.7H235.4a.7.7,0,0,1,.7.7v85.5A.8.8,0,0,1,235.4,130.3Zm-147-1.5H234.6v-84H88.4Z" style="fill:#49194f"/><path d="M228.5,130.3H94.5a.8.8,0,0,1-.7-.8V53.9a.7.7,0,0,1,.7-.7h134a.8.8,0,0,1,.8.7v75.6A.9.9,0,0,1,228.5,130.3ZM95.3,128.8H227.8V54.7H95.3Z" style="fill:#49194f"/><path d="M250.4,145.2H72.6a.7.7,0,0,1-.7-.8V129.5a.7.7,0,0,1,.7-.7H250.4a.7.7,0,0,1,.7.7v14.9A.7.7,0,0,1,250.4,145.2Zm-177-1.5H249.6V130.3H73.4Z" style="fill:#49194f"/><path d="M165.6,48.2a2.9,2.9,0,1,1-5.7,0,2.9,2.9,0,0,1,5.7,0Z" style="fill:#fff"/><path d="M161.5,52.4a3.6,3.6,0,0,1-3.6-3.6,3.6,3.6,0,0,1,7.2,0A3.6,3.6,0,0,1,161.5,52.4Zm0-5.7a2.2,2.2,0,0,0-2.1,2.1,2.1,2.1,0,0,0,2.1,2.1,2.1,2.1,0,0,0,2.1-2.1A2.1,2.1,0,0,0,161.5,46.7Z" style="fill:#49194f"/><rect x="100.5" y="64.3" width="5.1" height="5.13" style="fill:#49194f"/><rect x="110.2" y="62.8" width="21.7" height="5.13" transform="translate(242.1 130.8) rotate(180)" style="fill:#f0a74d"/><path d="M130.9,70.2H109.2a.7.7,0,0,1-.8-.7V64.3a.7.7,0,0,1,.8-.7h21.7a.7.7,0,0,1,.7.7v5.2A.7.7,0,0,1,130.9,70.2Zm-21-1.5h20.3V65.1H109.9Z" style="fill:#49194f"/><rect x="135.5" y="65.4" width="12.9" height="5.13" style="fill:#c7a6cc"/><path d="M147,70.2H134.1a.7.7,0,0,1-.7-.7V64.3a.7.7,0,0,1,.7-.7H147a.8.8,0,0,1,.8.7v5.2A.8.8,0,0,1,147,70.2Zm-12.1-1.5h11.4V65.1H134.9Z" style="fill:#49194f"/><rect x="100.5" y="82.9" width="5.1" height="5.13" style="fill:#49194f"/><rect x="107.7" y="81.1" width="33.8" height="5.13" transform="translate(249.2 167.3) rotate(180)" style="fill:#f0a74d"/><rect x="145.9" y="84.2" width="67" height="5.13" transform="translate(358.7 173.5) rotate(180)" style="fill:#c7a6cc"/><rect x="110.2" y="72.6" width="28.8" height="5.13" transform="translate(249.2 150.4) rotate(180)" style="fill:#c7a6cc"/><rect x="143.5" y="75.2" width="18" height="5.13" style="fill:#c7a6cc"/><rect x="165.3" y="72.6" width="24.1" height="5.13" transform="translate(354.8 150.4) rotate(180)" style="fill:#f0a74d"/><path d="M142.9,88.8H109.2a.8.8,0,0,1-.8-.8V82.9a.7.7,0,0,1,.8-.7h33.7a.8.8,0,0,1,.8.7V88A.9.9,0,0,1,142.9,88.8Zm-33-1.5h32.3V83.7H109.9Z" style="fill:#49194f"/><path d="M214,88.8H147a.8.8,0,0,1-.7-.8V82.9a.7.7,0,0,1,.7-.7h67a.7.7,0,0,1,.7.7V88A.8.8,0,0,1,214,88.8Zm-66.2-1.5h65.4V83.7H147.8Z" style="fill:#49194f"/><path d="M138,80H109.2a.8.8,0,0,1-.8-.8V74.1a.8.8,0,0,1,.8-.8H138a.8.8,0,0,1,.7.8v5.1A.8.8,0,0,1,138,80Zm-28.1-1.5h27.3V74.8H109.9Z" style="fill:#49194f"/><path d="M159.9,80h-18a.9.9,0,0,1-.8-.8V74.1a.9.9,0,0,1,.8-.8h18a.9.9,0,0,1,.8.8v5.1A.9.9,0,0,1,159.9,80Zm-17.3-1.5h16.6V74.8H142.6Z" style="fill:#49194f"/><path d="M188.5,80H164.3a.8.8,0,0,1-.7-.8V74.1a.8.8,0,0,1,.7-.8h24.2a.8.8,0,0,1,.7.8v5.1A.8.8,0,0,1,188.5,80Zm-23.4-1.5h22.6V74.8H165.1Z" style="fill:#49194f"/><path d="M223,99.7H109.2a.7.7,0,0,1-.8-.7.7.7,0,0,1,.8-.8H223a.7.7,0,0,1,.7.8A.7.7,0,0,1,223,99.7Z" style="fill:#49194f"/><path d="M223,110.7H188.5a.8.8,0,0,1-.8-.8.7.7,0,0,1,.8-.7H223a.7.7,0,0,1,.7.7A.8.8,0,0,1,223,110.7Z" style="fill:#49194f"/><path d="M155.9,122.6H109.2a.7.7,0,0,1-.8-.7.7.7,0,0,1,.8-.8h46.7a.8.8,0,0,1,.8.8A.8.8,0,0,1,155.9,122.6Z" style="fill:#49194f"/><path d="M68,140.7s9.6,3.4,9.9,4.6a3.1,3.1,0,0,1,0,1.9L62,146.8s-.1-3.7.5-4.4a7.1,7.1,0,0,0,1-1.7Z" style="fill:#fff"/><path d="M68,142.6s9.6,3.4,9.9,4.7a2.8,2.8,0,0,1,0,1.8L62,148.7s-.1-3.6.5-4.3a9.1,9.1,0,0,0,1-1.8Z" style="fill:#c7a6cc"/><path d="M77.9,147.9h0l-16-.4a.7.7,0,0,1-.7-.7c0-1.5.1-4.1.7-4.9a5.2,5.2,0,0,0,.9-1.5.8.8,0,0,1,.7-.5h4.7c6.7,2.4,10.2,4.2,10.4,5.3a3,3,0,0,1,0,2.3A.7.7,0,0,1,77.9,147.9ZM62.7,146l14.6.4a2.5,2.5,0,0,0-.1-.8c-.6-.8-5.3-2.7-9.4-4.2H64a8.5,8.5,0,0,1-.9,1.5A8.6,8.6,0,0,0,62.7,146Z" style="fill:#49194f"/><path d="M55.1,82.3S68,104.9,68.3,106.1s1.1,34.1,1.1,34.1-1.8,2.1-3.9,1.8a10.6,10.6,0,0,1-3.7-1.4L58.9,110,37.7,83.9Z" style="fill:#fff"/><path d="M56.2,84.8c1.4,2.6,3.3,6.3,5.4,10.8,3.7,7.3,4.3,9.3,4.5,10.2,1.3,4,1.4,7,1.5,14.2s.1,12.8,0,20.2c-.3.3-1.6,2.1-3.7,1.8a9.7,9.7,0,0,1-3.5-1.4L57.6,111,37.7,85.7Z" style="fill:#f0a74d"/><path d="M65.9,142.8h-.5a10.6,10.6,0,0,1-4.1-1.5.9.9,0,0,1-.3-.5l-2.9-30.4-21-26a.9.9,0,0,1-.1-.7.8.8,0,0,1,.7-.5L55,81.6a.9.9,0,0,1,.8.4c3,5.3,13,22.7,13.3,24s.9,28.7,1.1,34.2c0,.2-.1.3-.2.5A6.1,6.1,0,0,1,65.9,142.8Zm-3.4-2.6a8.9,8.9,0,0,0,3.1,1.1,4.5,4.5,0,0,0,3.1-1.4c-.4-13-.9-32.5-1.1-33.6S59.8,92,54.7,83.1L39.2,84.5l20.2,25c.1.2.2.3.2.4Z" style="fill:#49194f"/><polygon points="49.7 30.9 49 43.1 57.4 42.7 54.9 31.3 49.7 30.9" style="fill:#fff"/><path d="M49,43.8l-.5-.2a.5.5,0,0,1-.2-.6l.6-12.2a.5.5,0,0,1,.3-.5l.5-.2,5.3.4a.6.6,0,0,1,.6.6l2.5,11.4c0,.2,0,.5-.1.6a.9.9,0,0,1-.6.3l-8.4.4Zm1.4-12.1-.6,10.6,6.6-.3L54.3,32Z" style="fill:#49194f"/><path d="M23.7,137.5s4.1,9.4,3.4,10.4a2.9,2.9,0,0,1-1.4,1.3l-10.5-12s2.6-2.5,3.5-2.5a8.5,8.5,0,0,0,2-.5Z" style="fill:#fff"/><path d="M22.4,138.6s4.1,9.4,3.4,10.4-1.3,1.3-1.3,1.3L13.9,138.4s2.6-2.6,3.6-2.6a8.6,8.6,0,0,0,1.9-.5Z" style="fill:#c7a6cc"/><path d="M25.7,149.9l-.5-.2-10.6-12a.8.8,0,0,1,.1-1c1-1,3-2.7,4-2.8a5.3,5.3,0,0,0,1.7-.4.6.6,0,0,1,.8.2l3.1,3.2v.3c2.8,6.5,4,10.2,3.3,11.2a5.1,5.1,0,0,1-1.7,1.5Zm-9.5-12.6,9.7,10.9.5-.6c.2-1-1.6-5.7-3.3-9.7l-2.6-2.8a8.6,8.6,0,0,1-1.7.3A10.4,10.4,0,0,0,16.2,137.3Zm10.2,10.3Z" style="fill:#49194f"/><path d="M52.9,83.7s-3.1,29.8-4.1,32.6-23.7,21.9-23.7,21.9-4.8-.4-5.9-4.3l20.6-21.7L37.7,85.1Z" style="fill:#fff"/><path d="M51.2,83.7s-3.1,28.6-4.1,31.3-22.8,21.1-22.8,21.1-4.5-.4-5.6-4.1l19.8-20.9-2-26Z" style="fill:#f0a74d"/><path d="M25.1,139H25c-.2,0-5.3-.5-6.5-4.9a.7.7,0,0,1,.2-.7L39,111.9,37,85.2a.7.7,0,0,1,.7-.8L52.9,83a.7.7,0,0,1,.6.2,1.4,1.4,0,0,1,.2.6c-.1,1.2-3.2,29.9-4.2,32.7s-21.6,20.3-23.9,22.3Zm-5-4.9c.9,2.5,3.8,3.2,4.7,3.4,8.8-7.4,22.6-19.6,23.3-21.5s3.1-22.6,4-31.4L38.5,85.8l2.1,26.3a1.4,1.4,0,0,1-.2.6Z" style="fill:#49194f"/><path d="M62.9,28.8a2.1,2.1,0,0,0-.1-2.3l-.3-.3c0-.2.2-.4.4-.6a3,3,0,0,0,.7-2.6,2.5,2.5,0,0,0-1.8-1.8c-.7-.2-1.5,0-2.1-.4s-.9-1.2-1.4-1.8a4.2,4.2,0,0,0-1.4-.9,2.1,2.1,0,0,0-1.1-.4,3.3,3.3,0,0,0-1.4.4,12.1,12.1,0,0,1-2,1.4c-.6.3-.7.1-2.8.2A5.9,5.9,0,0,0,47,20a3.7,3.7,0,0,0-1.6,1.7c-.5,1.1.1,1.6,0,3.3s-.9,2.1-.9,3.9a6.3,6.3,0,0,0,.8,3,3.9,3.9,0,0,0,1.6,1.5c.9.5,1.9.2,3,.1a19.9,19.9,0,0,1,4.2.4,8.6,8.6,0,0,0,4.2-.5,6.8,6.8,0,0,0,2.1-1.7l.8-1L62,30A3.4,3.4,0,0,0,62.9,28.8Z" style="fill:#49194f"/><path d="M48.9,40l-.9.8c-5.3,5.4-7,11.9-8.3,18a209.3,209.3,0,0,0-3.9,27.4s13.6,3.9,20.8-2.5c.9-4.7,1.7-8.9,2.3-12.7,1.2-6.6,1.9-11.5,1.6-17.1a24.6,24.6,0,0,0-.6-5.2,22.6,22.6,0,0,0-2.4-6.4l-1.7.2A11.1,11.1,0,0,1,48.9,40Z" style="fill:#fff"/><path d="M50.1,41.2l-.9.8c-5.7,5.3-7.6,11.5-9,17.4a184.8,184.8,0,0,0-4.1,26.5s14.5,3.7,22.2-2.4c1-4.6,1.8-8.7,2.5-12.3,1.2-6.4,2-11.1,1.7-16.5a18.9,18.9,0,0,0-.7-5,25.4,25.4,0,0,0-2.5-6.2l-1.8.2A12.7,12.7,0,0,1,50.1,41.2Z" style="fill:#f0a74d"/><path d="M44.8,88.2a33.7,33.7,0,0,1-9.2-1.3.7.7,0,0,1-.6-.7,230.4,230.4,0,0,1,3.9-27.5c1.4-6.3,3.1-12.9,8.6-18.4l.9-.9a.7.7,0,0,1,.9,0,10.3,10.3,0,0,0,6.5,2.3h1.6a.7.7,0,0,1,.8.3,27.6,27.6,0,0,1,2.4,6.6,22.4,22.4,0,0,1,.7,5.3c.3,5.8-.5,10.8-1.6,17.4-.7,4.2-1.5,8.5-2.3,12.7-.1.1-.1.3-.3.4C53.7,87.3,48.9,88.2,44.8,88.2Zm-8.2-2.5c2.6.6,13.3,2.7,19.4-2.4.7-4.1,1.5-8.3,2.2-12.4,1.1-6.4,1.9-11.4,1.6-17a28.9,28.9,0,0,0-.6-5,31,31,0,0,0-2.1-5.8H55.9a12.1,12.1,0,0,1-7-2.2l-.3.3c-5.2,5.3-6.9,11.6-8.2,17.7A199.5,199.5,0,0,0,36.6,85.7Z" style="fill:#49194f"/><circle cx="54.8" cy="28.7" r="6.8" transform="translate(14.7 75.8) rotate(-77.3)" style="fill:#fff"/><path d="M54.8,36.3h-.2a7.6,7.6,0,0,1-7.4-7.8h0a7.6,7.6,0,0,1,2.3-5.3A7.5,7.5,0,0,1,55,21.1a7.6,7.6,0,0,1,5.3,2.3,7.4,7.4,0,0,1,2,5.5A7.2,7.2,0,0,1,60,34.2,7.8,7.8,0,0,1,54.8,36.3Zm-6.1-7.8a6.1,6.1,0,0,0,5.9,6.3,6.1,6.1,0,0,0,6.3-6,6.3,6.3,0,0,0-1.7-4.3,5.9,5.9,0,0,0-4.3-1.9,5.4,5.4,0,0,0-4.3,1.7,5.7,5.7,0,0,0-1.9,4.2Z" style="fill:#49194f"/><path d="M50.8,25.9a4.2,4.2,0,0,1,.6-1.9l.3-.2h.4c.8.3,4.7,2.7,6.3,2s.7-1.2,1.2-1.1.7.5,1.6,2.4a2,2,0,0,0,.4.8,4.1,4.1,0,0,0-.9-4.1,8,8,0,0,0-1.9-1.3,10.8,10.8,0,0,0-3.2-1.3,10.7,10.7,0,0,0-2.5-.1l-1.8.3a5.7,5.7,0,0,0-3.8,4.6,2.7,2.7,0,0,1,2.2,2.4c.1.3,0,.6.1.9s.3.6.5.5.2-.6.2-.8.1-1.4.1-2.1S50.7,26.2,50.8,25.9Z" style="fill:#49194f"/><path d="M46.8,28.8a2.2,2.2,0,0,0,2,2.1,2.1,2.1,0,0,0,2.1-2,2,2,0,0,0-2-2.1A2,2,0,0,0,46.8,28.8Z" style="fill:#fff"/><path d="M57.2,26.9a.5.5,0,0,0,.6.6.6.6,0,0,0,.6-.6.6.6,0,0,0-1.2,0Z" style="fill:#49194f"/><path d="M52.6,27.2a.5.5,0,0,0,.6.6.6.6,0,0,0,.6-.6.6.6,0,0,0-.6-.6A.6.6,0,0,0,52.6,27.2Z" style="fill:#49194f"/><path d="M55.7,30.3l-.3-.2a.4.4,0,0,1,.2-.5l.8-.3h.1L55.7,28a.4.4,0,0,1,.1-.5c.2-.1.4-.1.5.1a6.4,6.4,0,0,1,.8,1.4c.1,0,.1.1.1.2s-.1.5-.3.7l-1,.4Zm.8-1Z" style="fill:#49194f"/><path d="M53.2,30.7a.4.4,0,0,1,.5-.2l.5.3.5.2c.2.1.4.3.3.5a.4.4,0,0,1-.5.2l-1.2-.5C53.1,31.1,53,30.8,53.2,30.7Z" style="fill:#49194f"/><g style="opacity:0.49"><path d="M54.1,28.9c0-.3-.8-.8-1.6-.6s-.8.4-.8.7.6.5,1.2.5S54,29.2,54.1,28.9Z" style="fill:#c7a6cc"/></g><g style="opacity:0.49"><path d="M60,28.4c0-.4-.9-.8-1.6-.6s-.8.4-.8.6.6.5,1.1.5A2,2,0,0,0,60,28.4Z" style="fill:#c7a6cc"/></g><path d="M48,40.6l6.3,4.3a56.5,56.5,0,0,1,.2,6.4c0,8.1-1.3,13.6-2.1,18.3a113.1,113.1,0,0,0-1.3,19.8,19.1,19.1,0,0,1-8.5,1,20.1,20.1,0,0,1-7.7-2.3,170.1,170.1,0,0,1,2-19.3A98.6,98.6,0,0,1,40.6,53a29.5,29.5,0,0,1,3.8-8A31.5,31.5,0,0,1,48,40.6Z" style="fill:#fff"/><path d="M46.8,40l5.7,4.3c.1,1.5.2,3.7.2,6.4,0,8.1-1.2,13.6-1.9,18.2a115.4,115.4,0,0,0-1.2,19.9,16.3,16.3,0,0,1-7.8,1,17.2,17.2,0,0,1-6.9-2.3c.4-8,1.1-14.6,1.8-19.4a108.9,108.9,0,0,1,3.4-15.7,28.3,28.3,0,0,1,3.4-8A27.6,27.6,0,0,1,46.8,40Z" style="fill:#c7a6cc"/><path d="M44.5,91.3h-2a19.8,19.8,0,0,1-7.9-2.5.7.7,0,0,1-.4-.7,179.4,179.4,0,0,1,1.9-19.4,94,94,0,0,1,3.8-15.8,31,31,0,0,1,3.8-8.2,32.3,32.3,0,0,1,3.8-4.5.6.6,0,0,1,.9-.1l6.4,4.3a.6.6,0,0,1,.3.6c.1,2.1.2,4.3.2,6.4a95.2,95.2,0,0,1-1.7,15.9c-.1.9-.3,1.7-.4,2.5a97.9,97.9,0,0,0-1.3,19.7.8.8,0,0,1-.5.7A20.5,20.5,0,0,1,44.5,91.3Zm-8.8-3.7a17.3,17.3,0,0,0,6.9,2.1,20.6,20.6,0,0,0,7.8-.8,103.7,103.7,0,0,1,1.3-19.5c.1-.8.3-1.6.4-2.5a84,84,0,0,0,1.7-15.6c0-2-.1-4-.2-6l-5.5-3.7A36.8,36.8,0,0,0,45,45.4a32.3,32.3,0,0,0-3.7,7.9,100.5,100.5,0,0,0-3.7,15.6A164.5,164.5,0,0,0,35.7,87.6Z" style="fill:#49194f"/><path d="M49.5,45.8H70.2a0,0,0,0,1,0,0V81.3A6.3,6.3,0,0,1,64,87.6H55.8a6.3,6.3,0,0,1-6.3-6.3V45.8a0,0,0,0,1,0,0Z" transform="translate(102.5 -12.1) rotate(70.4)" style="fill:#fff"/><rect x="66.9" y="58.1" width="20.7" height="4.76" transform="translate(108.2 -32.7) rotate(70.4)" style="fill:#fff"/><rect x="80.1" y="49" width="13.9" height="15.99" transform="translate(111.4 -44.2) rotate(70.4)" style="fill:#fff"/><rect x="66.9" y="58.1" width="20.7" height="4.76" transform="translate(108.2 -32.7) rotate(70.4)" style="fill:#fff"/><path d="M51.5,48.9H68.4a0,0,0,0,1,0,0V80.2a6.3,6.3,0,0,1-6.3,6.3H57.7a6.3,6.3,0,0,1-6.3-6.3V48.9a0,0,0,0,1,0,0Z" transform="translate(103.5 -11.5) rotate(70.4)" style="fill:#f0a74d"/><path d="M46.5,82.9a5.9,5.9,0,0,1-2.3-.5,5.4,5.4,0,0,1-2.8-3.1h0L37.6,68.6a5.6,5.6,0,0,1,3.3-7L75.8,49.2a.6.6,0,0,1,.6,0l.4.4,6.9,19.6a.6.6,0,0,1-.4.9L48.4,82.6A5.8,5.8,0,0,1,46.5,82.9Zm-3.7-4.1a4,4,0,0,0,2,2.2,4.2,4.2,0,0,0,3.1.2L82.1,69,75.6,50.9,41.4,63.1a3.9,3.9,0,0,0-2.4,5Z" style="fill:#49194f"/><path d="M78.5,71.8h-.3l-.4-.4L70.9,51.7a.4.4,0,0,1,0-.5.8.8,0,0,1,.4-.4l4.5-1.6a.8.8,0,0,1,1,.4l6.9,19.6a.6.6,0,0,1-.4.9l-4.5,1.6Zm-6-19.9L79,70.1,82.1,69,75.6,50.9Z" style="fill:#49194f"/><path d="M81.9,66.9h-.4a.9.9,0,0,1-.3-.5l-4.7-13a1,1,0,0,1,.4-1L92,47a.9.9,0,0,1,1,.5l4.6,13.1a.4.4,0,0,1,0,.5c-.1.2-.2.4-.4.4L82.1,66.9ZM78.2,53.6l4.1,11.6L96,60.4,91.8,48.7Z" style="fill:#49194f"/><rect x="86.2" y="51.7" width="3.2" height="3.74" transform="translate(108.8 -47.2) rotate(70.4)" style="fill:#49194f"/><rect x="88.2" y="57.4" width="3.2" height="3.74" transform="translate(115.5 -45.3) rotate(70.4)" style="fill:#49194f"/><path d="M71.6,70.1a15.1,15.1,0,0,0,3.2.3c.4-.2,2.3-2.2,2.7-2.5s1.6-1.3,1.9-1.1.7.4.5.7-2.5,2.1-2,2.7,3.4-.3,4-.9,1.6-3.1,1.9-3.1.9.1.8.6-1.1,2.6-1.3,2.9,2-1.6,2.2-1.4.5.7.3.9a13.1,13.1,0,0,1-1.5,1.2s-3.6,2.2-4.4,2.5l-5.4.8-2.9-.4Z" style="fill:#fff"/><path d="M74.5,74.4l-3-.4c-.4,0-.6-.3-.6-.7V70.1a.8.8,0,0,1,.2-.5.7.7,0,0,1,.6-.2l2.9.3,1.1-1.1a5.9,5.9,0,0,1,1.5-1.3l.5-.4c.8-.6,1.4-1.1,2.1-.8s.8.4.9,1a1,1,0,0,1-.2.9l-.4.4-1.3,1.2a5.3,5.3,0,0,0,2.6-.8,6.8,6.8,0,0,0,.8-1.5c.7-1.3,1-1.8,1.6-1.8a1.8,1.8,0,0,1,1.4.5,1.1,1.1,0,0,1,.1,1l-.2.6a.8.8,0,0,1,1,.2q.9,1,.3,1.8c0,.1-.2.3-1.7,1.4a41.7,41.7,0,0,1-4.6,2.6Zm-2.1-1.7,2.1.2,5.2-.8L83,70.3l-.3-.2c-.1-.1-.1-.2-.1-.4l-.2.2a6.7,6.7,0,0,1-3.9,1.2,1.6,1.6,0,0,1-1.2-.4,1.5,1.5,0,0,1,.2-1.8l-.8.8c-.9.9-1.3,1.3-1.6,1.4s-.5.2-2.7-.1Z" style="fill:#49194f"/><path d="M72.2,69.8l-14.8-4s.1-18.4-1.9-20-5.5-3-7.9.9,0,22.7,1.2,24.5,23.4,3.5,23.4,3.5S73.3,73.6,72.2,69.8Z" style="fill:#fff"/><path d="M70.4,69.8l-12.9-4s.1-18.4-1.6-20-4.8-3-6.8.9-.1,22.7,1,24.5,20.3,3.5,20.3,3.5S71.4,73.6,70.4,69.8Z" style="fill:#c7a6cc"/><path d="M72.2,75.4h0c-6.8-.5-22.8-1.9-24.1-3.8S44.5,50.3,47,46.3a5.5,5.5,0,0,1,3.8-2.8A6.3,6.3,0,0,1,56,45.2c.5.4,2.2,3.2,2.1,20l14.3,3.9c.3.1.5.3.5.5,1.2,4,.1,5.4-.2,5.6S72.4,75.4,72.2,75.4ZM51.6,44.9h-.5a4.7,4.7,0,0,0-2.9,2.2c-2.2,3.7.2,22.1,1.2,23.7s12.1,2.3,22.4,3.1c.2-.4.3-1.5-.2-3.5L57.2,66.5a.7.7,0,0,1-.6-.7c.1-8.6-.5-18.5-1.6-19.5A6,6,0,0,0,51.6,44.9Z" style="fill:#49194f"/></svg>