<svg id="_1" data-name="1" xmlns="http://www.w3.org/2000/svg" width="284.7" height="166.7" viewBox="0 0 284.7 166.7"><title>Artboard 9</title><rect x="-684.8" y="-479.5" width="1000" height="950" style="fill:#fff"/><path d="M228,129.9h46.7V116.2H227.8S231.2,121.9,228,129.9Z" style="fill:#fff"/><path d="M275.4,130.6H226.9l.4-1c3-7.5-.1-13-.1-13l-.7-1.1h48.9Zm-46.3-1.5h44.8V116.9H229A17.2,17.2,0,0,1,229.1,129.1Z" style="fill:#49194f"/><path d="M274.5,116.2c-3.9,3.9-4.3,6.4-4,8,0,0,.2,1,4,5.7h0Z" style="fill:#f0a74d"/><path d="M274.7,131.4H226.5a1.5,1.5,0,0,1,0-3h46.7V117.7H226.5a1.5,1.5,0,0,1,0-3h48.2a1.5,1.5,0,0,1,1.5,1.5v13.7A1.5,1.5,0,0,1,274.7,131.4Z" style="fill:#49194f"/><rect x="229.3" y="120.7" width="39.6" height="1.5" style="fill:#49194f"/><rect x="229.3" y="124.2" width="33.3" height="1.5" style="fill:#49194f"/><path d="M22.6,55.9a1.3,1.3,0,0,1-1.2-.5l-3.6-4.5A1.5,1.5,0,1,1,20.1,49l3.6,4.5a1.5,1.5,0,0,1-.2,2.1A1.6,1.6,0,0,1,22.6,55.9Z" style="fill:#49194f"/><path d="M15.7,54.1a1.3,1.3,0,0,1-1.1-.6,1.4,1.4,0,0,1,.2-2.1l6.5-5.2a1.5,1.5,0,0,1,1.9,2.3l-6.5,5.3A1.9,1.9,0,0,1,15.7,54.1Z" style="fill:#49194f"/><circle cx="35.4" cy="70.5" r="22.3" transform="translate(-36.3 103.2) rotate(-87.8)" style="fill:#fff"/><ellipse cx="34.4" cy="72.2" rx="22.3" ry="23" transform="translate(-37.6 37.4) rotate(-38.8)" style="fill:#f0a74d"/><path d="M35.4,93.5A23.1,23.1,0,1,1,53.4,56h0a22.7,22.7,0,0,1,4.9,17,22.3,22.3,0,0,1-8.4,15.4A22.7,22.7,0,0,1,35.4,93.5Zm0-44.6A21.6,21.6,0,1,0,52.2,57h0a21.6,21.6,0,0,0-14.4-8Z" style="fill:#49194f"/><circle cx="35.4" cy="70.5" r="17.2" transform="matrix(0.58, -0.81, 0.81, 0.58, -42.46, 57.99)" style="fill:#fff"/><path d="M35.5,88.5h-2a18.2,18.2,0,0,1-16-19.9,18.3,18.3,0,0,1,6.7-12.1,18.1,18.1,0,0,1,25.3,2.8h0a18.1,18.1,0,0,1-14,29.3ZM35.4,54a16.6,16.6,0,0,0-10.3,3.6A16.8,16.8,0,0,0,19,68.7,16.4,16.4,0,0,0,45.7,83.3a16.2,16.2,0,0,0,6.1-11,16.8,16.8,0,0,0-3.5-12.2h0A16.7,16.7,0,0,0,35.4,54Z" style="fill:#49194f"/><path d="M35.4,80h-1A9.4,9.4,0,0,1,28,76.5,9.5,9.5,0,0,1,36.5,61a9.2,9.2,0,0,1,6.4,3.5,9.5,9.5,0,0,1-1.5,13.4A9.3,9.3,0,0,1,35.4,80Zm0-17.6a7.7,7.7,0,0,0-5,1.8,7.6,7.6,0,0,0-3,5.4,8.4,8.4,0,0,0,1.7,5.9,8,8,0,0,0,5.4,3,8.5,8.5,0,0,0,6-1.7,8.1,8.1,0,0,0,1.2-11.4,8.2,8.2,0,0,0-5.4-3Z" style="fill:#49194f"/><path d="M29.9,64.3l-.6-.2-3.5-4.4a.7.7,0,0,1,.2-1,.7.7,0,0,1,1,.1l3.5,4.3a.9.9,0,0,1-.1,1.1Z" style="fill:#49194f"/><path d="M44.6,82.7l-.6-.3-3.4-4.3a.8.8,0,0,1,.1-1.1.8.8,0,0,1,1,.1l3.5,4.4a.7.7,0,0,1-.1,1Z" style="fill:#49194f"/><path d="M42.5,65.7a.5.5,0,0,1-.5-.3.7.7,0,0,1,.1-1l4.3-3.5a.8.8,0,0,1,1,.1.7.7,0,0,1-.1,1.1L43,65.6Z" style="fill:#49194f"/><path d="M24.2,80.5a.9.9,0,0,1-.6-.3.9.9,0,0,1,.1-1.1L28,75.6a.8.8,0,0,1,1.1.2.7.7,0,0,1-.1,1l-4.3,3.5Z" style="fill:#49194f"/><polygon points="39.1 84.9 38.2 69.5 33 70.6 39.1 84.9" style="fill:#fff"/><polygon points="33 70.6 38.2 69.5 32.3 55.2 33 70.6" style="fill:#fff"/><polygon points="38.1 85.1 37.1 69.7 31.9 70.8 38.1 85.1" style="fill:#f0a74d"/><polygon points="31.9 70.8 37.1 69.7 31.2 55.3 31.9 70.8" style="fill:#c7a6cc"/><path d="M39.2,85.7a.8.8,0,0,1-.7-.5L32.3,70.9a.6.6,0,0,1,0-.6,1,1,0,0,1,.5-.4L38,68.8h.6a.9.9,0,0,1,.3.6l1,15.4a.8.8,0,0,1-.6.8ZM34,71.2l4.1,9.5-.6-10.2Z" style="fill:#49194f"/><path d="M33,71.4l-.5-.2a.5.5,0,0,1-.3-.5l-.7-15.5c0-.3.3-.7.6-.7a.8.8,0,0,1,.9.4l5.9,14.4a.6.6,0,0,1,0,.6,1.3,1.3,0,0,1-.6.4l-5.2,1.1Zm.2-12,.5,10.3,3.5-.7Z" style="fill:#49194f"/><path d="M22.4,54.4c-.9.7.3,2.1,1.1,1.3S23.3,53.7,22.4,54.4Z" style="fill:#49194f"/><path d="M19.6,82.4a.9.9,0,0,0,1.1,1.4A.9.9,0,0,0,19.6,82.4Z" style="fill:#49194f"/><path d="M50.6,57.5a.9.9,0,0,0,1.1,1.4A.9.9,0,0,0,50.6,57.5Z" style="fill:#49194f"/><path d="M47.4,85.2a.9.9,0,0,0,1.1,1.4A.9.9,0,0,0,47.4,85.2Z" style="fill:#49194f"/><polygon points="27.3 155.7 50.3 104 83 155.4 27.3 155.7" style="fill:#fff"/><path d="M25.2,155.6l55.7-.4c-7.2-11.5-14.4-23-21.5-34.6l-3.9,9.9-4.6-17.3-4.6,27.2-2.8-15-7.1,14.1-2.1-5.6Z" style="fill:#f0a74d"/><path d="M26.1,156.5l24.1-54.1,34.1,53.7Zm24.3-50.9-22,49.3,53.2-.3Z" style="fill:#49194f"/><polygon points="49.3 155.3 79.2 89.6 112.2 155.7 49.3 155.3" style="fill:#fff"/><path d="M118.6,153.6l-71.3-.3q14.1-23.4,28-46.8l2.1-3.8,4.4,9.7,2-7.5,9,14.7,2.6-5.4Z" style="fill:#c7a6cc"/><path d="M113.4,156.4l-65.3-.3L79.2,87.8Zm-63-1.8,60.6.3L79.3,91.3Z" style="fill:#49194f"/><polygon points="152.5 155.7 118.6 114.2 70.4 155.4 152.5 155.7" style="fill:#fff"/><path d="M155.6,155.5l-82.1-.2,31.7-27.8,5.7,7.9,6.7-13.9,6.9,21.9,4.1-12.1L139,142.7l3.1-4.6Z" style="fill:#f0a74d"/><path d="M154.1,156.4l-85.7-.3,50.2-43Zm-81.7-1.7,78.5.2-32.4-39.7Z" style="fill:#49194f"/><rect y="152.2" width="284.7" height="14.52" style="fill:#49194f"/><path d="M264.5,151.6H209.7V132.5h55S260.7,140.5,264.5,151.6Z" style="fill:#fff"/><path d="M260.5,151.6H209.7V132.5h51S257,140.5,260.5,151.6Z" style="fill:#c7a6cc"/><path d="M265.5,152.4H208.9V131.8h57l-.5,1.1c-.1,0-3.9,7.9-.2,18.5Zm-55.1-1.5h53.1c-2.7-8.6-.9-15.1.1-17.6H210.4Z" style="fill:#49194f"/><path d="M209.9,132.5s2.5,5.3,2.4,9.6-2.4,9.5-2.4,9.5Z" style="fill:#49194f"/><path d="M266.2,153.1H209.7a1.5,1.5,0,0,1-1.5-1.5V132.5a1.5,1.5,0,0,1,1.5-1.5h56.5a1.5,1.5,0,0,1,1.5,1.5,1.4,1.4,0,0,1-1.5,1.5h-55v16.1h55a1.5,1.5,0,0,1,1.5,1.5A1.4,1.4,0,0,1,266.2,153.1Z" style="fill:#49194f"/><rect x="216.5" y="139.2" width="46.4" height="1.5" style="fill:#49194f"/><rect x="223.9" y="144" width="39.1" height="1.5" style="fill:#49194f"/><path d="M175.4,153h0a2.5,2.5,0,0,1-2.6-2.2V131.4a2.5,2.5,0,0,1,2.6-2.2h0a2.4,2.4,0,0,1,2.6,2.2v19.4A2.4,2.4,0,0,1,175.4,153Z" style="fill:#49194f"/><path d="M175.4,153.8a3.3,3.3,0,0,1-3.4-3V131.4a3.4,3.4,0,0,1,6.7,0v19.4A3.2,3.2,0,0,1,175.4,153.8Zm0-23.9a1.8,1.8,0,0,0-1.9,1.5v19.4a1.8,1.8,0,0,0,1.9,1.5,1.7,1.7,0,0,0,1.9-1.5V131.4A1.7,1.7,0,0,0,175.4,129.9Z" style="fill:#49194f"/><path d="M175.4,132.9a69.8,69.8,0,0,1-36.2-10.1,2.5,2.5,0,0,1-.9-3.6,2.7,2.7,0,0,1,3.6-.9,65.2,65.2,0,0,0,98.8-55.9A65.5,65.5,0,0,0,206.4,4.9a2.5,2.5,0,0,1-1-3.5A2.5,2.5,0,0,1,208.9.3a70.5,70.5,0,0,1-33.5,132.6Z" style="fill:#49194f"/><rect x="108" y="60.7" width="134.9" height="1.5" transform="translate(37.2 185.8) rotate(-61.3)" style="fill:#49194f"/><path d="M233.5,62.4a58.1,58.1,0,0,1-58.1,58,56.8,56.8,0,0,1-20.7-3.8h0a58.1,58.1,0,0,1-32.1-30.2,56.5,56.5,0,0,1-5.2-24,58,58,0,0,1,58-58.1H178a56.6,56.6,0,0,1,26.7,7.9h.1a59.1,59.1,0,0,1,6.8,4.7h0a57.8,57.8,0,0,1,20.6,33.3,46.3,46.3,0,0,1,1,6.5A51.2,51.2,0,0,1,233.5,62.4Z" style="fill:#fff"/><ellipse cx="180" cy="64.6" rx="57" ry="58" style="fill:#c7a6cc"/><path d="M232.2,50.3l-3.2.9c-3.1,1-5.9-6-7-9.4a8.9,8.9,0,0,0-9-6.3c-4.2.3-8.7-.4-11.5-2.8s-.3-3.8,2.1-3.2,4.9,1.8,5.7-2.1-5.3-4.8-3.6-7.9,4.1-2.5,5.9-2.5h0A57.8,57.8,0,0,1,232.2,50.3Z" style="fill:#fff"/><path d="M233.5,62.4a57.5,57.5,0,0,1-3.4,19.5,66.4,66.4,0,0,0-6.3,4c-2.8,2.5-3.2,8.7-5.8,11.5s-6.7,2.8-10.9,6.9-18.5,2.9-19.5,0,6.6-6.2,8-10-2.4-7.3,1.4-8,8-3.5,5.6-7.4,1-7.2-2.3-11.7-6.1-4.6-11-5.7-6.6-9-6.6-11.9,6.3-5.1,9.4-7.8,13.9-1.4,19.2,0S222,54.6,226.6,56.7a8.9,8.9,0,0,0,6.6.1A51.2,51.2,0,0,1,233.5,62.4Z" style="fill:#fff"/><path d="M235.1,49.2a20.2,20.2,0,0,0-3.3.9c-3.1,1-5.9-5.9-6.9-9.4a9.3,9.3,0,0,0-9.1-6.3c-4.1.4-8.7-.3-11.4-2.8s-.4-3.8,2.1-3.1,4.8,1.8,5.7-2.1-5.4-4.8-3.7-8,4.2-2.5,5.9-2.5h0A57.9,57.9,0,0,1,235.1,49.2Z" style="fill:#f0a74d"/><path d="M235.1,66.8a57.5,57.5,0,0,1-3.4,19.5,66.4,66.4,0,0,0-6.3,4c-2.8,2.5-3.2,8.7-5.8,11.5s-6.8,2.8-10.9,6.9-18.5,2.9-19.5,0,6.6-6.2,8-9.9-2.5-7.4,1.4-8.1,8-3.5,5.5-7.4,1.1-7.2-2.2-11.7-6.1-4.6-11-5.7-6.6-9-6.6-11.9,6.3-5.1,9.4-7.8,13.9-1.4,19.1,0S223.6,59,228.2,61.1a8.9,8.9,0,0,0,6.6.1A51.2,51.2,0,0,1,235.1,66.8Z" style="fill:#f0a74d"/><path d="M228.4,52a3.2,3.2,0,0,1-1.4-.3c-3.1-1.6-5.3-8.4-5.7-9.7-.9-3-4.3-6.1-8.2-5.8s-9.5-.6-12.1-2.9-1.6-2.8-1.3-3.4,2.3-1.6,4.1-1.1l.8.2c1.2.3,2.3.6,3,.2a2.8,2.8,0,0,0,1-1.9c.3-1.4-.5-2.3-1.9-3.6s-2.8-2.5-1.7-4.6,4.4-2.8,6.3-2.9l.3-.3.5.5a59.1,59.1,0,0,1,20.8,33.7l.2.7-.7.2-3.2.9ZM213.6,34.7a10.2,10.2,0,0,1,9.2,6.8c1.1,3.7,3,7.9,4.8,8.8a1.3,1.3,0,0,0,1.2.1l2.5-.7a57.3,57.3,0,0,0-20-32c-1.5.1-4,.4-5,2.2s0,1.5,1.4,2.7,2.9,2.6,2.4,5a4.2,4.2,0,0,1-1.8,2.9c-1.2.8-2.7.3-4.1,0l-.8-.3c-1.2-.3-2.2,0-2.3.4s.1.8.9,1.6c2.3,2,6.3,2.9,10.9,2.5Z" style="fill:#49194f"/><path d="M197.2,107.6a25.5,25.5,0,0,1-5.9-.6c-2.5-.5-4-1.4-4.4-2.5s1.5-3.9,3.8-5.9,3.6-3,4.2-4.5a7.1,7.1,0,0,0-.1-4.1c-.3-1.3-.6-2.4,0-3.3a3.1,3.1,0,0,1,2.1-1.2c2.1-.3,4.6-1.5,5.4-3.3a2.8,2.8,0,0,0-.4-2.9,8.5,8.5,0,0,1-.9-5.7c.1-1.9.3-3.8-1.3-5.9-2.9-3.8-5.1-4.3-9.1-5.1l-1.4-.4c-5.5-1.2-7.2-9.7-7.2-12.6s2.7-4,5.6-5.7a27.7,27.7,0,0,0,4-2.7c3.6-3.2,14.9-1.5,19.8-.2,3.1.9,6.1,4.7,9.1,8.4s4.5,5.7,6.4,6.6a8.6,8.6,0,0,0,6.1.1l.9-.3v.9a54.4,54.4,0,0,1,.3,5.7,58.1,58.1,0,0,1-3.4,19.8v.2l-1.1.7a38.1,38.1,0,0,0-5.3,3.4c-1.3,1.1-2.1,3.4-2.8,5.5s-1.6,4.5-2.9,5.9a14.2,14.2,0,0,1-4.7,2.9,21.8,21.8,0,0,0-6.3,4C205.5,106.9,201.2,107.6,197.2,107.6Zm2-66.7c-2.9,0-5.4.4-6.6,1.4a22.2,22.2,0,0,1-4.2,2.9c-2.4,1.4-4.9,2.9-4.9,4.4s1.7,10.2,6,11.2l1.4.3c4.1.9,6.8,1.5,10,5.7,1.9,2.6,1.7,4.9,1.6,6.9a6.8,6.8,0,0,0,.7,4.8,4.4,4.4,0,0,1,.5,4.3c-1.1,2.4-4.2,3.8-6.6,4.2a1.5,1.5,0,0,0-1,.5c-.3.4-.1,1.2.2,2.1a8.5,8.5,0,0,1,0,5c-.7,1.9-2.7,3.6-4.6,5.2s-3.8,3.1-3.4,4.2.9,1,3.3,1.6c5,1.1,12.4.6,15-1.9a19.4,19.4,0,0,1,6.7-4.2,15.8,15.8,0,0,0,4.2-2.6,14.5,14.5,0,0,0,2.5-5.3c.9-2.4,1.7-4.8,3.3-6.2a40.4,40.4,0,0,1,5.5-3.6l.7-.4a58.3,58.3,0,0,0,3.2-19,34.6,34.6,0,0,0-.2-4.6,9.6,9.6,0,0,1-6.2-.4c-2.3-1-4.6-4-7-7.1s-5.6-7.1-8.2-7.8A50.3,50.3,0,0,0,199.2,40.9Z" style="fill:#49194f"/><path d="M159.8,61.5c-2.8,4.3-20.2,4.3-20.9,9.1s-8,8.4-9.7,12a11.2,11.2,0,0,0-.8,6.7,11.3,11.3,0,0,0,3.9,7l1.4,1.1c2.2,1.5,2.4,2.6,1.6,3.2a5.4,5.4,0,0,1-3.1.5,58.3,58.3,0,0,1-9.6-14.7c-1.6-6-2.5-12.8-.8-17.2a31.1,31.1,0,0,0,1.2-3c2.5-6.5,3.1-8.8,1-12.7,0-.1,0-.2-.1-.2-2.2-4.1,1.8-21.1,10.5-23.5a6.5,6.5,0,0,1,3.1-.2s6.3,4.5,6.6,7.3,3.8,5,4.2,7.2-1.7,4.6,2.8,7.1S162.6,57.3,159.8,61.5Z" style="fill:#fff"/><path d="M155.6,60.8c-2.8,4.2-20.2,4.2-20.9,9.1s-8,8.4-9.7,12a12,12,0,0,0,3.1,13.7,7.1,7.1,0,0,0,1.4,1c2.2,1.5,2.4,2.6,1.6,3.2a4.7,4.7,0,0,1-3.1.6,60.1,60.1,0,0,1-9.6-14.7c-1.6-6.1-2.5-12.8-.8-17.3a31.1,31.1,0,0,0,1.2-3c2.5-6.5,3.1-8.8,1-12.7a.3.3,0,0,0-.1-.2c-2.1-4.1,1.8-21,10.5-23.5a10.6,10.6,0,0,1,3.1-.2s6.3,4.5,6.6,7.3,3.8,5.1,4.2,7.2-1.7,4.7,2.8,7.1S158.4,56.5,155.6,60.8Z" style="fill:#f0a74d"/><path d="M132.8,101.9h-.9l-.2-.3a58.6,58.6,0,0,1-9.8-14.8v-.2c-1.2-4.3-2.8-12.3-.8-17.7a31.1,31.1,0,0,0,1.2-3c2.5-6.5,2.9-8.5,1.1-12.1v-.2c-1.4-2.5-.6-9.2,1.8-14.7s5.5-8.8,9.1-9.8a9.6,9.6,0,0,1,3.4-.3h.3c.7.5,6.6,4.8,7,7.8.1,1.3,1.1,2.5,2.1,3.7a9,9,0,0,1,2,3.5,13.4,13.4,0,0,1,0,2c-.3,1.6-.4,3,2.4,4.5h.1c3.7,1.9,8.7,4.6,9.5,7.9a4.2,4.2,0,0,1-.6,3.4c-1.5,2.3-6,3.3-10.7,4.4s-9.8,2.3-10.1,4.4-3.3,5.7-5.8,8-3.3,2.9-4,4.3a10.5,10.5,0,0,0-.6,6.2,10.7,10.7,0,0,0,3.6,6.6l1.3,1c1.6,1,2.3,2,2.4,2.9a1.9,1.9,0,0,1-.8,1.5A4.6,4.6,0,0,1,132.8,101.9Zm-.2-1.5a3.7,3.7,0,0,0,2.2-.4c.2-.1.2-.2.2-.2s-.1-.7-1.7-1.8a5.8,5.8,0,0,1-1.5-1.1,12.1,12.1,0,0,1-4.1-7.5,12.9,12.9,0,0,1,.8-7.1c.8-1.6,2.5-3.1,4.3-4.7s5-4.5,5.4-7.1,5.6-4.3,11.2-5.6c4-1,8.6-2.1,9.7-3.8h0a2.5,2.5,0,0,0,.5-2.2c-.7-2.7-5.6-5.3-8.8-7h-.1c-3.8-2-3.5-4.2-3.2-6a9.2,9.2,0,0,0,.1-1.6,10.7,10.7,0,0,0-1.8-2.8,9.1,9.1,0,0,1-2.4-4.4c-.2-1.8-3.9-5-6.2-6.7a7.4,7.4,0,0,0-2.6.2c-4.3,1.2-6.9,6.1-8.1,9-2.4,5.5-2.9,11.5-1.9,13.4h0c.1.1.1.1.1.2,2.2,4.1,1.5,6.7-1,13.2a24.5,24.5,0,0,1-1.2,3.1c-1.9,4.9-.3,12.5.8,16.7A56.2,56.2,0,0,0,132.6,100.4Z" style="fill:#49194f"/><path d="M175.4,121.2a57.4,57.4,0,0,1-20.9-3.9h-.2A58.8,58.8,0,0,1,175.4,3.6H178a58.8,58.8,0,0,1,26.9,7.9h.1l.2.2a43.8,43.8,0,0,1,6.3,4.3h.1l.5.5a59.1,59.1,0,0,1,20.8,33.7,39.1,39.1,0,0,1,1,6.6,54.4,54.4,0,0,1,.3,5.7,58.1,58.1,0,0,1-3.4,19.8A58.9,58.9,0,0,1,175.4,121.2Zm-20.3-5.3a56.2,56.2,0,0,0,20.3,3.8,57.1,57.1,0,0,0,57.3-57.3c0-1.9-.1-3.7-.2-5.5s-.6-4.3-1-6.5A57.3,57.3,0,0,0,211.6,18h0l-.5-.4a48.8,48.8,0,0,0-6.6-4.6h-.1a57.5,57.5,0,0,0-26.5-7.8h-2.5a57.2,57.2,0,0,0-57.3,57.3,56.5,56.5,0,0,0,5.2,23.7,57.5,57.5,0,0,0,31.5,29.7h.3Z" style="fill:#49194f"/><path d="M214,153H136.9a2.6,2.6,0,0,1,0-5.2H214a2.6,2.6,0,1,1,0,5.2Z" style="fill:#fff"/><path d="M215.4,154.8H138.3a2.6,2.6,0,0,1-2.6-2.6,2.6,2.6,0,0,1,2.6-2.6h77.1a2.6,2.6,0,0,1,2.6,2.6A2.6,2.6,0,0,1,215.4,154.8Z" style="fill:#f0a74d"/><path d="M214,153.8H136.9a3.4,3.4,0,0,1,0-6.8H214a3.4,3.4,0,0,1,0,6.8Zm-77.1-5.3a1.9,1.9,0,0,0,0,3.8H214a1.9,1.9,0,0,0,0-3.8Z" style="fill:#49194f"/><path d="M148.3,112.6a.8.8,0,0,1-.8-.7.9.9,0,0,1,.8-.8h.4c20-.4,36.6-7.8,48.2-21.6,17.6-20.9,19.6-50,5.4-76a.8.8,0,1,1,1.3-.8c14.5,26.6,12.4,56.4-5.5,77.7-11.9,14.2-29,21.8-49.4,22.2Z" style="fill:#fff"/><path d="M178,4.4l-.6,2.2a49.5,49.5,0,0,1-1.9,6.6c-1,2.1-8.8,1.8-11.6-1.4-1.4-1.6-5.9-.4-10.2,1.3a88.4,88.4,0,0,0-8.5,3.9,2.8,2.8,0,0,0-1.5,2.9c-.1,1.8.5,4.1.1,6.6s-2.5-.4-4-3.1l-1.6-3.2-.8-1.7a57.6,57.6,0,0,1,38-14.2Z" style="fill:#fff"/><path d="M177,1.8l-.6,2.3a54.7,54.7,0,0,1-1.9,6.6c-.9,2.1-8.8,1.7-11.5-1.4s-6-.5-10.3,1.2-7.2,3.3-8.5,4-1.5,1.5-1.5,2.8.5,4.2.1,6.6-2.5-.4-3.9-3.1a28.1,28.1,0,0,1-1.7-3.2,5.1,5.1,0,0,1-.7-1.7A57.5,57.5,0,0,1,174.4,1.8Z" style="fill:#f0a74d"/><path d="M143.1,28.2c-.8,0-1.8-.7-3.9-4.5l-1.7-3.2a14.2,14.2,0,0,1-.8-1.8v-.5l.4-.3A58.7,58.7,0,0,1,175.4,3.6h3.5l-.7,3.1a46.1,46.1,0,0,1-2,6.7c-.4.9-1.4,1.5-3,1.7s-7.7-.5-9.8-2.9c-.5-.5-2.3-1.4-9.4,1.5-3.1,1.2-6.1,2.7-7.7,3.5l-.8.4c-.8.4-1.1,1-1.1,2.2s.1,1.3.1,2a18.4,18.4,0,0,1,0,4.7c-.2.9-.6,1.5-1.2,1.6Zm-4.8-9.5a6,6,0,0,0,.6,1.1,27.6,27.6,0,0,0,1.6,3.2,15.2,15.2,0,0,0,2.5,3.6v-.3a15.5,15.5,0,0,0,0-4.3c0-.7-.1-1.5-.1-2.2a3.6,3.6,0,0,1,1.9-3.5l.8-.3a68,68,0,0,1,7.8-3.6c6-2.4,9.6-2.7,11.1-1.1s5.8,2.8,8.5,2.4,1.7-.5,1.8-.8a56.1,56.1,0,0,0,1.9-6.5l.3-1.3h-1.6A57.3,57.3,0,0,0,138.3,18.7Z" style="fill:#49194f"/><path d="M147.4,112.4a.6.6,0,0,1-.6-.3h-.1c-5-6.7-20.7-30.7-10.4-59.3A59.6,59.6,0,0,1,161.4,22a70.6,70.6,0,0,1,40.7-10.1.7.7,0,0,1,.7.7.7.7,0,0,1-.8.8,69.1,69.1,0,0,0-39.8,9.8,59,59,0,0,0-24.5,30c-10,27.9,5.3,51.4,10.2,57.9h.1a.9.9,0,0,1-.2,1.1Z" style="fill:#fff"/><path d="M223.1,92.7h0c-35.7-1.7-60.8-16.2-75.5-28s-23.7-25.5-23.8-25.6A.9.9,0,0,1,124,38a.8.8,0,0,1,1.1.3c0,.1,7.6,12.6,23.4,25.3s39.4,25.9,74.7,27.6a.7.7,0,0,1,.7.7A.8.8,0,0,1,223.1,92.7Z" style="fill:#fff"/><path d="M147.7,112.6h-.3a.8.8,0,0,1-.4-1c6.3-13.4,12.7-26.1,20-40,10.8-20.2,21.7-39.1,34.4-59.2a.9.9,0,0,1,1.1-.2.8.8,0,0,1,.2,1C190,33.3,179.1,52.1,168.3,72.3c-7.3,13.9-13.6,26.5-19.9,39.9A.8.8,0,0,1,147.7,112.6Z" style="fill:#fff"/><path d="M113.6,141.9l1.7,4s1.9,2.2,2.9,1.9,1-3.1,1-3.1l-1.8-4.2Z" style="fill:#fff"/><path d="M118,148.5c-1.3,0-2.8-1.5-3.2-2.1l-.2-.2-1.7-4a.6.6,0,0,1,0-.6l.4-.4,3.9-1.5a.7.7,0,0,1,.9.5l1.8,4.2v.3c.1.7,0,3.3-1.4,3.8Zm-2-3a4.6,4.6,0,0,0,2,1.6,6,6,0,0,0,.5-2.3l-1.5-3.4-2.4.9Z" style="fill:#49194f"/><path d="M119.1,143.7s9.6-.4,10.5,1,.4,1.6.4,1.6l-12.5,5s-1.8-.9-2.1-2a12.9,12.9,0,0,1,0-2.9S119.7,147,119.1,143.7Z" style="fill:#fff"/><path d="M120.2,144.8s9.6-.4,10.4.9.5,1.7.5,1.7l-12.5,5s-1.8-.9-2.1-2a13.9,13.9,0,0,1,0-3S120.8,148.1,120.2,144.8Z" style="fill:#c7a6cc"/><path d="M117.5,152.1h-.3c-.4-.2-2.2-1.1-2.5-2.5a10.7,10.7,0,0,1,0-3.2.5.5,0,0,1,.3-.5l.5-.2c.5.1,2,.2,2.6-.4a1.6,1.6,0,0,0,.3-1.3.7.7,0,0,1,.1-.6.7.7,0,0,1,.6-.3c3.7-.2,10.1-.2,11.1,1.2s.6,2.4.3,2.7h-.2l-12.5,5Zm-1.4-4.9a13.4,13.4,0,0,0,.1,2,3,3,0,0,0,1.4,1.3l11.7-4.7c0-.2-.1-.4-.4-.7s-5-.8-9-.6a2.5,2.5,0,0,1-.7,1.7A4.1,4.1,0,0,1,116.1,147.2Z" style="fill:#49194f"/><path d="M87,83.2s-1.2,7,7.2,22.7c4.4,8.1,7,15,11,22.3s6.3,11,8.5,14.5l4.3-1.6s-4.4-18.4-4.9-20.1L101.8,78.7Z" style="fill:#fff"/><path d="M88.3,82.2s-1.2,7.1,7.2,22.7c4.4,8.1,7,15,11.1,22.4s6.3,11,8.4,14.5l4.4-1.6s-4.4-18.4-4.9-20.2-11.4-42.2-11.4-42.2Z" style="fill:#f0a74d"/><path d="M113.7,143.5a1,1,0,0,1-.7-.4c-2.9-4.7-5.7-9.6-8.4-14.5s-3.7-7.2-5.4-11-3.5-7.4-5.7-11.4c-8.4-15.6-7.3-22.8-7.3-23.1a1,1,0,0,1,.5-.6L101.5,78a.6.6,0,0,1,.6.1.8.8,0,0,1,.4.4l11.3,42.3c.6,1.7,4.8,19.4,4.9,20.1a.8.8,0,0,1-.4.9l-4.4,1.6Zm-26-59.7c-.1,1.7.1,8.7,7.1,21.7,2.2,4.1,4,7.8,5.7,11.5s3.4,7.2,5.4,10.9,5.3,9.4,8.1,13.9l3.1-1.2c-.7-3.2-4.2-17.9-4.7-19.4s-9.6-35.8-11.2-41.5Z" style="fill:#49194f"/><path d="M131.4,50.8a9.3,9.3,0,0,1,2.6-.3,15.3,15.3,0,0,0,3,.3,10.7,10.7,0,0,0,2.7-.9c.2-.3.2-.9-.1-.9s-3,.9-3.2,0,.9-1.2,1.3-1.3l5.3-.5c.6-.2-.3-1-1-1a45.1,45.1,0,0,0-5.2,0c-.4.1-3.5,1.5-3.8,1.5h-2Z" style="fill:#fff"/><path d="M86.8,143l.2,4.4s1,2.7,2.1,2.7,2-2.5,2-2.5l-.2-4.6Z" style="fill:#fff"/><path d="M89.1,150.9h0c-1.5-.1-2.5-2.5-2.8-3.2v-.2l-.2-4.5a.4.4,0,0,1,.2-.5.5.5,0,0,1,.5-.3h4.1a.8.8,0,0,1,.7.8l.2,4.5v.3C91.5,148.5,90.6,150.9,89.1,150.9Zm-1.3-3.6a5,5,0,0,0,1.3,2.1,4,4,0,0,0,1.2-2v-3.7H87.6Z" style="fill:#49194f"/><path d="M91.2,146.3s9,3.3,9.3,4.9-.2,1.7-.2,1.7l-13.5-.2s-1.3-1.6-1.1-2.7a11.4,11.4,0,0,1,1.1-2.7S90.5,149.6,91.2,146.3Z" style="fill:#fff"/><path d="M92.4,147.8s9,3.3,9.3,4.9-.2,1.7-.2,1.7L88,154.2s-1.4-1.6-1.2-2.7a10.2,10.2,0,0,1,1.2-2.7S91.6,151.1,92.4,147.8Z" style="fill:#c7a6cc"/><path d="M100.3,153.6h0l-13.5-.2a.9.9,0,0,1-.6-.3c-.2-.3-1.5-1.8-1.3-3.2a14.7,14.7,0,0,1,1.2-3,.5.5,0,0,1,.5-.3.5.5,0,0,1,.6.1c.4.2,1.8.9,2.6.5s.5-.2.7-1.1a.5.5,0,0,1,.3-.5h.6c3.6,1.3,9.5,3.7,9.8,5.4s-.4,2.5-.7,2.6Zm-13.1-1.7,12.6.2v-.8c-.4-.7-4.4-2.6-8.1-4a2.9,2.9,0,0,1-1.4,1.3,3.9,3.9,0,0,1-3.2-.3,8.3,8.3,0,0,0-.7,1.8C86.3,150.6,86.8,151.4,87.2,151.9Z" style="fill:#49194f"/><path d="M82.1,78.7A58.9,58.9,0,0,0,81,102.5a93,93,0,0,1,2.4,15.1c.3,4.5,0,5.7.3,9.7a72.4,72.4,0,0,0,2.9,16.5h4.6c.7-8.8,1.7-15.8,2.4-20.6,1.9-13.1,4.1-22.1,4.9-37.2.1-1.8.1-3.2.2-4.2Z" style="fill:#fff"/><path d="M80.2,85.2c-2.5,9.6-2.1,16.7-1.1,21.5a77.9,77.9,0,0,1,2.4,13.7c.3,4,0,5.1.3,8.7A59.5,59.5,0,0,0,84.7,144h4.6c.7-7.9,1.7-14.3,2.4-18.6,1.9-11.8,4-19.9,4.9-33.6.1-1.6.1-2.9.2-3.8Z" style="fill:#f0a74d"/><path d="M91.2,144.6H86.6a.9.9,0,0,1-.7-.6,82.7,82.7,0,0,1-3-16.7c-.1-1.8-.1-3.2-.1-4.4s0-2.9-.2-5.2a79.6,79.6,0,0,0-1.8-12.6c-.2-.9-.4-1.7-.5-2.5a58.7,58.7,0,0,1,1.1-24.1.7.7,0,0,1,.8-.5l16.6,3.1a.8.8,0,0,1,.6.8c0,.9-.1,2.4-.2,4.2a223.3,223.3,0,0,1-3.3,27.1c-.5,3.2-1,6.5-1.6,10.1-1,6.7-1.8,13.6-2.3,20.6A.8.8,0,0,1,91.2,144.6Zm-4-1.5h3.3c.6-6.8,1.4-13.5,2.3-20,.6-3.6,1.1-6.9,1.7-10.2A240.2,240.2,0,0,0,97.7,86c.1-1.4.2-2.6.2-3.5L82.7,79.6a55.2,55.2,0,0,0-.9,22.7c.1.8.3,1.6.5,2.5a94.8,94.8,0,0,1,1.8,12.8c.2,2.3.2,3.8.2,5.3s0,2.5.1,4.4A73.9,73.9,0,0,0,87.2,143.1Z" style="fill:#49194f"/><path d="M131.5,47l-4,.3-12.9,1.1A43.7,43.7,0,0,0,103,47.1a53.9,53.9,0,0,1-6.5-.2c-2.5-.3-3.1-.7-4.9-.8a17.9,17.9,0,0,0-7.5.8A31.4,31.4,0,0,0,79,51.8a32.4,32.4,0,0,0-2.7,3.7c-3.1,5.3,1.9,12.2,3.4,22.9a45.4,45.4,0,0,1,.1,11.9c1.4.1,2.5,0,4.8,0,5.6.1,8.4.1,10.2-.4a27.9,27.9,0,0,0,10-5.5,96,96,0,0,1-3.3-16.2c-.5-4.3-.6-7.7-.7-10.5,2.9-.1,5.9-1.2,10.3-2.4a89.4,89.4,0,0,1,16.1-2.9l5-1.1Z" style="fill:#fff"/><path d="M129.5,48.1l-4,.3-12.9,1A47.2,47.2,0,0,0,101,48.2a53.5,53.5,0,0,1-6.5-.2c-2.5-.3-3.1-.7-4.9-.8a17.9,17.9,0,0,0-7.5.8A28.7,28.7,0,0,0,77,52.7a35.1,35.1,0,0,0-2.7,3.4c-3.1,5.1,1.9,11.6,3.4,21.7a41.7,41.7,0,0,1,.1,11.4c1.3.1,2.5-.1,4.8,0,5.6,0,8.3.1,10.2-.4a28.7,28.7,0,0,0,9.9-5.2,82.3,82.3,0,0,1-3.2-15.5c-.5-4-.6-7.2-.7-9.9,2.9,0,5.9-1.1,10.3-2.3a103.4,103.4,0,0,1,16.1-2.7l5-1Z" style="fill:#c7a6cc"/><path d="M80.6,91.1h-.8a.5.5,0,0,1-.5-.3c-.2-.1-.2-.3-.2-.5A51.6,51.6,0,0,0,79,78.5,76.7,76.7,0,0,0,76.4,68c-1.6-5.2-2.8-9.3-.7-12.9a23.4,23.4,0,0,1,2.7-3.7,32,32,0,0,1,5.3-5.1h.2a21,21,0,0,1,7.7-.9l2.4.4,2.6.4a44,44,0,0,0,5.7.3h.7a54.2,54.2,0,0,1,11.6,1.3l16.9-1.3a.6.6,0,0,1,.7.6l.8,4.3c0,.4-.2.8-.6.8l-5,1.1h-.1a102.8,102.8,0,0,0-16,2.9l-3,.9a43.8,43.8,0,0,1-6.7,1.5v.5c.1,2.6.2,5.6.6,9.2a90.2,90.2,0,0,0,3.3,16.1.7.7,0,0,1-.3.8A27.6,27.6,0,0,1,95,90.6c-2,.6-4.8.5-10.4.5h-4Zm3.9-43.5a31.2,31.2,0,0,0-4.9,4.7A27.3,27.3,0,0,0,77,55.8c-1.8,3.1-.7,6.8.9,11.8a65.1,65.1,0,0,1,2.5,10.7,47.1,47.1,0,0,1,.3,11.3h3.9c5.5,0,8.3.1,10-.4a29.8,29.8,0,0,0,9.3-5,96.5,96.5,0,0,1-3.2-16c-.4-3.6-.5-6.6-.6-9.2V57.7a1.4,1.4,0,0,1,.2-.6l.6-.2a23.9,23.9,0,0,0,7-1.5l3.1-.8a103.2,103.2,0,0,1,16.2-3l4.3-.9-.5-2.9-16.2,1.4h-.3A52.5,52.5,0,0,0,103,47.8h-.6a48.3,48.3,0,0,1-6-.3,13,13,0,0,1-2.8-.5l-2.1-.3A17,17,0,0,0,84.5,47.6Z" style="fill:#49194f"/><path d="M86.3,39,83.5,49.1s5.2,4.3,7.8-1.2l1.2-8.1Z" style="fill:#fff"/><path d="M101,68.1s1.5-1.3,1.5-1.8a6.2,6.2,0,0,1,1.2-2.6,16.7,16.7,0,0,1,2.7-2c.3,0,.5.4.4.7s-1.6,1.8-1.5,2v.2s5.2-4.5,5.4-4.5.8.4.7.7-3.6,2.9-3.5,3.1,4.3-3.2,4.5-3.1.4.7.2,1-4.1,2.9-4,3.1,3.9-2.1,4.2-2.1.5.5.3.7-4.2,2.3-4.1,2.5,3.1-1.4,3.3-1,.2.3,0,.5-3.5,1.8-3.6,2a10.4,10.4,0,0,1-4.1,1.5l-2.2,1.6Z" style="fill:#fff"/><path d="M136.9,51.6a16.5,16.5,0,0,1-3.1-.4l-2.3.3h-.6a.5.5,0,0,1-.3-.5l-.3-3c-.1-.2,0-.4.2-.6l.5-.2h1.9l1.9-.8,1.8-.7a51.8,51.8,0,0,1,5.5-.1c.8.1,1.8.8,1.8,1.5a.9.9,0,0,1-.7,1l-2.8.3-2.5.2-.6.2,1.6-.2c.5-.1.7-.2.9-.1a.8.8,0,0,1,.7.7,1.4,1.4,0,0,1-.2,1.4,12.1,12.1,0,0,1-3.3,1.2Zm-3.2-1.9h.6l2.4.3-.6-.2a2.2,2.2,0,0,1-.5-.8c-.1-.5,0-1.6,1.9-2.1H137l-1.6.7-2.1.9h-1.4v1.3Z" style="fill:#49194f"/><path d="M102.5,71.3h-.2a.7.7,0,0,1-.5-.4l-1.4-2.4a.8.8,0,0,1,.1-1,5.1,5.1,0,0,0,1.3-1.4,6.5,6.5,0,0,1,1.5-3h0c2.5-2,2.8-2.1,3.2-2.1l.9.5c0,.2.1.3.1.4,2.8-2.5,3-2.5,3.2-2.5a1.7,1.7,0,0,1,1.3.7.1.1,0,0,0,.1.1c.3-.2.5-.1.8.1a1.8,1.8,0,0,1,.5,1.9.1.1,0,0,1-.1.1,1.3,1.3,0,0,1,.6.7.9.9,0,0,1-.1,1c-.1.2-.2.3-.8.6h.1a1.1,1.1,0,0,1-.1,1.4l-2,1.1-1.7.9.2-.2c-.4.6-3.2,1.7-4.5,1.8l-2.1,1.5Zm-.5-3.1.7,1.3,1.6-1.1h.5a9.7,9.7,0,0,0,3.4-1.3l.5-.3a.5.5,0,0,1-.3-.5.5.5,0,0,1,.1-.6,1,1,0,0,1-.5-.4,4.3,4.3,0,0,0-.1-.5.1.1,0,0,1-.1-.1.5.5,0,0,1-.5-.5h-.1l-1.3,1.2-.6.2a1,1,0,0,1-.6-.5v-.2a1,1,0,0,1,.2-.9l-.5.4h-.1a7.3,7.3,0,0,0-.9,2.2A4.1,4.1,0,0,1,102,68.2Zm6.1-1Zm-1.5-4.8Z" style="fill:#49194f"/><path d="M79.9,54.8s-3.3,1.3-3.2,3.7,6.7,22.4,8.8,23.1,17.8-11.1,17.8-11.1l-2.1-3.1L88.6,72.9S85.8,57,84.3,56,82.4,54.7,79.9,54.8Z" style="fill:#fff"/><path d="M78.6,56.4s-3.3,1.3-3.2,3.7,6.8,22.4,8.8,23.1S102,72.1,102,72.1L99.9,69,87.3,74.5S84.5,58.7,83,57.6,81.1,56.3,78.6,56.4Z" style="fill:#c7a6cc"/><path d="M85.5,82.3h-.3c-2.6-.9-9.1-21.6-9.2-23.7s3.4-4.5,3.6-4.5h.2c2.7-.1,3.3.2,5,1.4s3.4,11.2,4.3,16.4l11.8-5.1a.7.7,0,0,1,.9.3l2.1,3.1a.7.7,0,0,1-.2,1C99.1,74.5,88.3,82.3,85.5,82.3ZM80,55.5c-.5.3-2.6,1.3-2.5,3s1.5,6,3.5,11.7c2.7,7.6,4.2,10.3,4.7,10.6s9.4-5.2,16.6-10.5l-1.4-2-12,5.3a.9.9,0,0,1-.7-.1,1,1,0,0,1-.4-.5c-1.3-7.4-3.1-15.6-3.9-16.4S82.3,55.4,80,55.5Z" style="fill:#49194f"/><path d="M87.5,51.5A8,8,0,0,1,83,49.7a.8.8,0,0,1-.2-.8l2.8-10.1a.8.8,0,0,1,.8-.6l6.2.9.5.2a.7.7,0,0,1,.1.6L92,48v.2c-.9,1.8-2,2.8-3.5,3.1Zm-3.1-2.7a5.4,5.4,0,0,0,3.8,1.1,3.9,3.9,0,0,0,2.4-2.2l1.1-7.3-4.8-.6Z" style="fill:#49194f"/><path d="M96.9,34.9a6.6,6.6,0,1,1-7.6-5.4A6.6,6.6,0,0,1,96.9,34.9Z" style="fill:#fff"/><path d="M90.4,43.4a7.4,7.4,0,0,1-1.3-14.7,7.6,7.6,0,0,1,8.6,6.1h0a7.5,7.5,0,0,1-6.1,8.5Zm0-13.3h-1a5.9,5.9,0,0,0,1.9,11.6A6,6,0,0,0,96.2,35h0A6,6,0,0,0,90.4,30.1Z" style="fill:#49194f"/><path d="M84.8,38.3h-.7a2.3,2.3,0,0,1-2-1.9A2.3,2.3,0,0,1,84,33.7a1.6,1.6,0,0,1,.7,0c.6.2,1,1.2.9,2.5l.3-4.3c2.9,1.1,4.7.9,5.9.4s1.7-1.2,2.6-1,1.9,1.6,2.3,2.8a3.6,3.6,0,0,0,2-2,3.3,3.3,0,0,0-.1-2.1A3.7,3.7,0,0,0,96,27.7c-.9-.2-1.4.1-2-.3s-.5-1-.8-1.5S89,25,87,25.8a9.2,9.2,0,0,0-3.8,3.3,6.1,6.1,0,0,0-2.6,1.8,5.7,5.7,0,0,0-1.9,4.5c.1,3.3,3.6,4.9,3.9,5.1a8,8,0,0,0,3.6.7Z" style="fill:#49194f"/><path d="M92.8,34.2c0,.4.3.6.7.6a.5.5,0,0,0,.5-.7.5.5,0,0,0-.6-.5A.6.6,0,0,0,92.8,34.2Z" style="fill:#49194f"/><path d="M88.2,34.9c.1.3.4.6.7.5a.6.6,0,0,0,.6-.6.7.7,0,0,0-.7-.6A.7.7,0,0,0,88.2,34.9Z" style="fill:#49194f"/><path d="M91.6,37.7c-.1,0-.3,0-.3-.2a.4.4,0,0,1,.2-.5l.8-.4h0l-.8-1.2c-.2-.1-.1-.4,0-.5a.4.4,0,0,1,.5,0l1,1.4h0a.7.7,0,0,1-.3.8l-.9.5Zm.7-1.1Z" style="fill:#49194f"/><path d="M89.1,38.3a.4.4,0,0,1,.5-.2l.6.3h.5c.2,0,.4.2.3.4s-.2.4-.4.3l-1.3-.4A.4.4,0,0,1,89.1,38.3Z" style="fill:#49194f"/><g style="opacity:0.49"><path d="M89.9,36.4c0-.3-.9-.7-1.6-.4s-.8.5-.8.7.7.4,1.2.4S89.9,36.7,89.9,36.4Z" style="fill:#c7a6cc"/></g><g style="opacity:0.49"><path d="M95.7,35.4c0-.3-.9-.7-1.6-.4s-.8.4-.8.7.7.4,1.2.4S95.7,35.7,95.7,35.4Z" style="fill:#c7a6cc"/></g><path d="M86.6,35.6a2.3,2.3,0,0,1-1.8,2.7,2.4,2.4,0,0,1-2.7-1.9A2.3,2.3,0,0,1,84,33.7,2.3,2.3,0,0,1,86.6,35.6Z" style="fill:#fff"/></svg>