<svg id="_1" data-name="1" xmlns="http://www.w3.org/2000/svg" width="284.7" height="144.8" viewBox="0 0 284.7 144.8"><title>Artboard 14</title><rect x="-31.6" y="-284.8" width="1000" height="950" style="fill:#fff"/><polygon points="208.9 15.4 154.7 15.4 162.8 27.2 200.9 27.2 208.9 15.4" style="fill:#fff"/><polygon points="206.1 13.6 152 13.6 160 25.3 198.1 25.3 206.1 13.6" style="fill:#f0a74d"/><rect x="154.7" y="27.2" width="54.2" height="10.12" style="fill:#fff"/><rect x="166.5" y="37.3" width="32.1" height="94.65" style="fill:#fff"/><rect x="163.5" y="35.7" width="32.1" height="94.65" style="fill:#f0a74d"/><path d="M199.3,132.7H165.7V36.5h33.6Zm-32.1-1.5h30.6V38H167.2Z" style="fill:#49194f"/><rect x="171.5" y="37.3" width="1.5" height="94.65" style="fill:#49194f"/><rect x="178.3" y="37.3" width="1.5" height="94.65" style="fill:#49194f"/><rect x="185.1" y="37.3" width="1.5" height="94.65" style="fill:#49194f"/><rect x="191.9" y="37.3" width="1.5" height="94.65" style="fill:#49194f"/><path d="M199.3,132.7H165.7V36.5h33.6Zm-32.1-1.5h30.6V38H167.2Z" style="fill:#49194f"/><rect x="154.7" y="27.2" width="54.2" height="6.77" style="fill:#f0a74d"/><path d="M209.7,38H154V26.4h55.7Zm-54.2-1.5h52.7V27.9H155.5Z" style="fill:#49194f"/><path d="M201.3,27.9H162.4l-9.1-13.2h57Zm-38.1-1.5h37.3l7-10.2H156.2Z" style="fill:#49194f"/><ellipse cx="154.7" cy="37.3" rx="15.3" ry="14.9" style="fill:#fff"/><ellipse cx="152" cy="35.7" rx="15.3" ry="14.9" style="fill:#f0a74d"/><path d="M154.7,52.9a15.8,15.8,0,0,1-16-15.6,16.1,16.1,0,0,1,32.1,0A15.9,15.9,0,0,1,154.7,52.9Zm0-29.7a14.3,14.3,0,0,0-14.5,14.1,14.6,14.6,0,0,0,29.1,0A14.3,14.3,0,0,0,154.7,23.2Z" style="fill:#49194f"/><path d="M154.7,45.9a8.6,8.6,0,1,1,8.9-8.6A8.8,8.8,0,0,1,154.7,45.9Zm0-15.7a7.1,7.1,0,1,0,7.4,7.1A7.2,7.2,0,0,0,154.7,30.2Z" style="fill:#49194f"/><path d="M154.7,41.4a4.1,4.1,0,0,1-4.1-4.1,4.2,4.2,0,0,1,8.3,0A4.1,4.1,0,0,1,154.7,41.4Zm0-6.7a2.6,2.6,0,0,0-2.6,2.6,2.7,2.7,0,0,0,5.3,0A2.6,2.6,0,0,0,154.7,34.7Z" style="fill:#49194f"/><ellipse cx="208.9" cy="37.3" rx="15.3" ry="14.9" style="fill:#fff"/><ellipse cx="210.9" cy="35.7" rx="15.3" ry="14.9" style="fill:#f0a74d"/><path d="M208.9,52.9a15.8,15.8,0,0,1-16-15.6,16.1,16.1,0,0,1,32.1,0A15.9,15.9,0,0,1,208.9,52.9Zm0-29.7a14.3,14.3,0,0,0-14.5,14.1,14.6,14.6,0,0,0,29.1,0A14.4,14.4,0,0,0,208.9,23.2Z" style="fill:#49194f"/><path d="M208.9,45.9a8.6,8.6,0,1,1,0-17.2,8.6,8.6,0,1,1,0,17.2Zm0-15.7a7.1,7.1,0,1,0,7.3,7.1A7.2,7.2,0,0,0,208.9,30.2Z" style="fill:#49194f"/><path d="M208.9,41.4a4.2,4.2,0,0,1-4.2-4.1,4.2,4.2,0,0,1,8.4,0A4.2,4.2,0,0,1,208.9,41.4Zm0-6.7a2.6,2.6,0,0,0-2.7,2.6,2.7,2.7,0,0,0,5.4,0A2.6,2.6,0,0,0,208.9,34.7Z" style="fill:#49194f"/><rect y="130.3" width="284.7" height="14.52" style="fill:#49194f"/><path d="M58.2,45.9c9.7-4.7,19.1-19.7,19.9-37.8V1.6H29.4V8.1c.8,18.1,10.2,33.2,20,37.8-10.3,5-20,21.5-20,41.3,0,2.2.1,4.4.3,6.5H77.9c.1-2.1.2-4.3.2-6.5C78.1,67.4,68.5,50.8,58.2,45.9Z" style="fill:#fff"/><rect x="25.7" width="56.1" height="6.26" style="fill:#49194f"/><rect x="25.7" y="89.1" width="56.1" height="6.26" style="fill:#49194f"/><path d="M78.5,94.5H29v-.7q-.3-3.3-.3-6.6a57.8,57.8,0,0,1,6.3-26.5c3.4-6.8,8-12,12.9-14.8C38.7,40.8,29.5,26.5,28.7,8.1c-.1-1-.1-2.1-.1-3.2s0-2.3.1-3.3V.9H78.8v.7c.1,1,.1,2.1.1,3.3s0,2.2-.1,3.2c-.8,18.4-9.9,32.6-19,37.8,4.9,2.8,9.4,8,12.9,14.8a58.7,58.7,0,0,1,6.2,26.5q0,3.3-.3,6.6ZM30.3,93H77.2c.1-1.9.2-3.9.2-5.8,0-20.3-10.1-36.1-19.6-40.6l-1.4-.7,1.5-.7c9-4.3,18.6-18.5,19.4-37.1.1-1,.1-2.1.1-3.2a20.1,20.1,0,0,0-.1-2.5H30.2a20.1,20.1,0,0,0-.1,2.5c0,1.1,0,2.2.1,3.2.6,13.8,7.6,31.5,19.5,37.2l1.5.6-1.5.7C40.2,51.2,30.1,67,30.1,87.2,30.1,89.1,30.2,91.1,30.3,93Z" style="fill:#49194f"/><path d="M34.8,22.6a38.3,38.3,0,0,0,8.4,14.6c3.2,3.5,5.5,6,8.8,6.2,7.2.5,13-9.7,15.3-13.6a48.2,48.2,0,0,0,4.2-10.3c-3.2-1.4-7.8-2.8-12.4-1.1s-5.9,5.3-10.3,6.9C46,26.3,41.6,26.6,34.8,22.6Z" style="fill:#f0a74d"/><path d="M32,89.1c-2-9,8.7-16.3,19.6-16.8s24.3,6.9,22.8,16.5Z" style="fill:#f0a74d"/><path d="M53.8,45.3h-.6c-3.6-.2-6-2.7-9.3-6.1a38.3,38.3,0,0,1-8.6-14.1.8.8,0,0,1,.2-.8,1,1,0,0,1,.9-.1c5.2,2.9,9.8,3.8,13.4,2.5a12.3,12.3,0,0,0,4.7-3,16.8,16.8,0,0,1,5.6-3.5c3.8-1.3,8.1-1,12.9,1a.8.8,0,0,1,.5.9A41.8,41.8,0,0,1,69.2,32C66.9,35.7,61.1,45.3,53.8,45.3ZM37.4,26.4A35.7,35.7,0,0,0,45,38.2c3.2,3.3,5.3,5.4,8.3,5.6,6.7.5,12.4-9,14.6-12.5a37.1,37.1,0,0,0,3.9-8.9c-4.2-1.7-8-1.9-11.2-.8a15.9,15.9,0,0,0-5.1,3.2,12.9,12.9,0,0,1-5.2,3.3C46.7,29.4,42.3,28.8,37.4,26.4Z" style="fill:#49194f"/><path d="M32.9,91.8a.7.7,0,0,1-.7-.6,11.3,11.3,0,0,1,2.3-9.4c3.7-4.7,10.7-8,18-8.2s16.1,2.8,20.4,7.7A11.2,11.2,0,0,1,76,90.9c0,.4-.3.6-.7.7l-42.4.2ZM53.6,75H52.5c-6.8.3-13.4,3.3-16.8,7.7a10,10,0,0,0-2.2,7.6l41.1-.2a10.1,10.1,0,0,0-2.8-7.8C67.9,77.9,60.7,75,53.6,75Z" style="fill:#49194f"/><path d="M48.3,64.9a1.6,1.6,0,0,1,1.4,1.8,1.4,1.4,0,0,1-1.9.6C47.1,66.8,47.6,65.1,48.3,64.9Z" style="fill:#f0a74d"/><path d="M56.1,51c.5-.2,1.6.6,1.4,1.6s-1.1,1.3-1.5,1S55.5,51.2,56.1,51Z" style="fill:#f0a74d"/><path d="M50.5,50.3c-.4-.7,1-2.5,1.9-2.3a1.8,1.8,0,0,1,.8,2.1A1.8,1.8,0,0,1,50.5,50.3Z" style="fill:#f0a74d"/><path d="M51.2,57.2c.1-.4.9-.7,1.4-.5a1.5,1.5,0,0,1,.6,2.2C52.7,59.2,51,57.9,51.2,57.2Z" style="fill:#f0a74d"/><path d="M55.2,69.3a1.3,1.3,0,0,1,2,0,1.4,1.4,0,0,1-.8,2.1,1.2,1.2,0,0,1-1.2-2.1Z" style="fill:#f0a74d"/><path d="M49.6,67.8a1.3,1.3,0,0,1-1-.4,2.1,2.1,0,0,1-.5-2.1,1.9,1.9,0,0,1,1.3-1.6h0a1.8,1.8,0,0,1,1.8.8,1.9,1.9,0,0,1-.9,3.2Zm.1-2.6a2.2,2.2,0,0,0-.2,1.1H50l.3-.2a.8.8,0,0,0-.1-.4A.7.7,0,0,0,49.7,65.2Z" style="fill:#49194f"/><path d="M57.5,54l-.6-.2c-.9-.4-.8-1.8-.8-2.1s.2-1.7,1.1-1.9h0a1.7,1.7,0,0,1,1.6.5,2,2,0,0,1,.7,2,2.2,2.2,0,0,1-1.2,1.5Zm.2-2.7a2.1,2.1,0,0,0-.1,1.1.7.7,0,0,0,.5-.4c0-.2,0-.3-.1-.4S57.8,51.3,57.7,51.3Zm-.2-.1Z" style="fill:#49194f"/><path d="M53,51.1a2.2,2.2,0,0,1-1.9-.9c-.5-.9.3-2,.5-2.3s1.5-1.3,2.2-1.1a1.8,1.8,0,0,1,1.3,1.1,2.3,2.3,0,0,1,0,2A2.4,2.4,0,0,1,53,51.1Zm-.6-1.5Zm0-.1a2.6,2.6,0,0,0,.9,0,.7.7,0,0,0,.5-.3v-.6a.7.7,0,0,0-.3-.3.6.6,0,0,0-.5.3A3.5,3.5,0,0,0,52.4,49.5Z" style="fill:#49194f"/><path d="M54.3,59.2a2,2,0,0,1-1.4-.6c-.3-.2-1.4-1.1-1.1-2.1a1.5,1.5,0,0,1,.8-.8,1.8,1.8,0,0,1,1.6-.2,2.2,2.2,0,0,1,1.2,1.9,1.4,1.4,0,0,1-.6,1.6A.6.6,0,0,1,54.3,59.2Zm-1-2.2c.1.2.4.4.6.6v-.4l-.2-.3Zm-.8-.3Z" style="fill:#49194f"/><path d="M57.4,71.7a2,2,0,0,1-2-1.3,2.2,2.2,0,0,1,.6-2.2h0a2.6,2.6,0,0,1,1.8-.6,2.1,2.1,0,0,1,1.3.7,1.8,1.8,0,0,1,.2,1.9,2.1,2.1,0,0,1-1.5,1.5ZM57,69.3c-.1.1-.3.4-.2.6a.5.5,0,0,0,.7.3c.1,0,.3-.2.4-.5a.4.4,0,0,0,0-.5h-.3Z" style="fill:#49194f"/><path d="M184.3,96.8v34.9H13.9a34.1,34.1,0,0,1,0-34.9Z" style="fill:#fff"/><path d="M184.3,94.2v37.5H18.5a39.5,39.5,0,0,1-4.6-19.1,38.8,38.8,0,0,1,4.6-18.4Z" style="fill:#c7a6cc"/><path d="M184.3,132.5H13.4l-.2-.4a35.6,35.6,0,0,1,0-35.7l.2-.4H184.3v1.5H14.3a34.1,34.1,0,0,0,0,33.5h170Z" style="fill:#49194f"/><path d="M184.3,99.9v28.7h-56c-9,0-16.4-6.4-16.4-14.4a13.7,13.7,0,0,1,4.8-10.1,17.7,17.7,0,0,1,11.6-4.2Z" style="fill:#fff"/><path d="M125.5,128.5a18.1,18.1,0,0,1-7.7-3.3c-.3-.2-5.8-4.4-5.9-11a12.6,12.6,0,0,1,.8-4.2,15.1,15.1,0,0,1,4-5.9,17.9,17.9,0,0,1,6.7-3.5,20.2,20.2,0,0,0-4.8,13.5C118.9,122.1,124.2,127.3,125.5,128.5Z" style="fill:#49194f"/><path d="M184.3,129.3h-56c-9.4,0-17.1-6.7-17.1-15.1a14.1,14.1,0,0,1,5-10.6,18,18,0,0,1,12.1-4.4h56v1.5h-56a16.8,16.8,0,0,0-11.1,4,12.5,12.5,0,0,0-4.5,9.5c0,7.5,7,13.6,15.6,13.6h56Z" style="fill:#49194f"/><rect x="131.5" y="104.5" width="52.8" height="1.5" style="fill:#49194f"/><rect x="155.2" y="109.2" width="29.1" height="1.5" style="fill:#49194f"/><rect x="139.8" y="120.9" width="44.4" height="1.5" style="fill:#49194f"/><path d="M36.8,132.5c-.2,0-.3-.1-.5-.3-17.6-17.5-.2-35.5,0-35.7a.8.8,0,0,1,1.1,1.1,27.5,27.5,0,0,0-6.3,10.6c-2.8,8.3-.7,16.1,6.3,23a.7.7,0,0,1,0,1A.9.9,0,0,1,36.8,132.5Z" style="fill:#49194f"/><path d="M44.1,132.5a.6.6,0,0,1-.6-.3c-13.6-17.3-.2-35.4,0-35.6a.7.7,0,0,1,1-.1.8.8,0,0,1,.2,1c-.6.7-12.9,17.4,0,33.7a.8.8,0,0,1-.2,1.1Z" style="fill:#49194f"/><path d="M224.8,85.8,211.9,72.5l5.3-5.2,4.8,7.8-2-9.8s9-6.4,22.4-3.6,23.3,13.9,23.3,13.9l-7.9,9.3,10.7-5.8s9,11.3,8.9,20.2a83.7,83.7,0,0,1-3,18.4l-14.6-8.1s-2.2-17.6-7.9-20.2S224.8,85.8,224.8,85.8Z" style="fill:#fff"/><path d="M226.2,95.4,222,84.3s17.9-6.3,29,2.2,11.8,26,11.8,26h-8.7Z" style="fill:#fff"/><path d="M256.8,130.3s-4.7-5.4-4.5-8,4.3-10.9,4.5-12.7,1-12.9-9.3-17.7-21.8,1.1-25.1,4.4L219,99.6s20,11.6,22,11.5l-3,7.3S251.9,133.9,256.8,130.3Z" style="fill:#fff"/><path d="M222.6,87.3,209.6,74l5.4-5.1,4.8,7.7-2-9.7s9-6.5,22.4-3.6,23.3,13.9,23.3,13.9l-7.9,9.2,10.7-5.7s9,11.2,8.8,20.1a80.3,80.3,0,0,1-2.9,18.5l-14.6-8.2s-2.2-17.5-7.9-20.2S222.6,87.3,222.6,87.3Z" style="fill:#f0a74d"/><path d="M274.9,118.8l-15.8-8.7v-.4c-.6-4.8-3.1-17.6-7.5-19.7s-26.7-3.5-26.9-3.5h-.3l-13.6-14,6.6-6.4,3,5L219.1,65l.4-.3c.4-.3,9.5-6.6,23-3.7s23.4,13.7,23.8,14.1l.4.5L261,82.3l7.7-4.1.4.5c.4.4,9.2,11.5,9,20.6a81.5,81.5,0,0,1-3,18.6Zm-14.4-9.7,13.4,7.5a78,78,0,0,0,2.7-17.4c.2-7.4-6.6-16.9-8.3-19.1l-13.7,7.3,10.1-11.7c-2.1-2.2-11.1-10.8-22.5-13.2a29.2,29.2,0,0,0-21.4,3.2l2.8,13.4-6.5-10.6-4.2,4L225.1,85c2.7.2,21.6,1.1,27.1,3.7S260.1,106.4,260.5,109.1Z" style="fill:#49194f"/><path d="M263.6,113.3h-9.7L225.6,95.9l-4.6-12,.8-.3a43.1,43.1,0,0,1,10.5-2.1c7.8-.7,14.4.8,19.1,4.4s8.9,11.5,10.3,16.6a45.4,45.4,0,0,1,1.8,10Zm-9.3-1.5H262c-.3-3.5-2.1-17.5-11.5-24.7s-24.1-3.4-27.5-2.3l3.9,10.1Z" style="fill:#49194f"/><path d="M226.2,95.4,222,84.3s17.9-6.3,29,2.2,11.8,26,11.8,26h-8.7Z" style="fill:#49194f"/><path d="M256.8,128.7s-4.7-5.4-4.5-7.9,4.3-10.9,4.5-12.8,1-12.9-9.3-17.7-21.8,1.1-25.1,4.4L219,98.1s20,11.6,22,11.4l-3,7.4S251.9,132.4,256.8,128.7Z" style="fill:#c7a6cc"/><path d="M255,131.5c-6,0-16.3-11.1-17.6-12.6l-.3-.3,2.9-7c-4.2-1.4-17.1-8.9-21.3-11.3l-.9-.5,4-4c3.1-3.1,14.9-9.8,26-4.6s9.8,18,9.7,18.5a32.7,32.7,0,0,1-1.9,5.2c-1.1,2.7-2.5,6.1-2.6,7.5s2.6,5.4,4.4,7.4l.5.6-.6.4A3.7,3.7,0,0,1,255,131.5Zm-16.1-13.2c4.9,5.3,13.1,12.6,16.7,11.7-1.4-1.6-4.3-5.4-4.1-7.7s1.5-4.9,2.8-8a42.1,42.1,0,0,0,1.8-4.8c0-.5,1.5-12.1-9-16.9s-20.6.6-24.2,4.2l-2.6,2.7c9.1,5.3,19.3,10.8,20.7,10.8h1.2l-.5,1.1Z" style="fill:#49194f"/><path d="M242.1,109.4s-21.8-10.9-24.2-16.1c0,0-3.5,20.3-3.6,22.2s-1,6.8,0,6.3.3-5.6,1.4-6.5,8.5-3.9,8.5-3.9l.9,5.8-9,3.3s-4.4,20.6-3.3,21.6,22.3-11.3,22.3-11.3-3-6.1-1.5-8.5,6.3-4.6,6.3-4.6Z" style="fill:#fff"/><path d="M239.6,109.4s-21.8-10.9-24.2-16.1c0,0-3.5,20.3-3.7,22.2s-.9,6.8,0,6.3.4-5.6,1.5-6.5,8.5-3.9,8.5-3.9l.9,5.8-9,3.3s-4.4,20.6-3.3,21.6,22.3-11.3,22.3-11.3-3-6.1-1.5-8.5,6.3-4.6,6.3-4.6Z" style="fill:#c7a6cc"/><path d="M212.9,142.9c-.3,0-.4-.2-.6-.3s-1.3-1.1,2.7-20.5l-.4.3a.9.9,0,0,1-1,0c-.7-.4-.7-1.6-.2-5.9,0-.4.1-.8.1-1.1.2-1.8,3.6-21.3,3.7-22.2l.4-2.3,1,2.1c1.9,4.1,17.9,12.7,23.8,15.7l.6.3-2.5,9.3h-.3s-4.6,2.1-5.9,4.3.4,5.6,1.5,7.8l.3.6-.6.4-10.8,5.9C216.4,141.9,213.9,142.9,212.9,142.9Zm.5-1.2Zm3.3-20.7c-1.8,8.7-3.4,18.1-3.3,20.3,2.5-.7,13.1-6.4,20.7-10.8-.7-1.7-2.5-6.3-1.1-8.6s5.1-4.1,6.3-4.7l1.9-7.4c-3.1-1.6-18.2-9.4-22.8-14.6-.8,4.6-2.8,16.5-3.3,19.7,0-.1.1-.1.1-.2s8-3.7,8.7-4l.9-.3,1.2,7.2Zm6.9-8.5a50.4,50.4,0,0,0-7.4,3.4,7.4,7.4,0,0,0-.5,3,3.4,3.4,0,0,0-.1,1l8.7-3.2Z" style="fill:#49194f"/><path d="M230.1,73.6a.8.8,0,0,1-.7-.4c-1.2-3.5-1.7-11-1.7-11.3a.8.8,0,0,1,1.5-.1s.5,7.6,1.6,10.8a.7.7,0,0,1-.4,1Z" style="fill:#49194f"/><path d="M239.6,68.1a.8.8,0,0,1-.8-.7V61.5a.8.8,0,0,1,.8-.7.7.7,0,0,1,.7.7v5.9A.7.7,0,0,1,239.6,68.1Z" style="fill:#49194f"/><path d="M249.3,79.7H249a.7.7,0,0,1-.3-1L255,67a.7.7,0,0,1,1-.3.8.8,0,0,1,.3,1L250,79.3A.7.7,0,0,1,249.3,79.7Z" style="fill:#49194f"/><path d="M265.4,94.1a.7.7,0,0,1-.7-.7.7.7,0,0,1,.7-.8l10.8-.8a.6.6,0,0,1,.8.6.9.9,0,0,1-.7.9l-10.8.8Z" style="fill:#49194f"/><path d="M276.7,107.4h-.2l-11.3-3.5a.9.9,0,0,1-.5-1,.7.7,0,0,1,.9-.5l11.3,3.5a.9.9,0,0,1,.5,1A.8.8,0,0,1,276.7,107.4Z" style="fill:#49194f"/><path d="M277.4,100h-.1l-5.3-.7a.8.8,0,1,1,.2-1.5l5.3.7a.7.7,0,0,1,.6.9A.9.9,0,0,1,277.4,100Z" style="fill:#49194f"/><path d="M79.8,91l-.3.2c-2.8,1.6-1.8,10.1-1.7,11q1.4,10.6,3.3,24.9a2.6,2.6,0,0,0,4-1.3c.6-10.1,1.3-20.1,1.9-30.2C85.6,94,82.1,90.1,79.8,91Z" style="fill:#fff"/><path d="M85.1,125.2a7.1,7.1,0,0,1,2,2.7,5.6,5.6,0,0,1,.5,3.1l-13.1,2.6a2.2,2.2,0,0,1-.2-.9,2,2,0,0,1,.4-1.3,9.2,9.2,0,0,1,3.2-2.2,10,10,0,0,0,3.1-2.9,2.4,2.4,0,0,0,1.9.7A2.3,2.3,0,0,0,85.1,125.2Z" style="fill:#fff"/><path d="M85.8,126.3a7.1,7.1,0,0,1,2,2.7,6.3,6.3,0,0,1,.4,3.1l-13.1,2.6-.2-.9a1.6,1.6,0,0,1,.5-1.3c.7-1.1,2.2-1.7,3.2-2.2a11.2,11.2,0,0,0,3.1-2.9,2.3,2.3,0,0,0,1.8.7A2.5,2.5,0,0,0,85.8,126.3Z" style="fill:#f0a74d"/><path d="M82.6,128.4h0a3,3,0,0,1-1.9-.7l-.3-.2v-.3c-1.2-8-2.3-16.2-3.3-24.9-.3-2.3-1-10,2-11.8l.4-.2h0q3-1,8.1,4.8l.2.3L85.9,126h-.1A3.5,3.5,0,0,1,82.6,128.4Zm-.8-1.7.8.2h0a2.1,2.1,0,0,0,1.8-1.3l1.8-29.7c-2.6-3.1-4.9-4.7-6.1-4.2h-.2c-1.8,1-1.8,6.7-1.3,10.3C79.6,110.7,80.7,118.7,81.8,126.7Z" style="fill:#49194f"/><path d="M100.3,39.9a3.1,3.1,0,0,0,1-2.3v-.5a5.8,5.8,0,0,1,1-4,6.8,6.8,0,0,1,2.4-2,8,8,0,0,1,3-.9,13,13,0,0,1,6.8.5,7.5,7.5,0,0,1,4.5,4c.8,1.9.3,3.9.2,5.9s.5,4.2,2.6,5.2a17.2,17.2,0,0,1-10.7,3.3,16.8,16.8,0,0,1-6-1,13.9,13.9,0,0,1-2.8-1.2,6.1,6.1,0,0,1-1.5-1.2C99.7,44.2,99.2,41.5,100.3,39.9Z" style="fill:#49194f"/><path d="M121.1,53.9s-3.5.8-3.6,5.5-.8,18.2,1.1,19,4.4,3.1,12.9-16.6c0,0,1.8.7,2.3.1s1.8-4.4,1.4-4.6-1.5-.4-1.1-.8,1-2.2.7-2.6-.6-.8-1,0-4.5,5.6-4.8,6.1-4.5,5.7-4.5,5.7,2-8.6,1.1-9.6S124.2,53.9,121.1,53.9Z" style="fill:#fff"/><path d="M104,53.2s3.5.8,3.6,5.5.8,18.1-1.1,19-4.4,3.1-12.9-16.6c0,0-1.8.7-2.3.1s-1.8-4.4-1.4-4.6,1.5-.4,1.2-.8-1.1-2.3-.8-2.6.6-.8,1,0,4.6,5.6,4.8,6.1l4.5,5.7s-2-8.6-1-9.6S101,53.2,104,53.2Z" style="fill:#fff"/><path d="M120.3,79.7a4.2,4.2,0,0,1-1.7-.5h-.3c-1.8-.8-1.9-6.4-1.6-17.2,0-1,.1-1.8.1-2.5.1-4.2,2.7-5.9,4.1-6.2h.2c3-.1,3.9,1,4.7,2l.3.4c.8.8.4,3.9-.2,7.2l2.4-3.2,1.9-2.4a31.8,31.8,0,0,0,2.9-3.6,1.4,1.4,0,0,1,1.1-.8,1.1,1.1,0,0,1,1.1.6h.1c.5.7,0,2.2-.5,3.1h.5a1.2,1.2,0,0,1,.6.6c.2,1.1-1.2,4.7-1.6,5.2a2.5,2.5,0,0,1-2.5.4c-5.9,13.5-8.7,16-10.5,16.7Zm.9-25c-.5.1-2.9,1-2.9,4.8,0,.6-.1,1.5-.1,2.4-.1,4.1-.5,14.8.8,15.8h.2c.7.3,1.1.5,1.7.3,2.2-.9,5.5-6.4,9.9-16.6l.3-.6.6.2a3.5,3.5,0,0,0,1.5.3,14.2,14.2,0,0,0,1.3-3.5c-.5-.2-1.1-.4-1.2-.9a1,1,0,0,1,.2-1,3.4,3.4,0,0,0,.4-1l-2.5,3.2-1.8,2.2c-.3.5-3.8,4.9-4.5,5.8L123,68.8l.8-3.2c.8-3.8,1.5-8.3,1.2-9l-.4-.4C123.9,55.3,123.4,54.7,121.2,54.7Z" style="fill:#49194f"/><path d="M104.8,79l-1.1-.2c-1.8-.7-4.6-3.3-10.5-16.8-.8.3-1.9.4-2.4-.3s-1.9-4.1-1.7-5.2a.9.9,0,0,1,.6-.6h.5c-.4-.8-1-2.3-.4-3h0a1.1,1.1,0,0,1,1.1-.6,1.4,1.4,0,0,1,1.1.8c.2.4,1.8,2.2,2.9,3.6l1.9,2.4,2.4,3.2c-.6-3.3-.9-6.4-.2-7.2s.2-.3.4-.4,1.6-2.1,4.7-2h.1c1.4.3,4.1,2,4.1,6.2a18.5,18.5,0,0,1,.1,2.5c.3,10.8.2,16.4-1.6,17.2h-.3A3.8,3.8,0,0,1,104.8,79ZM94.1,60.2l.2.6c4.4,10.2,7.7,15.7,9.9,16.6.6.2,1,0,1.7-.3h.3c1.2-1,.8-11.7.7-15.8a19.3,19.3,0,0,0-.1-2.5c0-3.7-2.4-4.6-2.9-4.7-2.2,0-2.7.6-3.4,1.4a1,1,0,0,1-.4.5c-.3.7.4,5.2,1.3,8.9l.7,3.3L100,65.5c-.7-.9-4.2-5.3-4.5-5.8l-1.8-2.2-2.5-3.2a5.1,5.1,0,0,0,.4,1c.3.4.3.8.2.9s-.7.8-1.2,1a14.2,14.2,0,0,0,1.3,3.5l1.5-.3Z" style="fill:#49194f"/><path d="M103.1,89S86.3,97.2,86,99s.5,3.6,1.5,5.3,16.4,20.9,16.4,20.9,1.3,1.6,2.4,1.6,1.8-2.8,1.4-3.2S95.6,103,95.6,103l7.3-2.3Z" style="fill:#fff"/><path d="M106.3,127.5a4.7,4.7,0,0,1-3-1.8c-.7-.8-15.3-19.3-16.4-21s-2.1-3.7-1.7-5.9,11.2-7.4,17.6-10.5l1.1-.6-.3,13.5-6.9,2.2c4.6,7.8,11.1,19,11.6,19.7s0,2.4-.1,2.7S107,127.5,106.3,127.5Zm-3.9-37.3c-7.5,3.7-15.2,7.9-15.7,9s.2,2.7,1.5,4.7,11,14.2,16.2,20.8c.5.5,1.4,1.3,1.9,1.3s.8-1.5.8-2S100,112.1,95,103.3l-.5-.8,7.6-2.4Zm4.7,33.8v.2C107.2,124.1,107.1,124.1,107.1,124Zm0-.1Z" style="fill:#49194f"/><path d="M107.7,123.6s1.6,1.9,1.7,3.2a14.7,14.7,0,0,1,0,3.1l-13.3.6s-.4-1.7.5-2.1l7-3.5S106.4,126.3,107.7,123.6Z" style="fill:#fff"/><path d="M108.6,124.8a9.8,9.8,0,0,1,1.7,3.1,15.5,15.5,0,0,1,0,3.2l-13.4.6s-.4-1.7.6-2.2l7-3.5S107.2,127.5,108.6,124.8Z" style="fill:#f0a74d"/><path d="M116.2,50.5l6.8,3.8s-3.5,19.7-2.9,21.4c2.9,7.6,7.6,11.2,5.9,15.8s-6,5.4-13.5,7.8A66.4,66.4,0,0,1,97,102.5a46.7,46.7,0,0,1-8.6-3.2A24.2,24.2,0,0,0,82.6,97a12.9,12.9,0,0,0-6.2.1,11.7,11.7,0,0,1,1.4-5.9c2.1-3.2,5.5-4.1,14-6.4l12.6-3.7s1.2-2.9.7-4.9-4.2-10.6-3.6-14.9a26.5,26.5,0,0,0,0-7.6l5.7-2.9Z" style="fill:#fff"/><path d="M114.2,49.3l6.8,3.8s-3.5,19.8-2.9,21.4c3,7.6,7.6,11.2,6,15.9s-6.1,5.3-13.5,7.8A74,74,0,0,1,95,101.4a68,68,0,0,1-8.6-3.2,24.5,24.5,0,0,0-5.8-2.4,12.5,12.5,0,0,0-6.1.1A10,10,0,0,1,75.9,90c2-3.2,5.4-4,13.9-6.4L102.4,80s1.3-3,.7-4.9-4.2-10.6-3.6-14.9a23.5,23.5,0,0,0,0-7.7l5.8-2.8Z" style="fill:#f0a74d"/><path d="M97,103.3h-.2a50.1,50.1,0,0,1-8.7-3.2l-.8-.4a26.2,26.2,0,0,0-4.9-1.9,12.7,12.7,0,0,0-5.8.1l-.9.2v-.9a10.7,10.7,0,0,1,1.5-6.3c2.1-3.3,5.6-4.3,13.2-6.4l1.2-.4,12.2-3.5a7.9,7.9,0,0,0,.6-4.1l-.7-1.8c-1.2-3.4-3.5-9.7-2.9-13.4a25.6,25.6,0,0,0,0-7.4v-.5l6.3-3.2,9.4-.3,7.4,4.1v.5c-1.6,9.3-3.2,19.9-2.9,21.1a62.8,62.8,0,0,0,3.5,6.9c2,3.4,3.6,6.1,2.5,9.4s-6.5,5.8-14,8.3a76.8,76.8,0,0,1-15.7,3.2ZM79.8,95.9a10.3,10.3,0,0,1,3,.4,21.6,21.6,0,0,1,5.2,2l.7.3a47,47,0,0,0,8.4,3.2,65.3,65.3,0,0,0,15.2-3.2c7.1-2.3,11.9-3.9,13-7.3s-.4-5-2.3-8.2a46.7,46.7,0,0,1-3.6-7.1c-.6-1.7,1.8-16.1,2.7-21.3L116,51.3l-8.6.3-5.1,2.5a26,26,0,0,1-.1,7.4c-.4,3.2,1.8,9.3,2.9,12.6.3.9.6,1.5.7,1.9.6,2.2-.7,5.3-.7,5.4l-.2.4h-.3L92,85.5l-1.2.3c-7.5,2.1-10.6,3-12.3,5.8a9.5,9.5,0,0,0-1.3,4.5Z" style="fill:#49194f"/><path d="M107.9,42.8c-.2.3-.8,9.5-.8,9.5a9.8,9.8,0,0,0,5.3,2,5.2,5.2,0,0,0,4.2-2.4l-2.9-9.6Z" style="fill:#fff"/><path d="M112.4,55a10.2,10.2,0,0,1-5.7-2.1l-.3-.2v-.4c.6-9.4.7-9.7.9-9.9l.2-.3,6.7-.6L117.5,52l-.2.2A5.9,5.9,0,0,1,112.4,55Zm-4.5-3a9.8,9.8,0,0,0,4.5,1.5,4.3,4.3,0,0,0,3.4-1.8l-2.7-8.6-4.6.4C108.4,44.8,108.1,48.5,107.9,52Z" style="fill:#49194f"/><path d="M115.8,38.9a6.6,6.6,0,0,1-13.1,0,6.6,6.6,0,1,1,13.1,0Z" style="fill:#fff"/><path d="M109.3,46.2a7.3,7.3,0,1,1,7.3-7.3A7.3,7.3,0,0,1,109.3,46.2Zm0-13.1a5.8,5.8,0,1,0,5.8,5.8A5.8,5.8,0,0,0,109.3,33.1Z" style="fill:#49194f"/><path d="M74,134.5l-.2-.6a11,11,0,0,1-.3-1.1,2.7,2.7,0,0,1,.6-1.8,6.8,6.8,0,0,1,2.9-2.2l.6-.3a8.9,8.9,0,0,0,2.8-2.7l.5-.7.7.6a1.5,1.5,0,0,0,1.2.6,1.8,1.8,0,0,0,1.6-1.3l.4-1,.8.6a8.3,8.3,0,0,1,2.2,3,7,7,0,0,1,.6,3.5v.6Zm7.2-7.2a9.7,9.7,0,0,1-2.9,2.5l-.6.4a6.7,6.7,0,0,0-2.4,1.6,3.2,3.2,0,0,0-.3.9h0l11.9-2.3a4.9,4.9,0,0,0-.5-2.2,7.8,7.8,0,0,0-1.1-1.8,3.3,3.3,0,0,1-2.4,1.4A2.9,2.9,0,0,1,81.2,127.3Z" style="fill:#49194f"/><path d="M95.5,131.3l-.2-.6c-.2-.9-.2-2.5,1-3s6.9-3.5,6.9-3.5l.4-.2.3.2a3.2,3.2,0,0,0,2,.2,1.5,1.5,0,0,0,1.1-1.1l.6-1,.7.9a9,9,0,0,1,1.9,3.5c.1,1.3,0,3.2,0,3.3v.7Zm8.1-5.6-6.7,3.4c-.1,0-.2.3-.2.6l12-.5a17.6,17.6,0,0,0,0-2.3,6.2,6.2,0,0,0-1-2,2.2,2.2,0,0,1-1.4.9A4,4,0,0,1,103.6,125.7Z" style="fill:#49194f"/><path d="M106.8,37.9c0,.3-.2.7-.5.7s-.7-.2-.7-.5a.5.5,0,0,1,.5-.7A.6.6,0,0,1,106.8,37.9Z" style="fill:#49194f"/><path d="M111.4,37.6c.1.3-.2.6-.5.7s-.7-.2-.7-.5a.6.6,0,1,1,1.2-.2Z" style="fill:#49194f"/><path d="M108.6,41.1h0a2,2,0,0,1-1.1-.3c-.3-.2-.5-.4-.4-.7v-.2l.6-1.4a.4.4,0,0,1,.7.3l-.6,1.3h.1c.2.2.5.2.8.3s.3.2.3.4S108.8,41.1,108.6,41.1Z" style="fill:#49194f"/><path d="M111.3,41.1a.3.3,0,0,0-.5-.1l-.6.4-.4.2c-.2.1-.3.4-.2.5a.3.3,0,0,0,.4.2,2.4,2.4,0,0,0,1.2-.7A.3.3,0,0,0,111.3,41.1Z" style="fill:#49194f"/><g style="opacity:0.49"><path d="M110.1,39.5c0-.4.7-.9,1.5-.8s.9.3.9.5-.6.6-1.1.7S110.2,39.8,110.1,39.5Z" style="fill:#c7a6cc"/></g><g style="opacity:0.49"><path d="M104.2,39.7c0-.3.7-.9,1.5-.8s.9.3.9.6-.6.5-1.1.6S104.3,40,104.2,39.7Z" style="fill:#c7a6cc"/></g><path d="M115.5,37.1a5.7,5.7,0,0,0-2-4.7c-3.2-2.6-8.7-1.5-10.2,1.4-.5,1.1-.7,2.7-.1,3.3s1.2-.1,2.6-.4,3.4-.2,7.4.1Z" style="fill:#49194f"/><path d="M132,77.7l-19.4,4.8h-1.9L89,77.7V50.3a50.3,50.3,0,0,1,8.8,2.1,54.4,54.4,0,0,1,12.3,5.9h2.4A51.8,51.8,0,0,0,126,53a42.8,42.8,0,0,0,6.1-3.8,11.2,11.2,0,0,1,.4,2.1A77.3,77.3,0,0,1,132,77.7Z" style="fill:#fff"/><path d="M112.7,83.2h-2.1L88.2,78.3V49.4h.9a59,59,0,0,1,9,2.2,56.8,56.8,0,0,1,12.2,5.8h2.1a53.8,53.8,0,0,0,13.3-5.1,54.8,54.8,0,0,0,6-3.8l1-.8.2,1.2.3,2.1a80.5,80.5,0,0,1-.4,26.8v.4Zm-1.9-1.6h1.8l18.8-4.6a82.3,82.3,0,0,0,.4-25.7c-.1-.3-.1-.6-.2-.9-1.7,1.1-3.4,2.2-5.2,3.2a51.7,51.7,0,0,1-13.7,5.2h-3a51.7,51.7,0,0,0-12.1-5.8,43.3,43.3,0,0,0-7.9-1.9V77.1Z" style="fill:#49194f"/><path d="M135,78l-22.1,4.5h-2.1L86,78V52.5l24.1,5.3h2.4L135,52.5Z" style="fill:#fff"/><path d="M135,78.2l-21.6,4.2h-2.1L87,78.2V54.3l23.6,4.9H113l22-4.9Z" style="fill:#c7a6cc"/><path d="M113,83.2h-2.4L85.2,78.7V51.6l25,5.4h2.2l23.4-5.5V78.7Zm-2.1-1.6h2l21.4-4.3V53.5l-21.7,5.1h-2.7l-23.2-5V77.4Z" style="fill:#49194f"/><rect x="110.2" y="61.2" width="2.4" height="0.99" style="fill:#49194f"/><rect x="110.2" y="62.9" width="2.4" height="0.99" style="fill:#49194f"/><rect x="110.5" y="76.8" width="2.4" height="0.99" style="fill:#49194f"/><rect x="110.5" y="78.5" width="2.4" height="0.99" style="fill:#49194f"/><path d="M104.7,61.9h-.1L88.8,58.6a.8.8,0,0,1,.3-1.5l15.8,3.4c.4,0,.6.4.5.8S105.1,61.9,104.7,61.9Z" style="fill:#49194f"/><path d="M101.4,65h-.2l-9.6-2.2a.8.8,0,0,1-.6-.9.9.9,0,0,1,.9-.6l9.7,2.2a.7.7,0,0,1,.5.9A.7.7,0,0,1,101.4,65Z" style="fill:#49194f"/><path d="M104.2,76.1h-.1l-14.4-3a.8.8,0,0,1-.6-.9.9.9,0,0,1,.9-.6l14.4,3a.9.9,0,0,1,.6.9A.8.8,0,0,1,104.2,76.1Z" style="fill:#49194f"/><path d="M110.2,83a.7.7,0,0,1-.7-.7L108.9,58a.8.8,0,0,1,.8-.7h0a.7.7,0,0,1,.7.7l.5,24.3c.1.4-.3.7-.7.7Z" style="fill:#49194f"/><path d="M113.4,83a.7.7,0,0,1-.7-.7l-.6-24.2a.7.7,0,0,1,.7-.7.7.7,0,0,1,.8.7l.6,24.1a.7.7,0,0,1-.7.8Z" style="fill:#49194f"/><path d="M124.8,68.2c-1.9,0-3.5-2-3.5-4.5s1.6-4.6,3.5-4.6,3.6,2.1,3.6,4.6S126.8,68.2,124.8,68.2Zm0-7.6c-1.1,0-2,1.4-2,3.1s.9,3,2,3,2.1-1.4,2.1-3S125.9,60.6,124.8,60.6Z" style="fill:#49194f"/><path d="M120,72.7a.7.7,0,0,1-.7-.7.6.6,0,0,1,.6-.8l11.9-1.7a.7.7,0,1,1,.2,1.4l-11.9,1.8Z" style="fill:#49194f"/><path d="M124.2,75c-.3,0-.7-.3-.7-.6a.8.8,0,0,1,.6-.9l7.7-1.1a.8.8,0,0,1,.9.6,1,1,0,0,1-.7.9L124.3,75Z" style="fill:#49194f"/><path d="M88.6,60.7c0-.1.2-.6,0-.9s-.2-.2-.3-.3h-.1c0-.1.2-.6,0-.9a.3.3,0,0,0-.3-.3h0c0-.1.2-.6,0-.9a.3.3,0,0,0-.3-.3A18.4,18.4,0,0,0,84,58.1c0,.1-.1.1-.1.2a1.1,1.1,0,0,0,.5,1.1l-.5.2h-.1c0,.4.2,1,.7,1.1h.1c0,.4.2,1,.7,1.1s0,0,.1.1a.8.8,0,0,0,.5.9h.7v-.2h.1l.9-.3c.6-.4.8-.4.9-.7s.2-.5,0-.8h0C88.5,60.9,88.5,60.8,88.6,60.7Z" style="fill:#fff"/><path d="M86.1,63.8h-.5a1.6,1.6,0,0,1-.9-1.1,1.8,1.8,0,0,1-.8-1.2,1.9,1.9,0,0,1-.8-1.8.8.8,0,0,1,.2-.4,1.8,1.8,0,0,1-.1-1,.9.9,0,0,1,.4-.7c.3-.2,3.5-1.4,4.2-1.2a1,1,0,0,1,.8.6,1.4,1.4,0,0,1,.1,1.1.2.2,0,0,1,.2.2,1,1,0,0,1,.1.9l.3.3a2.5,2.5,0,0,1,0,1.5h0c-.1.1-.1.1-.1.2a1.2,1.2,0,0,1-.1.9c-.2.6-.6.8-1.3,1.1h-.1l-.8.3h0A1.9,1.9,0,0,1,86.1,63.8Zm-.6-2.5h0a.8.8,0,0,1,.6.8.1.1,0,0,1,.1-.1.4.4,0,0,1,.5,0c.1-.1.3-.1.3-.2h.1l.6-.3v-.2a.8.8,0,0,1,.2-.9v-.2c-.1,0-.3-.1-.3-.2a.8.8,0,0,1-.1-.8V59l-.4-.3a.8.8,0,0,1,.1-.8h0l-2.5.8c0,.1,0,.1.1.1a.8.8,0,0,1,.4.7,1.2,1.2,0,0,1-.5.7h.1c.2,0,.4.2.5.5a.7.7,0,0,1,.1.5C85.4,61.2,85.4,61.3,85.5,61.3Zm2.9-.4Zm.2-.2Z" style="fill:#49194f"/><path d="M137.2,60.2l-.5-.2a1,1,0,0,0,.5-1.1.1.1,0,0,0-.1-.1,13.4,13.4,0,0,0-3.6-1.1c-.2,0-.3.1-.3.2s0,.8,0,.9.1.1.1.2h-.1c-.1,0-.3.1-.3.2a1.2,1.2,0,0,0,0,.9h-.1l-.3.2c-.2.3,0,.8,0,.9l.2.3h0a1,1,0,0,0,0,.8c.1.3.3.4,1,.7l.8.4h0l.6.2h.2a1.1,1.1,0,0,0,.5-.9h.1a1.3,1.3,0,0,0,.6-1.1h.1a1.2,1.2,0,0,0,.7-1.1A.3.3,0,0,0,137.2,60.2Z" style="fill:#fff"/><path d="M135.1,64.4l-.9-.2-.9-.4c-.7-.4-1.1-.5-1.3-1.1a1.6,1.6,0,0,1-.1-1,.1.1,0,0,0-.1-.1,2.2,2.2,0,0,1,0-1.6l.3-.3a.8.8,0,0,1,.1-.8l.2-.3a1.2,1.2,0,0,1,.1-1,1,1,0,0,1,.8-.7c.7-.2,3.9,1,4.2,1.2a.9.9,0,0,1,.4.7,1.7,1.7,0,0,1-.1,1c.1.2.2.3.2.5a1.8,1.8,0,0,1-.8,1.7,1.6,1.6,0,0,1-.8,1.2,1.4,1.4,0,0,1-.9,1.1Zm-1.7-2.3.6.3.8.4h.2c0-.4.2-.8.6-.8h0a.3.3,0,0,0,.1-.2,1.3,1.3,0,0,1,.1-.6.7.7,0,0,1,.5-.4h.1c-.3-.1-.4-.4-.5-.7a1.3,1.3,0,0,1,.4-.7h.1a10.4,10.4,0,0,0-2.5-.8h0a.8.8,0,0,1,.1.8c-.1.2-.3.3-.4.4h0a.8.8,0,0,1,0,.8l-.4.3h0a.8.8,0,0,1,.2,1Zm2.4-.2Zm.6-1.1Zm-2.9-2.4Z" style="fill:#49194f"/></svg>