<svg id="_1" data-name="1" xmlns="http://www.w3.org/2000/svg" width="284.7" height="152.1" viewBox="0 0 284.7 152.1"><title>Artboard 7</title><rect x="-684.8" y="-277.5" width="1000" height="950" style="fill:#fff"/><path d="M196.3,39.4l-15.6-4.2L188,21.7l-4.6-1.8s-11.5,14.9-11.3,16.4a4.7,4.7,0,0,0,2.9,3.8L196.3,48Z" style="fill:#fff"/><path d="M198.5,39.4l-15.6-4.2,7.3-13.5-4.6-1.8s-11.5,14.9-11.4,16.4a4.8,4.8,0,0,0,3,3.8c1.6.7,21.3,7.9,21.3,7.9Z" style="fill:#c7a6cc"/><path d="M196.3,48.8h-.2c-.8-.3-19.7-7.2-21.3-7.9a5.8,5.8,0,0,1-3.5-4.4c-.1-1.6,7.2-11.3,11.5-16.9a.8.8,0,0,1,.9-.3l4.6,1.8c.2.1.4.2.4.4a.6.6,0,0,1,0,.6l-6.9,12.7,14.7,4a.9.9,0,0,1,.6.7V48a.7.7,0,0,1-.4.6Zm-12.6-28c-5.3,6.8-10.7,14.4-10.9,15.5a4.3,4.3,0,0,0,2.5,3.1c1.4.6,16.2,6.1,20.3,7.5V40l-15.1-4.1a.7.7,0,0,1-.5-.4.5.5,0,0,1,.1-.6L187,22.1Z" style="fill:#49194f"/><path d="M183.3,20.8s1.5-2.4,1.6-2.7-.2-3.4,0-3.7a50.9,50.9,0,0,1,5.6.1s1.1,2.6.7,3.3a10.3,10.3,0,0,1-2.7,2.5c-.4.1-1.4,1.9-1.4,1.9Z" style="fill:#fff"/><path d="M190.2,16.3s-.1.5-.5.5-1.8-3.9-1.6-4.1.8-.4,1-.1A21.5,21.5,0,0,1,190.2,16.3Z" style="fill:#fff"/><path d="M187.6,16.9s-.1.5-.5.5-2.1-3.8-2-4,.8-.5,1.1-.2S187.6,16.9,187.6,16.9Z" style="fill:#fff"/><path d="M186.5,17.1a.5.5,0,0,1-.4.5c-.4,0-1.9-3.3-1.7-3.4s.6-.5.9-.2A32.1,32.1,0,0,1,186.5,17.1Z" style="fill:#fff"/><path d="M189.1,16.4a.9.9,0,0,1-.3.7H188c-.1,0-1.8-4.1-1.6-4.3s1.1-.4,1.3-.4A38.4,38.4,0,0,1,189.1,16.4Z" style="fill:#fff"/><path d="M183.3,20.8s1.5-2.4,1.6-2.7-.2-3.4,0-3.7a50.9,50.9,0,0,1,5.6.1s1.1,2.6.7,3.3a10.3,10.3,0,0,1-2.7,2.5c-.4.1-1.4,1.9-1.4,1.9Z" style="fill:#fff"/><path d="M190.2,16.3s-.1.5-.5.5-1.8-3.9-1.6-4.1.8-.4,1-.1A21.5,21.5,0,0,1,190.2,16.3Z" style="fill:#fff"/><path d="M187.6,16.9s-.1.5-.5.5-2.1-3.8-2-4,.8-.5,1.1-.2S187.6,16.9,187.6,16.9Z" style="fill:#fff"/><path d="M186.5,17.1a.5.5,0,0,1-.4.5c-.4,0-1.9-3.3-1.7-3.4s.6-.5.9-.2A32.1,32.1,0,0,1,186.5,17.1Z" style="fill:#fff"/><path d="M189.1,16.4a.9.9,0,0,1-.3.7H188c-.1,0-1.8-4.1-1.6-4.3s1.1-.4,1.3-.4A38.4,38.4,0,0,1,189.1,16.4Z" style="fill:#fff"/><path d="M187.1,23h-.3L183,21.5c-.2-.1-.4-.2-.4-.5a.6.6,0,0,1,0-.6,26.9,26.9,0,0,0,1.6-2.6V16.6c-.1-1.9-.1-2.4.2-2.7s.5-.5,6.2-.1a.7.7,0,0,1,.6.4c.5,1.1,1.2,3.1.6,4a9.8,9.8,0,0,1-3,2.7,12.7,12.7,0,0,0-1.1,1.7A.8.8,0,0,1,187.1,23Zm-2.7-2.6,2.3.9c1-1.5,1.4-1.7,1.6-1.8a8.6,8.6,0,0,0,2.2-2.1,4.8,4.8,0,0,0-.5-2.2h-4.4a6.6,6.6,0,0,0,.1,1.4c0,1.3.1,1.6-.1,1.9Zm3.9-.8Zm.1-.1Zm-3.2-4.4Z" style="fill:#49194f"/><path d="M189.7,17.6c-.6,0-1-.6-1.3-1.3s-1.5-3.5-.9-4.1a1.9,1.9,0,0,1,1.3-.5,1.6,1.6,0,0,1,.9.3c.1.2.4.5,1.2,4.2a.2.2,0,0,1,0,.3,1.4,1.4,0,0,1-1.2,1.1ZM188.5,13Z" style="fill:#49194f"/><path d="M187.1,18.2c-.6,0-1-.6-1.3-1.2s-1.8-3.4-1.3-4a2.7,2.7,0,0,1,1.3-.7,1.9,1.9,0,0,1,.9.3c.1.2.4.4,1.6,4V17a1.3,1.3,0,0,1-1.1,1.2Z" style="fill:#49194f"/><path d="M186,18.3c-.5,0-.9-.6-1.2-1.2-1.6-2.8-1.2-3.2-1-3.4a2,2,0,0,1,1.1-.6,1.6,1.6,0,0,1,.9.3c.1.1.4.4,1.4,3.4,0,.1.1.3,0,.4a1.3,1.3,0,0,1-1,1.1Z" style="fill:#49194f"/><path d="M188.5,17.9h-.4c-.6,0-.8-.2-1.6-2.2s-1-3-.7-3.4a4.2,4.2,0,0,1,2.2-.5c.4.1.5.2,1.8,4.5v.2a1.6,1.6,0,0,1-.7,1.3A1.1,1.1,0,0,1,188.5,17.9Zm-1.3-4.7.8,2-.7-2Zm-.4.2Z" style="fill:#49194f"/><path d="M187.1,23h-.3L183,21.5c-.2-.1-.4-.2-.4-.5a.6.6,0,0,1,0-.6,26.9,26.9,0,0,0,1.6-2.6V16.6c-.1-1.9-.1-2.4.2-2.7s.5-.5,6.2-.1a.7.7,0,0,1,.6.4c.5,1.1,1.2,3.1.6,4a9.8,9.8,0,0,1-3,2.7,12.7,12.7,0,0,0-1.1,1.7A.8.8,0,0,1,187.1,23Zm-2.7-2.6,2.3.9c1-1.5,1.4-1.7,1.6-1.8a8.6,8.6,0,0,0,2.2-2.1,4.8,4.8,0,0,0-.5-2.2h-4.4a6.6,6.6,0,0,0,.1,1.4c0,1.3.1,1.6-.1,1.9Zm3.9-.8Zm.1-.1Zm-3.2-4.4Z" style="fill:#49194f"/><path d="M189.7,17.6c-.6,0-1-.6-1.3-1.3s-1.5-3.5-.9-4.1a1.9,1.9,0,0,1,1.3-.5,1.6,1.6,0,0,1,.9.3c.1.2.4.5,1.2,4.2a.2.2,0,0,1,0,.3,1.4,1.4,0,0,1-1.2,1.1ZM188.5,13Z" style="fill:#49194f"/><path d="M187.1,18.2c-.6,0-1-.6-1.3-1.2s-1.8-3.4-1.3-4a2.7,2.7,0,0,1,1.3-.7,1.9,1.9,0,0,1,.9.3c.1.2.4.4,1.6,4V17a1.3,1.3,0,0,1-1.1,1.2Z" style="fill:#49194f"/><path d="M186,18.3c-.5,0-.9-.6-1.2-1.2-1.6-2.8-1.2-3.2-1-3.4a2,2,0,0,1,1.1-.6,1.6,1.6,0,0,1,.9.3c.1.1.4.4,1.4,3.4,0,.1.1.3,0,.4a1.3,1.3,0,0,1-1,1.1Z" style="fill:#49194f"/><path d="M188.5,17.9h-.4c-.6,0-.8-.2-1.6-2.2s-1-3-.7-3.4a4.2,4.2,0,0,1,2.2-.5c.4.1.5.2,1.8,4.5v.2a1.6,1.6,0,0,1-.7,1.3A1.1,1.1,0,0,1,188.5,17.9Zm-1.3-4.7.8,2-.7-2Zm-.4.2Z" style="fill:#49194f"/><path d="M45.9,100.8s10.3,18.1,3.3,31.4H151.8V111.8c-8.6-5.8-24.6-13.4-46.8-16.9A116.1,116.1,0,0,0,45.9,100.8Z" style="fill:#fff"/><path d="M50.8,101.9S61,120,54.1,133.3H156.7V112.9c-8.6-5.8-24.7-13.3-46.9-16.9A115.9,115.9,0,0,0,50.8,101.9Z" style="fill:#c7a6cc"/><path d="M151.8,112.6a.5.5,0,0,1-.5-.3A122.6,122.6,0,0,0,120.6,89c-16.9-8.7-42.5-15.7-68.7.8a.7.7,0,0,1-1-.3.8.8,0,0,1,.2-1c26.9-16.8,53-9.7,70.2-.8a122.2,122.2,0,0,1,31.1,23.6.7.7,0,0,1-.1,1.1Z" style="fill:#49194f"/><path d="M151.8,132.9H49.2a.6.6,0,0,1-.6-.4c-.1-.2-.2-.5,0-.7,6.6-12.7-3.3-30.5-3.4-30.7a.6.6,0,0,1,0-.6c.1-.2.2-.4.4-.4a117.4,117.4,0,0,1,59.5-6c26.1,4.2,41.7,13.4,47.2,17.1a.7.7,0,0,1,.3.6v20.4A.7.7,0,0,1,151.8,132.9ZM50.4,131.4H151.1V112.2c-5.7-3.8-20.9-12.5-46.3-16.6A115.4,115.4,0,0,0,47,101.2a51.5,51.5,0,0,1,3.9,10.1C53,119.1,52.9,126,50.4,131.4Z" style="fill:#49194f"/><path d="M48,105.9a.7.7,0,0,1-.7-.4.7.7,0,0,1,.4-1c.2-.1,20.2-9.1,46.9-4.8a.8.8,0,0,1,.6.8.9.9,0,0,1-.9.7c-26.2-4.3-45.8,4.6-46,4.7Z" style="fill:#49194f"/><path d="M131.7,128.1h0l-80.2-3.5a.7.7,0,0,1-.7-.7.8.8,0,0,1,.8-.8l80.1,3.5a.7.7,0,0,1,.8.8A.8.8,0,0,1,131.7,128.1Z" style="fill:#49194f"/><path d="M116.4,114.6h-.2c-20.6-5.4-64.9,0-65.4,0s-.7-.2-.8-.6a.8.8,0,0,1,.7-.8c.4-.1,45-5.5,65.9,0a.7.7,0,0,1,.5.9A.8.8,0,0,1,116.4,114.6Z" style="fill:#49194f"/><rect x="44.3" y="132.9" width="215" height="4.76" style="fill:#fff"/><path d="M257.8,100.8s-10.3,18.1-3.3,31.4H151.8V111.8c8.6-5.8,24.7-13.4,46.9-16.9A116.3,116.3,0,0,1,257.8,100.8Z" style="fill:#fff"/><path d="M252.1,102.4s-9.7,17.2-3.1,29.8H151.8V112.9c8.2-5.6,23.4-12.7,44.4-16.1A109.2,109.2,0,0,1,252.1,102.4Z" style="fill:#c7a6cc"/><path d="M151.8,112.6a.5.5,0,0,1-.5-.3.7.7,0,0,1,0-1,124.7,124.7,0,0,1,31.1-20c17.2-7.5,43.3-13.5,70.1.7a.7.7,0,0,1-.7,1.3c-26.3-13.9-51.9-8-68.8-.6a116,116,0,0,0-30.6,19.7Z" style="fill:#49194f"/><path d="M254.5,132.9H151.8a.7.7,0,0,1-.7-.7V111.8a.7.7,0,0,1,.3-.6c5.5-3.7,21.1-12.9,47.2-17.1a117.4,117.4,0,0,1,59.5,6c.2,0,.3.2.4.4a.5.5,0,0,1-.1.6c-.1.2-9.9,18-3.3,30.7a.9.9,0,0,1,0,.7A.6.6,0,0,1,254.5,132.9Zm-101.9-1.5H253.3c-2.5-5.4-2.6-12.3-.5-20.1a51.5,51.5,0,0,1,3.9-10.1,115.7,115.7,0,0,0-57.9-5.6c-25.3,4.1-40.5,12.8-46.2,16.6Z" style="fill:#49194f"/><path d="M255.7,105.9h-.3c-.2-.1-19.8-9-46-4.7a.8.8,0,0,1-.9-.7c-.1-.4.2-.7.6-.8,26.7-4.3,46.7,4.7,46.9,4.8a.7.7,0,0,1,.4,1A.7.7,0,0,1,255.7,105.9Z" style="fill:#49194f"/><path d="M172,128.1a.8.8,0,0,1-.8-.7.7.7,0,0,1,.7-.8l80.2-3.5a.8.8,0,0,1,.8.8.7.7,0,0,1-.7.7L172,128.1Z" style="fill:#49194f"/><path d="M187.3,114.6a.8.8,0,0,1-.7-.5.7.7,0,0,1,.5-.9c20.9-5.5,65.5-.1,65.9,0a.7.7,0,1,1-.2,1.4c-.4,0-44.7-5.4-65.3,0Z" style="fill:#49194f"/><rect y="137.6" width="284.7" height="14.52" style="fill:#49194f"/><rect x="41.9" y="134.9" width="215.5" height="5.06" style="fill:#f0a74d"/><path d="M259.3,138.4H44.3a.8.8,0,0,1-.7-.8v-5.4a.7.7,0,0,1,.7-.8h215a.7.7,0,0,1,.8.8v5.4A.8.8,0,0,1,259.3,138.4ZM45.1,136.9H258.6v-4H45.1Z" style="fill:#49194f"/><path d="M159.2,116.2a.7.7,0,0,1-.6-.3.8.8,0,0,1,.2-1c.5-.4,13.1-8.8,23.1-10.5a.8.8,0,0,1,.8.7.6.6,0,0,1-.6.8c-9.6,1.6-22.3,10.1-22.5,10.2Z" style="fill:#49194f"/><path d="M140.2,122.9h-.1c-.2,0-18.8-3.4-28-2.7-.4.1-.7-.2-.8-.7a.8.8,0,0,1,.7-.8c9.4-.7,27.6,2.6,28.4,2.7a.8.8,0,0,1,.6.9A.9.9,0,0,1,140.2,122.9Z" style="fill:#49194f"/><path d="M145.2,115.5h-.3c-.1-.1-17.1-7.6-26.3-9.6a.8.8,0,0,1-.6-.9.7.7,0,0,1,.9-.5c9.4,2,25.9,9.3,26.6,9.6a.7.7,0,0,1,.4,1A.7.7,0,0,1,145.2,115.5Z" style="fill:#49194f"/><path d="M118,81.9l18.2-12.1,58-54.1-2.4-2.6,3.3,3.6,4.4-4.1-.9-1,3.5-3.2a1.2,1.2,0,0,0,.1-1.7l-3.4-3.6a1.1,1.1,0,0,0-1.6-.1l-3.5,3.3-.9-.9-4.4,4,.9,1-58,54.1Z" style="fill:#fff"/><path d="M194.2,1.7h7.3a0,0,0,0,1,0,0V6.1a1.6,1.6,0,0,1-1.6,1.6h-4.1a1.6,1.6,0,0,1-1.6-1.6V1.7a0,0,0,0,1,0,0Z" transform="translate(329.4 152.5) rotate(-133)" style="fill:#c7a6cc"/><rect x="159.1" y="-2.2" width="7.3" height="79.32" transform="translate(246.3 182) rotate(-133)" style="fill:#f0a74d"/><path d="M136.2,70.9l-6-6.4L189.3,9.3l6,6.5Zm-3.9-6.4,4,4.3,56.9-53.1-3.9-4.2Z" style="fill:#49194f"/><path d="M195.1,17.7l-7.8-8.3,5.5-5.1,7.8,8.3Zm-5.6-8.2,5.7,6.1,3.3-3.1-5.8-6.1Z" style="fill:#49194f"/><path d="M198.6,12.7l-6-6.4,4.1-3.8a2,2,0,0,1,1.4-.5,1.8,1.8,0,0,1,1.3.6l3.3,3.6a2,2,0,0,1,.6,1.4,2.1,2.1,0,0,1-.7,1.3Zm-3.9-6.3,4,4.2,2.9-2.8.2-.3-.2-.3-3.3-3.6h-.6Z" style="fill:#49194f"/><polygon points="114.7 85 130.7 64 131.9 65 121.3 78.8 135.8 69.2 136.7 70.4 114.7 85" style="fill:#49194f"/><path d="M128.7,75.6l-1.4-.6c.3-.7.5-1.8.2-2.1s-.8-.3-2,.2l-.5-1.4c.7-.3,2.6-1,3.6.2S128.9,75.2,128.7,75.6Z" style="fill:#49194f"/><path d="M165,131.2c0,1.2-.1,2.5-.2,3.7H138.9c-.1-1.2-.2-2.5-.2-3.7,0-10.5,5.9-19,13.1-19S165,120.7,165,131.2Z" style="fill:#49194f"/><path d="M87.3,36.1l1.9,33.6,6.2-2.6-.8-8,5.8-2.4,5.3,6.1,7.6-3.3Zm5.6,18.3-1-8.1,6.4,5.3Z" style="fill:#fff"/><path d="M86,38.4,87.9,72l6.2-2.6-.8-8L99.1,59l5.3,6.1,7.6-3.3Zm5.6,18.3-1-8.1L97,53.9Z" style="fill:#f0a74d"/><path d="M89.2,70.5l-.4-.2a.7.7,0,0,1-.4-.5L86.6,36.1a.7.7,0,0,1,.4-.7.8.8,0,0,1,.8.1l26,23.5a.7.7,0,0,1,.3.6c-.1.3-.2.5-.5.6l-7.7,3.2a.5.5,0,0,1-.8-.2l-4.9-5.6-4.8,2,.7,7.4c0,.4-.1.7-.4.8l-6.2,2.6Zm-1-32.6,1.7,30.7,4.7-2-.8-7.4a1,1,0,0,1,.5-.8l5.8-2.4a.7.7,0,0,1,.9.2l4.9,5.6,6.1-2.5Zm4.7,17.2h-.3a.5.5,0,0,1-.4-.6l-1-8.1a.7.7,0,0,1,.4-.7.8.8,0,0,1,.8.1L98.8,51a1.4,1.4,0,0,1,.2.7.7.7,0,0,1-.4.5L93.3,55Zm0-7,.6,5.1,3.4-1.8Z" style="fill:#49194f"/><path d="M118.9,20.1c-1.3-5.2-7.8-7.9-7.8-7.9s7.3-2.3,5.5-5.4-6.8-5.4-6.8-5.4l-5.6,19.9S120.2,25.3,118.9,20.1ZM111,7.4a1.2,1.2,0,0,1,1.5-.8,1.1,1.1,0,0,1,.9,1.5,1.2,1.2,0,0,1-1.5.9A1.3,1.3,0,0,1,111,7.4Zm.7,11.5c-1.3-.4-2.2-1.5-1.9-2.5a2.3,2.3,0,0,1,3-1.2c1.3.4,2.2,1.5,1.9,2.6S113.1,19.3,111.7,18.9Z" style="fill:#fff"/><path d="M117.5,18.7c-1.3-5.2-7.9-7.8-7.9-7.8s7.4-2.3,5.5-5.4S108.4,0,108.4,0l-5.6,19.9S118.7,23.9,117.5,18.7Zm-8-12.6a1.3,1.3,0,0,1,1.6-.9,1.4,1.4,0,0,1,.9,1.6,1.3,1.3,0,0,1-2.5-.7Zm.8,11.5a2.4,2.4,0,0,1-2-2.6c.3-1,1.7-1.5,3-1.1a2.2,2.2,0,0,1,1.9,2.5A2.4,2.4,0,0,1,110.3,17.6Z" style="fill:#c7a6cc"/><path d="M114.3,23.5A48.3,48.3,0,0,1,104.1,22a1,1,0,0,1-.5-.4c-.1-.1-.1-.4-.1-.5l5.6-19.9c0-.3.2-.4.4-.5h.6c.2.1,5.2,2.5,7.1,5.8a2.4,2.4,0,0,1,.3,2.3c-.7,1.6-2.9,2.8-4.5,3.5,2.1,1.2,5.7,3.7,6.6,7.6h0a2.2,2.2,0,0,1-.6,2.4C118.1,23.2,116.4,23.5,114.3,23.5Zm-9.1-2.8c4.4,1.1,11.3,2,12.8.5a1,1,0,0,0,.2-.9h0c-1.2-4.8-7.3-7.3-7.4-7.4a.8.8,0,0,1-.5-.7.9.9,0,0,1,.6-.7c1.7-.5,4.6-1.9,5.2-3.3a1,1,0,0,0-.2-1c-1.2-2.1-4.2-4-5.6-4.7Zm7.4-.9-1.1-.2h0a3.4,3.4,0,0,1-2-1.3,2.3,2.3,0,0,1-.4-2.1,2.4,2.4,0,0,1,1.5-1.6,3.9,3.9,0,0,1,2.4-.1,3.3,3.3,0,0,1,1.9,1.3,2.5,2.5,0,0,1,.5,2.2,2.6,2.6,0,0,1-1.5,1.6Zm-.7-1.6a3.3,3.3,0,0,0,1.4,0,1.2,1.2,0,0,0,.7-.7.8.8,0,0,0-.3-.8,2.3,2.3,0,0,0-1.1-.8,2.6,2.6,0,0,0-1.5.1.9.9,0,0,0-.6.6,1,1,0,0,0,.2.8,2,2,0,0,0,1.2.8Zm.3-8.4h-.5a2,2,0,0,1-1.4-2.5h0a1.8,1.8,0,0,1,.9-1.2,2.6,2.6,0,0,1,1.5-.2,2,2,0,0,1,1.2,1,1.6,1.6,0,0,1,.2,1.5,1.9,1.9,0,0,1-.9,1.2A1.9,1.9,0,0,1,112.2,9.8Zm-.5-2.2a.6.6,0,0,0,.4.7h.3l.3-.3a.6.6,0,0,0-.1-.4c0-.1-.1-.2-.3-.2h-.4l-.2.3Z" style="fill:#49194f"/><path d="M139.7,34.5c-.3-.2-4.7-3.4-9.7-1.5a10.5,10.5,0,0,0-6,6.5,8.6,8.6,0,0,0,.2,5c1.4,3.5,5.9,5.7,11.1,5.2l.7-4h0c-3.5-.2-6.1-2.2-6.4-4.4a4.1,4.1,0,0,1,1-3.1c1.5-1.5,4.2-1.7,6.7-.2Z" style="fill:#fff"/><path d="M140.3,36.9c-.3-.2-4.7-3.3-9.7-1.4a9.9,9.9,0,0,0-5.9,6.4,7.9,7.9,0,0,0,.1,5.1c1.4,3.4,5.9,5.6,11.2,5.1l.6-3.9h0c-3.5-.2-6-2.2-6.3-4.5a3.8,3.8,0,0,1,1-3.1c1.4-1.5,4.2-1.7,6.7-.1C138.7,39.3,139.5,38.1,140.3,36.9Z" style="fill:#f0a74d"/><path d="M133.9,50.5c-4.9,0-9-2.2-10.4-5.7a8.5,8.5,0,0,1-.2-5.5c1.3-5,6.2-6.9,6.5-7,5.4-2,10.1,1.5,10.3,1.6a.8.8,0,0,1,.2,1L138,38.4a.8.8,0,0,1-1.1.3c-2-1.3-4.5-1.3-5.7,0a3.3,3.3,0,0,0-.8,2.5c.3,2,2.7,3.6,5.6,3.8a.8.8,0,0,1,.8.7l-.7,4.1a1,1,0,0,1-.7.7Zm-.6-17.3a8.2,8.2,0,0,0-3,.5c-.2.1-4.4,1.7-5.5,6a6.6,6.6,0,0,0,.1,4.6c1.2,3.1,5.2,5,9.8,4.7.1-.7.3-1.8.4-2.6-3.3-.5-5.9-2.5-6.2-5a4.6,4.6,0,0,1,1.2-3.7c1.6-1.7,4.4-1.9,7-.7l1.5-2.3A10.1,10.1,0,0,0,133.3,33.2Z" style="fill:#49194f"/><path d="M210.9,32.3l-3.2,8.2s-3.8.7-5.3,0a12.8,12.8,0,0,1-3.1-2.4l6.8-8.5Z" style="fill:#fff"/><path d="M210.9,32.3l-3.2,8.2s-3.8.7-5.3,0a12.8,12.8,0,0,1-3.1-2.4l6.8-8.5Z" style="fill:#fff"/><path d="M204.5,41.5a8.3,8.3,0,0,1-2.4-.3,12.2,12.2,0,0,1-3.3-2.6.8.8,0,0,1-.1-1l6.8-8.4a.7.7,0,0,1,.9-.2l4.8,2.6a.8.8,0,0,1,.4,1l-3.2,8.2a.7.7,0,0,1-.5.4A17.7,17.7,0,0,1,204.5,41.5ZM200.3,38a11.6,11.6,0,0,0,2.4,1.8c.9.4,3.1.2,4.5,0l2.7-7.2-3.6-2Z" style="fill:#49194f"/><path d="M194,118.3l3.6,2.8s.3,2.3-.3,3.1a7.6,7.6,0,0,1-1.5,1.3l-5-3.6Z" style="fill:#fff"/><path d="M194,118.3l3.6,2.8s.3,2.3-.3,3.1a7.6,7.6,0,0,1-1.5,1.3l-5-3.6Z" style="fill:#fff"/><path d="M195.8,126.3l-.4-.2-5.1-3.6a.9.9,0,0,1-.3-.5,1.4,1.4,0,0,1,.2-.6l3.2-3.6a.7.7,0,0,1,1-.1l3.7,2.8.3.5c0,.7.2,2.7-.6,3.7a7,7,0,0,1-1.5,1.4Zm-3.9-4.5,3.9,2.8a3.8,3.8,0,0,0,.9-.9,4.3,4.3,0,0,0,.2-2.2l-2.8-2.2Z" style="fill:#49194f"/><path d="M210,72l-10.7-1.4c-14.4,12.7-24.8,22.3-26.6,24.5a5,5,0,0,0,0,6.5C176.6,107.3,191,123,191,123h0l4-4.2L183.5,99.6s24-14.8,25-16.1S210,72,210,72Z" style="fill:#fff"/><path d="M207.4,72l-10.7-1.4C182.2,83.3,171.8,92.9,170,95.1a5.3,5.3,0,0,0-1.2,2.9,5.8,5.8,0,0,0,1.2,3.6c4,5.7,18.4,21.4,18.4,21.4h0l4-4.2L180.9,99.6s24-14.8,25-16.1S207.4,72,207.4,72Z" style="fill:#f0a74d"/><path d="M191,123.7h0l-.5-.2c-.6-.7-14.5-15.8-18.4-21.4a7,7,0,0,1-1.4-4.2,5.3,5.3,0,0,1,1.4-3.2c1.8-2.4,12.3-12,26.7-24.6a.7.7,0,0,1,.6-.2l10.7,1.3a.8.8,0,0,1,.7.8c-.2,2.4-.6,10.5-1.7,11.9s-19.4,12.8-24.6,16l11.2,18.5a.9.9,0,0,1-.1.9l-4,4.2A1.1,1.1,0,0,1,191,123.7Zm8.6-52.3c-14,12.3-24.6,22-26.3,24.2a4.1,4.1,0,0,0-1.1,2.4,5.4,5.4,0,0,0,1.1,3.2c3.5,4.9,15.1,17.8,17.8,20.7l3-3.2L182.9,100a.8.8,0,0,1,.2-1c9.1-5.6,23.9-14.9,24.8-16s1.1-5.8,1.3-10.4Z" style="fill:#49194f"/><path d="M222.1,135.5l1.6,5.6a13.3,13.3,0,0,1-3.2,1.6c-.9,0-3.2-6.5-3.2-6.5Z" style="fill:#fff"/><path d="M222.1,135.5l1.6,5.6a13.3,13.3,0,0,1-3.2,1.6c-.9,0-3.2-6.5-3.2-6.5Z" style="fill:#fff"/><path d="M220.5,143.4c-.5,0-1.6-.4-4-6.9a1.7,1.7,0,0,1,.1-.7.5.5,0,0,1,.5-.3l4.9-.7a.8.8,0,0,1,.9.5l1.5,5.6a.6.6,0,0,1-.3.8,11.4,11.4,0,0,1-3.5,1.7Zm-2.2-6.6a24.8,24.8,0,0,0,2.4,5.1l2.1-1.1-1.2-4.4Z" style="fill:#49194f"/><path d="M219.3,29.6a6.5,6.5,0,0,0,.9-1.5,16.4,16.4,0,0,0-1.1-3,25.6,25.6,0,0,0-2-2.6c-1.6-2.4-1.1-3.5-2.2-4.6s-2.6-1.5-6.8-.3l.5.6a6.2,6.2,0,0,0-6.4,2.7h.6a20.8,20.8,0,0,0-2.2,3.8,12.8,12.8,0,0,1,2.9,2.8l2.7,3.5,1.4,1.8a2.1,2.1,0,0,0,1,.6,5,5,0,0,0,1.3-.3c.5-.1.5-.2.7-.1a2.3,2.3,0,0,1,1.1.4c.8.6,2.3-.1,3.7-.8A8.6,8.6,0,0,0,219.3,29.6Z" style="fill:#49194f"/><path d="M216.9,70.6s-1.5,33.9-1.2,35.2,8,30.3,8,30.3l-6.8,2.2s-11.4-28-11.8-30l-7.4-36.1Z" style="fill:#fff"/><path d="M218.3,71.4s-1.5,33.1-1.2,34.4,8,29.7,8,29.7l-6.8,2.1s-11.4-27.4-11.8-29.3L199.1,73Z" style="fill:#f0a74d"/><path d="M216.9,139.1a.8.8,0,0,1-.7-.5c-1.2-2.9-11.4-28.1-11.8-30.1s-7.4-35.8-7.5-36.1a.7.7,0,0,1,.2-.6.5.5,0,0,1,.5-.3l19.2-1.6a.7.7,0,0,1,.6.2,1.1,1.1,0,0,1,.2.6c-.6,13.3-1.4,33.7-1.2,34.9s7.9,30.1,8,30.4a.8.8,0,0,1-.5.9l-6.8,2.1ZM198.6,72.9c1.1,5.2,6.9,33.5,7.2,35.3s6.9,18,11.5,29.2l5.5-1.8L215,106c-.4-1.3.7-27.3,1.1-34.5Z" style="fill:#49194f"/><path d="M194.3,67.5c1.7-9.1-2.8-20.6-1.1-25.2a18.6,18.6,0,0,0,.9-3.4l5.9-1.8a7.7,7.7,0,0,0,4,1.9,8.5,8.5,0,0,0,3.8-.2h.5s5.5,3.4,6.5,5.8c2.4,5.6,2.5,10.3,2.6,17.7a94.7,94.7,0,0,0,2.2,19.8,91.9,91.9,0,0,1-14.9-1.9,77.6,77.6,0,0,1-13.8-4.4A21.8,21.8,0,0,0,194.3,67.5Z" style="fill:#fff"/><path d="M196,66.8c1.6-8.8-2.9-20.1-1.1-24.6.5-1.5.9-3.3.9-3.3l5.8-1.8a9.2,9.2,0,0,0,4,1.9,9,9,0,0,0,3.9-.2h.5s5.4,3.3,6.4,5.6c2.4,5.5,2.6,10.1,2.6,17.3a105.3,105.3,0,0,0,2.2,19.4,93.3,93.3,0,0,1-14.9-1.9,81.5,81.5,0,0,1-13.8-4.2A22.7,22.7,0,0,0,196,66.8Z" style="fill:#c7a6cc"/><path d="M219.6,82.9h0A85.4,85.4,0,0,1,204.5,81a77.3,77.3,0,0,1-13.9-4.4.7.7,0,0,1-.5-.4,1.7,1.7,0,0,1,.1-.7,20.4,20.4,0,0,0,3.4-8.1h0c.8-4.7,0-10.1-.7-14.9s-1.3-8.1-.4-10.4.9-3.3.9-3.3a1,1,0,0,1,.5-.6l5.9-1.8a.7.7,0,0,1,.7.2,7.5,7.5,0,0,0,3.6,1.7,9.2,9.2,0,0,0,3.5-.2.3.3,0,0,1,.4,0h.7c.6.3,5.7,3.6,6.8,6.1,2.4,5.6,2.6,10.3,2.6,18A102.4,102.4,0,0,0,220.3,82a.9.9,0,0,1-.1.7ZM192,75.6a80.1,80.1,0,0,0,12.9,3.9,79.1,79.1,0,0,0,13.8,1.9,104.2,104.2,0,0,1-2.1-19c0-7.5-.2-12-2.5-17.4-.7-1.7-4.5-4.4-6.1-5.4h-.1a11.3,11.3,0,0,1-4.1.2,10,10,0,0,1-4-1.8l-5,1.5c-.2.7-.5,2-.9,3.1s-.2,5.6.5,9.7,1.6,10.4.7,15.3h0A25.5,25.5,0,0,1,192,75.6Z" style="fill:#49194f"/><path d="M182.9,33.9l-2-2.3a11.8,11.8,0,0,0,.4-1.9c0-.5-.3-1.3-.2-1.6a20.2,20.2,0,0,0-.1-3.5.8.8,0,0,0-.9.1c-.1.3-.4,3.1-.4,3.1s-2.4-6.8-2.7-6.9-.8.2-.8.6,1.9,4.8,1.6,5.1-3.3-4.8-3.6-4.8a.5.5,0,0,0-.6.6c.1.3,2.9,4.8,2.7,5s-3.5-3.6-3.9-3.5-.6.5-.5.8,3.5,3.4,3.4,3.8-3.3-1.8-3.5-1.7-.4.5-.1.8,3,1.9,3.1,2.3a27.9,27.9,0,0,0,1.9,2.4c.6.4,1.8.6,1.9.9a27.5,27.5,0,0,1,1.1,2.9Z" style="fill:#fff"/><path d="M211.5,32.9a6.4,6.4,0,1,1,2.1-8.8A6.4,6.4,0,0,1,211.5,32.9Z" style="fill:#fff"/><path d="M208.2,34.6a7.2,7.2,0,0,1-6.2-3.4,7.4,7.4,0,0,1,2.4-9.9,8.1,8.1,0,0,1,5.5-.8,7.5,7.5,0,0,1,4.4,3.2,7.4,7.4,0,0,1-2.4,9.9h0A7.4,7.4,0,0,1,208.2,34.6Zm-.1-12.8a6,6,0,0,0-2.9.8,5.3,5.3,0,0,0-2.5,3.5,5.4,5.4,0,0,0,.6,4.3,5.7,5.7,0,0,0,7.8,1.9h0a5.7,5.7,0,0,0,1.9-7.8,5.3,5.3,0,0,0-3.5-2.5Zm3.4,11.1Z" style="fill:#49194f"/><path d="M182.9,33.9l-2-2.3a11.8,11.8,0,0,0,.4-1.9c0-.5-.3-1.3-.2-1.6a20.2,20.2,0,0,0-.1-3.5.8.8,0,0,0-.9.1c-.1.3-.4,3.1-.4,3.1s-2.4-6.8-2.7-6.9-.8.2-.8.6,1.9,4.8,1.6,5.1-3.3-4.8-3.6-4.8a.5.5,0,0,0-.6.6c.1.3,2.9,4.8,2.7,5s-3.5-3.6-3.9-3.5-.6.5-.5.8,3.5,3.4,3.4,3.8-3.3-1.8-3.5-1.7-.4.5-.1.8,3,1.9,3.1,2.3a27.9,27.9,0,0,0,1.9,2.4c.6.4,1.8.6,1.9.9a27.5,27.5,0,0,1,1.1,2.9Z" style="fill:#fff"/><path d="M179.7,36.9h-.2a1.2,1.2,0,0,1-.5-.5c-.4-1.1-.8-2.3-1-2.7l-.4-.2-1.3-.6a15,15,0,0,1-2.1-2.6l-1.7-1.2c-.9-.6-1.2-.8-1.3-1a1.3,1.3,0,0,1-.3-1.2,1.1,1.1,0,0,1,.7-.9h.5c-.7-.8-.9-1-.9-1.2a1.4,1.4,0,0,1,.2-1.1,1.3,1.3,0,0,1,.9-.7,1.4,1.4,0,0,1,1,.5c-.3-.7-.4-.8-.4-1s0-.8.3-1.2a1.4,1.4,0,0,1,1.2-.4c.3.1.5.3,1.5,1.8a4.9,4.9,0,0,1-.4-1.1,1.1,1.1,0,0,1,.3-1.1,1.6,1.6,0,0,1,1.4-.4c.4.1.6.1,2.2,4.5,0-.2.1-.3.1-.4s.7-.5,1.1-.6a1.3,1.3,0,0,1,1,.4c.4.6.2,4,.2,4s.1.4.1.6a3.6,3.6,0,0,1,.2,1.1,11,11,0,0,1-.3,1.6l1.7,1.9a1.4,1.4,0,0,1,.2.6c0,.2-.2.4-.3.6l-3.2,2.3Zm-4.4-7.7c.1.1.2.2.2.3a26.5,26.5,0,0,0,1.7,2.2l.9.4a1.8,1.8,0,0,1,1.2.8,15.9,15.9,0,0,1,.8,2.1l1.7-1.3-1.4-1.6a.6.6,0,0,1-.2-.7c.1-.5.4-1.4.4-1.7a1.9,1.9,0,0,0-.2-.7c0-.3-.1-.6-.1-.8a1,1,0,0,1-.5.4.8.8,0,0,1-.8-.5c-.2-.5-.3-.9-.5-1.3a.5.5,0,0,1-.2.4l-.6.2a1.8,1.8,0,0,1-.8-.5c.3.6.2.8-.1,1a.5.5,0,0,1-.5.3H176a.6.6,0,0,1,0,.6c0,.2-.2.4-.5.5Zm-1.1,1Zm6.1-5.4Zm-7.8-.5Z" style="fill:#49194f"/><path d="M211.6,43.2s2.8.7,2.8,4.5-1.4,4.4-2.5,5-24.3-.9-24.3-.9l-9.3-16.6,4.4-2.9,9.1,12.3S210.5,42.6,211.6,43.2Z" style="fill:#fff"/><path d="M211.6,44.7s2.8.7,2.8,4.5-1.4,4.5-2.5,5-24.3-.9-24.3-.9l-9.3-16.5,4.4-3,9.1,12.3S210.5,44.1,211.6,44.7Z" style="fill:#c7a6cc"/><path d="M209.4,53.5c-5,0-15.2-.5-21.8-.9a.9.9,0,0,1-.6-.4l-9.4-16.6a.8.8,0,0,1,.2-1l4.5-2.9a.7.7,0,0,1,1,.2l8.8,11.9c6.8-.8,17.8-1.8,19.7-1.3h0c1.2.3,3.4,1.7,3.3,5.2s-1.4,4.9-2.8,5.7Zm-21.3-2.4c8.6.5,22.1,1.2,23.5.9s1.9-1.1,2-4.3-2-3.7-2.1-3.8h-.2c-1.1-.3-10.8.5-19.5,1.4a.7.7,0,0,1-.6-.3l-8.7-11.7-3.2,2.2Zm23.2-7.2Z" style="fill:#49194f"/><path d="M211.6,30.6c.6-1.3,1.2-2.5,1.7-3.8a1.3,1.3,0,0,0,.2-1.2,1.7,1.7,0,0,0-1-.6,25.7,25.7,0,0,1-4.7-1.5,6.4,6.4,0,0,1-3.3-3.4c2.6-.2,5.3-.4,7.4,1a8,8,0,0,1,2.1,2,10.9,10.9,0,0,1,2,4.2,5.5,5.5,0,0,1-.1,2.2c-.1.4-.4.3-.7.2H214A3.6,3.6,0,0,0,211.6,30.6Z" style="fill:#49194f"/><path d="M206.3,25.4a.6.6,0,1,1-.4-.8A.7.7,0,0,1,206.3,25.4Z" style="fill:#49194f"/><path d="M210.5,27.2a.6.6,0,0,1-.8.4.6.6,0,0,1-.3-.8.6.6,0,0,1,.7-.4A.6.6,0,0,1,210.5,27.2Z" style="fill:#49194f"/><path d="M206.6,29.1h-.2a2,2,0,0,1-.8-.8.8.8,0,0,1-.1-.8h.1l1.2-1.1a.5.5,0,0,1,.6.1.4.4,0,0,1-.1.5,5.2,5.2,0,0,0-1.1,1h0l.6.6c.2.1.2.3.1.5Z" style="fill:#49194f"/><path d="M208.8,30.3c0-.2-.2-.4-.4-.3h-1.2c-.2,0-.4.1-.4.3a.4.4,0,0,0,.4.4,2.9,2.9,0,0,0,1.3-.1C208.7,30.7,208.9,30.5,208.8,30.3Z" style="fill:#49194f"/><g style="opacity:0.49"><path d="M208.5,28.3c.1-.3,1.1-.5,1.7,0s.7.6.6.9-.8.2-1.3,0S208.5,28.6,208.5,28.3Z" style="fill:#c7a6cc"/></g><g style="opacity:0.49"><path d="M203.2,25.9c0-.4,1-.5,1.6-.1s.7.7.6.9-.8.3-1.3.1S203.1,26.1,203.2,25.9Z" style="fill:#c7a6cc"/></g><path d="M214.9,30.7a1.8,1.8,0,0,1-2.3.9,1.9,1.9,0,0,1-1-2.3,1.7,1.7,0,0,1,2.3-.9A1.8,1.8,0,0,1,214.9,30.7Z" style="fill:#fff"/><path d="M196.8,120.5a4.6,4.6,0,0,1,2.7,0,10.8,10.8,0,0,1,2,1.4l-5.7,14s-2-.6-2-1.8,0-10,0-10a5.4,5.4,0,0,0,2.2-1.6A14.2,14.2,0,0,0,196.8,120.5Z" style="fill:#fff"/><path d="M223.1,138.8a12.4,12.4,0,0,1,1.9,3.9,6.3,6.3,0,0,1,0,2.2l-15,.7s-.8-1.4,0-2.2,8.7-3.6,8.7-3.6,2.3,1,3,.5A7,7,0,0,0,223.1,138.8Z" style="fill:#fff"/><path d="M198.3,121.4a4.5,4.5,0,0,1,2.7,0,10.8,10.8,0,0,1,2,1.4l-5.7,14s-2-.5-2.1-1.8V125a5.5,5.5,0,0,0,2.3-1.6A10.4,10.4,0,0,0,198.3,121.4Z" style="fill:#c7a6cc"/><path d="M223.4,140.3s1.8,2.4,2,3.9a6.3,6.3,0,0,1,0,2.2l-15,.7s-.8-1.4,0-2.2,8.7-3.6,8.7-3.6,2.2,1,3,.5A5.4,5.4,0,0,0,223.4,140.3Z" style="fill:#c7a6cc"/><path d="M195.8,136.6h-.2c-.3-.1-2.5-.8-2.6-2.5v-10a.7.7,0,0,1,.5-.7c.6-.3,1.6-.8,1.8-1.3a8.6,8.6,0,0,0,.8-1.8.5.5,0,0,1,.5-.5,4.8,4.8,0,0,1,3.2,0,11.3,11.3,0,0,1,2.2,1.5.8.8,0,0,1,.2.9l-5.7,14A.8.8,0,0,1,195.8,136.6Zm-1.3-12.1V134c0,.4.5.7.9.9l5.2-12.8a4.8,4.8,0,0,0-1.4-.9,2.8,2.8,0,0,0-1.8-.1c-.2.4-.4,1.1-.7,1.7A5.1,5.1,0,0,1,194.5,124.5Z" style="fill:#49194f"/><path d="M210,146.3a.7.7,0,0,1-.6-.3c-.4-.7-.9-2.2.1-3.2s6.5-2.9,9-3.7h.5c.9.4,2,.7,2.3.5a4.6,4.6,0,0,0,1.1-1.2.9.9,0,0,1,.6-.3.9.9,0,0,1,.7.3,14.3,14.3,0,0,1,2.1,4.2,4.9,4.9,0,0,1-.1,2.5.7.7,0,0,1-.7.5l-14.9.7Zm8.7-5.7c-3.7,1.3-7.6,2.8-8.1,3.3s-.2.6-.1.9l13.8-.6a3.3,3.3,0,0,0,0-1.4,8.4,8.4,0,0,0-1.3-2.7,6,6,0,0,1-.8.8C221.3,141.5,219.6,141,218.7,140.6Z" style="fill:#49194f"/></svg>