<svg id="_1" data-name="1" xmlns="http://www.w3.org/2000/svg" width="284.7" height="149" viewBox="0 0 284.7 149"><title>Artboard 8</title><rect x="-363.8" y="-280.7" width="1000" height="950" style="fill:#fff"/><rect y="134.4" width="284.7" height="14.52" style="fill:#49194f"/><path d="M33.5,35.9A101.2,101.2,0,0,1,68.1,21.8c26.7-5.5,48.6,1.3,58.2,4.9a99.4,99.4,0,0,1,24.4-14.6c28.9-12,55.8-6.9,67.2-3.9l49.3,127.6H80.7Z" style="fill:#49194f"/><path d="M39.6,31.8A77.6,77.6,0,0,1,71.4,17.5c7-1.4,21.3-4,37.5,2.2A63.1,63.1,0,0,1,129.7,33q21,48,42.1,95.9a221,221,0,0,1-52.6,5.5A224.9,224.9,0,0,1,78,130.1q-7.8-21.6-16.3-43.8Q50.9,58.2,39.6,31.8Z" style="fill:#fff"/><path d="M122.2,135.2h-3a230,230,0,0,1-41.4-4.4c-.2,0-.4-.2-.5-.5C72.1,115.8,66.6,101,61,86.6,54,68.4,46.6,50,39,32.1a.6.6,0,0,1,.2-.9,77.9,77.9,0,0,1,32-14.4c6.4-1.3,21.2-4.2,38,2.2a61.9,61.9,0,0,1,21,13.5l.2.2,42.1,95.9a.9.9,0,0,1,0,.7,1,1,0,0,1-.5.4A232.4,232.4,0,0,1,122.2,135.2Zm-43.7-5.8a223.2,223.2,0,0,0,40.7,4.3,230.1,230.1,0,0,0,51.6-5.3L129.1,33.5a60.3,60.3,0,0,0-20.5-13.1C92.3,14.2,77.7,17,71.5,18.2A78.3,78.3,0,0,0,40.6,32c7.5,17.8,14.8,36,21.8,54.1C67.9,100.4,73.4,115,78.5,129.4Z" style="fill:#49194f"/><path d="M129.7,33c3.8-5.2,16.7-21.3,39.5-26.5a65.8,65.8,0,0,1,27.6-.4q28.8,63.7,57.5,127.6a262.3,262.3,0,0,0-30.2-4.8,275.5,275.5,0,0,0-52.3,0Q150.8,81.1,129.7,33Z" style="fill:#fff"/><path d="M254.3,134.5h-.2a254.8,254.8,0,0,0-30.1-4.8,266.8,266.8,0,0,0-52.1,0,.8.8,0,0,1-.7-.5L129,33.3a.6.6,0,0,1,.1-.7c5.8-8,18.8-22,40-26.9A65.6,65.6,0,0,1,197,5.4a.7.7,0,0,1,.5.4L255,133.4a.8.8,0,0,1-.1.8Zm-56.2-7.6a250.1,250.1,0,0,1,26,1.3,234.6,234.6,0,0,1,28.9,4.5L196.3,6.8a64.1,64.1,0,0,0-26.9.4c-20.4,4.7-33,18.1-38.9,25.9l41.8,95Q185.2,126.9,198.1,126.9Z" style="fill:#49194f"/><path d="M129.7,33c4.2-5.8,18.6-24,44.3-30.2a75.1,75.1,0,0,1,32.8-.4l50,126.6a114.1,114.1,0,0,0-27.2-7,120.6,120.6,0,0,0-57.8,6.9Z" style="fill:#fff"/><path d="M256.8,129.7h-.3a115.4,115.4,0,0,0-27-7,121.8,121.8,0,0,0-57.4,6.9.6.6,0,0,1-.9-.4L129,33.3a.6.6,0,0,1,.1-.7c6.5-9,20.9-24.8,44.7-30.5A75.8,75.8,0,0,1,207,1.6a1.2,1.2,0,0,1,.5.5l50,126.6a.8.8,0,0,1-.2.8C257.2,129.7,257,129.7,256.8,129.7ZM130.5,33.1,172.2,128a120.9,120.9,0,0,1,57.5-6.7,117.4,117.4,0,0,1,25.8,6.4L206.3,3a73.9,73.9,0,0,0-32.1.5C151.1,9.1,137,24.3,130.5,33.1Z" style="fill:#49194f"/><path d="M32.2,51.3c1.9-4,11.9-20.1,42.6-28.1s51.6,7.2,54.9,9.8q21,48,42.1,95.9c-59.5-13.6-71,1-101.1,1.9C52,106.8,50.9,75.4,32.2,51.3Z" style="fill:#fff"/><path d="M70.7,131.5a.9.9,0,0,1-.6-.3C60.7,119.1,55.6,105,50.7,91.3S40.9,63.7,31.6,51.8a.8.8,0,0,1-.1-.8c.7-1.5,3.6-6.8,10.7-12.8S61.4,26,74.6,22.5c31.3-8.1,51.8,6.9,55.6,9.9,0,.1.1.2.2.3l42.1,95.9a.8.8,0,0,1-.1.8,1.1,1.1,0,0,1-.7.3c-40.6-9.3-58.5-5.5-75.8-1.8-8,1.7-15.6,3.4-25.2,3.6ZM33.1,51.2c9.2,12.1,14.2,26.1,19.1,39.6s9.7,27.4,18.9,39.2c9.2-.3,16.7-1.9,24.5-3.5,17.3-3.7,35.1-7.6,75,1.4L129.1,33.5C125,30.3,105.2,16.1,75,24c-13,3.3-23.7,8.5-31.8,15.4C36.8,44.7,34,49.4,33.1,51.2Z" style="fill:#49194f"/><path d="M129.7,33s17.2-21.2,46.8-23.4,41.3,8.2,41.3,8.2l49.4,109.7s-53.5-27.8-93.8,1.4Z" style="fill:#fff"/><path d="M173.4,129.7h-.2l-.4-.4L129,33.3a.6.6,0,0,1,.1-.7c.2-.3,17.8-21.6,47.3-23.8s41.4,8,41.9,8.5l.2.2,49.4,109.7a.6.6,0,0,1-.2.8.6.6,0,0,1-.8.1A129.9,129.9,0,0,0,235.3,118c-16.7-3-40.8-3.4-61.4,11.6ZM130.6,33.2l43.1,94.6c20.9-14.7,45.1-14.3,61.9-11.3a130.8,130.8,0,0,1,30.1,9.4L217.2,18.3c-1.3-1-13.3-10-40.6-8S133,30.4,130.6,33.2Z" style="fill:#49194f"/><path d="M121.8,33.9a86.2,86.2,0,0,0-37.2-5.4,84.7,84.7,0,0,0-33.4,9.8c2.4,7.4,4.9,14.9,7.3,22.4,14.5-7.4,26.4-9.2,34.6-9.4,0,0,6.2-.2,35.7,3.9h0Z" style="fill:#c7a6cc"/><path d="M61.8,65.8,54,42l.5-.3a85.6,85.6,0,0,1,33.8-9.8,87.3,87.3,0,0,1,37.5,5.4h.3l7.5,22.8-1.2-.2c-29-4-35.5-3.9-35.6-3.9-11.3.4-22.8,3.5-34.3,9.3Zm-6-23.1,6.8,21a82.8,82.8,0,0,1,34.2-9.1c.2,0,6.4-.1,34.6,3.8l-6.5-19.8a85,85,0,0,0-69.1,4.1Z" style="fill:#49194f"/><path d="M142.6,33.5a82.6,82.6,0,0,1,71.2-14.3l7.7,16.1a124.1,124.1,0,0,0-41.8,4.2,125.5,125.5,0,0,0-28.2,11.7Z" style="fill:#f0a74d"/><path d="M150.9,56.4l-9.5-18.9.5-.4a83.1,83.1,0,0,1,71.8-14.5h.3l8.4,17.6h-1.2a120.6,120.6,0,0,0-41.5,4.2A123.3,123.3,0,0,0,151.6,56Zm-7.6-18.5,8.2,16.4A125.4,125.4,0,0,1,220,38.6L213,24a81.8,81.8,0,0,0-69.7,13.9Z" style="fill:#49194f"/><path d="M154.8,63.4l-.7-1.3a111.5,111.5,0,0,1,32.1-10.3,114.8,114.8,0,0,1,37,.3l-.3,1.5a111.2,111.2,0,0,0-36.4-.3A113.9,113.9,0,0,0,154.8,63.4Z" style="fill:#49194f"/><path d="M158,69.4l-.6-1.4a114,114,0,0,1,69.4-6.9l-.3,1.5A112.2,112.2,0,0,0,158,69.4Z" style="fill:#49194f"/><path d="M163.2,80.3l-.8-1.2a53.1,53.1,0,0,1,13.9-6.9,57.4,57.4,0,0,1,25.1-2.5l-.2,1.5a56.3,56.3,0,0,0-24.5,2.4A58.6,58.6,0,0,0,163.2,80.3Z" style="fill:#49194f"/><path d="M166.1,87.5l-.7-1.3a63,63,0,0,1,17.8-6.3,65.3,65.3,0,0,1,18.7-.9v1.5a62.4,62.4,0,0,0-18.3.9A63.2,63.2,0,0,0,166.1,87.5Z" style="fill:#49194f"/><path d="M170.1,96.5l-.9-1.3a49.8,49.8,0,0,1,36.4-7.3l-.3,1.5a47.9,47.9,0,0,0-35.2,7.1Z" style="fill:#49194f"/><path d="M205.6,76.3l5.7,16.8c4.6-.6,9.8-1,15.5-1.2s8.4.1,12.2.3L232.4,74a38.8,38.8,0,0,0-14.3-1.2A40.4,40.4,0,0,0,205.6,76.3Z" style="fill:#c7a6cc"/><path d="M212.4,90.1l-6.1-18,.6-.3a40,40,0,0,1,12.8-3.6,39.3,39.3,0,0,1,14.5,1.2h.4l7.1,19.7h-1.1c-4-.3-8.1-.4-12.2-.3A133.1,133.1,0,0,0,213,90Zm-4.3-17.2,5.3,15.6a126.3,126.3,0,0,1,15-1.2c3.7,0,7.4,0,11.1.3l-6-16.9a42.1,42.1,0,0,0-13.7-1A40.7,40.7,0,0,0,208.1,72.9Z" style="fill:#49194f"/><rect x="32.6" y="48" width="109.3" height="33.5" style="fill:#fff"/><rect x="32.6" y="44.5" width="106.5" height="34.58" style="fill:#f0a74d"/><path d="M142.6,82.3H31.8v-35H142.6ZM33.3,80.8H141.1V48.7H33.3Z" style="fill:#49194f"/><path d="M32.6,48s6.7,10.1,6.7,16.8-6.7,16.7-6.7,16.7Z" style="fill:#49194f"/><path d="M14.3,134.4H154.9V109.3H13.8S24.1,119.8,14.3,134.4Z" style="fill:#fff"/><path d="M18.8,130.8H154.9V109.3H18.2S28.2,118.3,18.8,130.8Z" style="fill:#c7a6cc"/><path d="M154.2,109.3s-6.2,6.9-6,12.6,6,12.5,6,12.5Z" style="fill:#49194f"/><rect x="17.3" y="113.1" width="82.1" height="1.5" style="fill:#49194f"/><rect x="18.2" y="116.7" width="119.1" height="1.5" style="fill:#49194f"/><rect x="18.2" y="124.6" width="29.2" height="1.5" style="fill:#49194f"/><path d="M155.7,135.2H12.9l.8-1.2c9.3-13.9-.1-23.8-.5-24.2L12,108.5H155.7Zm-140-1.5H154.2V110H15.3C17.7,113.2,22.6,122.2,15.7,133.7Z" style="fill:#49194f"/><path d="M154.9,135.9H9.8a1.5,1.5,0,0,1-1.5-1.5,1.5,1.5,0,0,1,1.5-1.5H153.4V110.8H9.8a1.5,1.5,0,1,1,0-3H154.9a1.5,1.5,0,0,1,1.5,1.5v25.1A1.5,1.5,0,0,1,154.9,135.9Z" style="fill:#f0a74d"/><path d="M147.4,106.6H20.9V81.5h127S138.6,92,147.4,106.6Z" style="fill:#fff"/><path d="M148.8,107.4H20.1V80.8H149.6L148.5,82c-.4.4-8.8,10.3-.4,24.3ZM21.6,105.9H146.1c-6.2-11.5-1.7-20.5.4-23.6H21.6Z" style="fill:#49194f"/><path d="M21.5,81.5s5.6,6.9,5.4,12.6-5.4,12.5-5.4,12.5Z" style="fill:#49194f"/><path d="M151.5,108.1H20.9a1.4,1.4,0,0,1-1.5-1.5V81.5A1.5,1.5,0,0,1,20.9,80H151.5a1.5,1.5,0,0,1,0,3H22.4v22.1H151.5a1.5,1.5,0,0,1,1.5,1.5A1.5,1.5,0,0,1,151.5,108.1Z" style="fill:#49194f"/><rect x="70.9" y="86.8" width="73.9" height="1.5" style="fill:#49194f"/><rect x="36.7" y="90.5" width="107.2" height="1.5" style="fill:#49194f"/><rect x="53.7" y="96.8" width="90.2" height="1.5" style="fill:#49194f"/><path d="M143.9,83H32.6a1.5,1.5,0,0,1-1.5-1.5V48a1.5,1.5,0,0,1,1.5-1.5H143.9a1.5,1.5,0,0,1,0,3H34.1V80H143.9a1.5,1.5,0,0,1,0,3Z" style="fill:#49194f"/><path d="M139,61.3H54.9a.9.9,0,0,1-.8-.8.8.8,0,0,1,.8-.7H139a.8.8,0,0,1,.8.7A.9.9,0,0,1,139,61.3Z" style="fill:#fff"/><path d="M139,73.1H86a.7.7,0,0,1-.7-.7.8.8,0,0,1,.7-.8h53a.9.9,0,0,1,.8.8A.8.8,0,0,1,139,73.1Z" style="fill:#fff"/><path d="M139,76.8H75.4a.8.8,0,0,1-.7-.8.7.7,0,0,1,.7-.7H139a.8.8,0,0,1,.8.7A.9.9,0,0,1,139,76.8Z" style="fill:#fff"/><path d="M75,104.3l-7.7,13c-2.7-4.3-5.5-8.6-8.2-13V55.4H75Z" style="fill:#fff"/><path d="M72.6,104.3c-2.5,4.4-5.1,8.7-7.7,13l-8.1-13V55.4H72.6Z" style="fill:#c7a6cc"/><path d="M67.3,118.7l-8.9-14.1v-50H75.7v49.9Zm-7.4-14.6,7.4,11.8,6.9-11.8v-48H59.9Z" style="fill:#49194f"/><path d="M139,56.1H47.5a.8.8,0,0,1-.8-.7.8.8,0,0,1,.8-.8H139a.8.8,0,0,1,.8.8A.8.8,0,0,1,139,56.1Z" style="fill:#fff"/><circle cx="74.6" cy="133.3" r="11.4" transform="translate(-71.8 176.7) rotate(-77.3)" style="fill:#fff"/><path d="M73.5,143.8a12.2,12.2,0,1,1,0-24.3,12.2,12.2,0,0,1,0,24.3Zm0-22.8a10.7,10.7,0,1,0,10.6,10.6A10.6,10.6,0,0,0,73.5,121Z" style="fill:#49194f"/><circle cx="105.7" cy="133.3" r="11.4" transform="matrix(0.16, -0.99, 0.99, 0.16, -42.77, 216.2)" style="fill:#fff"/><path d="M104.8,143.8A12.2,12.2,0,1,1,117,131.6,12.2,12.2,0,0,1,104.8,143.8Zm0-22.8a10.7,10.7,0,0,0,0,21.3,10.7,10.7,0,1,0,0-21.3Z" style="fill:#49194f"/><path d="M85.5,131.9l-1.3-.6c.1-.2,1.9-3.8,5.2-3.8s4.7,3.7,4.7,3.9l-1.4.4s-1-2.8-3.3-2.8S85.5,131.9,85.5,131.9Z" style="fill:#49194f"/><path d="M115.8,136.6l-.9-1.3c.1,0,6.4-4.6,13-9.1,13.6-9.1,14.9-8.6,15.6-8.3s3,3.3,3.1,6a5.1,5.1,0,0,1-2.6,5l-.7-1.3a4,4,0,0,0,1.8-3.7c0-2-1-4.1-2.2-4.6S127.7,127.9,115.8,136.6Z" style="fill:#49194f"/><path d="M67,137.3h-.1a.8.8,0,0,1-.6-.9c.1-.3.1-.6,11.5-12.3a.8.8,0,0,1,1.1,0,.7.7,0,0,1,0,1c-4,4.2-10.6,11-11.2,11.8A.8.8,0,0,1,67,137.3Z" style="fill:#49194f"/><path d="M73.5,136.5c-.2,0-.4,0-.5-.2a.6.6,0,0,1-.1-1l6.3-6.8a.9.9,0,0,1,1.1-.1.8.8,0,0,1,0,1.1L74,136.3C73.9,136.5,73.7,136.5,73.5,136.5Z" style="fill:#49194f"/><path d="M97.6,137.5h-.1a.8.8,0,0,1-.6-.9c0-.3.1-.6,11.5-12.3a.8.8,0,0,1,1.1,0,.7.7,0,0,1,0,1c-4.1,4.2-10.6,11-11.2,11.8A.8.8,0,0,1,97.6,137.5Z" style="fill:#49194f"/><path d="M104,136.7a.6.6,0,0,1-.5-.2.7.7,0,0,1,0-1l6.3-6.8a.9.9,0,0,1,1.1-.1.8.8,0,0,1,0,1.1l-6.3,6.8A.7.7,0,0,1,104,136.7Z" style="fill:#49194f"/></svg>