<svg id="_1" data-name="1" xmlns="http://www.w3.org/2000/svg" width="293.1" height="156.8" viewBox="0 0 293.1 156.8"><title>Artboard 5</title><rect x="-359.7" y="-67.2" width="1000" height="950" style="fill:#fff"/><path d="M262.7,155.7a.6.6,0,0,1-.6.6.6.6,0,0,1-.6-.6.5.5,0,0,1,.6-.6A.6.6,0,0,1,262.7,155.7Z" style="fill:#49194f"/><path d="M267.3,155.7a.6.6,0,0,1-.6.6.6.6,0,0,1-.6-.6.5.5,0,0,1,.6-.6A.6.6,0,0,1,267.3,155.7Z" style="fill:#49194f"/><path d="M264.1,156.7H264l-1-.5a.9.9,0,0,1-.4-.7v-.2a6.4,6.4,0,0,1,.8-1.4.4.4,0,1,1,.6.4,5.4,5.4,0,0,0-.7,1.3h0c.2.2.5.2.8.3a.5.5,0,0,1,.3.5C264.4,156.6,264.3,156.7,264.1,156.7Z" style="fill:#49194f"/><path d="M266.7,155.2c-.1-.1-.4-.2-.5-.1l-.6.3-.5.2c-.2,0-.3.2-.3.4a.5.5,0,0,0,.5.3,2.7,2.7,0,0,0,1.2-.6A.4.4,0,0,0,266.7,155.2Z" style="fill:#49194f"/><g style="opacity:0.49"><path d="M265.8,155.7c0-.3.8-.7,1.6-.5s.8.4.8.6-.7.5-1.2.5S265.8,156,265.8,155.7Z" style="fill:#c7a6cc"/></g><g style="opacity:0.49"><path d="M259.9,155.7c0-.3.8-.7,1.6-.5s.8.4.8.6-.7.5-1.2.5S259.9,156,259.9,155.7Z" style="fill:#c7a6cc"/></g><rect y="136.6" width="287.1" height="13.17" style="fill:#49194f"/><path d="M31,16.5l6.7,20.8,36.6,70.4,3.2-1.6-4.4,2.3,2.7,5.3,1.2-.6,2.2,4.2a1.2,1.2,0,0,0,1.6.5l4.4-2.2a1.3,1.3,0,0,0,.5-1.6l-2.2-4.3,1.1-.6-2.7-5.3-1.2.6L44.2,34Z" style="fill:#fff"/><path d="M80.3,111.2h7.3a0,0,0,0,1,0,0v4.4a1.6,1.6,0,0,1-1.6,1.6H81.9a1.6,1.6,0,0,1-1.6-1.6v-4.4a0,0,0,0,1,0,0Z" transform="translate(-43.1 51.5) rotate(-27.4)" style="fill:#c7a6cc"/><rect x="58.2" y="31.9" width="7.3" height="79.32" transform="translate(-26 36.5) rotate(-27.4)" style="fill:#f0a74d"/><path d="M73.9,108.8,36.7,37l7.8-4,37.2,71.7ZM38.8,37.7l35.8,69,5.1-2.6L43.9,35Z" style="fill:#49194f"/><path d="M75.5,114.7,72.1,108l10.1-5.2,3.4,6.6Zm-1.4-6,2.1,4,7.4-3.9-2.1-4Z" style="fill:#49194f"/><path d="M80.3,118.7h-.6a1.7,1.7,0,0,1-1.1-.9l-2.6-5,7.8-4,2.5,4.9a1.9,1.9,0,0,1-.8,2.6l-4.4,2.3ZM78,113.4l1.9,3.6a.2.2,0,0,0,.2.2h.4l4.3-2.3a.5.5,0,0,0,.2-.6l-1.9-3.6Z" style="fill:#49194f"/><polygon points="37 37.6 28.9 12.5 44.8 33.5 43.6 34.4 33.1 20.5 38.5 37.1 37 37.6" style="fill:#49194f"/><path d="M36.9,29.7a5.2,5.2,0,0,1-2.7-1.2l1-1.2c.5.5,1.5,1,1.9.8s.5-.7.4-2H39c0,.7.2,2.8-1.2,3.5Z" style="fill:#49194f"/><path d="M228.7,138.6H55.2V23.7a138.7,138.7,0,0,1,49.7.2,133.8,133.8,0,0,1,37.8,13,109.7,109.7,0,0,1,86-13.2Z" style="fill:#49194f"/><path d="M224,138.6H59.3V27.1a116.8,116.8,0,0,1,47.2.1,105.9,105.9,0,0,1,36.4,15,82.2,82.2,0,0,1,36.2-16.9A93.5,93.5,0,0,1,224,27.1Z" style="fill:#fff"/><rect x="175.2" y="92.2" width="29.9" height="20.9" style="fill:#c7a6cc"/><rect x="164" y="102.6" width="29.9" height="20.9" style="fill:#f0a74d"/><path d="M225,139.3H58.8V26.5l.6-.2a119.1,119.1,0,0,1,47.5.2,106.4,106.4,0,0,1,36.2,14.8c7-5.8,18.9-13.2,36.1-16.8a96.1,96.1,0,0,1,45.3,1.9h.5ZM60.3,137.8H223.5V27.6a96.2,96.2,0,0,0-44-1.6,81.5,81.5,0,0,0-35.9,16.8l-.4.4-.5-.3a105.4,105.4,0,0,0-36.1-15,117,117,0,0,0-46.3-.2Z" style="fill:#49194f"/><rect x="142.4" y="42.2" width="1.5" height="96.33" style="fill:#49194f"/><polygon points="202.9 76.5 157.9 76.5 157.9 47.1 159.4 47.1 159.4 75 202.9 75 202.9 76.5" style="fill:#49194f"/><path d="M205.5,70.8c-3.7-4.2-7.4-6.3-11-6.3h-.1c-2.9,0-4.9,1.4-7,2.9s-4.5,3.1-7.8,2.9-5.1-1.9-7-3.7-3.3-3-6-3.3-8.3,1.9-13.3,6.9l-1.1-1c5.3-5.4,10.2-7.9,14.6-7.4s5,2.1,6.8,3.7,3.4,3.1,6.1,3.3,4.8-1.2,6.9-2.7S191,63,194.4,63h.1c4.1,0,8.1,2.3,12.1,6.8Z" style="fill:#49194f"/><polygon points="155.7 50 158.8 44.1 161.6 49.5 155.7 50" style="fill:#49194f"/><polygon points="198.8 72.1 207 76.1 199.4 79.3 198.8 72.1" style="fill:#49194f"/><path d="M192.5,122.2H161.1V99.8h31.4Zm-29.9-1.5H191V101.3H162.6Z" style="fill:#49194f"/><path d="M202.2,116.4H170.7V94h31.5Zm-30-1.5h28.5V95.5H172.2Z" style="fill:#49194f"/><rect x="161" y="96.9" width="11.2" height="1.5" transform="translate(-26.5 99.3) rotate(-30.9)" style="fill:#49194f"/><rect x="191" y="96.9" width="11.2" height="1.5" transform="matrix(0.86, -0.51, 0.51, 0.86, -22.26, 114.62)" style="fill:#49194f"/><rect x="161" y="117.8" width="11.2" height="1.5" transform="translate(-37.2 102.2) rotate(-30.9)" style="fill:#49194f"/><rect x="191" y="117.8" width="11.2" height="1.5" transform="matrix(0.86, -0.51, 0.51, 0.86, -32.98, 117.57)" style="fill:#49194f"/><path d="M132.3,55.6s-7.6-5.3-27.6-10.5S69,45,68.9,45.1l-.5-1.5c.1,0,16.2-5.3,36.7,0s27.8,10.6,28.1,10.8Z" style="fill:#49194f"/><path d="M132.3,64.1s-7.6-5.2-27.6-10.5-35.7-.1-35.8,0l-.5-1.4c.1-.1,16.2-5.4,36.7-.1s27.8,10.6,28.1,10.8Z" style="fill:#49194f"/><path d="M132.3,72.6s-7.6-5.2-27.6-10.5S69,62,68.9,62.1l-.5-1.4c.1-.1,16.2-5.4,36.7,0s27.8,10.5,28.1,10.7Z" style="fill:#49194f"/><polygon points="118.4 102.7 73.4 102.7 73.4 73.3 74.9 73.3 74.9 101.2 118.4 101.2 118.4 102.7" style="fill:#49194f"/><polygon points="70.6 75.9 74.2 70 77.4 75.5 70.6 75.9" style="fill:#49194f"/><path d="M78.3,98.7c-2.6,0-5.7-1.4-9.3-4.1l.9-1.2c4.3,3.3,7.7,4.4,10.3,3.5,4.3-1.6,5.8-9,6.9-14.3s1.4-6.4,2.9-6.4h0c1.4,0,1.7,1.7,2.3,4.6s2.1,9.8,6.4,13,6.8,3,11.6,2.4l.2,1.5c-5.2.6-9.5-.3-12.7-2.7-4.8-3.6-6.1-9.8-6.9-13.9a22.6,22.6,0,0,0-.9-3.4c-.5.7-1,3.2-1.4,5.2-1.2,5.7-2.8,13.5-7.9,15.4A6.1,6.1,0,0,1,78.3,98.7Z" style="fill:#49194f"/><path d="M252.6,131.8a23.1,23.1,0,0,0-46.1,0h-6v10.3h58V131.8Zm-8.7-.1H215.1s-.6-15.1,14.2-15.1S243.9,131.7,243.9,131.7Z" style="fill:#fff"/><path d="M254.7,130a23,23,0,0,0-46,0h-6v10.3h58V130Zm-8.6-.1H217.3s-.6-15.1,14.2-15.1S246.1,129.9,246.1,129.9Z" style="fill:#f0a74d"/><path d="M259.3,142.9H199.8V131.1h6a23.8,23.8,0,0,1,47.5,0h6Zm-58-1.5h56.5v-8.8h-6v-.8a22.3,22.3,0,0,0-44.6,0v.8h-5.9Zm43.4-9H214.4v-.7c0-.3-.2-7.2,4.3-11.8,2.6-2.7,6.2-4,10.7-4h0c4.6,0,8.2,1.3,10.9,4,4.5,4.7,4.5,11.5,4.5,11.8Zm-28.8-1.5h27.2c-.1-1.8-.7-6.6-4-9.9s-5.7-3.6-9.8-3.6h0c-4.1,0-7.3,1.2-9.6,3.5S215.9,129.1,215.9,130.9Z" style="fill:#49194f"/><rect x="203.6" y="135.9" width="1.5" height="6.27" style="fill:#49194f"/><rect x="208.2" y="135.9" width="1.5" height="6.27" style="fill:#49194f"/><rect x="213.1" y="135.9" width="1.5" height="6.27" style="fill:#49194f"/><rect x="218" y="135.9" width="1.5" height="6.27" style="fill:#49194f"/><rect x="222.9" y="135.9" width="1.5" height="6.27" style="fill:#49194f"/><rect x="227.8" y="135.9" width="1.5" height="6.27" style="fill:#49194f"/><rect x="232.7" y="135.9" width="1.5" height="6.27" style="fill:#49194f"/><rect x="237.6" y="135.9" width="1.5" height="6.27" style="fill:#49194f"/><rect x="242.5" y="135.9" width="1.5" height="6.27" style="fill:#49194f"/><rect x="247.4" y="135.9" width="1.5" height="6.27" style="fill:#49194f"/><rect x="252.4" y="135.9" width="1.5" height="6.27" style="fill:#49194f"/><rect x="98.6" y="75.4" width="50.3" height="63.79" transform="translate(16.6 -16.6) rotate(8.2)" style="fill:#fff"/><rect x="104.4" y="94.5" width="9.3" height="6.38" transform="translate(15.1 -14.6) rotate(8.2)" style="fill:#c7a6cc"/><rect x="117.8" y="96.5" width="6.4" height="6.38" transform="translate(15.5 -16.3) rotate(8.2)" style="fill:#f0a74d"/><rect x="128.5" y="98" width="6.4" height="6.38" transform="translate(15.8 -17.8) rotate(8.2)" style="fill:#f0a74d"/><rect x="139.2" y="99.6" width="6.4" height="6.38" transform="translate(16.2 -19.3) rotate(8.2)" style="fill:#f0a74d"/><rect x="115.9" y="106.7" width="6.4" height="6.38" transform="matrix(0.99, 0.14, -0.14, 0.99, 16.96, -15.92)" style="fill:#f0a74d"/><rect x="126.6" y="108.3" width="6.4" height="6.38" transform="translate(17.3 -17.4) rotate(8.2)" style="fill:#f0a74d"/><rect x="137.4" y="109.8" width="6.4" height="6.38" transform="translate(17.6 -19) rotate(8.2)" style="fill:#f0a74d"/><rect x="105" y="105.1" width="6.4" height="6.38" transform="translate(16.6 -14.4) rotate(8.2)" style="fill:#f0a74d"/><rect x="114.2" y="117" width="6.4" height="6.38" transform="translate(18.4 -15.6) rotate(8.2)" style="fill:#f0a74d"/><rect x="124.9" y="118.6" width="6.4" height="6.38" transform="matrix(0.99, 0.14, -0.14, 0.99, 18.75, -17.09)" style="fill:#f0a74d"/><rect x="135.7" y="120.1" width="6.4" height="6.38" transform="translate(19.1 -18.6) rotate(8.2)" style="fill:#f0a74d"/><rect x="103.3" y="115.4" width="6.4" height="6.38" transform="translate(18.1 -14) rotate(8.2)" style="fill:#f0a74d"/><rect x="112.6" y="127.3" width="6.4" height="6.38" transform="translate(19.9 -15.2) rotate(8.2)" style="fill:#f0a74d"/><rect x="123.3" y="128.9" width="6.4" height="6.38" transform="translate(20.2 -16.7) rotate(8.2)" style="fill:#f0a74d"/><rect x="134" y="130.4" width="6.4" height="6.38" transform="translate(20.5 -18.3) rotate(8.2)" style="fill:#f0a74d"/><rect x="101.6" y="125.7" width="6.4" height="6.38" transform="translate(19.5 -13.7) rotate(8.2)" style="fill:#f0a74d"/><rect x="107.7" y="80.4" width="40.9" height="12.92" transform="translate(13.8 -17.4) rotate(8.2)" style="fill:#c7a6cc"/><path d="M144.7,143.3l-51.3-7.4,9.3-64.7L154,78.7Zm-49.6-8.7,48.3,7,8.9-61.7-48.3-7Z" style="fill:#49194f"/><path d="M146.9,95.1l-42-6.1L107,74.7l42,6.1Zm-40.3-7.4,39.1,5.7,1.6-11.3-39.1-5.7Z" style="fill:#49194f"/><path d="M112.8,100.7l-10.7-1.6,1.2-7.8L114,92.9Zm-9-2.8,7.8,1.1.7-4.9L104.5,93Z" style="fill:#49194f"/><path d="M123.4,102.2l-7.8-1.1,1.1-7.8,7.8,1.1Zm-6.1-2.4,4.8.7.7-4.8L118,95Z" style="fill:#49194f"/><path d="M134.1,103.8l-7.8-1.1,1.2-7.8,7.8,1.1Zm-6.1-2.4,4.9.7.7-4.8-4.9-.7Z" style="fill:#49194f"/><path d="M144.9,105.3l-7.8-1.1,1.1-7.8,7.8,1.1Zm-6.1-2.4,4.8.7.7-4.8-4.8-.7Z" style="fill:#49194f"/><path d="M121.5,112.5l-7.8-1.1,1.2-7.9,7.8,1.2Zm-6.1-2.4,4.9.7.7-4.9-4.9-.7Z" style="fill:#49194f"/><path d="M132.3,114l-7.8-1.1,1.1-7.8,7.8,1.1Zm-6.1-2.4,4.8.7.7-4.8-4.8-.7Z" style="fill:#49194f"/><path d="M143,115.6l-7.8-1.1,1.1-7.8,7.8,1.1Zm-6.1-2.4,4.8.7.7-4.8-4.8-.7Z" style="fill:#49194f"/><path d="M110.6,110.9l-7.8-1.1,1.1-7.8,7.8,1.1Zm-6.1-2.4,4.8.7.7-4.8-4.8-.7Z" style="fill:#49194f"/><path d="M119.9,122.8l-7.8-1.1,1.1-7.8L121,115Zm-6.1-2.4,4.8.7.7-4.8-4.8-.7Z" style="fill:#49194f"/><path d="M130.6,124.3l-7.8-1.1,1.1-7.8,7.8,1.1Zm-6.1-2.4,4.8.7.7-4.8-4.8-.7Z" style="fill:#49194f"/><path d="M141.3,125.9l-7.8-1.1,1.2-7.8,7.8,1.1Zm-6.1-2.4,4.9.7.7-4.8-4.9-.7Z" style="fill:#49194f"/><path d="M109,121.2l-7.8-1.1,1.1-7.8,7.8,1.1Zm-6.2-2.4,4.9.7.7-4.8-4.9-.7Z" style="fill:#49194f"/><path d="M118.2,133.1l-7.8-1.1,1.1-7.8,7.8,1.1Zm-6.1-2.4,4.8.7.7-4.8-4.8-.7Z" style="fill:#49194f"/><path d="M128.9,134.6l-7.8-1.1,1.2-7.8,7.8,1.1Zm-6.1-2.4,4.9.7.7-4.8-4.9-.7Z" style="fill:#49194f"/><path d="M139.7,136.2l-7.8-1.1,1.1-7.8,7.8,1.1Zm-6.1-2.4,4.8.7.7-4.8-4.8-.7Z" style="fill:#49194f"/><path d="M107.3,131.5l-7.8-1.1,1.1-7.8,7.8,1.1Zm-6.1-2.4,4.8.7.7-4.8-4.8-.7Z" style="fill:#49194f"/><path d="M130.9,82a.5.5,0,0,0-.9-.3,6.4,6.4,0,0,0-2.2,2.4c-.4.7.7,1.1,1,.5a6.4,6.4,0,0,1,1-1.3,27.9,27.9,0,0,1-.8,7c-.1.7,1,.8,1.2.1A33.3,33.3,0,0,0,130.9,82Z" style="fill:#49194f"/><path d="M137.6,90.8l-3.1-.7a4.4,4.4,0,0,1,1.5-2.3,5.4,5.4,0,0,0,1.9-2.8,2,2,0,0,0-1.5-2.3,2.2,2.2,0,0,0-2.5,1.2c-.2.7.8,1.2,1.1.5a.9.9,0,0,1,1.5-.4c.6.6.1,1.5-.4,2s-1.3,1.2-1.8,1.9a8.5,8.5,0,0,0-1.1,2.6.5.5,0,0,0,.5.6l3.8.8A.6.6,0,1,0,137.6,90.8Z" style="fill:#49194f"/><path d="M144.6,89.6a2.1,2.1,0,0,0-1.5-2.1,3.2,3.2,0,0,0,1-1.9,2.1,2.1,0,0,0-2.8-2.2c-.6.2-.2,1.3.5,1a.9.9,0,0,1,.9.3,1.1,1.1,0,0,1,.2,1.1,2.7,2.7,0,0,1-2.1,1.5c-.7.1-.6,1.2.1,1.1s2.5-.1,2.6,1.1a1.5,1.5,0,0,1-1,1.3,3.3,3.3,0,0,1-2.2,0c-.6-.3-1.1.8-.4,1a4.2,4.2,0,0,0,3.1,0A2.7,2.7,0,0,0,144.6,89.6Z" style="fill:#49194f"/><path d="M157.9,77.5h-.3a.8.8,0,0,1-.4-1L165,60.1l.3-.6c3.1-6.7,4.6-9.7,7.1-9.8h0c2.1,0,3.4,2.1,7,8.5q3.6,6.6,6.9,13.2a.8.8,0,0,1-.3,1,.7.7,0,0,1-1-.3c-2.2-4.4-4.6-8.8-7-13.2s-4.4-7.7-5.6-7.7h0c-1.6,0-3.1,3.2-5.8,9l-.2.5c-2.5,5.3-5.1,10.8-7.8,16.3A.8.8,0,0,1,157.9,77.5Z" style="fill:#f0a74d"/><path d="M32.5,63.9v78.5h104Zm12.4,23,59.6,45H44.9Z" style="fill:#fff"/><path d="M35.1,62.4v77.7h104ZM47.5,85.2l59.6,44.5H47.5Z" style="fill:#f0a74d"/><path d="M138.7,143.1H31.8V62.4ZM33.3,141.6h101L33.3,65.4Zm73.4-9H44.2V85.4Zm-61-1.5h56.6L45.7,88.4Z" style="fill:#49194f"/><rect x="32.5" y="138" width="8.1" height="1.5" style="fill:#49194f"/><rect x="32.5" y="133.2" width="5.1" height="1.5" style="fill:#49194f"/><rect x="32.5" y="128.3" width="5.1" height="1.5" style="fill:#49194f"/><rect x="32.5" y="123.5" width="8.1" height="1.5" style="fill:#49194f"/><rect x="32.5" y="118.6" width="5.1" height="1.5" style="fill:#49194f"/><rect x="32.5" y="113.8" width="5.1" height="1.5" style="fill:#49194f"/><rect x="32.5" y="108.9" width="8.1" height="1.5" style="fill:#49194f"/><rect x="32.5" y="104.1" width="5.1" height="1.5" style="fill:#49194f"/><rect x="32.5" y="99.3" width="5.1" height="1.5" style="fill:#49194f"/><rect x="32.5" y="94.4" width="8.3" height="1.5" style="fill:#49194f"/><rect x="32.5" y="89.6" width="5.1" height="1.5" style="fill:#49194f"/><rect x="32.5" y="84.7" width="5.1" height="1.5" style="fill:#49194f"/><rect x="32.5" y="79.9" width="8.3" height="1.5" style="fill:#49194f"/><rect x="32.5" y="75" width="5.1" height="1.5" style="fill:#49194f"/><path d="M115.8,155.9l-20.3-8.2L18,130.5l-.8,3.6,1.1-4.8L12.4,128l-.2,1.2-4.7-1a1.2,1.2,0,0,0-1.4.9L5,133.9a1.3,1.3,0,0,0,.9,1.4l4.7,1-.3,1.3,5.9,1.3.2-1.3,77.5,17.1Z" style="fill:#fff"/><path d="M3.2,130.8h7.3a0,0,0,0,1,0,0v4.4a1.6,1.6,0,0,1-1.6,1.6H4.8a1.6,1.6,0,0,1-1.6-1.6v-4.4A0,0,0,0,1,3.2,130.8Z" transform="translate(139 156) rotate(102.5)" style="fill:#c7a6cc"/><rect x="50.1" y="104.5" width="7.3" height="79.32" transform="translate(206.2 122.8) rotate(102.5)" style="fill:#c7a6cc"/><path d="M94.5,155.6l-79-17.4,1.9-8.6,78.9,17.5ZM17.3,137l76,16.8,1.3-5.6-76-16.8Z" style="fill:#49194f"/><path d="M16.7,139.8l-7.3-1.6,2.5-11.1,7.3,1.6ZM11.2,137l4.4,1,1.8-8.2-4.4-.9Z" style="fill:#49194f"/><path d="M11.2,137.2,5.7,136a2,2,0,0,1-1.2-.8,2.6,2.6,0,0,1-.2-1.5l1-4.8a1.9,1.9,0,0,1,2.3-1.4l5.4,1.2Zm-4-8.3a.4.4,0,0,0-.4.4l-1.1,4.8a.4.4,0,0,0,.1.3l.3.2,3.9.8,1.3-5.6-4-.9Z" style="fill:#49194f"/><polygon points="120.2 156.8 93.8 155.5 93.9 154 111.3 154.9 95.2 148.3 95.7 147 120.2 156.8" style="fill:#49194f"/><path d="M103.3,155.9c-.5-.4-2.2-1.7-1.9-3.1s2.6-2.1,3.1-2.2l.3,1.5c-.7.1-1.8.6-1.9,1s.3.8,1.3,1.5Z" style="fill:#49194f"/><path d="M260.1,29.6a2.1,2.1,0,0,1-2.3-.2c-.5-.5-.1-1.6.1-2.1a8.3,8.3,0,0,1,5.3-4.7c3.2-.9,6.8.5,9.4,3.4.3.1,4.1.8,5.1,3.8a4.7,4.7,0,0,1,.2,2.4c-.7,3.8-6,6.1-6.4,5.5s-.1-.4.8-1.5Z" style="fill:#49194f"/><path d="M270.7,136.1s2.9,5.9,2.6,8H257.9s-1.1-1.4,1.3-2.8l8-4.4Z" style="fill:#fff"/><path d="M272.5,137.6s3.1,5.9,2.8,8H258.7s-1.2-1.4,1.4-2.8l8.7-4.4Z" style="fill:#f0a74d"/><path d="M273.9,144.8H257.5l-.3-.3a2.5,2.5,0,0,1-.3-1.7,3.4,3.4,0,0,1,1.9-2.1l8.1-4.5h.2l4-.8.3.5c.3.6,2.9,6.1,2.6,8.4Zm-15.5-1.5h14.1a28,28,0,0,0-2.2-6.3l-2.8.6-8,4.4a1.9,1.9,0,0,0-1.1,1.1Z" style="fill:#49194f"/><path d="M241.7,130.7s4.2,1.5,5.5,4.8L237,146.9s-2.2-1.1-1.6-4.4,2.5-10.7,2.5-10.7Z" style="fill:#fff"/><path d="M243.6,130.7s4.2,1.5,5.5,4.8l-10.2,11.4s-2.2-1.1-1.6-4.4,2.5-10.7,2.5-10.7Z" style="fill:#f0a74d"/><path d="M237.2,147.8l-.5-.2a4.7,4.7,0,0,1-2-5.3c.7-3.3,2.4-10.6,2.5-10.7v-.4l4.4-1.3h.3c.1.1,4.5,1.7,5.9,5.2v.4Zm1.3-15.4c-.4,1.6-1.8,7.4-2.3,10.2a3.6,3.6,0,0,0,.7,3.3l9.4-10.6c-1.1-2.2-3.9-3.5-4.6-3.8Z" style="fill:#49194f"/><path d="M243.1,76.5S225.4,98.8,225,101.8s10.9,31.5,10.9,31.5,6,.6,7.2-1.8l-7.8-27.3L258.4,83Z" style="fill:#fff"/><path d="M244.6,77.7S227.5,99.6,227,102.6s10.5,30.8,10.5,30.8,5.8-.3,7-2.7l-7.2-25.8,22.6-20.7Z" style="fill:#c7a6cc"/><path d="M237.6,134.1h-2.2l-.2-.4c-1.9-4.8-11.4-28.8-11-31.9S240.7,78.3,242.5,76l.4-.4,16.9,7.1-23.6,21.8,7.7,27.1v.3C242.8,133.8,239.6,134.1,237.6,134.1Zm-1.1-1.5c2,.2,4.9-.1,5.8-1.2L234.5,104l22.6-20.8-13.7-5.8C236.6,86,226,99.9,225.7,102S232.1,121.6,236.5,132.6Z" style="fill:#49194f"/><path d="M230,31.3a14.4,14.4,0,0,1-4.5-3.4c-2-2.2,2.3-3.5,3.3-3.9s3.7,6.3,3.7,6.3Z" style="fill:#fff"/><path d="M230,32.1h-.3a16.6,16.6,0,0,1-4.7-3.6,2.3,2.3,0,0,1-.7-2.1c.4-1.6,2.7-2.4,3.9-2.9h.3c.6-.2,1.7-.6,4.7,6.7l.3.7Zm-1.2-7.3h-.1c-.6.3-2.7,1-2.9,1.8s0,.5.3.8a15.3,15.3,0,0,0,4,3.1l1.5-.6A25.9,25.9,0,0,0,228.8,24.8Zm.3-.1h0Z" style="fill:#49194f"/><path d="M279.7,21s-.2-6.1-1-7.5a3,3,0,0,0-4.1-1.4c-1.8.9-3.7,4.2-1.1,6a39.9,39.9,0,0,1,4.7,4.1Z" style="fill:#fff"/><path d="M278.1,23.1l-.4-.4a42.5,42.5,0,0,0-4.6-3.9,3.5,3.5,0,0,1-1.6-3.3,5.3,5.3,0,0,1,2.8-4,3.7,3.7,0,0,1,5.1,1.7c.8,1.4,1,6.7,1.1,7.8v.4ZM276,12.5l-1.1.3a3.9,3.9,0,0,0-1.9,2.8,2.1,2.1,0,0,0,.9,1.9,34.2,34.2,0,0,1,4.4,3.7l.7-.5c-.2-2.4-.5-6-.9-6.8A2.4,2.4,0,0,0,276,12.5Z" style="fill:#49194f"/><path d="M227.8,30.6l4.8-2.1s6.9,13.6,7.7,14,18.1,7.3,18.1,7.3l-6,7.8s-16-8.7-17.5-9.9S227.8,30.6,227.8,30.6Z" style="fill:#fff"/><path d="M229.2,30l4.9-2.2s6.4,12.6,7.1,13l18.2,7.3-6,7.8s-16.1-8.7-17.6-9.9S229.2,30,229.2,30Z" style="fill:#f0a74d"/><path d="M252.6,58.6l-.5-.3c-1.7-.9-16.2-8.8-17.7-10s-5.9-13.7-7.3-17.4l-.2-.7,6.1-2.6.3.6c3.1,6.1,6.7,12.8,7.4,13.7l18,7.2.9.4ZM228.8,31c2.6,7.5,5.7,15.4,6.6,16.1s12,7,16.8,9.6l5-6.6-17.3-6.9c-.2-.2-.9-.5-7.6-13.7Zm11.9,10.9Z" style="fill:#49194f"/><path d="M266.6,82.2l1.9,25.9,3.7,29.3s-4.5,1.6-6.8,0c0,0-8-29.7-8.6-31.5s-5.3-24.4-5.3-24.4Z" style="fill:#fff"/><path d="M268.4,82.2l1.9,25.9,3.8,29.3s-4.5,1.6-6.9,0c0,0-8-29.7-8.6-31.5s-5.2-24.4-5.2-24.4Z" style="fill:#c7a6cc"/><path d="M268.2,138.9a5.9,5.9,0,0,1-3.2-.9l-.3-.2v-.2c-.1-.3-8-29.7-8.6-31.5s-5.1-23.6-5.3-24.5l-.2-.9,16.7.8,1.9,26.6,3.8,29.8-.5.2A16.5,16.5,0,0,1,268.2,138.9Zm-2.2-2c1.5.8,4,.4,5.4,0l-3.7-28.7-1.8-25.3-13.4-.7c1.6,8.1,4.5,22.1,5,23.5S265.2,133.7,266,136.9Z" style="fill:#49194f"/><path d="M262,44.8s-7.9-.4-13,13-8,20.1-8,20.1,12.6,8.8,19.5,7.6l6.9-1.2s6.3-26.8,7.8-27.9,14.6-18,14.6-19.1-9.6-18.5-9.6-18.5l-4.1,2.1L281.8,36s-8.8,9.9-9.4,10.1a16.5,16.5,0,0,1-2.7-.2Z" style="fill:#fff"/><path d="M263.7,46s-8.1-.4-13.3,12.9S242.2,79,242.2,79s12.9,8.9,20,7.7l7-1.2s6.5-26.9,8-27.9,14.9-18,14.9-19.1S282.3,20,282.3,20l-4.2,2.1L284,37.2s-9.1,9.9-9.7,10a10.7,10.7,0,0,1-2.7-.1Z" style="fill:#f0a74d"/><path d="M259.2,86.4c-7.3,0-18.1-7.6-18.6-7.9l-.5-.4.2-.5c.1-.1,2.9-6.9,8-20.1S261.7,44.1,262,44.1h.1l7.7,1,2.3.3c.8-.7,5-5.3,8.9-9.5l-5.8-15.4,5.3-2.7.3.6c3.6,6.6,9.7,17.7,9.7,18.9S276.6,56.4,275.6,57s-4.5,15-7.4,27.5l-.2.5-7.3,1.2ZM242,77.6c2.3,1.6,12.6,8.2,18.4,7.2l6.4-1.2c2-8.4,6.5-26.7,8-27.8S288.2,39.1,289,37.2s-5.6-11-9.1-17.4l-2.8,1.4,5.6,15-.3.3c-9,10.1-9.6,10.2-9.9,10.3a9.3,9.3,0,0,1-2.9-.2l-7.7-1h0c-.9,0-7.6.4-12.2,12.4S242.7,75.7,242,77.6Zm30-32.2Z" style="fill:#49194f"/><path d="M264.8,37.3,262,44.8s3.9,4.8,7.6,2.1l1.6-9.6Z" style="fill:#fff"/><path d="M267.1,48.5c-2.4,0-4.6-1.9-5.7-3.2l-.3-.3,3.1-8.5h7.9l-1.9,10.8-.2.2A4.8,4.8,0,0,1,267.1,48.5Zm-4.2-3.8c.8.9,3.4,3.4,6,1.7l1.4-8.4h-5Z" style="fill:#49194f"/><circle cx="266.6" cy="32.9" r="6.9" style="fill:#fff"/><path d="M266.6,40.5a7.5,7.5,0,0,1-5.4-2.2,7.6,7.6,0,1,1,10.8,0A7.5,7.5,0,0,1,266.6,40.5Zm0-13.8a6,6,0,0,0-4.3,1.8,6.2,6.2,0,0,0,0,8.7,6,6,0,0,0,8.6,0,6.2,6.2,0,0,0,0-8.7A5.8,5.8,0,0,0,266.6,26.7Z" style="fill:#49194f"/><path d="M272.5,28c-.1,1.3-2.7,2.2-4,2.5-4.2,1-9.4-1-9.4-2.8s3.3-3,6.3-3.1S272.6,26.4,272.5,28Z" style="fill:#49194f"/><circle cx="273.6" cy="33.6" r="2.1" style="fill:#fff"/><circle cx="263.4" cy="32.2" r="0.6" style="fill:#49194f"/><path d="M268.7,32.5a.7.7,0,0,1-.7.6.6.6,0,1,1,0-1.2A.7.7,0,0,1,268.7,32.5Z" style="fill:#49194f"/><path d="M265.5,35.6h-.1a2.7,2.7,0,0,1-1.1-.5c-.2-.2-.4-.4-.3-.7s0-.1.1-.2a10,10,0,0,1,.8-1.4.3.3,0,0,1,.5,0c.2.1.2.3.1.5a7.5,7.5,0,0,0-.7,1.2h0a2,2,0,0,0,.8.4c.2,0,.3.3.2.5S265.6,35.6,265.5,35.6Z" style="fill:#49194f"/><path d="M271.7,27.5c-.8.4-.8,2.7.2,5.7l3.4-3.2C273.9,28.3,272.4,27.2,271.7,27.5Z" style="fill:#49194f"/><path d="M268,35.9a.4.4,0,0,0-.5-.1l-.5.3-.5.2c-.2,0-.4.3-.3.4s.3.4.5.3l1.2-.5C268.1,36.3,268.2,36.1,268,35.9Z" style="fill:#49194f"/><g style="opacity:0.49"><path d="M267.1,34.2c0-.3.9-.8,1.6-.6s.8.4.8.7-.6.5-1.1.4S267.2,34.5,267.1,34.2Z" style="fill:#c7a6cc"/></g><g style="opacity:0.49"><path d="M261.3,33.6c-.1-.3.8-.8,1.5-.6s.9.4.8.7-.6.5-1.1.4S261.3,33.9,261.3,33.6Z" style="fill:#c7a6cc"/></g><path d="M174,46.9l23.8-4.1L280.3,14,279,10.2l1.7,5.1,6.3-2.1-.5-1.4,5-1.7a1.4,1.4,0,0,0,.8-1.7l-1.8-5.1a1.3,1.3,0,0,0-1.7-.8l-4.9,1.8-.5-1.4-6.2,2.2.4,1.3L195.2,35.3Z" style="fill:#fff"/><path d="M284.8,1.1h8a0,0,0,0,1,0,0v5a1.6,1.6,0,0,1-1.6,1.6h-4.9a1.6,1.6,0,0,1-1.6-1.6v-5A0,0,0,0,1,284.8,1.1Z" transform="translate(380 278.5) rotate(-109.3)" style="fill:#c7a6cc"/><rect x="234.9" y="-21.8" width="8" height="87.37" transform="matrix(-0.33, -0.94, 0.94, -0.33, 297.03, 254.6)" style="fill:#f0a74d"/><path d="M197.3,43.8l-3.1-9L278.1,5.5l3.1,8.9Zm-1.2-8.1,2.2,6.2,81-28.4-2.1-6.1Z" style="fill:#49194f"/><path d="M280.3,16.3,276.2,4.6l7.6-2.7,4.1,11.7ZM278.1,5.5l3.1,8.9,4.8-1.7-3.1-8.9Z" style="fill:#49194f"/><path d="M286,12.8l-3.1-9,5.8-2a2,2,0,0,1,1.5,0,3.5,3.5,0,0,1,1,1.1L293,8.3a1.8,1.8,0,0,1-1.2,2.4Zm-1.2-8.1,2.2,6.1,4.4-1.5a.4.4,0,0,0,.2-.5l-1.9-5.4a.2.2,0,0,0-.2-.2.2.2,0,0,0-.3,0Z" style="fill:#49194f"/><polygon points="169.7 48.4 194.8 34.6 195.5 35.9 178.3 45.4 197.7 42.1 197.9 43.6 169.7 48.4" style="fill:#49194f"/><path d="M187.6,45.2l-1-1.1c.6-.6,1.3-1.6,1.1-2.1s-.7-.6-2.1-.7V39.8c2,.1,3.1.7,3.5,1.7S187.8,45,187.6,45.2Z" style="fill:#49194f"/></svg>