<svg id="_1" data-name="1" xmlns="http://www.w3.org/2000/svg" width="284.7" height="189.8" viewBox="0 0 284.7 189.8"><title>Artboard 10</title><rect x="-684.8" y="-695.9" width="1000" height="950" style="fill:#fff"/><path d="M172.5,85.7h.3l3.2-2.4c.2-.1.2-.4.1-.6a.5.5,0,0,0-.6-.1L172.3,85c-.2.1-.2.4-.1.6Z" style="fill:#49194f"/><path d="M177.5,85.2a1,1,0,0,0,.7-.2.8.8,0,0,0,.2-1.2l-2.9-3.7a.8.8,0,1,0-1.3,1l2.8,3.8Z" style="fill:#49194f"/><path d="M167,81h.4l3.1-2.4c.2-.2.3-.4.1-.6s-.4-.2-.6-.1l-3.2,2.4c-.1.2-.2.4,0,.6S166.9,80.9,167,81Z" style="fill:#49194f"/><path d="M172,80.4a.8.8,0,0,0,.7-.1.8.8,0,0,0,.2-1.2l-2.8-3.7a.8.8,0,0,0-1.2-.2.8.8,0,0,0-.2,1.2l2.8,3.7C171.7,80.3,171.8,80.4,172,80.4Z" style="fill:#49194f"/><path d="M164.3,74.7h.4l3.1-2.4a.4.4,0,0,0,.1-.6c-.1-.2-.4-.2-.6-.1L164.2,74a.4.4,0,0,0-.1.6Z" style="fill:#49194f"/><path d="M169.3,74.2a.8.8,0,0,0,.7-.2.8.8,0,0,0,.2-1.2l-2.8-3.7a.9.9,0,0,0-1.2-.2.8.8,0,0,0-.2,1.2l2.9,3.8Z" style="fill:#49194f"/><path d="M200,131.5l-1,.9,2,2.5,4.6-3.5-2-2.6-1,.8c-1.5-1.8-3.1-2.6-3.6-2.2S198.8,129.5,200,131.5Z" style="fill:#fff"/><path d="M201,132.8l-1.1.9,1.9,2.1,4.6-3.4-1.8-2.3-1,.7c-1.4-1.5-2.9-2.2-3.4-1.8S199.9,131,201,132.8Z" style="fill:#c7a6cc"/><path d="M200.3,126.3s-70.8-97.6-72.6-104,.5-15.4,1.2-16.3-4.7-2.6-15.4,6.3-11.7,11.2-10.7,11.9,6.6-1.1,10.5.9,11.1,8.1,20.5,19.8,63.7,83.6,63.7,83.6Z" style="fill:#fff"/><path d="M202.4,127.3s-70.9-97.6-72.6-104,.5-15.4,1.1-16.3-4.7-2.6-15.4,6.3-11.7,11.1-10.6,11.9,6.6-1.1,10.4.9,11.2,8.1,20.5,19.8,63.7,83.6,63.7,83.6Z" style="fill:#f0a74d"/><path d="M197.1,128.8c-.5-.7-54.4-72-63.6-83.6C122.1,31,115,26.5,113.1,25.5s-5.3-.9-7.4-.7-2.6.2-3.1-.2a1.2,1.2,0,0,1-.5-1c0-1.1,1.2-3.5,11.1-11.6,5.1-4.2,8.8-5.9,11-6.6s4.3-.6,4.9-.1.4.6.1.9-2.8,9.6-1.1,16S200,125.1,200.7,126.1a.5.5,0,0,1-.1.6l-2.9,2.2h-.6ZM127.3,22.4c-1.7-6.2.3-15,1.2-16.5a1,1,0,0,0-.7-.2c-.8-.1-5.4-.2-14,6.9s-10.9,9.7-10.9,11l.2.3a6.6,6.6,0,0,0,2.5,0c2.3-.2,5.4-.5,7.9.9s9.2,5.5,20.6,19.9c9,11.1,59.4,77.8,63.5,83.2l2.2-1.7C194.5,119,129,28.7,127.3,22.4Z" style="fill:#49194f"/><path d="M160,115.4,122.4,66a5.5,5.5,0,0,1-1.1-4.1,5.5,5.5,0,0,1,9.8-2.6l37.7,49.5a5.2,5.2,0,0,1,1,4,5.4,5.4,0,0,1-2.1,3.7,5.7,5.7,0,0,1-4.7.9A5.9,5.9,0,0,1,160,115.4ZM125,60.3a2.8,2.8,0,0,0-1.2,2,2.7,2.7,0,0,0,.6,2.1h0L162,113.9a3,3,0,0,0,4.2.5,2.7,2.7,0,0,0,1.1-1.9,2.9,2.9,0,0,0-.6-2.2L129.1,60.9a2.9,2.9,0,0,0-1.6-1.1A2.8,2.8,0,0,0,125,60.3Z" style="fill:#49194f"/><rect x="157.5" y="78.1" width="4.7" height="33.76" transform="translate(181.1 279.7) rotate(-127.3)" style="fill:#fff"/><rect x="153.2" y="72.5" width="4.7" height="33.76" transform="translate(178.6 267.3) rotate(-127.3)" style="fill:#fff"/><rect x="149.2" y="67.2" width="4.7" height="33.76" transform="translate(176.4 255.6) rotate(-127.3)" style="fill:#fff"/><rect x="157.1" y="80.1" width="4.7" height="33.76" transform="translate(179 282.6) rotate(-127.3)" style="fill:#f0a74d"/><rect x="152.8" y="74.4" width="4.7" height="33.76" transform="translate(176.6 270.1) rotate(-127.3)" style="fill:#f0a74d"/><rect x="148.8" y="69.2" width="4.7" height="33.76" transform="matrix(-0.61, -0.8, 0.8, -0.61, 174.31, 258.46)" style="fill:#f0a74d"/><path d="M147.5,107.4l-2.9-3.8c0-.1-.1-.2-.1-.3l.2-.3,26.9-20.4h.3l.3.2,2.8,3.7c.1.2.1.5-.1.6l-26.8,20.5h-.6Zm24.2-23.9-26.1,20,2.3,3,26.2-19.9Z" style="fill:#49194f"/><path d="M143.2,101.7,140.3,98v-.3l.2-.3,26.9-20.5c.1,0,.2-.1.3,0h.3l2.8,3.8a.4.4,0,0,1,.1.3c0,.1-.1.2-.2.3l-26.8,20.4h-.4Zm24.2-23.8L141.3,97.8l2.3,3.1,26.2-20Z" style="fill:#49194f"/><path d="M139.2,96.5l-2.9-3.8c0-.1-.1-.2-.1-.3l.2-.3,26.9-20.4c.1-.2.4-.1.6.1l2.8,3.7a.4.4,0,0,1,.1.3c0,.1-.1.2-.2.3L139.8,96.6c-.1,0-.3.1-.4,0Zm24.2-23.9-26.1,20,2.3,3,26.2-19.9Z" style="fill:#49194f"/><rect x="135.5" y="63.8" width="4.7" height="3.89" transform="translate(169.1 215.2) rotate(-127.3)" style="fill:#49194f"/><rect x="138.8" y="63.9" width="1.9" height="0.85" transform="translate(-10.4 97.8) rotate(-37.3)" style="fill:#49194f"/><path d="M141.7,65.1h.3a.4.4,0,0,0,.1-.6l-1.8-2.3a.3.3,0,0,0-.5-.1c-.2.2-.3.5-.1.6l1.7,2.4Z" style="fill:#49194f"/><path d="M200.7,135.1l-2.1-2.4v-.3l.2-.3.8-.7c-1-1.7-1.6-3.7-.8-4.4s2.6.6,4,2l.6-.5a.5.5,0,0,1,.6,0l2.1,2.6v.3l-.2.3-4.6,3.5h-.4Zm2.8-5.7-.6.5c-.2.1-.5.1-.6-.1-1.6-1.7-2.8-2.2-3.1-2.1s-.1,1.6,1.2,3.6a.7.7,0,0,1-.1.6l-.7.6,1.5,1.8,3.9-3Z" style="fill:#49194f"/><path d="M167.5,119.9,122.8,61.2a10.6,10.6,0,0,1-2-7.5,10.3,10.3,0,0,1,3.9-6.6l2.2-1.7a9.7,9.7,0,0,1,7.4-1.9,10,10,0,0,1,6.7,3.8l44.7,58.8a10.1,10.1,0,0,1-1.9,14.1l-2.2,1.6a10.3,10.3,0,0,1-7.4,2l-1.2-.2A10.4,10.4,0,0,1,167.5,119.9ZM134,46a7.1,7.1,0,0,0-5.6,1.5l-2.2,1.6a7.6,7.6,0,0,0-2.9,5,7.7,7.7,0,0,0,1.5,5.5h0l44.8,58.8a7.4,7.4,0,0,0,4.9,2.9,8,8,0,0,0,5.6-1.5l2.2-1.7a7.6,7.6,0,0,0,1.4-10.5L138.9,48.9a6.8,6.8,0,0,0-4.1-2.7Z" style="fill:#49194f"/><rect y="159.5" width="284.7" height="14.52" style="fill:#49194f"/><rect x="32" y="115.9" width="86" height="44.09" style="fill:#fff"/><rect x="33.9" y="117.8" width="86" height="44.09" style="fill:#c7a6cc"/><polygon points="32 115.9 44 147.4 50.1 120.4 59.8 147.4 67.2 120.4 75 147.4 82.3 122 91.3 147.4 99.3 120.4 107.7 147.4 118 115.9 32 115.9" style="fill:#fff"/><polygon points="31.4 112.3 43.4 143.8 49.5 116.7 59.2 143.8 66.6 116.7 74.4 143.8 81.7 118.3 90.6 143.8 98.7 116.7 107.1 143.8 117.4 112.3 31.4 112.3" style="fill:#f0a74d"/><path d="M118,160.8H32a.8.8,0,0,1-.7-.8V115.9a.7.7,0,0,1,.7-.7h86a.8.8,0,0,1,.8.7V160A.9.9,0,0,1,118,160.8Zm-85.2-1.5h84.5V116.7H32.8Z" style="fill:#49194f"/><ellipse cx="75" cy="115.9" rx="43" ry="4.4" style="fill:#fff"/><ellipse cx="75" cy="115.9" rx="43" ry="4.4" style="fill:#fff"/><path d="M117.4,114.5c0,2.5-19.1,4.4-42.6,4.4s-42.6-1.9-42.6-4.4,19.1-4.4,42.6-4.4S117.4,112.1,117.4,114.5Z" style="fill:#f0a74d"/><path d="M75,121.1a297.1,297.1,0,0,1-30.5-1.3c-13.2-1.4-13.2-3-13.2-3.9s0-2.5,13.2-3.8A297.1,297.1,0,0,1,75,110.8a297.1,297.1,0,0,1,30.5,1.3c13.3,1.3,13.3,3,13.3,3.8s0,2.5-13.3,3.9A297.1,297.1,0,0,1,75,121.1Zm-42.2-5.2c1.6,1.6,17.1,3.7,42.2,3.7s40.6-2.1,42.2-3.7c-1.6-1.5-17.1-3.6-42.2-3.6S34.4,114.4,32.8,115.9Z" style="fill:#49194f"/><path d="M18.7,86.8,70,99.9a1.2,1.2,0,0,1,.8,1.4,1.2,1.2,0,0,1-1.3.8l-51.6-12a1.6,1.6,0,0,1-1.2-2,1.7,1.7,0,0,1,2-1.3Z" style="fill:#49194f"/><path d="M67.2,100.4c-.3,1.9,2.2,4.9,4.8,5.2s4.7-1.2,4.9-3-2.2-3.5-3.9-4.1S67.6,98.6,67.2,100.4Z" style="fill:#49194f"/><path d="M131.9,84.8,85,114.3a1,1,0,0,1-1.5-.4,1.1,1.1,0,0,1,.3-1.5l46.3-30.5a1.6,1.6,0,0,1,2.3.5,1.7,1.7,0,0,1-.4,2.4Z" style="fill:#49194f"/><path d="M86.7,111.8c-.7-1.7-4.1-2-6.3-.2s-3.1,4.5-2.4,6,3.4,1.2,5,.3S87.3,113.5,86.7,111.8Z" style="fill:#49194f"/><path d="M44,148.2a.8.8,0,0,1-.7-.5l-12-31.5a1,1,0,0,1,.4-1,.8.8,0,0,1,1,.5l11.1,29.2,5.5-24.7a.9.9,0,0,1,.7-.6.8.8,0,0,1,.8.5L59.7,145l6.8-24.8c0-.4.3-.6.7-.6h0a.7.7,0,0,1,.7.6L75,144.7l6.6-22.9a.7.7,0,0,1,.7-.6.8.8,0,0,1,.7.5L91.2,145l7.4-24.8a.7.7,0,0,1,.7-.6.7.7,0,0,1,.7.5l7.7,24.9,9.6-29.3a.7.7,0,0,1,.9-.5c.4.2.7.6.5,1l-10.3,31.5a.7.7,0,0,1-.7.5h0a.8.8,0,0,1-.7-.5l-7.7-24.8L92,147.7a.8.8,0,0,1-.7.5,1,1,0,0,1-.8-.5l-8.1-23.3-6.7,23.3a.8.8,0,0,1-.7.5h0a.8.8,0,0,1-.7-.5l-7.1-24.6-6.7,24.5a.7.7,0,0,1-.7.6.8.8,0,0,1-.7-.5l-8.9-24.6-5.4,24.5a.9.9,0,0,1-.7.6Z" style="fill:#49194f"/><rect x="102.4" y="107.8" width="140.8" height="50.83" transform="matrix(0.99, -0.13, 0.13, 0.99, -15.83, 23.56)" style="fill:#fff"/><rect x="102.7" y="110.1" width="141.1" height="11.22" transform="translate(-13.5 23.5) rotate(-7.5)" style="fill:#c7a6cc"/><path d="M106.3,168.3h-.4c-.2-.2-.3-.3-.3-.5L99,117.3a.7.7,0,0,1,.6-.9L239.3,98.1l.5.2a.5.5,0,0,1,.3.5l6.6,50.4a.6.6,0,0,1-.6.8L106.4,168.3Zm-5.7-50.5,6.4,48.9,138.1-18.1-6.4-48.9Z" style="fill:#49194f"/><rect x="111.4" y="127.6" width="4.4" height="23.14" transform="matrix(0.99, -0.13, 0.13, 0.99, -17.11, 15.93)" style="fill:#49194f"/><rect x="117.9" y="126.8" width="4.4" height="23.14" transform="translate(-16.9 16.8) rotate(-7.5)" style="fill:#49194f"/><rect x="130.8" y="125.1" width="4.4" height="23.14" transform="translate(-16.6 18.4) rotate(-7.5)" style="fill:#49194f"/><rect x="137.2" y="124.3" width="4.4" height="23.14" transform="translate(-16.4 19.2) rotate(-7.5)" style="fill:#49194f"/><rect x="143.7" y="123.4" width="4.4" height="23.14" transform="translate(-16.3 20.1) rotate(-7.5)" style="fill:#49194f"/><rect x="156.5" y="121.7" width="4.4" height="23.14" transform="translate(-16 21.7) rotate(-7.5)" style="fill:#49194f"/><rect x="163" y="120.9" width="4.4" height="23.14" transform="matrix(0.99, -0.13, 0.13, 0.99, -15.8, 22.57)" style="fill:#49194f"/><rect x="175.9" y="119.2" width="4.4" height="23.14" transform="translate(-15.5 24.2) rotate(-7.5)" style="fill:#49194f"/><rect x="182.3" y="118.4" width="4.4" height="23.14" transform="translate(-15.3 25) rotate(-7.5)" style="fill:#49194f"/><rect x="188.8" y="117.5" width="4.4" height="23.14" transform="translate(-15.1 25.9) rotate(-7.5)" style="fill:#49194f"/><rect x="201.7" y="115.8" width="4.4" height="23.14" transform="translate(-14.8 27.5) rotate(-7.5)" style="fill:#49194f"/><rect x="208.1" y="115" width="4.4" height="23.14" transform="translate(-14.6 28.4) rotate(-7.5)" style="fill:#49194f"/><rect x="221" y="113.3" width="4.4" height="23.14" transform="matrix(0.99, -0.13, 0.13, 0.99, -14.32, 30.03)" style="fill:#49194f"/><rect x="227.4" y="112.5" width="4.4" height="23.14" transform="matrix(0.99, -0.13, 0.13, 0.99, -14.16, 30.86)" style="fill:#49194f"/><path d="M110.7,167.3a.8.8,0,0,1-.8-.7l-4.7-36.3a.7.7,0,0,1,.6-.9.9.9,0,0,1,.9.7l4.7,36.3a.6.6,0,0,1-.6.8Z" style="fill:#49194f"/><path d="M117.1,166.4a.7.7,0,0,1-.7-.6l-4.8-36.4a.8.8,0,0,1,.7-.8.6.6,0,0,1,.8.6l4.8,36.4a.8.8,0,0,1-.7.8Z" style="fill:#49194f"/><path d="M123.6,165.6a.8.8,0,0,1-.8-.7l-4.7-36.3a.8.8,0,0,1,.6-.9,1,1,0,0,1,.9.7l4.7,36.3a.8.8,0,0,1-.6.9Z" style="fill:#49194f"/><path d="M130,164.7a.7.7,0,0,1-.7-.6l-4.8-36.4a.7.7,0,0,1,.7-.8c.4-.1.7.2.8.6l4.8,36.4a.8.8,0,0,1-.7.8Z" style="fill:#49194f"/><path d="M136.5,163.9a.8.8,0,0,1-.8-.7L131,126.9a.7.7,0,1,1,1.4-.2l4.8,36.3a.8.8,0,0,1-.6.9Z" style="fill:#49194f"/><path d="M142.9,163c-.4,0-.7-.2-.7-.6L137.4,126c-.1-.4.2-.7.6-.8a.7.7,0,0,1,.9.6l4.7,36.4a.6.6,0,0,1-.6.8Z" style="fill:#49194f"/><path d="M149.3,162.2a.8.8,0,0,1-.7-.7l-4.8-36.3a.8.8,0,0,1,.7-.8.6.6,0,0,1,.8.6l4.8,36.3a.8.8,0,0,1-.7.9Z" style="fill:#49194f"/><path d="M155.8,161.3a.8.8,0,0,1-.8-.6l-4.7-36.4c-.1-.4.2-.7.6-.8a.9.9,0,0,1,.9.7l4.7,36.3a.6.6,0,0,1-.6.8Z" style="fill:#49194f"/><path d="M162.2,160.5c-.3,0-.7-.3-.7-.6l-4.8-36.4a.8.8,0,0,1,.7-.8.6.6,0,0,1,.8.6l4.8,36.4a.8.8,0,0,1-.7.8Z" style="fill:#49194f"/><path d="M168.7,159.7a.8.8,0,0,1-.8-.7l-4.7-36.3a.8.8,0,0,1,.6-.9,1,1,0,0,1,.9.7l4.7,36.3a.8.8,0,0,1-.6.9Z" style="fill:#49194f"/><path d="M175.1,158.8a.7.7,0,0,1-.7-.6l-4.8-36.4a.8.8,0,0,1,.7-.8.6.6,0,0,1,.8.6l4.8,36.4a.8.8,0,0,1-.7.8Z" style="fill:#49194f"/><path d="M181.6,158a.8.8,0,0,1-.8-.7L176.1,121a.8.8,0,0,1,.6-.9,1,1,0,0,1,.9.7l4.7,36.3a.8.8,0,0,1-.6.9Z" style="fill:#49194f"/><path d="M188,157.1c-.4,0-.7-.2-.7-.6l-4.8-36.4a.7.7,0,0,1,.7-.8c.4-.1.7.2.8.6l4.8,36.4a.8.8,0,0,1-.7.8Z" style="fill:#49194f"/><path d="M194.5,156.3a.8.8,0,0,1-.8-.7L189,119.3a.7.7,0,1,1,1.4-.2l4.8,36.3a.7.7,0,0,1-.6.9Z" style="fill:#49194f"/><path d="M200.9,155.4c-.4,0-.7-.2-.7-.6l-4.8-36.4c-.1-.4.2-.7.6-.8s.8.2.9.7l4.7,36.3a.6.6,0,0,1-.6.8Z" style="fill:#49194f"/><path d="M207.3,154.6c-.3,0-.7-.3-.7-.6l-4.8-36.4a.8.8,0,0,1,.7-.8.6.6,0,0,1,.8.6l4.8,36.4a.8.8,0,0,1-.7.8Z" style="fill:#49194f"/><path d="M213.8,153.8a.8.8,0,0,1-.8-.7l-4.7-36.3a.7.7,0,0,1,.6-.9,1,1,0,0,1,.9.7l4.7,36.3a.8.8,0,0,1-.6.9Z" style="fill:#49194f"/><path d="M220.2,152.9c-.3,0-.7-.3-.7-.6l-4.8-36.4a.8.8,0,0,1,.7-.8.6.6,0,0,1,.8.6l4.8,36.4a.8.8,0,0,1-.7.8Z" style="fill:#49194f"/><path d="M226.7,152.1a.8.8,0,0,1-.8-.7l-4.7-36.3a.8.8,0,0,1,.6-.9,1,1,0,0,1,.9.7l4.7,36.3a.8.8,0,0,1-.6.9Z" style="fill:#49194f"/><path d="M233.1,151.2c-.4,0-.7-.2-.7-.6l-4.8-36.4a.8.8,0,0,1,.7-.8.6.6,0,0,1,.8.6l4.8,36.4a.8.8,0,0,1-.7.8Z" style="fill:#49194f"/><rect x="233.9" y="111.6" width="4.4" height="23.14" transform="matrix(0.99, -0.13, 0.13, 0.99, -13.99, 31.7)" style="fill:#49194f"/><path d="M239.6,150.4a.8.8,0,0,1-.7-.7l-4.8-36.3a1,1,0,0,1,.7-.9.8.8,0,0,1,.8.7l4.8,36.3a1,1,0,0,1-.7.9Z" style="fill:#49194f"/><path d="M230.8,189.2c-.9.1-1.8-1.2-2.2-2.2a3.9,3.9,0,0,1,.4-3.5,5.2,5.2,0,0,1,1.1-1,6.7,6.7,0,0,1-2.1-2c-1.6-2.1-.6-3.3-1.8-6.6a1.2,1.2,0,0,1-.1-1.3,1.4,1.4,0,0,1,1.7-.4c1.2.7-1,4.5.6,7.5a5.8,5.8,0,0,0,2.6,2.4,4.6,4.6,0,0,1,4.1.5h.2a4.2,4.2,0,0,1,1.8-1.1,3.8,3.8,0,0,1,2.1,0v-.2a4.9,4.9,0,0,1,4.9-2.4,4,4,0,0,1,1.9-1.5l1.2-.2a4.6,4.6,0,0,1,4-2.9h.2a3.2,3.2,0,0,1,3.1-2.2,2.6,2.6,0,0,1,1.2-1.7,3.3,3.3,0,0,1,3.8.7l5.2-19.5a.6.6,0,0,1,.6-.3.5.5,0,0,1,.3.6l-5.4,20.3c-.1.2-.2.3-.4.3s-.4,0-.5-.2a2.4,2.4,0,0,0-3.1-1.1,1.3,1.3,0,0,0-.7.9h.5a4.1,4.1,0,0,1,2.7,2,2.1,2.1,0,0,1,.1,2.2,1.8,1.8,0,0,1-1.6.6,3.2,3.2,0,0,1-2.4-2,5.9,5.9,0,0,1-.4-2,2.8,2.8,0,0,0-1.2.4,2.5,2.5,0,0,0-.9,1.1,4.5,4.5,0,0,1,2.4,1.5,3.6,3.6,0,0,1,.9,2.8,1.9,1.9,0,0,1-1,1.3,2.1,2.1,0,0,1-2.2-.4,4.4,4.4,0,0,1-1.4-3.6,2.8,2.8,0,0,1,.1-.9,3.7,3.7,0,0,0-2.9,2.1,3.6,3.6,0,0,1,1.7.7,3.5,3.5,0,0,1,1.9,2.5c.1.9-.4,2.1-1.2,2.3a1.9,1.9,0,0,1-1.8-.5,5,5,0,0,1-1.9-3.8c.1-.1.1-.2.1-.4l-.7.2a3.8,3.8,0,0,0-1.3.9,4.7,4.7,0,0,1,2.2,2.4,3.5,3.5,0,0,1,.2,2.6,2.5,2.5,0,0,1-1.5,1.1,2.1,2.1,0,0,1-2.1-1,4.6,4.6,0,0,1-.4-3.9c.1-.2.1-.4.2-.6a4.1,4.1,0,0,0-3.6,2h0a4.2,4.2,0,0,1,1.9,1.6,3.4,3.4,0,0,1,.6,2.5,1.8,1.8,0,0,1-.8,1.5c-.9.4-2-.7-2.6-1.5a4.4,4.4,0,0,1-.3-3.6,3,3,0,0,0-1.6.1,2.6,2.6,0,0,0-1.4.9,5.8,5.8,0,0,1,1.4,5.1,2,2,0,0,1-.6,1.1,1.2,1.2,0,0,1-1,.2,2.2,2.2,0,0,1-1.5-1.3,6.4,6.4,0,0,1,.2-4.5l.3-.5h-.1a3.8,3.8,0,0,0-3.1-.5,5.4,5.4,0,0,1,.6,1.8C232.5,186.6,231.8,189,230.8,189.2Zm-.2-5.9a2,2,0,0,0-.8.8,2.9,2.9,0,0,0-.3,2.6,2.4,2.4,0,0,0,1.3,1.5,4.5,4.5,0,0,0,.4-3.3A4.4,4.4,0,0,0,230.6,183.3Zm4.8.9v.2a4.4,4.4,0,0,0-.2,3.7,1.3,1.3,0,0,0,.8.8h.3c.1-.1.1-.4.2-.6A4.9,4.9,0,0,0,235.4,184.2Zm4.4-1.4a3.6,3.6,0,0,0,.2,2.7c.5.7,1.2,1.2,1.4,1.1s.2-.1.3-.7a2.9,2.9,0,0,0-.5-1.9A3.3,3.3,0,0,0,239.8,182.8Zm4.8-2.7c-.1.2-.1.5-.2.7a4.1,4.1,0,0,0,.2,3,1.5,1.5,0,0,0,1.3.7.9.9,0,0,0,.7-.6,2.3,2.3,0,0,0-.1-1.8A4.1,4.1,0,0,0,244.6,180.1Zm3.4-1.8v.3a3.6,3.6,0,0,0,1.5,3c.4.4.8.5,1,.4s.5-.7.5-1.3a3.1,3.1,0,0,0-1.5-1.8A4.7,4.7,0,0,0,248,178.3Zm4.1-2.9c0,.3-.1.5-.1.8a4,4,0,0,0,1,2.9c.3.2.9.5,1.3.3a1.1,1.1,0,0,0,.5-.7,3,3,0,0,0-.7-2A4.9,4.9,0,0,0,252.1,175.4Zm3.3-2.3a4.3,4.3,0,0,0,.4,1.7c.1.2.6,1.3,1.6,1.4a.9.9,0,0,0,.8-.3c.2-.2,0-.9-.2-1.2a3.8,3.8,0,0,0-2.2-1.5Z" style="fill:#49194f"/><path d="M190.6,126.4a44.6,44.6,0,0,1,20.2-28.6,37.8,37.8,0,0,1,30-4.7,34.9,34.9,0,0,1,14,7.3,41.1,41.1,0,0,1,9.8,12.4,44.6,44.6,0,0,1,2.1,35.8l-2.1-.8a42.1,42.1,0,0,0-2-33.9,36.9,36.9,0,0,0-9.2-11.8,34.2,34.2,0,0,0-13.2-6.9A36,36,0,0,0,212,99.7a41.8,41.8,0,0,0-19.2,27.2Z" style="fill:#49194f"/><path d="M263.3,117.1a3,3,0,0,1-1.9-1.6c-1.1-2.4-7.1-14.3-21-18.3l-.7-.2a34.2,34.2,0,0,0-26,3.8,3,3,0,1,1-3.1-5.1c3.4-2,15.6-8.5,30.7-4.4a37.6,37.6,0,0,1,18.9,11.8,39.9,39.9,0,0,1,6.6,9.9,3,3,0,0,1-1.5,4A2.8,2.8,0,0,1,263.3,117.1Z" style="fill:#fff"/><path d="M262.7,118.9a2.6,2.6,0,0,1-1.8-1.6c-1.1-2.4-7.1-14.3-21-18.3l-.7-.2a34.2,34.2,0,0,0-26,3.8,3,3,0,0,1-4.1-1,3,3,0,0,1,1-4.1A40.4,40.4,0,0,1,240.8,93a38.5,38.5,0,0,1,18.9,11.9,43.2,43.2,0,0,1,6.6,9.9,3,3,0,0,1-3.6,4.1Z" style="fill:#f0a74d"/><path d="M264.1,118l-1-.2a3.7,3.7,0,0,1-2.4-2c-1-2.3-6.9-13.9-20.5-17.9l-.7-.2c-12.4-3.3-22.6,2-25.4,3.7a3.6,3.6,0,0,1-2.8.5,3.3,3.3,0,0,1-2.3-1.7,3.6,3.6,0,0,1,1.2-5.1c3.5-2.1,15.9-8.7,31.3-4.6a39.5,39.5,0,0,1,19.3,12.1,41.2,41.2,0,0,1,6.7,10.1,3.9,3.9,0,0,1-1.9,5A3.7,3.7,0,0,1,264.1,118ZM231.4,95.1a32.8,32.8,0,0,1,8.5,1.2l.7.2c14.2,4.1,20.4,16.3,21.5,18.7a2.1,2.1,0,0,0,1.4,1.2h0a2,2,0,0,0,1.5-.1,2.3,2.3,0,0,0,1.1-3,41.7,41.7,0,0,0-6.4-9.7A37.1,37.1,0,0,0,241.1,92,39,39,0,0,0,211,96.4a2.2,2.2,0,0,0-.8,3,2.1,2.1,0,0,0,1.4,1,2,2,0,0,0,1.7-.2A35.7,35.7,0,0,1,231.4,95.1Z" style="fill:#49194f"/><path d="M188.2,131h0a2,2,0,0,1-1.4-2.5l1.8-6.1a1.9,1.9,0,0,1,2.5-1.3h0a2,2,0,0,1,1.4,2.5l-1.8,6A2,2,0,0,1,188.2,131Z" style="fill:#49194f"/><path d="M206.1,115.5c-6.4-1.9-13.3,3-15.6,10.8s1,15.6,7.3,17.5Z" style="fill:#fff"/><path d="M207,113.2c-6.4-1.9-13.3,3-15.6,10.8s1,15.6,7.3,17.5Z" style="fill:#f0a74d"/><path d="M197.8,144.5h-.2a11.6,11.6,0,0,1-7.4-7,17.1,17.1,0,0,1-.4-11.4c2.4-8.2,9.8-13.3,16.5-11.4a.8.8,0,0,1,.4.4,1.3,1.3,0,0,1,.1.6L198.5,144A.8.8,0,0,1,197.8,144.5Zm5.5-28.7c-5.1,0-10.2,4.3-12.1,10.7a16.3,16.3,0,0,0,.4,10.5,10.5,10.5,0,0,0,5.7,5.8l7.8-26.8Z" style="fill:#49194f"/><path d="M200.9,147.2h0a3.1,3.1,0,0,1-2.1-3.8l7.9-27.1a3.1,3.1,0,0,1,3.8-2.1h0a3.1,3.1,0,0,1,2.1,3.8l-7.9,27.1A3.1,3.1,0,0,1,200.9,147.2Z" style="fill:#fff"/><path d="M201.9,149.1h0a3.2,3.2,0,0,1-2.1-3.8l7.9-27.1a3.1,3.1,0,0,1,3.8-2.1h0a3,3,0,0,1,2.1,3.8L205.7,147A3,3,0,0,1,201.9,149.1Z" style="fill:#c7a6cc"/><path d="M201.8,148.1l-1.1-.2a3.8,3.8,0,0,1-2.6-4.7l7.9-27.1a3.8,3.8,0,0,1,7-.8,3.7,3.7,0,0,1,.3,2.9l-7.9,27.1a3.8,3.8,0,0,1-1.8,2.3A4.1,4.1,0,0,1,201.8,148.1Zm7.9-33.3a2.4,2.4,0,0,0-2.3,1.7l-7.9,27.1a2.5,2.5,0,0,0,1.6,2.9,2.3,2.3,0,0,0,1.8-.2,2.6,2.6,0,0,0,1.1-1.4l7.9-27.1a2.3,2.3,0,0,0-.2-1.8,2.6,2.6,0,0,0-1.4-1.1Z" style="fill:#49194f"/><path d="M265.9,153.6h0a1.9,1.9,0,0,0,2.5-1.3l1.8-6.1a2,2,0,0,0-1.4-2.5h0a2,2,0,0,0-2.5,1.4l-1.8,6A2,2,0,0,0,265.9,153.6Z" style="fill:#49194f"/><path d="M259.2,130.9c6.3,1.9,9.6,9.7,7.3,17.5s-9.2,12.7-15.6,10.8Z" style="fill:#fff"/><path d="M259.7,128.5c6.3,1.9,9.5,9.7,7.3,17.5s-9.3,12.7-15.6,10.8Z" style="fill:#f0a74d"/><path d="M253.7,160.4a15.4,15.4,0,0,1-3-.4.9.9,0,0,1-.5-1l8.3-28.3c0-.2.2-.3.3-.4h.6c6.7,2,10.2,10.2,7.8,18.4a17.6,17.6,0,0,1-6.5,9.5A12.4,12.4,0,0,1,253.7,160.4Zm-1.8-1.7a10.1,10.1,0,0,0,7.9-1.9,15.9,15.9,0,0,0,6-8.6c2-7.1-.7-14.2-6.1-16.3Z" style="fill:#49194f"/><path d="M246.5,160.5h0a3.1,3.1,0,0,0,3.8-2.1l7.9-27.1a3.1,3.1,0,0,0-2.1-3.8h0a3.1,3.1,0,0,0-3.8,2.1l-7.9,27.1A3.1,3.1,0,0,0,246.5,160.5Z" style="fill:#fff"/><path d="M244.6,161.5h0a3,3,0,0,0,3.8-2.1l7.9-27a3.1,3.1,0,0,0-2.1-3.9h0a3.2,3.2,0,0,0-3.8,2.1l-7.9,27.1A3,3,0,0,0,244.6,161.5Z" style="fill:#c7a6cc"/><path d="M247.4,161.4l-1.1-.2h0a3.8,3.8,0,0,1-2.3-1.8,3.7,3.7,0,0,1-.3-2.9l7.9-27.1a3.8,3.8,0,0,1,1.8-2.3,3.7,3.7,0,0,1,2.9-.3,3.8,3.8,0,0,1,2.3,1.8,3.7,3.7,0,0,1,.3,2.9L251,158.6A3.8,3.8,0,0,1,247.4,161.4Zm7.8-33.3-1.1.3a2.6,2.6,0,0,0-1.1,1.4l-7.9,27.1a2.3,2.3,0,0,0,.2,1.8,2.6,2.6,0,0,0,1.4,1.1h0a2.5,2.5,0,0,0,2.9-1.6l7.9-27.1a2.3,2.3,0,0,0-.2-1.8,2.6,2.6,0,0,0-1.4-1.1Z" style="fill:#49194f"/><path d="M56.1,59.4c-2.7,0-4.9-1-5.7-2.9s1.6-6.8,6.4-8.8,9.6-1.2,10.8,1.8h0c1.3,3-1.5,6.9-6.4,8.8A12.4,12.4,0,0,1,56.1,59.4ZM62,48.1a11.6,11.6,0,0,0-4.6,1c-3.9,1.6-6.5,4.7-5.6,6.9s4.9,2.6,8.9,1,6.4-4.8,5.6-7S64.1,48.1,62,48.1Z" style="fill:#49194f"/><path d="M67.2,51.2a.8.8,0,0,1-.8-.7V24a.8.8,0,0,1,.8-.7.7.7,0,0,1,.7.7V50.5A.7.7,0,0,1,67.2,51.2Z" style="fill:#49194f"/><ellipse cx="183.8" cy="33.3" rx="8.6" ry="5" transform="translate(1.1 72.4) rotate(-22.3)" style="fill:#49194f"/><path d="M191.2,31.5a.7.7,0,0,1-.8-.7V4.3a.7.7,0,0,1,.8-.7.7.7,0,0,1,.7.7V30.8A.7.7,0,0,1,191.2,31.5Z" style="fill:#49194f"/><path d="M209.2,39.2c1.1,2.5-1.6,6.1-6,7.9s-8.8,1.1-9.8-1.4,1.6-6.1,6-7.9S208.2,36.6,209.2,39.2Z" style="fill:#49194f"/><path d="M208.7,40.6a.8.8,0,0,1-.8-.7V13.5a.9.9,0,0,1,.8-.8.8.8,0,0,1,.7.8V39.9A.7.7,0,0,1,208.7,40.6Z" style="fill:#49194f"/><polygon points="209.6 10.3 190.4 0 190.4 10.3 209.4 21 209.6 10.3" style="fill:#49194f"/><path d="M92.4,76.2a.8.8,0,0,1-.8-.7V58.4a.9.9,0,0,1,.8-.8.8.8,0,0,1,.7.8V75.5A.7.7,0,0,1,92.4,76.2Z" style="fill:#49194f"/><path d="M92.7,75c.7,1.7-1,4-3.9,5.1s-5.7.8-6.3-.9,1-3.9,3.9-5.1S92,73.4,92.7,75Z" style="fill:#fff"/><path d="M90.9,74.8c.7,1.6-1.1,3.9-3.9,5.1s-5.7.7-6.4-.9,1.1-4,3.9-5.2S90.2,73.1,90.9,74.8Z" style="fill:#c7a6cc"/><path d="M85.7,81.6c-1.9,0-3.4-.8-3.9-2.1a3.4,3.4,0,0,1,.7-3.5,9.1,9.1,0,0,1,3.6-2.6c3.2-1.3,6.5-.7,7.3,1.3h0c.9,2.1-1,4.8-4.3,6.1A9.3,9.3,0,0,1,85.7,81.6Zm3.8-7.4a8.8,8.8,0,0,0-2.9.6,7.3,7.3,0,0,0-2.9,2.1c-.6.8-.8,1.5-.5,2.1s2.7,1.5,5.3.5,4-3.1,3.5-4.2S90.8,74.2,89.5,74.2Z" style="fill:#49194f"/><path d="M103.8,82.2a.8.8,0,0,1-.7-.8V64.3a.8.8,0,0,1,.7-.8.9.9,0,0,1,.8.8V81.4A.9.9,0,0,1,103.8,82.2Z" style="fill:#49194f"/><path d="M104.1,80.9c.7,1.7-1,4-3.9,5.2s-5.6.7-6.3-.9,1-4,3.9-5.2S103.5,79.3,104.1,80.9Z" style="fill:#fff"/><path d="M102.3,80.7c.7,1.6-1,3.9-3.9,5.1s-5.7.7-6.3-.9,1-4,3.9-5.1S101.6,79,102.3,80.7Z" style="fill:#c7a6cc"/><path d="M97.1,87.5h-.9a3.4,3.4,0,0,1-3-2c-.9-2,1-4.7,4.3-6.1s6.5-.7,7.3,1.3a3.4,3.4,0,0,1-.7,3.5,8.2,8.2,0,0,1-3.6,2.6A8.4,8.4,0,0,1,97.1,87.5Zm3.8-7.4a7.9,7.9,0,0,0-2.8.6c-2.7,1.1-4,3.1-3.5,4.2a2,2,0,0,0,1.8,1,6.8,6.8,0,0,0,3.6-.5,7.4,7.4,0,0,0,2.9-2.2,1.8,1.8,0,0,0,.5-2C103.2,80.6,102.2,80.1,100.9,80.1Z" style="fill:#49194f"/><polygon points="104.3 62.2 91.9 55.6 91.9 62.2 104.2 69.1 104.3 62.2" style="fill:#fff"/><polygon points="102.9 60 90.5 53.4 90.5 60 102.8 66.9 102.9 60" style="fill:#c7a6cc"/><path d="M104.2,69.9h-.4L91.5,62.9a.9.9,0,0,1-.3-.7V55.6a.8.8,0,0,1,.4-.7.9.9,0,0,1,.7,0l12.5,6.7a.7.7,0,0,1,.4.6v6.9a1.6,1.6,0,0,1-.4.7ZM92.7,61.8l10.8,6.1V62.7l-11-5.9Z" style="fill:#49194f"/><path d="M248.3,65.1c1.3,2.5-1.2,6.2-5.4,8.3s-8.7,1.8-9.9-.7,1.2-6.2,5.4-8.3S247.1,62.6,248.3,65.1Z" style="fill:#f0a74d"/><path d="M247.9,66.6a.8.8,0,0,1-.8-.7l-1.8-26.3a.8.8,0,1,1,1.5-.1l1.8,26.3a.7.7,0,0,1-.7.8Z" style="fill:#f0a74d"/></svg>