<svg id="_1" data-name="1" xmlns="http://www.w3.org/2000/svg" width="284.7" height="172.5" viewBox="0 0 284.7 172.5"><title>Artboard 13</title><rect x="-31.6" y="-44.3" width="1000" height="950" style="fill:#fff"/><rect y="158" width="284.7" height="14.52" style="fill:#49194f"/><polygon points="244.6 30.7 220.8 61 231 57 219.1 76.7 245.1 47.4 233.6 50.2 244.6 30.7" style="fill:#fff"/><polygon points="244.7 32.4 220.9 62.6 231.2 58.7 219.3 78.4 245.2 49.1 233.8 51.9 244.7 32.4" style="fill:#f0a74d"/><rect x="258.9" y="44.9" width="11.2" height="13.04" transform="translate(137.1 288.8) rotate(-72.8)" style="fill:#fff"/><path d="M256.6,54.8l-10,32c-4.1,13.5-17.5,21.4-29.8,17.6L213,116.8c19.1,5.9,39.8-5.8,46.1-26.1l9.9-32Z" style="fill:#fff"/><path d="M254,54l-9.9,32c-4.2,13.5-17.5,21.4-29.8,17.6L210.4,116c19.2,5.9,39.9-5.8,46.2-26.1l9.9-32Z" style="fill:#f0a74d"/><path d="M216.8,104.4C204.6,100.6,198,86.5,202.2,73l9.9-32-12.5-3.8-9.9,32c-6.3,20.3,4.2,41.7,23.3,47.6h0l3.8-12.4Z" style="fill:#fff"/><path d="M214.3,103.6c-12.3-3.8-18.8-17.9-14.7-31.3l9.9-32.1-12.4-3.8-9.9,32c-6.3,20.3,4.1,41.7,23.2,47.6h0l3.9-12.4Z" style="fill:#c7a6cc"/><rect x="201.9" y="27.2" width="11.2" height="13.04" transform="translate(113.9 222) rotate(-72.8)" style="fill:#fff"/><path d="M212.6,42l-13.9-4.3,3.8-12.2,13.8,4.3Zm-12-5.3,11,3.4,2.9-9.3-11.1-3.4Z" style="fill:#49194f"/><path d="M269.5,59.6l-13.9-4.3,3.8-12.1,13.9,4.3Zm-12-5.3,11,3.4,2.9-9.2-11-3.5Z" style="fill:#49194f"/><path d="M223.2,119.1a33.7,33.7,0,0,1-10.4-1.6l-.8-.2,4.3-13.9.8.2c11.8,3.7,24.8-3.9,28.8-17l10.2-32.7L270,58.2,259.8,90.9a40.2,40.2,0,0,1-18.6,23.3A35.6,35.6,0,0,1,223.2,119.1Zm-9.3-2.8a34.1,34.1,0,0,0,26.6-3.4,38.9,38.9,0,0,0,17.9-22.4l9.7-31.4-11-3.4L247.4,87c-4.2,13.6-17.6,21.7-30.1,18.3Z" style="fill:#49194f"/><path d="M213.5,117.7l-.7-.2a35.7,35.7,0,0,1-21.7-18.8A40.6,40.6,0,0,1,189,69l10.1-32.8L213,40.5,202.9,73.3c-4.1,13,2.3,26.7,14.2,30.3l.7.3ZM200.1,38.1l-9.7,31.3a39,39,0,0,0,2.1,28.7,34.3,34.3,0,0,0,20,17.8l3.4-11.1c-12.2-4.2-18.7-18.4-14.4-32l9.6-31.3Z" style="fill:#49194f"/><path d="M219.7,77.2l-1.2-.9,10.8-17.8-10.8,4.1L244,30.3l1.2.8-10.1,18,12.1-3Zm13.1-21.7L224,70l18.9-21.3-10.8,2.6,7.1-12.5L223.1,59.3Z" style="fill:#49194f"/><path d="M110.3,23.1l-17.4,5L98,53.7l18.2-4.3L114.7,44l-12.6,3.6c-.4-2.4-.9-4.8-1.4-7.3l6.4-1.2c-.3-1.3-.5-2.7-.8-4L100,36.9c-.4-2.1-.7-4.2-1-6.3l12.1-3.4Z" style="fill:#fff"/><polygon points="115.2 32.7 128.2 29.2 128.7 31.8 115.6 35.1 115.2 32.7" style="fill:#fff"/><polygon points="116.1 37.3 129.1 33.8 129.6 36.4 116.4 39.7 116.1 37.3" style="fill:#fff"/><path d="M135.8,42.9,134,17.3l3.3-1.6,5.9,6.7.9-9,3-1.2,14.5,22.4-5.2,2.1c-2.5-4.6-5.1-9.2-7.6-13.9-1.2,2.3-2.3,4.7-3.5,7L139.7,26c.8,5,1.7,9.9,2.5,14.9Z" style="fill:#fff"/><path d="M169,7.1c-.8.1-6.5.8-9.3,5.6a10.8,10.8,0,0,0-1.3,6,12.4,12.4,0,0,0,19.3,10.2L176.1,25a9.6,9.6,0,0,1-6,.8c-.9-.2-4.6-.9-6.2-4.3s-1-5.9.9-7.7,5-1.9,5.2-1.9h0Z" style="fill:#fff"/><path d="M172.1,4l-1.2.3s-.6-2.8,1.4-3.4,3.5,1.1,4,2.3S174.7,9,174.7,9l3.4-1,.5,1.8-5.2,1.5-.6-1.6a12.2,12.2,0,0,1,.7-2.5c.8-2,1.5-2.6,1.2-3.6s-1-1.5-1.7-1.3S172.1,3.1,172.1,4Z" style="fill:#fff"/><path d="M108.9,24.6l-17.4,5,5.1,25.6,18.2-4.3-1.5-5.4-12.5,3.6-1.5-7.3,6.4-1.2c-.2-1.3-.5-2.7-.8-4l-6.3,1.8c-.3-2.1-.7-4.2-1-6.3l12.1-3.4Z" style="fill:#f0a74d"/><polygon points="115.1 34.1 128.1 30.6 128.6 33.3 115.4 36.6 115.1 34.1" style="fill:#f0a74d"/><polygon points="116 38.8 129 35.2 129.5 37.9 116.3 41.2 116 38.8" style="fill:#f0a74d"/><path d="M134.9,44.9l-1.7-25.6,3.3-1.5,5.9,6.6.9-9,2.9-1.2,14.6,22.4-5.2,2.1L148,24.9c-1.2,2.3-2.4,4.6-3.5,6.9L138.9,28l2.4,14.9Z" style="fill:#f0a74d"/><path d="M168,8.9c-.7,0-6.4.7-9.2,5.6a11,11,0,0,0-1.4,6,13,13,0,0,0,6.5,10.7,12.5,12.5,0,0,0,12.9-.6c-.6-1.3-1.1-2.6-1.6-3.9a9.8,9.8,0,0,1-6.1.8,8,8,0,0,1-6.1-4.3c-1.2-2.5-1.1-5.9.8-7.7s5.1-1.8,5.3-1.9h0Z" style="fill:#f0a74d"/><path d="M171.4,4.8l-1.2.3s-.7-2.7,1.4-3.4a3.2,3.2,0,0,1,3.9,2.4c.5,1.2-1.6,5.7-1.6,5.7l3.5-1,.5,1.8-5.3,1.5-.6-1.6c.2-.6.4-1.4.8-2.5s1.5-2.6,1.2-3.6-1.1-1.5-1.7-1.3S171.4,3.9,171.4,4.8Z" style="fill:#f0a74d"/><path d="M97.4,54.6,92,27.6l18.9-5.5,1.1,5.6L99.8,31.1l.8,4.9,6.3-1.8,1.1,5.5-6.4,1.2,1.1,5.8,12.5-3.6,1.9,6.9ZM93.7,28.7l4.9,24.1,16.7-3.9-1.1-4-12.6,3.7-1.8-8.9,6.4-1.2-.5-2.4-6.4,1.8L98.2,30l12-3.4-.5-2.6Z" style="fill:#49194f"/><path d="M114.9,36l-.5-3.9,14.4-3.9.8,4.1Zm1.1-2.8.2,1,11.7-3-.3-1.1Z" style="fill:#49194f"/><path d="M115.8,40.7l-.6-3.9,14.5-3.9.8,4.1Zm1.1-2.8.2.9,11.7-2.9-.3-1.2Z" style="fill:#49194f"/><path d="M135.1,43.9l-1.9-27.1,4.3-2,5.1,5.8.8-7.7,3.9-1.7,15.5,23.7-6.7,2.8-7.3-13.3-3.2,6.5-4.8-3.3L143,41.4Zm-.3-26.2,1.7,24.2,4.8-1.5-2.6-16,6.3,4.3,3.8-7.5,8,14.6,3.7-1.6L146.8,13.1l-2,.8-1,10.3-6.7-7.5Z" style="fill:#49194f"/><path d="M170.8,31.7a12.6,12.6,0,0,1-6.3-1.6,13.6,13.6,0,0,1-6.9-11.3,12.4,12.4,0,0,1,1.5-6.5c2.8-5,8.7-5.8,9.8-5.9h.6l1.4,6.3h-.8c-.1,0-3.2.1-4.8,1.6s-1.7,4.7-.7,6.8,2.9,3.4,5.6,4a9.7,9.7,0,0,0,5.6-.8l.7-.3,2.1,5.2-.5.3A13,13,0,0,1,170.8,31.7ZM168.4,8c-1.8.3-5.9,1.3-8,5.1a10.4,10.4,0,0,0-1.3,5.6,12.1,12.1,0,0,0,6.1,10.1,11.7,11.7,0,0,0,11.6-.2L175.7,26a10.4,10.4,0,0,1-5.8.5c-3.2-.6-5.6-2.3-6.7-4.7s-1.2-6.4,1.1-8.6a9.7,9.7,0,0,1,4.8-2Z" style="fill:#49194f"/><path d="M172.9,12.2,172,9.7V9.5a18.3,18.3,0,0,1,.8-2.5l.8-1.7c.4-.8.5-1.1.4-1.5a1.1,1.1,0,0,0-.8-.8c-.1,0-.3.4-.3.9v.6l-2.5.7-.2-.7c-.3-1.2-.3-3.6,1.9-4.3S176.5,1.5,177,3s-.4,3.3-1,4.9l2.6-.8,1,3.2Zm.8-2.1v.3l3.9-1.1V9Zm.1-8.5a2.6,2.6,0,0,1,1.6,1.8,2.9,2.9,0,0,1-.5,2.5l-.7,1.6a16.6,16.6,0,0,0-.6,2.1l.4-.9c1-2.3,1.8-4.7,1.6-5.2A3.3,3.3,0,0,0,173.8,1.6Zm-.9-.1h-.3a1.3,1.3,0,0,0-.9,1,2,2,0,0,1,1.1-1.1Z" style="fill:#49194f"/><path d="M35,134.2a.8.8,0,0,1-.8-.7V78.3a.8.8,0,0,1,.8-.7.7.7,0,0,1,.7.7v55.2A.7.7,0,0,1,35,134.2Z" style="fill:#49194f"/><path d="M51.3,134.2a.7.7,0,0,1-.8-.7V78.3a.7.7,0,0,1,.8-.7.7.7,0,0,1,.7.7v55.2A.7.7,0,0,1,51.3,134.2Z" style="fill:#49194f"/><path d="M67.5,134.2a.7.7,0,0,1-.7-.7V78.3a.7.7,0,0,1,.7-.7.8.8,0,0,1,.8.7v55.2A.8.8,0,0,1,67.5,134.2Z" style="fill:#49194f"/><path d="M83.8,134.2a.7.7,0,0,1-.7-.7V78.3a.7.7,0,0,1,.7-.7.8.8,0,0,1,.8.7v55.2A.8.8,0,0,1,83.8,134.2Z" style="fill:#49194f"/><path d="M121.3,123.5a.8.8,0,0,1-.7-.4L99.4,78.7a.7.7,0,0,1,.4-1,.7.7,0,0,1,1,.3l21.1,44.4a.8.8,0,0,1-.3,1Z" style="fill:#49194f"/><circle cx="35" cy="133.5" r="7.6" transform="translate(-84.1 63.8) rotate(-45)" style="fill:#fff"/><circle cx="51.5" cy="133.5" r="7.6" transform="translate(-79.3 75.5) rotate(-45)" style="fill:#fff"/><circle cx="67.5" cy="133.5" r="7.6" transform="translate(-77.8 168.9) rotate(-76.9)" style="fill:#fff"/><circle cx="83.9" cy="133.5" r="7.6" transform="translate(-69.8 98.4) rotate(-45)" style="fill:#fff"/><circle cx="121.3" cy="122.7" r="7.6" transform="translate(-27.2 210.7) rotate(-76)" style="fill:#fff"/><circle cx="34" cy="135.7" r="7.6" transform="translate(-86 63.8) rotate(-45)" style="fill:#c7a6cc"/><circle cx="50.5" cy="135.7" r="7.6" transform="translate(-81.1 75.4) rotate(-45)" style="fill:#c7a6cc"/><circle cx="66.6" cy="135.7" r="7.6" transform="translate(-80.7 169.7) rotate(-76.9)" style="fill:#c7a6cc"/><circle cx="82.9" cy="135.7" r="7.6" transform="translate(-71.7 98.4) rotate(-45)" style="fill:#c7a6cc"/><circle cx="120.3" cy="125" r="7.6" transform="translate(-53.1 121.6) rotate(-45)" style="fill:#c7a6cc"/><rect x="107.6" y="75.2" width="3.1" height="79.67" style="fill:#49194f"/><rect x="22" y="75.2" width="3.1" height="79.67" transform="translate(47.1 230) rotate(180)" style="fill:#49194f"/><rect x="63.1" y="30.9" width="6.4" height="94.93" transform="translate(-12.1 144.6) rotate(-90)" style="fill:#49194f"/><rect x="15" y="147.3" width="101.4" height="10.66" style="fill:#fff"/><rect x="12.3" y="149.5" width="101.4" height="10.66" style="fill:#f0a74d"/><path d="M116.4,158.7H15a.8.8,0,0,1-.8-.7V147.3a.8.8,0,0,1,.8-.7H116.4a.8.8,0,0,1,.8.7V158A.8.8,0,0,1,116.4,158.7ZM15.7,157.2h100v-9.1H15.7Z" style="fill:#49194f"/><path d="M35,141.8a8.3,8.3,0,1,1,8.3-8.3A8.3,8.3,0,0,1,35,141.8Zm0-15.1a6.8,6.8,0,1,0,0,13.6,6.8,6.8,0,0,0,0-13.6Z" style="fill:#49194f"/><path d="M51.5,141.8a8.3,8.3,0,1,1,8.3-8.3A8.3,8.3,0,0,1,51.5,141.8Zm0-15.1a6.8,6.8,0,1,0,0,13.6,6.8,6.8,0,0,0,0-13.6Z" style="fill:#49194f"/><path d="M67.5,141.8a8.3,8.3,0,1,1,0-16.6,8.3,8.3,0,0,1,0,16.6Zm0-15.1a6.8,6.8,0,1,0,6.8,6.8A6.8,6.8,0,0,0,67.5,126.7Z" style="fill:#49194f"/><path d="M83.9,141.8a8.3,8.3,0,1,1,8.3-8.3A8.3,8.3,0,0,1,83.9,141.8Zm0-15.1a6.8,6.8,0,0,0,0,13.6,6.8,6.8,0,0,0,0-13.6Z" style="fill:#49194f"/><path d="M121.3,131.1a8.4,8.4,0,1,1,8.3-8.4A8.5,8.5,0,0,1,121.3,131.1Zm0-15.2a6.9,6.9,0,1,0,6.8,6.8A6.9,6.9,0,0,0,121.3,115.9Z" style="fill:#49194f"/><rect x="169.4" y="119.6" width="105" height="16.35" style="fill:#fff"/><rect x="166.6" y="122" width="105" height="16.35" style="fill:#f0a74d"/><path d="M275.1,136.7H168.6V118.9H275.1Zm-105-1.5H273.6V120.4H170.1Z" style="fill:#49194f"/><rect x="185.5" y="119.6" width="1.5" height="16.35" style="fill:#49194f"/><rect x="191.1" y="119.6" width="1.5" height="16.35" style="fill:#49194f"/><rect x="256.7" y="119.6" width="1.5" height="16.35" style="fill:#49194f"/><rect x="251.1" y="119.6" width="1.5" height="16.35" style="fill:#49194f"/><rect x="159.4" y="136" width="111.3" height="22.6" style="fill:#fff"/><rect x="156.5" y="137.8" width="111.5" height="24.16" style="fill:#c7a6cc"/><rect x="246.9" y="136" width="6" height="22.6" style="fill:#f0a74d"/><rect x="177.3" y="136" width="6" height="22.6" style="fill:#f0a74d"/><path d="M271.4,159.3H158.7V135.2H271.4Zm-111.2-1.5H270V136.7H160.2Z" style="fill:#49194f"/><rect x="176.5" y="136" width="1.5" height="22.6" style="fill:#49194f"/><rect x="182.5" y="136" width="1.5" height="22.6" style="fill:#49194f"/><rect x="252.1" y="136" width="1.5" height="22.6" style="fill:#49194f"/><rect x="246.1" y="136" width="1.5" height="22.6" style="fill:#49194f"/><rect x="184.9" y="141.6" width="27.3" height="14.87" style="fill:#fff"/><path d="M215,155.3H185.5V139H215Zm-28-1.5h26.5V140.5H187Z" style="fill:#49194f"/><path d="M143.6,85.9c1.2,0,2.2-.9,3.1-2.6l-.5-.2c-.7,1-1.4,1.7-2.2,1.7-2.7,0-4.9-7-4.9-15.6s2.2-15.6,4.9-15.6,4.9,7,4.9,15.6a36.1,36.1,0,0,1-1.4,10.7l.5.2a39,39,0,0,0,1.4-10.9c0-9.2-2.6-16.7-5.8-16.7s-5.8,7.5-5.8,16.7S140.4,85.9,143.6,85.9Z" style="fill:#c7a6cc"/><path d="M146.1,81.7a1.2,1.2,0,0,1,1.2-1.3h.1l.5.2a1.2,1.2,0,0,1-.6,2.3H147l-.5-.3A1.1,1.1,0,0,1,146.1,81.7Z" style="fill:#49194f"/><path d="M158.1,60.8c-.6-.9-1.9-1.4-3.8-1.4a.6.6,0,0,1,0,.6c1.3.1,2.2.4,2.6,1.1,1.4,2.4-3.6,7.8-11,12.1S131.3,79,130,76.7s3.5-7.8,11-12.1a38.6,38.6,0,0,1,9.9-4.1c0-.2-.1-.4-.1-.6a43.5,43.5,0,0,0-10.1,4.3c-8,4.6-13.2,10.6-11.6,13.4s9.4,1.2,17.4-3.4S159.7,63.6,158.1,60.8Z" style="fill:#c7a6cc"/><path d="M153.2,60.8a1.2,1.2,0,0,1-1.7-.4h0a.8.8,0,0,1-.2-.5,1.2,1.2,0,0,1,.7-1.1,1.2,1.2,0,0,1,1.7.4c0,.1.1.3.1.4V60A1,1,0,0,1,153.2,60.8Z" style="fill:#49194f"/><path d="M129.1,60.8c-.5,1-.2,2.4.7,4l.5-.3a2.9,2.9,0,0,1-.3-2.8c1.3-2.3,8.5-.8,15.9,3.5s12.4,9.7,11,12.1-8.5.8-15.9-3.5a40.1,40.1,0,0,1-8.6-6.6c-.1.2-.3.3-.4.4a37.3,37.3,0,0,0,8.7,6.6c8,4.6,15.8,6.1,17.4,3.4s-3.6-8.8-11.6-13.4S130.7,58.1,129.1,60.8Z" style="fill:#c7a6cc"/><path d="M143.6,85.9c1.2,0,2.2-.9,3.1-2.6l-.5-.2c-.7,1-1.4,1.7-2.2,1.7-2.7,0-4.9-7-4.9-15.6s2.2-15.6,4.9-15.6,4.9,7,4.9,15.6a36.1,36.1,0,0,1-1.4,10.7l.5.2a39,39,0,0,0,1.4-10.9c0-9.2-2.6-16.7-5.8-16.7s-5.8,7.5-5.8,16.7S140.4,85.9,143.6,85.9Z" style="fill:#c7a6cc"/><path d="M158.1,60.8c-.6-.9-1.9-1.4-3.8-1.4a.6.6,0,0,1,0,.6c1.3.1,2.2.4,2.6,1.1,1.4,2.4-3.6,7.8-11,12.1S131.3,79,130,76.7s3.5-7.8,11-12.1a38.6,38.6,0,0,1,9.9-4.1c0-.2-.1-.4-.1-.6a43.5,43.5,0,0,0-10.1,4.3c-8,4.6-13.2,10.6-11.6,13.4s9.4,1.2,17.4-3.4S159.7,63.6,158.1,60.8Z" style="fill:#c7a6cc"/><path d="M129.1,60.8c-.5,1-.2,2.4.7,4l.5-.3a2.9,2.9,0,0,1-.3-2.8c1.3-2.3,8.5-.8,15.9,3.5s12.4,9.7,11,12.1-8.5.8-15.9-3.5a40.1,40.1,0,0,1-8.6-6.6c-.1.2-.3.3-.4.4a37.3,37.3,0,0,0,8.7,6.6c8,4.6,15.8,6.1,17.4,3.4s-3.6-8.8-11.6-13.4S130.7,58.1,129.1,60.8Z" style="fill:#c7a6cc"/><path d="M131.6,65.1a1.3,1.3,0,0,1,.5,1.7H132l-.3.4a1.2,1.2,0,0,1-1.4,0,1.2,1.2,0,0,1-.4-1.7.2.2,0,0,1,.2-.2.5.5,0,0,1,.5-.3A1.2,1.2,0,0,1,131.6,65.1Z" style="fill:#49194f"/><path d="M146.3,69.3a2.7,2.7,0,1,1-2.6-2.6A2.7,2.7,0,0,1,146.3,69.3Z" style="fill:#49194f"/><path d="M176.5,154.8v4.7s0,3.6,2.1,3.7,3.7-8.4,3.7-8.4Z" style="fill:#fff"/><path d="M135.1,146.7l-3,3.6a2.4,2.4,0,0,0-.7,3.5,2.2,2.2,0,0,0,2.8.3l4-3.7Z" style="fill:#fff"/><path d="M178.7,163.9h-.1c-2.3-.1-2.8-2.8-2.8-4.4v-4.7a.7.7,0,0,1,.7-.7h5.8a.5.5,0,0,1,.5.3c.2.1.2.3.2.6C182.5,157.7,181.2,163.9,178.7,163.9Zm-1.4-8.3v3.9s0,2.9,1.4,2.9h0c.6,0,1.9-2.9,2.7-6.8Z" style="fill:#49194f"/><path d="M133,155.2a2.6,2.6,0,0,1-2.2-1,2.8,2.8,0,0,1-.6-2.2,3,3,0,0,1,1.4-2.2l2.9-3.6a.6.6,0,0,1,.6-.3.5.5,0,0,1,.5.3l3.2,3.8a.7.7,0,0,1,0,1l-4,3.6h-.2A3.3,3.3,0,0,1,133,155.2Zm2.1-7.3-2.4,2.9-.2.2a1.3,1.3,0,0,0-.8,1.2,1.4,1.4,0,0,0,.2,1.1,1.8,1.8,0,0,0,1.9.2l3.4-3.1Zm-3,2.4Z" style="fill:#49194f"/><path d="M176.5,159.7a10.8,10.8,0,0,0-1,3.9c0,1.5.7,1.3.7,1.3l12.9.2s1.4-1.2.4-1.9-8.3-3.9-8.3-3.9a5.6,5.6,0,0,1-2.8,1A3.5,3.5,0,0,1,176.5,159.7Z" style="fill:#fff"/><path d="M180.1,100.6s8.8,26.4,9,28.5-6.6,26.9-6.6,26.9h-6.7l3.6-26.4-14.7-29Z" style="fill:#fff"/><path d="M178.5,100.6s8.8,26.4,9,28.5-6.6,26.9-6.6,26.9h-6.7l3.5-26.4-14.7-29Z" style="fill:#f0a74d"/><path d="M182.5,156.8h-6.7a.5.5,0,0,1-.5-.3c-.2-.1-.2-.4-.2-.6l3.5-26.1L164,101a1.1,1.1,0,0,1,0-.8.9.9,0,0,1,.7-.3h15.4a.8.8,0,0,1,.7.5c.9,2.7,8.8,26.5,9.1,28.6s-5.5,23-6.6,27.2A.9.9,0,0,1,182.5,156.8Zm-5.8-1.5H182c2.6-9.6,6.5-24.7,6.4-26.1s-5.3-17.2-8.8-27.8H165.9L180,129.3a.6.6,0,0,1,.1.4Z" style="fill:#49194f"/><polygon points="183.6 60.7 173.5 68.5 181 72 186.8 64.6 183.6 60.7" style="fill:#fff"/><path d="M181,72.8h-.3l-7.6-3.5a.8.8,0,0,1-.4-.6.8.8,0,0,1,.3-.7l10.2-7.8a.7.7,0,0,1,1,.1l3.2,3.9a.7.7,0,0,1,0,.9l-5.8,7.5A.6.6,0,0,1,181,72.8Zm-6.1-4.5,5.9,2.8,5-6.5-2.3-2.9Z" style="fill:#49194f"/><path d="M132.1,150a11.4,11.4,0,0,0-4,.7c-1.3.7-.8,1.2-.8,1.2l5.3,11.8s1.6.8,1.9-.4,0-9.2,0-9.2a5.5,5.5,0,0,1-2.2-2.1A3.9,3.9,0,0,1,132.1,150Z" style="fill:#fff"/><path d="M176.5,161.1a10.8,10.8,0,0,0-1,3.9c0,1.5.7,1.3.7,1.3l12.9.2s1.4-1.1.4-1.9-8.3-3.9-8.3-3.9a5.4,5.4,0,0,1-2.8,1.1A4.1,4.1,0,0,1,176.5,161.1Z" style="fill:#f0a74d"/><path d="M131.2,151.5a11.1,11.1,0,0,0-4,.7c-1.4.6-.9,1.2-.9,1.2l5.3,11.8s1.6.7,1.9-.5,0-9.2,0-9.2-1.7-.9-2.1-2.1A2.6,2.6,0,0,1,131.2,151.5Z" style="fill:#f0a74d"/><path d="M189.1,165.8h0l-12.9-.2a.9.9,0,0,1-.8-.2,2.2,2.2,0,0,1-.7-1.8,10.6,10.6,0,0,1,1.2-4.2.8.8,0,0,1,.5-.5l.7.2c0,.1.4.4,1.3.5a6.7,6.7,0,0,0,2.4-.9.6.6,0,0,1,.7-.1c1.3.5,7.6,3.2,8.5,4a1.5,1.5,0,0,1,.6,1.2,2.8,2.8,0,0,1-1,1.9Zm-12.8-1.7,12.5.2a.9.9,0,0,0,.3-.5h0a76.9,76.9,0,0,0-7.8-3.7,5.4,5.4,0,0,1-3,1l-1.4-.4a11.1,11.1,0,0,0-.7,2.9C176.2,163.9,176.2,164,176.3,164.1Zm0,.1Zm-.3,0Zm.5-4.5h0Z" style="fill:#49194f"/><path d="M133.6,164.7a2.7,2.7,0,0,1-1.3-.3c-.2,0-.3-.2-.4-.3l-5.3-11.8a1.3,1.3,0,0,1-.1-.9,2.2,2.2,0,0,1,1.3-1.4,11.9,11.9,0,0,1,4.3-.7h0a.6.6,0,0,1,.6.3.8.8,0,0,1,.2.7c-.1,0-.2.5.1,1.4a4.3,4.3,0,0,0,1.9,1.7.9.9,0,0,1,.3.7c.1,1.3.3,8.2,0,9.4a2,2,0,0,1-.8,1.1Zm-.5-1.5h.7c.1-.7.1-5.5,0-8.6a4.9,4.9,0,0,1-2.2-2.3,8.9,8.9,0,0,1-.3-1.4,8.2,8.2,0,0,0-2.8.6l-.5.3Zm-1-13.2Z" style="fill:#49194f"/><path d="M177.3,100.8s-16,29.2-17.1,30.7-22.9,20.1-22.9,20.1l-4.2-4.5L152.2,128l8.4-28.7Z" style="fill:#fff"/><path d="M175.1,100.8c-3.9,7.1-6.8,12.8-8.8,16.7-3.6,7.1-4.9,10.1-8.3,14-1.4,1.6-1.7,1.7-9.1,8.1s-13.7,12-13.7,12l1.2-1.1c-1.6-1.6-3.2-3.3-4.7-5L150.1,128l11.2-26.1Z" style="fill:#f0a74d"/><path d="M137.3,152.3l-.5-.2-4.3-4.5a.9.9,0,0,1,0-1l19.1-19,8.3-28.5a.8.8,0,0,1,.7-.5l16.8,1.5a.6.6,0,0,1,.6.4.9.9,0,0,1,0,.7c-.7,1.2-16.1,29.2-17.2,30.7s-20.7,18.3-23,20.2C137.7,152.3,137.5,152.3,137.3,152.3Zm-3.2-5.2,3.3,3.4c8.7-7.4,21.4-18.4,22.2-19.5s11.7-20.8,16.5-29.5l-15-1.4-8.2,28.1c0,.1-.1.2-.2.3Z" style="fill:#49194f"/><path d="M180.4,63.6c-1.7-.3-2.6-.4-3-.9s0-1.2-.6-2.3-1.2-.9-1.4-1.7.7-2.6.9-2.8a5,5,0,0,1,2.3-1.6c.2-.5,1.2-4.1,3.9-5.1l1.4-.4c1.4-.1,1.9.4,3.9.8s1.6.1,2.6.4a4.2,4.2,0,0,1,2.6,2c.5,1,0,1.8.7,2.8s.7.6.7,1-.7.6-.8.6-2.2-1.4-4.1-1.9-5.1,1-5.8,3a9.8,9.8,0,0,0-.2,3.4v1.8a.8.8,0,0,1-.2.6c-.2.2-.6.2-.8.3Z" style="fill:#49194f"/><path d="M176.6,66a26.4,26.4,0,0,0-3.7,1.1c-1.3.6-4.7,2.4-7.5,7.7-5,9-1.2,15-6.2,26.8a28.6,28.6,0,0,1-1.9,3.9,35.3,35.3,0,0,0,18.2,2.1,37.8,37.8,0,0,0,7.2-1.8A99.6,99.6,0,0,1,184.4,91a48.7,48.7,0,0,0,1.3-12.2,33.1,33.1,0,0,0-.5-5.4l-2.7-3.3a3.2,3.2,0,0,1-1.9.8C178.9,70.9,177.1,68.9,176.6,66Z" style="fill:#fff"/><path d="M174.7,66.3a23,23,0,0,0-3.7,1.1c-1.3.6-4.7,2.4-7.6,7.7-4.9,9-1.1,15-6.1,26.8a43.4,43.4,0,0,1-2,3.9,35.7,35.7,0,0,0,18.3,2.1,38.6,38.6,0,0,0,7.1-1.8,117.6,117.6,0,0,1,1.7-14.8,52.4,52.4,0,0,0,1.4-12.2,50.2,50.2,0,0,0-.5-5.4l-2.7-3.3a3.4,3.4,0,0,1-2,.8C176.9,71.2,175.1,69.3,174.7,66.3Z" style="fill:#c7a6cc"/><path d="M170.5,108.7a37.5,37.5,0,0,1-13.5-2.5c-.2,0-.3-.2-.4-.4a.6.6,0,0,1,0-.6,34.9,34.9,0,0,0,1.9-3.9,38.8,38.8,0,0,0,3.1-14.1c.3-4.2.5-8.1,3.1-12.8a17.7,17.7,0,0,1,7.9-7.9,14.6,14.6,0,0,1,3.9-1.2h.6c.2.2.3.3.3.5.4,2.6,1.9,4.2,3.2,4.2s.8-.1,1.5-.6l.5-.2a.5.5,0,0,1,.5.3l2.7,3.4.2.3c.2,1.8.4,3.6.5,5.4a47.8,47.8,0,0,1-1.2,11.4l-.2,1a113.8,113.8,0,0,0-1.7,14.7.8.8,0,0,1-.4.7,38.3,38.3,0,0,1-7.4,1.9A42.4,42.4,0,0,1,170.5,108.7Zm-12.1-3.6a35.5,35.5,0,0,0,17,1.8,39.6,39.6,0,0,0,6.6-1.6,110.9,110.9,0,0,1,1.6-14.5l.2-1a46.6,46.6,0,0,0,1.2-11,44,44,0,0,0-.5-5.1l-2.1-2.6a3.8,3.8,0,0,1-1.8.5c-2.1,0-3.9-1.9-4.5-4.7a11.5,11.5,0,0,0-2.8.9,16.1,16.1,0,0,0-7.3,7.3c-2.4,4.4-2.6,8-2.9,12.2a43,43,0,0,1-3.2,14.6Z" style="fill:#49194f"/><path d="M182,63.6a6.6,6.6,0,0,0,9.1-9.6,6.7,6.7,0,0,0-9.4.2A6.6,6.6,0,0,0,182,63.6Z" style="fill:#fff"/><path d="M186.5,66.1a7,7,0,0,1-5-2h0a7.3,7.3,0,0,1-.3-10.4,7.6,7.6,0,0,1,5.1-2.3,7.9,7.9,0,0,1,5.3,2,7.8,7.8,0,0,1,2.3,5.2,7.7,7.7,0,0,1-2,5.2,7.4,7.4,0,0,1-5.2,2.3Zm-4-3.1a5.4,5.4,0,0,0,4.2,1.6,5.9,5.9,0,0,0,4.1-1.8,6.3,6.3,0,0,0,1.6-4.2,5.9,5.9,0,0,0-1.9-4.1,5.7,5.7,0,0,0-4.1-1.6A5.9,5.9,0,0,0,182.5,63Z" style="fill:#49194f"/><path d="M178.9,61.1a2,2,0,0,0,2.2,1.5,1.9,1.9,0,0,0,1.4-2.2,1.8,1.8,0,0,0-2.1-1.4A1.9,1.9,0,0,0,178.9,61.1Z" style="fill:#fff"/><path d="M181.7,60.2a4.3,4.3,0,0,1-.1-1.6,20.4,20.4,0,0,0,0-3.5,20.6,20.6,0,0,0,4.3-.1,11.3,11.3,0,0,1,3.2-.1,18.9,18.9,0,0,1,2.1.9,3.5,3.5,0,0,0,2.2.4,9,9,0,0,0-5-4.6l-1.8-.4a6.4,6.4,0,0,0-2.3.5,10.9,10.9,0,0,0-5.4,4.3,5.1,5.1,0,0,0-.7,1.7,1.8,1.8,0,0,0,.2,1c.1.2.3.6.6.6h.9l.9.2A2.2,2.2,0,0,1,181.7,60.2Z" style="fill:#49194f"/><path d="M190.1,79.7l1.6-1.1a10.4,10.4,0,0,1,0-1.8,12.1,12.1,0,0,0,.5-1.4,26.6,26.6,0,0,1,.8-3.3.7.7,0,0,1,.7.3,27.2,27.2,0,0,1-.1,3s3.4-5.9,3.7-5.9.8.3.6.7-2.6,4.1-2.4,4.4,4-3.8,4.3-3.8.5.5.4.8-3.6,3.8-3.4,4,3.9-2.6,4.2-2.5a.7.7,0,0,1,.3.9c-.1.2-3.9,2.5-3.8,2.8s3.3-1,3.5-.9a.5.5,0,0,1,0,.8c-.3.2-3.1,1.2-3.4,1.5a10.6,10.6,0,0,1-2.2,1.8c-.6.3-1.7.3-1.9.5l-1.9,2.2Z" style="fill:#fff"/><path d="M191.6,83.5h0a.9.9,0,0,1-.6-.4l-1.6-3a.8.8,0,0,1,.3-1l1.2-.8a8.1,8.1,0,0,1,.1-1.6,3.8,3.8,0,0,1,.3-1l.2-.5s.4-3.2,1-3.7a1.2,1.2,0,0,1,1-.1,1.1,1.1,0,0,1,.9.8.3.3,0,0,1,.1.2c2.2-3.6,2.4-3.6,2.8-3.6a1.3,1.3,0,0,1,1.2.6,1.1,1.1,0,0,1,.1,1.1c0,.1-.1.3-.4.7s1.2-1.1,1.6-1.1a1.4,1.4,0,0,1,1,.6,1.3,1.3,0,0,1,.1,1.2l-.5.6a1,1,0,0,1,.9-.1,1.1,1.1,0,0,1,.7.8,1.1,1.1,0,0,1,0,1.1c-.1.2-.2.3-1,.8h.3a1,1,0,0,1,.6.9,1.7,1.7,0,0,1-.5,1.2l-1.4.6a7.8,7.8,0,0,0-1.8.8,12.1,12.1,0,0,1-2.4,2l-1.4.4H194l-1.8,2.1A.6.6,0,0,1,191.6,83.5Zm-.5-3.5.7,1.4,1.1-1.3c.3-.4.7-.4,1.3-.5l.9-.2,2-1.7c0-.1.1-.1.1-.2h-.1l-.4-.6a.9.9,0,0,1,.1-.5h-.2a1,1,0,0,1-.5-.4.7.7,0,0,1,0-.8l-.6.2-.6-.3c0-.1-.1-.2-.1-.3l-.6.9a.8.8,0,0,1-.9.4.8.8,0,0,1-.4-.4,1.4,1.4,0,0,1-.2.6l-.3.7v1.6c.1.3-.1.5-.3.7Z" style="fill:#49194f"/><path d="M167.6,76.1a14.7,14.7,0,0,0,.6,2.3c2.5,6.7,5,13.7,9.8,14.6,2.1.4,3.8-.5,6.5-2a25,25,0,0,0,8.9-8.4l-2.6-4.2L180.5,86c0-.3-5.5-17.9-10.7-16.4a3.5,3.5,0,0,0-1.9,1.2C166.8,72.2,167.2,74.3,167.6,76.1Z" style="fill:#fff"/><path d="M167.2,78.6c.3,1.3.6,2.2.6,2.3,2.5,6.7,5.1,13.7,9.9,14.6,2.1.4,3.7-.5,6.4-2a24.1,24.1,0,0,0,8.9-8.4l-2.5-4.2-10.4,7.6c0-.3-5.4-17.9-10.7-16.4a3.7,3.7,0,0,0-1.8,1.2C166.5,74.7,166.9,76.8,167.2,78.6Z" style="fill:#c7a6cc"/><path d="M179,93.8h-1.1c-5.2-.9-7.9-8.1-10.4-15a12.6,12.6,0,0,1-.7-2.4h0c-.3-2-.8-4.3.5-6a4.8,4.8,0,0,1,2.3-1.4,3.8,3.8,0,0,1,3.3.8c3.8,2.9,7,11.8,8,15.1l9.5-7h.6l.5.4,2.5,4.1a1.1,1.1,0,0,1,0,.8,25.2,25.2,0,0,1-9.1,8.7C182.5,92.9,180.9,93.8,179,93.8Zm-8.6-23.5H170a3.2,3.2,0,0,0-1.5.9c-.9,1.2-.5,3.1-.2,4.8h0c.3,1.2.6,2.1.6,2.1,2.4,6.6,4.9,13.4,9.3,14.2,1.8.3,3.4-.5,5.9-1.9a24,24,0,0,0,8.4-7.8l-1.9-3.1L181,86.7h-.8a.5.5,0,0,1-.4-.5c-.2-1-4.2-13.1-8.2-15.6A2.7,2.7,0,0,0,170.4,70.3Z" style="fill:#49194f"/><path d="M188.7,57c0,.3.4.5.7.4a.8.8,0,0,0,.5-.7.8.8,0,0,0-.8-.5A.6.6,0,0,0,188.7,57Z" style="fill:#49194f"/><path d="M184.3,58.3a.5.5,0,0,0,.7.5.6.6,0,0,0,.4-.8c0-.3-.4-.5-.7-.4A.6.6,0,0,0,184.3,58.3Z" style="fill:#49194f"/><path d="M188,60.6c-.1,0-.3,0-.3-.1a.5.5,0,0,1,.1-.6l.7-.5h0a4.7,4.7,0,0,0-1-1c-.1-.2-.2-.4,0-.6h.5a6.3,6.3,0,0,1,1.1,1.2h.1a.6.6,0,0,1-.2.8,2.7,2.7,0,0,1-.8.7Zm.5-1.2Z" style="fill:#49194f"/><path d="M185.6,61.5c.1-.1.3-.3.5-.2l.6.2h.5a.4.4,0,0,1,0,.8,6.1,6.1,0,0,1-1.3-.3A.5.5,0,0,1,185.6,61.5Z" style="fill:#49194f"/><g style="opacity:0.49"><path d="M186.1,59.6c0-.3-1-.6-1.7-.2s-.7.6-.6.9.8.3,1.3.1S186.2,59.9,186.1,59.6Z" style="fill:#c7a6cc"/></g><g style="opacity:0.49"><path d="M191.7,57.7c0-.3-1-.6-1.7-.2s-.7.6-.6.8.8.4,1.3.2S191.8,58,191.7,57.7Z" style="fill:#c7a6cc"/></g></svg>