<svg id="_1" data-name="1" xmlns="http://www.w3.org/2000/svg" width="286.4" height="173.2" viewBox="0 0 286.4 173.2"><title>Artboard 15</title><rect x="-31.2" y="-473" width="1000" height="950" style="fill:#fff"/><path d="M204.5,146l9.8,3-3.8-14,9.4,10.1a41.2,41.2,0,0,1,9.9-18.5,23.7,23.7,0,0,0,2.1,14.8c2.9-4.4,5.7-8.9,9.4-12.6a25.4,25.4,0,0,1,13.7-7.4,39.6,39.6,0,0,0-6.2,20.2,56.5,56.5,0,0,1,17.5-5.4,19.7,19.7,0,0,0-5.3,11.6,74.3,74.3,0,0,1,21.4-4L271,157.3a6.8,6.8,0,0,1-2,1.8,5.9,5.9,0,0,1-2.6.7,260.1,260.1,0,0,1-42.3,2.1c-1.8-.1-3.9-.2-5.4-1.4s-1.2-2.2-1.5-3.6-2.3-2.2-3.4-3a33.8,33.8,0,0,1-4.7-3.5l-2.4-2.1-1.1-1.2C205.3,146.9,204.8,146.1,204.5,146Z" style="fill:#fff"/><path d="M204.5,149.9l9.8,3.1c-1.3-4.7-2.5-9.4-3.8-14l9.4,10.1a42,42,0,0,1,9.9-18.6,23.6,23.6,0,0,0,2.1,14.8c2.9-4.4,5.7-8.8,9.4-12.5s8.5-6.7,13.7-7.4a39.3,39.3,0,0,0-6.2,20.2,53.9,53.9,0,0,1,17.5-5.4,19.7,19.7,0,0,0-5.3,11.6,71.1,71.1,0,0,1,21.4-4L271,161.2a9,9,0,0,1-2,1.9,11.1,11.1,0,0,1-2.6.7,260.1,260.1,0,0,1-42.3,2c-1.8,0-3.9-.1-5.4-1.3s-1.2-2.3-1.5-3.7-2.3-2.1-3.4-2.9a34.3,34.3,0,0,1-4.7-3.6l-2.4-2.1-1.1-1.1C205.3,150.8,204.8,150,204.5,149.9Z" style="fill:#c7a6cc"/><path d="M232.6,162.8l-8.5-.2c-1.9,0-4.2-.1-5.9-1.5a5.1,5.1,0,0,1-1.6-3.3c0-.3-.1-.5-.1-.8s-1.3-1.3-2.2-1.9l-1-.5-4.7-3.6a26.1,26.1,0,0,1-2.4-2.2l-1.2-1.1-.3-.5c-.2-.1-.4-.5-.5-.5h0l.5-1.4,8.5,2.6L209,132.3l10.5,11.3a42.6,42.6,0,0,1,9.7-17.5l1.8-1.9-.5,2.5a22.6,22.6,0,0,0,1.5,13.1,65,65,0,0,1,8.8-11.5c3-3,7.9-6.8,14.1-7.6l1.7-.2-.9,1.4a37,37,0,0,0-6.1,18.5,53,53,0,0,1,16.6-4.9l2.1-.3-1.5,1.5a19.3,19.3,0,0,0-4.9,10,74.8,74.8,0,0,1,20.5-3.6H284l-12.4,14.7a7.3,7.3,0,0,1-2.2,2.1,8.7,8.7,0,0,1-2.9.7A256.3,256.3,0,0,1,232.6,162.8Zm-25.5-15.2h.1l2.3,2.1a52,52,0,0,0,4.7,3.5,1.9,1.9,0,0,0,.9.5c1.1.7,2.5,1.5,2.8,2.9s.1.6.2.8a3.4,3.4,0,0,0,1.1,2.4c1.3,1.1,3.3,1.2,4.9,1.2a258.9,258.9,0,0,0,42.2-2,9.4,9.4,0,0,0,2.4-.6,9.6,9.6,0,0,0,1.8-1.7l10.2-12.1a76.5,76.5,0,0,0-19.5,3.8l-1.1.4v-1.1a21.1,21.1,0,0,1,4.2-10.5,51.2,51.2,0,0,0-15.2,5l-1.1.6v-1.3a39,39,0,0,1,5.4-19.1c-5,1.1-9.1,4.3-11.6,6.8s-6.6,8.2-9.3,12.5l-.7,1.1-.6-1.2a24.6,24.6,0,0,1-2.6-12.8,40.7,40.7,0,0,0-8.1,16.4l-.3,1.3-8.3-8.9,3.3,12.4Z" style="fill:#49194f"/><path d="M9.3,149.8C6,146.3,2.2,143.1.7,138.6c8,1,11.4,12.3,19.4,13.4L5.7,122.9c12,5.5,15.3,22.3,27.1,28.5-1.1-6.7-2.1-13.5-3.2-20.2,2.3-1.2,4.1,2.3,4.7,4.7A25.7,25.7,0,0,0,47.4,152c-.6-2.2-1.1-4.6-.4-6.7s3.4-3.8,5.4-2.7l1.5,11.3c6.5-3.6,12.9-7.2,19.4-11,2.6,1,1.3,5-.7,7s-4.2,5.2-2.2,7.1a35.3,35.3,0,0,1,22.8-4c.7,2.9-3.2,4.5-6.1,5-12.4,1.7-24.8,3.5-37.2,3.2-7.2-.2-14.3-1-21.4-.8a63.6,63.6,0,0,0-10.7,1.1c-3,.6-2.9-.3-3.3-3S11.6,152.3,9.3,149.8Z" style="fill:#fff"/><path d="M8.9,154.1c-3.3-3.4-7-6.7-8.5-11.2,7.9,1.1,11.4,12.4,19.3,13.5L5.3,127.3c12.1,5.5,15.4,22.3,27.1,28.4-1-6.7-2.1-13.4-3.2-20.1,2.3-1.2,4.1,2.2,4.8,4.7a25.5,25.5,0,0,0,13,16.1c-.6-2.3-1.1-4.6-.3-6.8s3.3-3.7,5.3-2.7l1.5,11.4,19.4-11c2.7.9,1.3,5-.6,7s-4.3,5.1-2.3,7.1a35.6,35.6,0,0,1,22.8-4.1c.7,2.9-3.1,4.6-6.1,5-12.3,1.8-24.8,3.5-37.2,3.2-7.2-.1-14.3-.9-21.4-.8a64.9,64.9,0,0,0-10.7,1.2c-3,.6-2.9-.4-3.3-3S11.2,156.6,8.9,154.1Z" style="fill:#f0a74d"/><path d="M16.4,162.5a2.6,2.6,0,0,1-1.4-.4c-.8-.6-1-1.6-1.2-2.9v-.6c-.5-3.2-2.7-5.9-5-8.3h0l-1.6-1.7c-2.8-2.9-5.8-5.9-7.1-9.8a1,1,0,0,1,.2-.7.7.7,0,0,1,.6-.3c4.3.6,7.3,3.8,10.2,7s4.8,5.1,7.7,6.1L5,123.3a.9.9,0,0,1,.1-.9,1,1,0,0,1,.9-.2c6.4,3,10.4,8.9,14.2,14.7s6.8,10,11.6,13.1l-2.9-18.7a.7.7,0,0,1,.4-.8,2.4,2.4,0,0,1,2.3,0c1.7.7,2.9,3.2,3.5,5.3a24.3,24.3,0,0,0,11.2,14.7,10.3,10.3,0,0,1,0-5.5,5.6,5.6,0,0,1,3.2-3.2,4.2,4.2,0,0,1,3.3.1.9.9,0,0,1,.3.6l1.4,10.2,18.4-10.4h.6a2.9,2.9,0,0,1,1.9,2.1c.5,2-.8,4.7-2.2,6.1s-3.6,3.9-2.6,5.7a35.9,35.9,0,0,1,22.7-3.9c.3.1.6.3.6.6a3.2,3.2,0,0,1-.5,2.8c-1.2,1.8-4,2.8-6.2,3.1-12.2,1.7-24.8,3.5-37.4,3.2-2.9,0-5.8-.2-8.6-.4s-8.5-.5-12.7-.4A61.4,61.4,0,0,0,18,162.3ZM9.8,149.3c2.4,2.5,4.8,5.4,5.4,9.1v.5a4,4,0,0,0,.5,1.9c.3.2.9.2,1.9,0a64.9,64.9,0,0,1,10.8-1.2c4.2-.1,8.6.2,12.8.4s5.7.4,8.6.4c12.4.3,25-1.5,37.1-3.2,1.9-.3,4.3-1.1,5.2-2.4a2.8,2.8,0,0,0,.4-1.2,34.8,34.8,0,0,0-21.9,4.1.8.8,0,0,1-.9-.1c-1.8-1.9-1-4.9,2.3-8.2,1.3-1.3,2.2-3.5,1.9-4.7a1.3,1.3,0,0,0-.7-.9c-6.3,3.6-12.7,7.3-19.1,10.8h-.7a.9.9,0,0,1-.4-.6l-1.4-10.9a2.5,2.5,0,0,0-1.7.1,4.3,4.3,0,0,0-2.3,2.3c-.7,2-.1,4.4.4,6.3a.7.7,0,0,1-.3.8.8.8,0,0,1-.8.1,26.5,26.5,0,0,1-13.4-16.6c-.4-1.7-1.4-3.8-2.6-4.3h-.5l3,19.6a.6.6,0,0,1-.3.7.6.6,0,0,1-.8,0c-5.9-3-9.7-8.8-13.4-14.3s-6.8-10.1-11.6-13l13.4,27a.6.6,0,0,1-.1.7c-.2.3-.4.4-.7.3-4.2-.5-7.2-3.8-10.1-6.9S5,140.5,2,139.6c1.3,3,3.8,5.5,6.2,8l1.6,1.7Z" style="fill:#49194f"/><path d="M159,141.4l-23.5,17L48.5,38.1l11.9-8.5,11.7-8.5Z" style="fill:#fff"/><path d="M156.4,145l-22.5,16.3L47,41.1l11.3-8.2,11.2-8.1Q112.9,85,156.4,145Z" style="fill:#c7a6cc"/><path d="M135.3,159.4,47.5,38,72.2,20.1,160,141.5ZM49.6,38.3l86,119,22.3-16.1-86-119Z" style="fill:#49194f"/><path d="M72.1,21.2c1.8,2.4-2.1,8.2-8.6,12.9s-13.2,6.5-14.9,4.1,2-8.3,8.5-13S70.3,18.7,72.1,21.2Z" style="fill:#fff"/><path d="M68.6,23.6c1.8,2.5-2,8.3-8.5,13s-13.2,6.5-15,4.1,2.1-8.3,8.6-13S66.9,21.2,68.6,23.6Z" style="fill:#f0a74d"/><path d="M51.4,40a4.2,4.2,0,0,1-3.5-1.4c-1-1.5-.6-3.8,1.2-6.5a31.9,31.9,0,0,1,7.6-7.5,31.5,31.5,0,0,1,9.5-4.8c3.1-.9,5.4-.5,6.5.9h0c1,1.5.6,3.8-1.2,6.5A29.6,29.6,0,0,1,64,34.7C59.2,38.1,54.6,40,51.4,40ZM69.3,20.8a9.3,9.3,0,0,0-2.7.4,31.2,31.2,0,0,0-9.1,4.6,29.8,29.8,0,0,0-7.1,7.1c-1.4,2.1-1.9,3.9-1.2,4.8s7.3.5,13.9-4.2a30.4,30.4,0,0,0,7.2-7.1c1.4-2.1,1.8-3.9,1.2-4.8h0A2.8,2.8,0,0,0,69.3,20.8Z" style="fill:#49194f"/><path d="M56,35a2.1,2.1,0,0,1-1.9-.8c-1.3-1.8,1.1-5,4.2-7.3s7-3.6,8.3-1.8h0c1.3,1.8-1.2,5-4.3,7.3S57.8,35,56,35Zm8.6-9.2a10.8,10.8,0,0,0-5.4,2.3c-3.2,2.4-4.3,4.7-3.9,5.2s2.9.2,6.1-2.1,4.3-4.7,4-5.2Z" style="fill:#49194f"/><rect x="1.7" y="158.7" width="284.7" height="14.52" style="fill:#49194f"/><rect x="137" y="79.5" width="8.1" height="60.1" transform="translate(41.9 -39) rotate(18.4)" style="fill:#fff"/><rect x="135.4" y="79" width="8.1" height="60.1" transform="translate(41.6 -38.5) rotate(18.4)" style="fill:#c7a6cc"/><path d="M135.9,140.3l-9.1-3,19.5-58.4,9.1,3Zm-7.2-3.9,6.2,2,18.6-55.6-6.3-2Z" style="fill:#49194f"/><ellipse cx="162.8" cy="44.4" rx="41.8" ry="30.8" transform="translate(69.2 184.8) rotate(-71.6)" style="fill:#fff"/><ellipse cx="162.2" cy="40.9" rx="41.8" ry="30.8" transform="translate(72.2 181.9) rotate(-71.6)" style="fill:#c7a6cc"/><path d="M157,86.1a25.4,25.4,0,0,1-7.7-1.3c-8-2.7-14.1-9.4-17.2-19s-2.8-20.6.8-31.4C140.3,12.2,159.8-1.5,176.3,4s23.8,28.1,16.4,50.4c-3.6,10.7-10,19.8-18.2,25.6C168.8,84,162.8,86.1,157,86.1ZM168.7,4.3c-13.9,0-28.3,12.3-34.4,30.6-3.5,10.5-3.8,21.3-.8,30.5s8.7,15.5,16.3,18,16,.9,23.9-4.6,14.1-14.4,17.6-24.9h0c7.1-21.5.2-43.2-15.5-48.5A24.5,24.5,0,0,0,168.7,4.3Z" style="fill:#49194f"/><ellipse cx="162.8" cy="44.4" rx="35.6" ry="26.2" transform="translate(69.2 184.8) rotate(-71.6)" style="fill:#fff"/><path d="M157.8,80a20.6,20.6,0,0,1-6.5-1.1c-14.1-4.7-20.4-24-14.1-43,3.1-9.2,8.6-16.9,15.5-21.8s14.7-6.5,21.6-4.2c14.1,4.7,20.4,24,14.1,43l-.7-.2.7.2c-3.1,9.2-8.6,17-15.6,21.9A26.2,26.2,0,0,1,157.8,80Zm10-69.6a24.4,24.4,0,0,0-14.2,4.9c-6.7,4.7-12,12.2-15,21.1-6,18.2-.2,36.7,13.2,41.1,6.4,2.1,13.6.7,20.2-3.9s12-12.3,14.9-21.1c6.1-18.3.2-36.7-13.1-41.2A20.3,20.3,0,0,0,167.8,10.4Z" style="fill:#49194f"/><rect x="132.5" y="23.8" width="46.2" height="1.5" transform="translate(16.6 98.7) rotate(-37.1)" style="fill:#49194f"/><rect x="130.1" y="30.9" width="56.6" height="1.5" transform="translate(11.8 99.4) rotate(-36.1)" style="fill:#49194f"/><rect x="130.1" y="38.6" width="61.9" height="1.5" transform="translate(7.7 102.4) rotate(-36.1)" style="fill:#49194f"/><path d="M138.6,65.5l-.9-1.2c7.6-5.6,16.7-12,25.4-18.2L188.5,28l.9,1.2c-7.6,5.6-16.7,12-25.4,18.2S146.2,59.9,138.6,65.5Z" style="fill:#49194f"/><rect x="136.9" y="54" width="58.9" height="1.5" transform="translate(-0.3 108.5) rotate(-36.1)" style="fill:#49194f"/><rect x="143.7" y="61.6" width="49.9" height="1.5" transform="translate(-4.8 109.8) rotate(-35.6)" style="fill:#49194f"/><rect x="155.4" y="69.4" width="31.4" height="1.5" transform="matrix(0.82, -0.58, 0.58, 0.82, -9.1, 111.64)" style="fill:#49194f"/><rect x="144" y="39.7" width="1.5" height="40.63" transform="translate(-11.9 63.7) rotate(-23.9)" style="fill:#49194f"/><path d="M159.5,79.3c-5.9-15.5-13.2-34.8-19-50.4l1.4-.5c5.8,15.5,13.1,34.8,19,50.4Z" style="fill:#49194f"/><rect x="157.6" y="17.6" width="1.5" height="60.64" transform="translate(-6.7 59) rotate(-20.7)" style="fill:#49194f"/><path d="M175.6,71.3c-3.3-8.9-6.9-18.8-10.4-28.4s-7.3-20.2-10.7-29.3l1.4-.5c3.4,9.1,7.1,19.4,10.7,29.3L177,70.7Z" style="fill:#49194f"/><path d="M182.8,62.1,163.7,11.6l-.5-1.4,1.4-.5.5,1.3c6.1,16.3,12.8,33.9,19.1,50.6Z" style="fill:#49194f"/><path d="M187.8,50.1c-3.4-9.4-5.3-14.5-7.2-19.6l-7.3-19.6,1.5-.5L182,30c1.9,5.1,3.8,10.2,7.2,19.6Z" style="fill:#49194f"/><rect x="135.4" y="89.9" width="8.1" height="60.1" transform="translate(184.4 -58.4) rotate(63.4)" style="fill:#fff"/><rect x="134.7" y="88.5" width="8.1" height="60.1" transform="translate(182.7 -58.6) rotate(63.4)" style="fill:#c7a6cc"/><path d="M114.1,138.1l-4.3-8.6,55.1-27.6,4.3,8.6Zm-2.3-8,2.9,5.9,52.5-26.2-3-5.9Z" style="fill:#49194f"/><ellipse cx="200.9" cy="89.3" rx="41.8" ry="30.8" transform="translate(-18.7 99.3) rotate(-26.6)" style="fill:#fff"/><ellipse cx="203" cy="86.4" rx="41.8" ry="30.8" transform="translate(-17.2 99.9) rotate(-26.6)" style="fill:#c7a6cc"/><path d="M191.4,123.3a43.2,43.2,0,0,1-7.3-.6c-9.9-1.7-17.5-6.8-21.3-14.4-7.7-15.5,3-36.7,24-47.2,10.2-5.1,21.2-7,31-5.3s17.4,6.8,21.2,14.4,3.4,16.7-1.2,25.6-12.6,16.6-22.8,21.7A54,54,0,0,1,191.4,123.3Zm19.1-66.6a52.4,52.4,0,0,0-23,5.7c-20.3,10.1-30.7,30.4-23.3,45.2,3.5,7.2,10.7,12,20.1,13.6s20.2-.2,30.1-5.1,17.7-12.4,22.1-21,4.7-17.1,1.2-24.2-10.7-12-20.2-13.6A40.5,40.5,0,0,0,210.5,56.7Z" style="fill:#49194f"/><ellipse cx="200.9" cy="89.3" rx="35.6" ry="26.2" transform="translate(-18.7 99.3) rotate(-26.6)" style="fill:#fff"/><path d="M192.8,118.3c-10.9,0-20.2-4.5-24.4-12.8-3.2-6.5-2.9-14.2,1-21.9s10.8-14.1,19.5-18.5c17.9-8.9,37.9-5.4,44.6,7.9s-2.6,31.4-20.5,40.4h0A46.1,46.1,0,0,1,192.8,118.3Zm16.3-56.6a44.1,44.1,0,0,0-19.6,4.8c-8.3,4.2-15,10.5-18.7,17.8s-4.1,14.5-1.1,20.5c6.3,12.6,25.4,15.8,42.6,7.2h0c17.2-8.6,26.1-25.8,19.8-38.3C228.2,65.9,219.4,61.7,209.1,61.7Z" style="fill:#49194f"/><rect x="209.2" y="47" width="1.5" height="46.23" transform="translate(111.4 268.3) rotate(-82)" style="fill:#49194f"/><rect x="206.1" y="48.8" width="1.5" height="56.63" transform="translate(98.6 269.6) rotate(-81.1)" style="fill:#49194f"/><rect x="202.6" y="53.5" width="1.5" height="61.89" transform="translate(88.4 272.2) rotate(-81.1)" style="fill:#49194f"/><path d="M230.5,97.3l-30.8-5.1c-10.6-1.8-21.5-3.7-30.8-5.1l.2-1.5c9.4,1.4,20.3,3.3,30.9,5.1s21.4,3.7,30.7,5.1Z" style="fill:#49194f"/><rect x="195.4" y="69.6" width="1.5" height="58.87" transform="translate(67.9 277.4) rotate(-81.1)" style="fill:#49194f"/><rect x="191.7" y="81.1" width="1.5" height="49.95" transform="translate(56.3 278.6) rotate(-80.6)" style="fill:#49194f"/><rect x="187.9" y="97.6" width="1.5" height="31.42" transform="translate(45 280.1) rotate(-80.3)" style="fill:#49194f"/><rect x="156.8" y="86.8" width="40.6" height="1.5" transform="translate(31.6 221.2) rotate(-68.9)" style="fill:#49194f"/><path d="M175.3,112.2l-1.4-.6c6.9-15.1,15.4-33.9,22.2-49.1l1.4.6Z" style="fill:#49194f"/><path d="M183.6,116.5l-1.4-.6c7.6-16.9,16.8-37.3,25-55.3l1.3.6Z" style="fill:#49194f"/><path d="M192.3,117.9l-1.3-.6c3.9-8.7,8.4-18.2,12.7-27.4s9.1-19.4,13.2-28.3l1.3.6c-4,8.9-8.6,18.8-13.1,28.3Z" style="fill:#49194f"/><path d="M203.9,116.5l-1.3-.6L225.1,66l.3-.6,1.4.6-.3.7Z" style="fill:#49194f"/><path d="M216,111.6l-1.4-.7c4.2-9,6.5-13.9,8.7-18.9l8.8-19,1.4.6-8.8,19C222.4,97.6,220.2,102.6,216,111.6Z" style="fill:#49194f"/><circle cx="101.9" cy="117.7" r="42.9" transform="translate(-30.2 200.1) rotate(-81.1)" style="fill:#fff"/><circle cx="99.2" cy="121.2" r="42.9" style="fill:#f0a74d"/><path d="M101.9,161.4a43.7,43.7,0,1,1,43.7-43.7A43.7,43.7,0,0,1,101.9,161.4Zm0-85.9a42.2,42.2,0,1,0,42.2,42.2A42.3,42.3,0,0,0,101.9,75.5Z" style="fill:#49194f"/><path d="M65.8,141.5l-.3-1.5c29.3-4.7,47.4-16.7,57.4-25.9s14.9-19,14.9-19.1l1.4.6c-.2.4-4.1,9.3-15.2,19.5S95.5,136.7,65.8,141.5Z" style="fill:#49194f"/><path d="M61.8,133.5l-.3-1.5a109.6,109.6,0,0,0,43.9-16.6,110.6,110.6,0,0,0,27.9-26.7l1.2.8a107.2,107.2,0,0,1-28.3,27.1A110.8,110.8,0,0,1,61.8,133.5Z" style="fill:#49194f"/><path d="M78.6,88.3c-1.5,1.4-2.2,3.2-1.5,3.8s2.3,0,3.8-1.5,2.2-3.2,1.5-3.9S80.1,86.8,78.6,88.3Z" style="fill:#fff"/><path d="M78.6,91.8a2.1,2.1,0,0,1-1.3-.5c-.3-.3-.7-1-.2-2.4a9.8,9.8,0,0,1,1.8-2.5c1.6-1.6,3.8-2.6,4.9-1.5s.1,3.3-1.5,4.9S79.7,91.8,78.6,91.8Zm4-5.9a4.9,4.9,0,0,0-2.7,1.5c-1.3,1.4-1.6,2.6-1.5,2.8s1.5-.1,2.8-1.5,1.7-2.6,1.5-2.8Z" style="fill:#49194f"/><path d="M134.3,124.7s-7.4,6.6-8,15a79.7,79.7,0,0,0,.8,16.1l70.6-.5s3.2-8.7-2.8-12S154,127.5,154,127.5,145.7,134.9,134.3,124.7Z" style="fill:#fff"/><path d="M187.1,137.7c-12.6-5.1-30-11.7-30-11.7s-8.5,7.9-20.2-3c0,0-7.6,7-8.2,16a90.7,90.7,0,0,0,.8,17.2l53.6-.2C180.7,149.9,182.8,142.3,187.1,137.7Z" style="fill:#c7a6cc"/><path d="M126.4,156.6v-.7a77.7,77.7,0,0,1-.7-16.2c.5-8.7,7.9-15.3,8.2-15.5l.5-.5.5.5c4.5,4,9.2,5.7,13.5,5a11.4,11.4,0,0,0,5.2-2.3l.4-.3.4.2c1.4.5,35,12.6,41,15.8,2.7,1.5,4.1,4.3,4,8a13.4,13.4,0,0,1-.9,5v.5Zm7.9-30.9c-1.6,1.6-6.8,7.2-7.2,14.1a74.6,74.6,0,0,0,.6,15.3l69.5-.5c.5-1.8,1.9-8.1-2.6-10.7s-36.6-14.2-40.4-15.6C152.4,129.6,144.5,134.4,134.3,125.7Z" style="fill:#49194f"/><polygon points="197.7 155.3 198 160.2 126.9 161.1 127.1 155.8 197.7 155.3" style="fill:#fff"/><polygon points="200.4 156.6 200.6 161.4 126.9 162.4 127.1 157.2 200.4 156.6" style="fill:#f0a74d"/><path d="M126.1,161.8l.2-6.7,72.1-.5.3,6.3Zm1.7-5.2v3.7l69.5-.8-.2-3.4Z" style="fill:#49194f"/><path d="M178.3,144.9c.6-2.7,2-5.6,4.7-6.8,1-.4,1.5,1.2.5,1.6s-3.3,4-3.7,6.3a36.6,36.6,0,0,0,0,8.1.9.9,0,0,1-1.7.1A36.1,36.1,0,0,1,178.3,144.9Z" style="fill:#49194f"/><path d="M129.6,130.9a23.9,23.9,0,0,1,9.8,23.7.8.8,0,0,1-1.6-.4,22.1,22.1,0,0,0-9-21.8C127.9,131.8,128.7,130.3,129.6,130.9Z" style="fill:#49194f"/><path d="M167.6,132.9a.8.8,0,0,1,1.2-.1.9.9,0,0,1,0,1.2,11.6,11.6,0,0,0-2.5,7.6.9.9,0,0,1-1.7.1A13.4,13.4,0,0,1,167.6,132.9Z" style="fill:#49194f"/><path d="M163.1,131.5c.8-.8,2,.4,1.3,1.1a9.3,9.3,0,0,0-2.9,7.4.9.9,0,0,1-1.7,0A11.3,11.3,0,0,1,163.1,131.5Z" style="fill:#49194f"/><path d="M162.2,122.7c.5-1.6.9-3.5.2-5.1s-3.5-2.8-5.7-3.1-3.9-.3-5.5.7a6.2,6.2,0,0,0-2,2.5,18.4,18.4,0,0,0-1.7,9.3c.1,1.7.3,3.6,1.7,4.5a4,4,0,0,0,3,.5,9.3,9.3,0,0,0,5.3-2.4,23.7,23.7,0,0,0,3.3-3.8A17.3,17.3,0,0,0,162.2,122.7Z" style="fill:#fff"/><path d="M164,123.4c.5-1.7,1-3.6.2-5.2s-3.5-2.7-5.7-3-3.9-.4-5.4.7a6.9,6.9,0,0,0-2.1,2.4,19,19,0,0,0-1.7,9.4c.1,1.6.3,3.5,1.7,4.5a4.5,4.5,0,0,0,3,.5,8.8,8.8,0,0,0,5.3-2.5,15.1,15.1,0,0,0,3.3-3.8A16.4,16.4,0,0,0,164,123.4Z" style="fill:#c7a6cc"/><path d="M151.4,132.8a4.2,4.2,0,0,1-2.6-.7c-1.7-1.1-2-3.3-2-5.1s0-6.4,1.7-9.7a7.8,7.8,0,0,1,2.3-2.7c1.8-1.2,4-1.1,6-.8s5.3,1.6,6.2,3.5.4,4.1-.1,5.7a17.9,17.9,0,0,1-1.5,3.1,16,16,0,0,1-3.1,3.7l-.3.3a10.2,10.2,0,0,1-5.7,2.7Zm3.2-17.7a5.4,5.4,0,0,0-2.9.7,5.8,5.8,0,0,0-1.8,2.2c-1.6,3-1.7,6.6-1.6,9s.2,3.1,1.3,3.9a3.8,3.8,0,0,0,2.5.4A8.3,8.3,0,0,0,157,129l.3-.3a17.5,17.5,0,0,0,2.8-3.3,15.7,15.7,0,0,0,1.3-2.9h0c.5-1.4,1-3.2.3-4.6s-2.4-2.2-5.1-2.6Z" style="fill:#49194f"/><path d="M159.3,128.6c1-.8,2,.8,1,1.6a13.1,13.1,0,0,0-4.3,8.2.8.8,0,1,1-1.6-.2A15.4,15.4,0,0,1,159.3,128.6Z" style="fill:#49194f"/><circle cx="237.7" cy="148.5" r="13.6" transform="translate(-27.5 239.1) rotate(-50.9)" style="fill:#fff"/><circle cx="235.3" cy="149" r="13.6" transform="translate(-39.6 193.6) rotate(-41.6)" style="fill:#f0a74d"/><path d="M237.7,162.9a14.4,14.4,0,1,1,14.4-14.4A14.4,14.4,0,0,1,237.7,162.9Zm0-27.3a12.9,12.9,0,1,0,12.9,12.9A12.9,12.9,0,0,0,237.7,135.6Z" style="fill:#49194f"/><path d="M231.3,160.9l-.9-1.2c11-7.8,13.5-22.9,13.5-23.1l1.5.3C245.3,137.5,242.8,152.8,231.3,160.9Z" style="fill:#49194f"/><path d="M244.6,158.1c-5,0-9.1-1.4-12.2-4.1-6-5.3-6.2-13.6-6.2-14a.8.8,0,0,1,.8-.7h0a.7.7,0,0,1,.7.7c0,.1.2,8.1,5.7,12.9,3.5,3.1,8.5,4.2,14.8,3.5.4-.1.7.2.8.6a.9.9,0,0,1-.7.9Z" style="fill:#49194f"/><rect x="46" y="146.1" width="51.5" height="9.61" transform="translate(115.8 312) rotate(-169.9)" style="fill:#fff"/><rect x="47.1" y="148.3" width="51.5" height="9.61" transform="translate(117.7 316.7) rotate(-169.9)" style="fill:#c7a6cc"/><path d="M96.8,161l-52.1-9.3,1.9-10.9,52.2,9.3ZM46.4,150.5l49.2,8.8,1.4-8-49.2-8.8Z" style="fill:#49194f"/><path d="M84.1,153.1a11.4,11.4,0,1,1,9.2,13.2A11.4,11.4,0,0,1,84.1,153.1Z" style="fill:#fff"/><path d="M59.3,148.7a11.4,11.4,0,1,0-13.2,9.2A11.4,11.4,0,0,0,59.3,148.7Z" style="fill:#fff"/><path d="M85.5,155.4a11.4,11.4,0,1,1,9.2,13.2A11.4,11.4,0,0,1,85.5,155.4Z" style="fill:#c7a6cc"/><circle cx="46.6" cy="144.8" r="11.4" transform="translate(-104.2 164.7) rotate(-79.6)" style="fill:#c7a6cc"/><path d="M95.4,167.2a8.2,8.2,0,0,1-2.2-.2,12,12,0,0,1-9.8-14h0a12.1,12.1,0,0,1,14.1-9.8,11.7,11.7,0,0,1,7.8,5,11.5,11.5,0,0,1,2,9,12.7,12.7,0,0,1-5,7.9A12.4,12.4,0,0,1,95.4,167.2Zm-10.5-14a10.7,10.7,0,0,0,8.6,12.4,10.5,10.5,0,0,0,7.9-1.8,10.2,10.2,0,0,0,4.4-6.8,10.7,10.7,0,0,0-1.7-8,11,11,0,0,0-6.9-4.4,10.7,10.7,0,0,0-12.3,8.6Z" style="fill:#49194f"/><path d="M48.1,158.8l-2.2-.2a12.3,12.3,0,0,1-9.8-14.1A12.1,12.1,0,0,1,60,148.8h0A12.1,12.1,0,0,1,48.1,158.8Zm0-22.8a10.7,10.7,0,0,0-10.5,8.8,10.7,10.7,0,0,0,21,3.7,10.7,10.7,0,0,0-8.7-12.3Z" style="fill:#49194f"/></svg>